G04 #@! TF.GenerationSoftware,KiCad,Pcbnew,(5.1.2-1)-1*
G04 #@! TF.CreationDate,2019-11-25T00:11:11+01:00*
G04 #@! TF.ProjectId,CCLoad,43434c6f-6164-42e6-9b69-6361645f7063,rev?*
G04 #@! TF.SameCoordinates,Original*
G04 #@! TF.FileFunction,Legend,Top*
G04 #@! TF.FilePolarity,Positive*
%FSLAX46Y46*%
G04 Gerber Fmt 4.6, Leading zero omitted, Abs format (unit mm)*
G04 Created by KiCad (PCBNEW (5.1.2-1)-1) date 2019-11-25 00:11:11*
%MOMM*%
%LPD*%
G04 APERTURE LIST*
%ADD10C,0.120000*%
%ADD11C,0.150000*%
G04 APERTURE END LIST*
D10*
X157640000Y-121490001D02*
X157640000Y-119390001D01*
X157280000Y-121490001D02*
X157640000Y-121490001D01*
X157280000Y-123590000D02*
X157280000Y-121490001D01*
X157640000Y-123590000D02*
X157280000Y-123590000D01*
X157640000Y-125690000D02*
X157640000Y-123590000D01*
X147440000Y-125689999D02*
X157640000Y-125690000D01*
X147440000Y-119390000D02*
X147440000Y-125689999D01*
X157640000Y-119390001D02*
X147440000Y-119390000D01*
X129120000Y-106581000D02*
X129120000Y-96540000D01*
X141360000Y-98190000D02*
X141360000Y-96540000D01*
X141360000Y-100689000D02*
X141360000Y-99930000D01*
X141360000Y-103189000D02*
X141360000Y-102430000D01*
X141360000Y-106581000D02*
X141360000Y-104931000D01*
X133056000Y-96540000D02*
X129120000Y-96540000D01*
X141360000Y-96540000D02*
X137423000Y-96540000D01*
X133056000Y-106581000D02*
X129120000Y-106581000D01*
X141360000Y-106581000D02*
X137423000Y-106581000D01*
X166430000Y-79696000D02*
X166430000Y-81026000D01*
X165100000Y-79696000D02*
X166430000Y-79696000D01*
X163830000Y-79696000D02*
X163830000Y-82356000D01*
X163830000Y-82356000D02*
X161230000Y-82356000D01*
X163830000Y-79696000D02*
X161230000Y-79696000D01*
X161230000Y-79696000D02*
X161230000Y-82356000D01*
X157645000Y-78596000D02*
X157645000Y-77996000D01*
X156045000Y-78596000D02*
X157645000Y-78596000D01*
X156045000Y-77996000D02*
X156045000Y-78596000D01*
X155105000Y-78596000D02*
X155105000Y-77996000D01*
X153505000Y-78596000D02*
X155105000Y-78596000D01*
X153505000Y-77996000D02*
X153505000Y-78596000D01*
X156595000Y-84016000D02*
X156595000Y-83016000D01*
X154555000Y-84016000D02*
X154555000Y-83016000D01*
X156595000Y-82486000D02*
X156845000Y-83016000D01*
X154555000Y-82486000D02*
X156595000Y-82486000D01*
X154305000Y-83016000D02*
X154555000Y-82486000D01*
X156845000Y-83016000D02*
X156845000Y-84016000D01*
X154305000Y-83016000D02*
X156845000Y-83016000D01*
X154305000Y-84016000D02*
X154305000Y-83016000D01*
X152635000Y-79026000D02*
X152635000Y-83026000D01*
X158225000Y-77996000D02*
X152925000Y-77996000D01*
X158225000Y-84016000D02*
X158225000Y-77996000D01*
X152925000Y-84016000D02*
X158225000Y-84016000D01*
X152925000Y-77996000D02*
X152925000Y-84016000D01*
X195520000Y-99889000D02*
X196850000Y-99889000D01*
X195520000Y-101219000D02*
X195520000Y-99889000D01*
X195520000Y-102489000D02*
X198180000Y-102489000D01*
X198180000Y-102489000D02*
X198180000Y-105089000D01*
X195520000Y-102489000D02*
X195520000Y-105089000D01*
X195520000Y-105089000D02*
X198180000Y-105089000D01*
X144963000Y-120695000D02*
X144963000Y-123555000D01*
X146883000Y-120695000D02*
X144963000Y-120695000D01*
X146883000Y-123555000D02*
X146883000Y-120695000D01*
D11*
X181594285Y-108037380D02*
X181594285Y-108751666D01*
X181546666Y-108894523D01*
X181451428Y-108989761D01*
X181308571Y-109037380D01*
X181213333Y-109037380D01*
X182594285Y-109037380D02*
X182022857Y-109037380D01*
X182308571Y-109037380D02*
X182308571Y-108037380D01*
X182213333Y-108180238D01*
X182118095Y-108275476D01*
X182022857Y-108323095D01*
X183213333Y-108037380D02*
X183308571Y-108037380D01*
X183403809Y-108085000D01*
X183451428Y-108132619D01*
X183499047Y-108227857D01*
X183546666Y-108418333D01*
X183546666Y-108656428D01*
X183499047Y-108846904D01*
X183451428Y-108942142D01*
X183403809Y-108989761D01*
X183308571Y-109037380D01*
X183213333Y-109037380D01*
X183118095Y-108989761D01*
X183070476Y-108942142D01*
X183022857Y-108846904D01*
X182975238Y-108656428D01*
X182975238Y-108418333D01*
X183022857Y-108227857D01*
X183070476Y-108132619D01*
X183118095Y-108085000D01*
X183213333Y-108037380D01*
X183927619Y-108132619D02*
X183975238Y-108085000D01*
X184070476Y-108037380D01*
X184308571Y-108037380D01*
X184403809Y-108085000D01*
X184451428Y-108132619D01*
X184499047Y-108227857D01*
X184499047Y-108323095D01*
X184451428Y-108465952D01*
X183880000Y-109037380D01*
X184499047Y-109037380D01*
X181554285Y-80732380D02*
X181554285Y-81446666D01*
X181506666Y-81589523D01*
X181411428Y-81684761D01*
X181268571Y-81732380D01*
X181173333Y-81732380D01*
X182554285Y-81732380D02*
X181982857Y-81732380D01*
X182268571Y-81732380D02*
X182268571Y-80732380D01*
X182173333Y-80875238D01*
X182078095Y-80970476D01*
X181982857Y-81018095D01*
X183173333Y-80732380D02*
X183268571Y-80732380D01*
X183363809Y-80780000D01*
X183411428Y-80827619D01*
X183459047Y-80922857D01*
X183506666Y-81113333D01*
X183506666Y-81351428D01*
X183459047Y-81541904D01*
X183411428Y-81637142D01*
X183363809Y-81684761D01*
X183268571Y-81732380D01*
X183173333Y-81732380D01*
X183078095Y-81684761D01*
X183030476Y-81637142D01*
X182982857Y-81541904D01*
X182935238Y-81351428D01*
X182935238Y-81113333D01*
X182982857Y-80922857D01*
X183030476Y-80827619D01*
X183078095Y-80780000D01*
X183173333Y-80732380D01*
X184459047Y-81732380D02*
X183887619Y-81732380D01*
X184173333Y-81732380D02*
X184173333Y-80732380D01*
X184078095Y-80875238D01*
X183982857Y-80970476D01*
X183887619Y-81018095D01*
X159044761Y-124825714D02*
X159092380Y-124682857D01*
X159092380Y-124444761D01*
X159044761Y-124349523D01*
X158997142Y-124301904D01*
X158901904Y-124254285D01*
X158806666Y-124254285D01*
X158711428Y-124301904D01*
X158663809Y-124349523D01*
X158616190Y-124444761D01*
X158568571Y-124635238D01*
X158520952Y-124730476D01*
X158473333Y-124778095D01*
X158378095Y-124825714D01*
X158282857Y-124825714D01*
X158187619Y-124778095D01*
X158140000Y-124730476D01*
X158092380Y-124635238D01*
X158092380Y-124397142D01*
X158140000Y-124254285D01*
X158092380Y-123920952D02*
X159092380Y-123682857D01*
X158378095Y-123492380D01*
X159092380Y-123301904D01*
X158092380Y-123063809D01*
X159092380Y-122159047D02*
X159092380Y-122730476D01*
X159092380Y-122444761D02*
X158092380Y-122444761D01*
X158235238Y-122540000D01*
X158330476Y-122635238D01*
X158378095Y-122730476D01*
X158092380Y-121540000D02*
X158092380Y-121444761D01*
X158140000Y-121349523D01*
X158187619Y-121301904D01*
X158282857Y-121254285D01*
X158473333Y-121206666D01*
X158711428Y-121206666D01*
X158901904Y-121254285D01*
X158997142Y-121301904D01*
X159044761Y-121349523D01*
X159092380Y-121444761D01*
X159092380Y-121540000D01*
X159044761Y-121635238D01*
X158997142Y-121682857D01*
X158901904Y-121730476D01*
X158711428Y-121778095D01*
X158473333Y-121778095D01*
X158282857Y-121730476D01*
X158187619Y-121682857D01*
X158140000Y-121635238D01*
X158092380Y-121540000D01*
X159092380Y-120254285D02*
X159092380Y-120825714D01*
X159092380Y-120540000D02*
X158092380Y-120540000D01*
X158235238Y-120635238D01*
X158330476Y-120730476D01*
X158378095Y-120825714D01*
X134642380Y-109662380D02*
X134309047Y-109186190D01*
X134070952Y-109662380D02*
X134070952Y-108662380D01*
X134451904Y-108662380D01*
X134547142Y-108710000D01*
X134594761Y-108757619D01*
X134642380Y-108852857D01*
X134642380Y-108995714D01*
X134594761Y-109090952D01*
X134547142Y-109138571D01*
X134451904Y-109186190D01*
X134070952Y-109186190D01*
X134928095Y-108662380D02*
X135261428Y-109662380D01*
X135594761Y-108662380D01*
X136451904Y-109662380D02*
X135880476Y-109662380D01*
X136166190Y-109662380D02*
X136166190Y-108662380D01*
X136070952Y-108805238D01*
X135975714Y-108900476D01*
X135880476Y-108948095D01*
X137070952Y-108662380D02*
X137166190Y-108662380D01*
X137261428Y-108710000D01*
X137309047Y-108757619D01*
X137356666Y-108852857D01*
X137404285Y-109043333D01*
X137404285Y-109281428D01*
X137356666Y-109471904D01*
X137309047Y-109567142D01*
X137261428Y-109614761D01*
X137166190Y-109662380D01*
X137070952Y-109662380D01*
X136975714Y-109614761D01*
X136928095Y-109567142D01*
X136880476Y-109471904D01*
X136832857Y-109281428D01*
X136832857Y-109043333D01*
X136880476Y-108852857D01*
X136928095Y-108757619D01*
X136975714Y-108710000D01*
X137070952Y-108662380D01*
X138356666Y-109662380D02*
X137785238Y-109662380D01*
X138070952Y-109662380D02*
X138070952Y-108662380D01*
X137975714Y-108805238D01*
X137880476Y-108900476D01*
X137785238Y-108948095D01*
X166882380Y-82311714D02*
X167596666Y-82311714D01*
X167739523Y-82359333D01*
X167834761Y-82454571D01*
X167882380Y-82597428D01*
X167882380Y-82692666D01*
X167882380Y-81311714D02*
X167882380Y-81883142D01*
X167882380Y-81597428D02*
X166882380Y-81597428D01*
X167025238Y-81692666D01*
X167120476Y-81787904D01*
X167168095Y-81883142D01*
X166882380Y-80692666D02*
X166882380Y-80597428D01*
X166930000Y-80502190D01*
X166977619Y-80454571D01*
X167072857Y-80406952D01*
X167263333Y-80359333D01*
X167501428Y-80359333D01*
X167691904Y-80406952D01*
X167787142Y-80454571D01*
X167834761Y-80502190D01*
X167882380Y-80597428D01*
X167882380Y-80692666D01*
X167834761Y-80787904D01*
X167787142Y-80835523D01*
X167691904Y-80883142D01*
X167501428Y-80930761D01*
X167263333Y-80930761D01*
X167072857Y-80883142D01*
X166977619Y-80835523D01*
X166930000Y-80787904D01*
X166882380Y-80692666D01*
X166882380Y-79502190D02*
X166882380Y-79692666D01*
X166930000Y-79787904D01*
X166977619Y-79835523D01*
X167120476Y-79930761D01*
X167310952Y-79978380D01*
X167691904Y-79978380D01*
X167787142Y-79930761D01*
X167834761Y-79883142D01*
X167882380Y-79787904D01*
X167882380Y-79597428D01*
X167834761Y-79502190D01*
X167787142Y-79454571D01*
X167691904Y-79406952D01*
X167453809Y-79406952D01*
X167358571Y-79454571D01*
X167310952Y-79502190D01*
X167263333Y-79597428D01*
X167263333Y-79787904D01*
X167310952Y-79883142D01*
X167358571Y-79930761D01*
X167453809Y-79978380D01*
X154289285Y-76358380D02*
X154289285Y-77072666D01*
X154241666Y-77215523D01*
X154146428Y-77310761D01*
X154003571Y-77358380D01*
X153908333Y-77358380D01*
X155289285Y-77358380D02*
X154717857Y-77358380D01*
X155003571Y-77358380D02*
X155003571Y-76358380D01*
X154908333Y-76501238D01*
X154813095Y-76596476D01*
X154717857Y-76644095D01*
X155908333Y-76358380D02*
X156003571Y-76358380D01*
X156098809Y-76406000D01*
X156146428Y-76453619D01*
X156194047Y-76548857D01*
X156241666Y-76739333D01*
X156241666Y-76977428D01*
X156194047Y-77167904D01*
X156146428Y-77263142D01*
X156098809Y-77310761D01*
X156003571Y-77358380D01*
X155908333Y-77358380D01*
X155813095Y-77310761D01*
X155765476Y-77263142D01*
X155717857Y-77167904D01*
X155670238Y-76977428D01*
X155670238Y-76739333D01*
X155717857Y-76548857D01*
X155765476Y-76453619D01*
X155813095Y-76406000D01*
X155908333Y-76358380D01*
X157146428Y-76358380D02*
X156670238Y-76358380D01*
X156622619Y-76834571D01*
X156670238Y-76786952D01*
X156765476Y-76739333D01*
X157003571Y-76739333D01*
X157098809Y-76786952D01*
X157146428Y-76834571D01*
X157194047Y-76929809D01*
X157194047Y-77167904D01*
X157146428Y-77263142D01*
X157098809Y-77310761D01*
X157003571Y-77358380D01*
X156765476Y-77358380D01*
X156670238Y-77310761D01*
X156622619Y-77263142D01*
X195564285Y-98341380D02*
X195564285Y-99055666D01*
X195516666Y-99198523D01*
X195421428Y-99293761D01*
X195278571Y-99341380D01*
X195183333Y-99341380D01*
X196564285Y-99341380D02*
X195992857Y-99341380D01*
X196278571Y-99341380D02*
X196278571Y-98341380D01*
X196183333Y-98484238D01*
X196088095Y-98579476D01*
X195992857Y-98627095D01*
X197183333Y-98341380D02*
X197278571Y-98341380D01*
X197373809Y-98389000D01*
X197421428Y-98436619D01*
X197469047Y-98531857D01*
X197516666Y-98722333D01*
X197516666Y-98960428D01*
X197469047Y-99150904D01*
X197421428Y-99246142D01*
X197373809Y-99293761D01*
X197278571Y-99341380D01*
X197183333Y-99341380D01*
X197088095Y-99293761D01*
X197040476Y-99246142D01*
X196992857Y-99150904D01*
X196945238Y-98960428D01*
X196945238Y-98722333D01*
X196992857Y-98531857D01*
X197040476Y-98436619D01*
X197088095Y-98389000D01*
X197183333Y-98341380D01*
X197850000Y-98341380D02*
X198469047Y-98341380D01*
X198135714Y-98722333D01*
X198278571Y-98722333D01*
X198373809Y-98769952D01*
X198421428Y-98817571D01*
X198469047Y-98912809D01*
X198469047Y-99150904D01*
X198421428Y-99246142D01*
X198373809Y-99293761D01*
X198278571Y-99341380D01*
X197992857Y-99341380D01*
X197897619Y-99293761D01*
X197850000Y-99246142D01*
X195115714Y-118592380D02*
X195115714Y-117592380D01*
X195115714Y-118068571D02*
X195687142Y-118068571D01*
X195687142Y-118592380D02*
X195687142Y-117592380D01*
X196687142Y-118592380D02*
X196115714Y-118592380D01*
X196401428Y-118592380D02*
X196401428Y-117592380D01*
X196306190Y-117735238D01*
X196210952Y-117830476D01*
X196115714Y-117878095D01*
X197306190Y-117592380D02*
X197401428Y-117592380D01*
X197496666Y-117640000D01*
X197544285Y-117687619D01*
X197591904Y-117782857D01*
X197639523Y-117973333D01*
X197639523Y-118211428D01*
X197591904Y-118401904D01*
X197544285Y-118497142D01*
X197496666Y-118544761D01*
X197401428Y-118592380D01*
X197306190Y-118592380D01*
X197210952Y-118544761D01*
X197163333Y-118497142D01*
X197115714Y-118401904D01*
X197068095Y-118211428D01*
X197068095Y-117973333D01*
X197115714Y-117782857D01*
X197163333Y-117687619D01*
X197210952Y-117640000D01*
X197306190Y-117592380D01*
X198496666Y-117925714D02*
X198496666Y-118592380D01*
X198258571Y-117544761D02*
X198020476Y-118259047D01*
X198639523Y-118259047D01*
X195115714Y-78092380D02*
X195115714Y-77092380D01*
X195115714Y-77568571D02*
X195687142Y-77568571D01*
X195687142Y-78092380D02*
X195687142Y-77092380D01*
X196687142Y-78092380D02*
X196115714Y-78092380D01*
X196401428Y-78092380D02*
X196401428Y-77092380D01*
X196306190Y-77235238D01*
X196210952Y-77330476D01*
X196115714Y-77378095D01*
X197306190Y-77092380D02*
X197401428Y-77092380D01*
X197496666Y-77140000D01*
X197544285Y-77187619D01*
X197591904Y-77282857D01*
X197639523Y-77473333D01*
X197639523Y-77711428D01*
X197591904Y-77901904D01*
X197544285Y-77997142D01*
X197496666Y-78044761D01*
X197401428Y-78092380D01*
X197306190Y-78092380D01*
X197210952Y-78044761D01*
X197163333Y-77997142D01*
X197115714Y-77901904D01*
X197068095Y-77711428D01*
X197068095Y-77473333D01*
X197115714Y-77282857D01*
X197163333Y-77187619D01*
X197210952Y-77140000D01*
X197306190Y-77092380D01*
X197972857Y-77092380D02*
X198591904Y-77092380D01*
X198258571Y-77473333D01*
X198401428Y-77473333D01*
X198496666Y-77520952D01*
X198544285Y-77568571D01*
X198591904Y-77663809D01*
X198591904Y-77901904D01*
X198544285Y-77997142D01*
X198496666Y-78044761D01*
X198401428Y-78092380D01*
X198115714Y-78092380D01*
X198020476Y-78044761D01*
X197972857Y-77997142D01*
X104615714Y-118592380D02*
X104615714Y-117592380D01*
X104615714Y-118068571D02*
X105187142Y-118068571D01*
X105187142Y-118592380D02*
X105187142Y-117592380D01*
X106187142Y-118592380D02*
X105615714Y-118592380D01*
X105901428Y-118592380D02*
X105901428Y-117592380D01*
X105806190Y-117735238D01*
X105710952Y-117830476D01*
X105615714Y-117878095D01*
X106806190Y-117592380D02*
X106901428Y-117592380D01*
X106996666Y-117640000D01*
X107044285Y-117687619D01*
X107091904Y-117782857D01*
X107139523Y-117973333D01*
X107139523Y-118211428D01*
X107091904Y-118401904D01*
X107044285Y-118497142D01*
X106996666Y-118544761D01*
X106901428Y-118592380D01*
X106806190Y-118592380D01*
X106710952Y-118544761D01*
X106663333Y-118497142D01*
X106615714Y-118401904D01*
X106568095Y-118211428D01*
X106568095Y-117973333D01*
X106615714Y-117782857D01*
X106663333Y-117687619D01*
X106710952Y-117640000D01*
X106806190Y-117592380D01*
X107520476Y-117687619D02*
X107568095Y-117640000D01*
X107663333Y-117592380D01*
X107901428Y-117592380D01*
X107996666Y-117640000D01*
X108044285Y-117687619D01*
X108091904Y-117782857D01*
X108091904Y-117878095D01*
X108044285Y-118020952D01*
X107472857Y-118592380D01*
X108091904Y-118592380D01*
X104615714Y-78092380D02*
X104615714Y-77092380D01*
X104615714Y-77568571D02*
X105187142Y-77568571D01*
X105187142Y-78092380D02*
X105187142Y-77092380D01*
X106187142Y-78092380D02*
X105615714Y-78092380D01*
X105901428Y-78092380D02*
X105901428Y-77092380D01*
X105806190Y-77235238D01*
X105710952Y-77330476D01*
X105615714Y-77378095D01*
X106806190Y-77092380D02*
X106901428Y-77092380D01*
X106996666Y-77140000D01*
X107044285Y-77187619D01*
X107091904Y-77282857D01*
X107139523Y-77473333D01*
X107139523Y-77711428D01*
X107091904Y-77901904D01*
X107044285Y-77997142D01*
X106996666Y-78044761D01*
X106901428Y-78092380D01*
X106806190Y-78092380D01*
X106710952Y-78044761D01*
X106663333Y-77997142D01*
X106615714Y-77901904D01*
X106568095Y-77711428D01*
X106568095Y-77473333D01*
X106615714Y-77282857D01*
X106663333Y-77187619D01*
X106710952Y-77140000D01*
X106806190Y-77092380D01*
X108091904Y-78092380D02*
X107520476Y-78092380D01*
X107806190Y-78092380D02*
X107806190Y-77092380D01*
X107710952Y-77235238D01*
X107615714Y-77330476D01*
X107520476Y-77378095D01*
X148025380Y-124245476D02*
X147025380Y-124245476D01*
X147025380Y-124007380D01*
X147073000Y-123864523D01*
X147168238Y-123769285D01*
X147263476Y-123721666D01*
X147453952Y-123674047D01*
X147596809Y-123674047D01*
X147787285Y-123721666D01*
X147882523Y-123769285D01*
X147977761Y-123864523D01*
X148025380Y-124007380D01*
X148025380Y-124245476D01*
X148025380Y-122721666D02*
X148025380Y-123293095D01*
X148025380Y-123007380D02*
X147025380Y-123007380D01*
X147168238Y-123102619D01*
X147263476Y-123197857D01*
X147311095Y-123293095D01*
X147025380Y-122102619D02*
X147025380Y-122007380D01*
X147073000Y-121912142D01*
X147120619Y-121864523D01*
X147215857Y-121816904D01*
X147406333Y-121769285D01*
X147644428Y-121769285D01*
X147834904Y-121816904D01*
X147930142Y-121864523D01*
X147977761Y-121912142D01*
X148025380Y-122007380D01*
X148025380Y-122102619D01*
X147977761Y-122197857D01*
X147930142Y-122245476D01*
X147834904Y-122293095D01*
X147644428Y-122340714D01*
X147406333Y-122340714D01*
X147215857Y-122293095D01*
X147120619Y-122245476D01*
X147073000Y-122197857D01*
X147025380Y-122102619D01*
X148025380Y-120816904D02*
X148025380Y-121388333D01*
X148025380Y-121102619D02*
X147025380Y-121102619D01*
X147168238Y-121197857D01*
X147263476Y-121293095D01*
X147311095Y-121388333D01*
M02*
