G04 #@! TF.GenerationSoftware,KiCad,Pcbnew,(5.1.2-1)-1*
G04 #@! TF.CreationDate,2020-01-25T18:20:51+01:00*
G04 #@! TF.ProjectId,CCLoad,43434c6f-6164-42e6-9b69-6361645f7063,rev?*
G04 #@! TF.SameCoordinates,Original*
G04 #@! TF.FileFunction,Soldermask,Top*
G04 #@! TF.FilePolarity,Negative*
%FSLAX46Y46*%
G04 Gerber Fmt 4.6, Leading zero omitted, Abs format (unit mm)*
G04 Created by KiCad (PCBNEW (5.1.2-1)-1) date 2020-01-25 18:20:51*
%MOMM*%
%LPD*%
G04 APERTURE LIST*
%ADD10C,0.010000*%
%ADD11C,0.100000*%
G04 APERTURE END LIST*
D10*
G36*
X170884897Y-102123115D02*
G01*
X171310661Y-101780751D01*
X171772907Y-101564111D01*
X172311622Y-101458824D01*
X172774593Y-101443992D01*
X173402105Y-101493594D01*
X173886836Y-101620966D01*
X174239313Y-101831968D01*
X174470064Y-102132464D01*
X174575208Y-102446666D01*
X174560656Y-102758609D01*
X174467482Y-102959851D01*
X174308692Y-103166787D01*
X174080941Y-103406121D01*
X173947501Y-103527832D01*
X173531782Y-103790603D01*
X173179615Y-103877107D01*
X173179615Y-103379624D01*
X173530612Y-103357012D01*
X173795596Y-103248751D01*
X173870316Y-103178120D01*
X174013890Y-102892031D01*
X173988964Y-102602561D01*
X173841833Y-102368045D01*
X173631898Y-102190398D01*
X173368586Y-102038465D01*
X173333833Y-102023521D01*
X173131491Y-101946120D01*
X173040932Y-101944594D01*
X173017194Y-102030746D01*
X173016333Y-102106864D01*
X173042629Y-102257698D01*
X173155720Y-102313880D01*
X173276039Y-102319666D01*
X173452665Y-102335815D01*
X173500049Y-102405858D01*
X173481249Y-102491367D01*
X173492162Y-102674153D01*
X173623710Y-102827217D01*
X173820667Y-102991366D01*
X173494108Y-102994183D01*
X173282410Y-103010505D01*
X173207341Y-103064171D01*
X173216284Y-103124000D01*
X173230058Y-103236046D01*
X173143653Y-103220986D01*
X172999833Y-103109067D01*
X172856717Y-103018732D01*
X172746388Y-103063781D01*
X172743399Y-103066734D01*
X172710492Y-103088286D01*
X172710492Y-102866825D01*
X172908114Y-102862442D01*
X173188816Y-102833071D01*
X173231338Y-102756899D01*
X173247054Y-102658333D01*
X173203433Y-102518039D01*
X173095738Y-102489000D01*
X172969481Y-102440395D01*
X172931703Y-102270897D01*
X172931667Y-102262575D01*
X172931667Y-102036149D01*
X172715540Y-102239189D01*
X172541878Y-102365302D01*
X172441790Y-102353513D01*
X172440374Y-102351421D01*
X172310962Y-102266849D01*
X172254333Y-102257891D01*
X172071223Y-102225305D01*
X171958000Y-102188395D01*
X171843815Y-102149739D01*
X171852432Y-102191037D01*
X171937018Y-102291014D01*
X172027844Y-102434166D01*
X172028740Y-102517037D01*
X172045868Y-102564575D01*
X172113222Y-102573666D01*
X172234728Y-102611506D01*
X172254333Y-102650407D01*
X172321760Y-102693958D01*
X172423667Y-102682865D01*
X172564634Y-102689763D01*
X172593000Y-102765614D01*
X172616733Y-102835826D01*
X172710492Y-102866825D01*
X172710492Y-103088286D01*
X172600285Y-103160465D01*
X172521089Y-103100054D01*
X172508333Y-102997000D01*
X172453975Y-102856288D01*
X172321945Y-102840438D01*
X172186600Y-102929266D01*
X172109124Y-102972953D01*
X172085261Y-102869758D01*
X172085000Y-102844600D01*
X172054032Y-102713452D01*
X171929263Y-102661902D01*
X171809833Y-102655640D01*
X171629945Y-102648085D01*
X171599363Y-102613857D01*
X171698071Y-102527945D01*
X171704000Y-102523406D01*
X171818846Y-102419634D01*
X171800028Y-102344548D01*
X171725167Y-102283931D01*
X171594697Y-102159097D01*
X171622090Y-102088799D01*
X171810661Y-102065713D01*
X171823944Y-102065666D01*
X172013630Y-102033195D01*
X172110366Y-101959833D01*
X172180644Y-101920567D01*
X172322386Y-102019849D01*
X172338496Y-102035092D01*
X172476798Y-102154671D01*
X172569158Y-102159349D01*
X172687074Y-102056259D01*
X172805844Y-101923430D01*
X172847000Y-101854000D01*
X172771287Y-101821140D01*
X172576546Y-101809935D01*
X172311369Y-101818033D01*
X172024351Y-101843079D01*
X171764085Y-101882721D01*
X171641510Y-101912375D01*
X171379612Y-102017980D01*
X171272219Y-102151262D01*
X171307261Y-102345381D01*
X171413016Y-102539989D01*
X171646116Y-102803320D01*
X171975856Y-103028436D01*
X172365707Y-103205850D01*
X172779137Y-103326075D01*
X173179615Y-103379624D01*
X173179615Y-103877107D01*
X173065948Y-103905028D01*
X172541041Y-103871124D01*
X171948101Y-103688904D01*
X171602375Y-103531790D01*
X171236090Y-103297187D01*
X170941644Y-102975316D01*
X170867938Y-102869221D01*
X170573793Y-102426207D01*
X170884897Y-102123115D01*
X170884897Y-102123115D01*
G37*
X170884897Y-102123115D02*
X171310661Y-101780751D01*
X171772907Y-101564111D01*
X172311622Y-101458824D01*
X172774593Y-101443992D01*
X173402105Y-101493594D01*
X173886836Y-101620966D01*
X174239313Y-101831968D01*
X174470064Y-102132464D01*
X174575208Y-102446666D01*
X174560656Y-102758609D01*
X174467482Y-102959851D01*
X174308692Y-103166787D01*
X174080941Y-103406121D01*
X173947501Y-103527832D01*
X173531782Y-103790603D01*
X173179615Y-103877107D01*
X173179615Y-103379624D01*
X173530612Y-103357012D01*
X173795596Y-103248751D01*
X173870316Y-103178120D01*
X174013890Y-102892031D01*
X173988964Y-102602561D01*
X173841833Y-102368045D01*
X173631898Y-102190398D01*
X173368586Y-102038465D01*
X173333833Y-102023521D01*
X173131491Y-101946120D01*
X173040932Y-101944594D01*
X173017194Y-102030746D01*
X173016333Y-102106864D01*
X173042629Y-102257698D01*
X173155720Y-102313880D01*
X173276039Y-102319666D01*
X173452665Y-102335815D01*
X173500049Y-102405858D01*
X173481249Y-102491367D01*
X173492162Y-102674153D01*
X173623710Y-102827217D01*
X173820667Y-102991366D01*
X173494108Y-102994183D01*
X173282410Y-103010505D01*
X173207341Y-103064171D01*
X173216284Y-103124000D01*
X173230058Y-103236046D01*
X173143653Y-103220986D01*
X172999833Y-103109067D01*
X172856717Y-103018732D01*
X172746388Y-103063781D01*
X172743399Y-103066734D01*
X172710492Y-103088286D01*
X172710492Y-102866825D01*
X172908114Y-102862442D01*
X173188816Y-102833071D01*
X173231338Y-102756899D01*
X173247054Y-102658333D01*
X173203433Y-102518039D01*
X173095738Y-102489000D01*
X172969481Y-102440395D01*
X172931703Y-102270897D01*
X172931667Y-102262575D01*
X172931667Y-102036149D01*
X172715540Y-102239189D01*
X172541878Y-102365302D01*
X172441790Y-102353513D01*
X172440374Y-102351421D01*
X172310962Y-102266849D01*
X172254333Y-102257891D01*
X172071223Y-102225305D01*
X171958000Y-102188395D01*
X171843815Y-102149739D01*
X171852432Y-102191037D01*
X171937018Y-102291014D01*
X172027844Y-102434166D01*
X172028740Y-102517037D01*
X172045868Y-102564575D01*
X172113222Y-102573666D01*
X172234728Y-102611506D01*
X172254333Y-102650407D01*
X172321760Y-102693958D01*
X172423667Y-102682865D01*
X172564634Y-102689763D01*
X172593000Y-102765614D01*
X172616733Y-102835826D01*
X172710492Y-102866825D01*
X172710492Y-103088286D01*
X172600285Y-103160465D01*
X172521089Y-103100054D01*
X172508333Y-102997000D01*
X172453975Y-102856288D01*
X172321945Y-102840438D01*
X172186600Y-102929266D01*
X172109124Y-102972953D01*
X172085261Y-102869758D01*
X172085000Y-102844600D01*
X172054032Y-102713452D01*
X171929263Y-102661902D01*
X171809833Y-102655640D01*
X171629945Y-102648085D01*
X171599363Y-102613857D01*
X171698071Y-102527945D01*
X171704000Y-102523406D01*
X171818846Y-102419634D01*
X171800028Y-102344548D01*
X171725167Y-102283931D01*
X171594697Y-102159097D01*
X171622090Y-102088799D01*
X171810661Y-102065713D01*
X171823944Y-102065666D01*
X172013630Y-102033195D01*
X172110366Y-101959833D01*
X172180644Y-101920567D01*
X172322386Y-102019849D01*
X172338496Y-102035092D01*
X172476798Y-102154671D01*
X172569158Y-102159349D01*
X172687074Y-102056259D01*
X172805844Y-101923430D01*
X172847000Y-101854000D01*
X172771287Y-101821140D01*
X172576546Y-101809935D01*
X172311369Y-101818033D01*
X172024351Y-101843079D01*
X171764085Y-101882721D01*
X171641510Y-101912375D01*
X171379612Y-102017980D01*
X171272219Y-102151262D01*
X171307261Y-102345381D01*
X171413016Y-102539989D01*
X171646116Y-102803320D01*
X171975856Y-103028436D01*
X172365707Y-103205850D01*
X172779137Y-103326075D01*
X173179615Y-103379624D01*
X173179615Y-103877107D01*
X173065948Y-103905028D01*
X172541041Y-103871124D01*
X171948101Y-103688904D01*
X171602375Y-103531790D01*
X171236090Y-103297187D01*
X170941644Y-102975316D01*
X170867938Y-102869221D01*
X170573793Y-102426207D01*
X170884897Y-102123115D01*
G36*
X169744446Y-102609328D02*
G01*
X169906219Y-102534142D01*
X170140128Y-102411906D01*
X170211052Y-102302052D01*
X170123575Y-102192590D01*
X170053000Y-102150333D01*
X169906511Y-102032202D01*
X169911442Y-101936977D01*
X170065254Y-101895295D01*
X170074167Y-101895177D01*
X170320217Y-101871098D01*
X170453039Y-101843525D01*
X170641411Y-101793030D01*
X170453039Y-101635832D01*
X170264667Y-101478633D01*
X170497500Y-101465233D01*
X170700789Y-101447996D01*
X170815000Y-101430666D01*
X170971263Y-101405354D01*
X171037033Y-101398916D01*
X171127047Y-101369109D01*
X171080527Y-101275532D01*
X171066022Y-101257745D01*
X170940549Y-101178442D01*
X170872334Y-101212465D01*
X170762491Y-101232492D01*
X170681660Y-101153678D01*
X170594422Y-101060848D01*
X170504552Y-101081479D01*
X170398794Y-101170216D01*
X170236531Y-101278915D01*
X170162616Y-101251759D01*
X170196391Y-101101835D01*
X170221882Y-101050509D01*
X170280220Y-100923097D01*
X170229554Y-100918546D01*
X170136824Y-100965451D01*
X169958123Y-101024905D01*
X169895873Y-100977115D01*
X169968884Y-100853185D01*
X170033510Y-100794616D01*
X170225686Y-100638808D01*
X170039112Y-100579592D01*
X169917718Y-100533320D01*
X169929400Y-100486205D01*
X170079769Y-100401317D01*
X170262844Y-100278265D01*
X170281585Y-100174038D01*
X170134620Y-100069824D01*
X170053000Y-100033666D01*
X169858250Y-99926034D01*
X169808839Y-99836628D01*
X169909156Y-99785195D01*
X169996555Y-99779666D01*
X170206033Y-99747000D01*
X170263501Y-99652893D01*
X170209035Y-99551977D01*
X170164526Y-99433864D01*
X170256948Y-99330114D01*
X170331516Y-99256207D01*
X170291850Y-99196332D01*
X170115115Y-99121083D01*
X170086581Y-99110697D01*
X169771807Y-98996873D01*
X170049603Y-98880068D01*
X170226689Y-98790439D01*
X170266699Y-98711109D01*
X170222166Y-98636465D01*
X170161590Y-98494466D01*
X170213447Y-98393374D01*
X170251754Y-98288235D01*
X170157846Y-98179784D01*
X170096814Y-98137422D01*
X169921849Y-97992533D01*
X169909078Y-97886192D01*
X170058690Y-97807677D01*
X170102805Y-97795690D01*
X170249425Y-97738987D01*
X170251049Y-97659605D01*
X170222516Y-97620887D01*
X170163932Y-97477952D01*
X170177616Y-97412857D01*
X170174556Y-97285608D01*
X170100238Y-97136310D01*
X169983531Y-96915742D01*
X170000892Y-96785289D01*
X170151078Y-96753069D01*
X170158833Y-96753831D01*
X170292132Y-96743802D01*
X170329107Y-96641934D01*
X170320864Y-96531677D01*
X170323713Y-96358581D01*
X170395971Y-96324212D01*
X170405530Y-96327066D01*
X170503680Y-96419760D01*
X170510200Y-96463555D01*
X170499094Y-96619688D01*
X170489033Y-96783875D01*
X170453909Y-96942000D01*
X170350255Y-96970505D01*
X170307113Y-96961164D01*
X170196619Y-96937982D01*
X170190701Y-96976154D01*
X170289444Y-97109569D01*
X170307546Y-97132592D01*
X170416693Y-97317931D01*
X170394730Y-97447178D01*
X170387989Y-97455765D01*
X170345286Y-97573067D01*
X170387555Y-97618126D01*
X170473581Y-97726277D01*
X170402017Y-97827540D01*
X170256265Y-97884341D01*
X170036197Y-97939574D01*
X170277432Y-98137952D01*
X170427342Y-98276896D01*
X170453224Y-98364490D01*
X170391667Y-98429444D01*
X170314910Y-98516360D01*
X170370500Y-98565501D01*
X170470187Y-98667928D01*
X170438368Y-98797845D01*
X170291435Y-98895607D01*
X170173396Y-98941388D01*
X170186012Y-98989244D01*
X170339425Y-99076313D01*
X170341010Y-99077144D01*
X170495775Y-99170829D01*
X170515944Y-99249990D01*
X170435726Y-99354426D01*
X170351650Y-99500087D01*
X170386151Y-99564591D01*
X170473403Y-99673001D01*
X170402364Y-99774250D01*
X170252250Y-99832682D01*
X170028167Y-99888923D01*
X170252250Y-100006332D01*
X170436298Y-100136342D01*
X170455574Y-100254978D01*
X170328167Y-100366577D01*
X170231622Y-100448656D01*
X170284556Y-100522475D01*
X170296680Y-100530651D01*
X170375453Y-100633414D01*
X170369067Y-100680367D01*
X170384451Y-100790610D01*
X170438411Y-100858324D01*
X170559445Y-100914046D01*
X170606985Y-100874424D01*
X170690872Y-100855179D01*
X170770066Y-100933428D01*
X170856739Y-101029618D01*
X170908524Y-100978884D01*
X170936976Y-100896161D01*
X171012982Y-100751177D01*
X171074705Y-100711000D01*
X171149485Y-100761958D01*
X171106426Y-100884258D01*
X171052067Y-100948066D01*
X171003217Y-101029590D01*
X171099397Y-101049666D01*
X171199546Y-101012484D01*
X171196000Y-100965000D01*
X171206487Y-100887150D01*
X171240064Y-100880333D01*
X171298424Y-100807205D01*
X171278109Y-100614688D01*
X171249265Y-100434746D01*
X171295963Y-100375285D01*
X171443734Y-100391858D01*
X171594917Y-100412180D01*
X171603432Y-100369500D01*
X171537686Y-100291003D01*
X171420102Y-100116053D01*
X171448223Y-100019996D01*
X171618909Y-100011264D01*
X171640500Y-100014929D01*
X171873333Y-100057377D01*
X171640500Y-99837898D01*
X171475875Y-99645153D01*
X171408424Y-99487029D01*
X171442703Y-99395042D01*
X171577000Y-99398666D01*
X171709795Y-99405894D01*
X171746297Y-99284551D01*
X171746333Y-99277372D01*
X171799795Y-99132502D01*
X171931115Y-99114996D01*
X172071592Y-99207459D01*
X172175469Y-99267811D01*
X172247208Y-99198528D01*
X172324204Y-99133391D01*
X172448803Y-99173398D01*
X172529792Y-99223441D01*
X172682773Y-99312085D01*
X172756356Y-99300885D01*
X172794442Y-99225447D01*
X172832118Y-99093166D01*
X172805664Y-99008016D01*
X172689196Y-98959762D01*
X172456830Y-98938172D01*
X172082682Y-98933011D01*
X172054765Y-98933000D01*
X171262530Y-98933000D01*
X171214746Y-99630153D01*
X171184654Y-99986164D01*
X171144656Y-100217719D01*
X171081094Y-100369651D01*
X170980309Y-100486796D01*
X170943926Y-100519153D01*
X170776918Y-100648315D01*
X170663902Y-100710101D01*
X170656638Y-100711000D01*
X170633335Y-100631535D01*
X170614645Y-100413896D01*
X170602198Y-100089217D01*
X170597626Y-99688629D01*
X170597859Y-99589166D01*
X170596721Y-99086173D01*
X170589507Y-98565041D01*
X170577428Y-98090021D01*
X170563108Y-97749730D01*
X170545758Y-97400507D01*
X170547394Y-97180757D01*
X170576712Y-97050931D01*
X170642411Y-96971482D01*
X170748807Y-96905318D01*
X170926836Y-96835504D01*
X171040461Y-96844259D01*
X171041201Y-96844979D01*
X171076341Y-96954940D01*
X171112386Y-97190419D01*
X171143208Y-97507749D01*
X171151835Y-97633443D01*
X171196000Y-98355439D01*
X172886703Y-98396386D01*
X173409940Y-98411951D01*
X173878720Y-98431370D01*
X174265396Y-98453053D01*
X174542318Y-98475413D01*
X174681839Y-98496860D01*
X174689356Y-98499983D01*
X174744669Y-98573487D01*
X174688618Y-98701095D01*
X174625597Y-98786011D01*
X174484272Y-98925357D01*
X174302169Y-98999673D01*
X174017380Y-99033311D01*
X173993401Y-99034694D01*
X173734172Y-99052941D01*
X173614214Y-99081858D01*
X173603609Y-99139065D01*
X173662859Y-99229333D01*
X173763320Y-99346079D01*
X173836618Y-99327482D01*
X173907954Y-99237892D01*
X173998969Y-99134371D01*
X174075780Y-99148931D01*
X174188021Y-99275840D01*
X174348937Y-99474562D01*
X174409422Y-99283990D01*
X174474777Y-99155406D01*
X174565887Y-99174231D01*
X174589787Y-99192909D01*
X174680707Y-99239022D01*
X174708987Y-99144171D01*
X174709667Y-99103522D01*
X174732651Y-98973418D01*
X174835253Y-98950624D01*
X174940201Y-98972503D01*
X175096805Y-99005263D01*
X175109838Y-98969432D01*
X175024867Y-98869182D01*
X174899732Y-98703140D01*
X174913072Y-98616942D01*
X175068461Y-98588089D01*
X175069500Y-98588054D01*
X175159200Y-98571473D01*
X175112038Y-98523124D01*
X174936563Y-98438769D01*
X174753729Y-98335990D01*
X174675753Y-98246289D01*
X174682563Y-98221398D01*
X174657229Y-98184604D01*
X174501827Y-98187015D01*
X174434500Y-98196026D01*
X174217109Y-98209215D01*
X174119117Y-98169976D01*
X174117000Y-98158950D01*
X174045365Y-98111313D01*
X173873735Y-98126309D01*
X173679505Y-98139198D01*
X173582768Y-98053664D01*
X173575072Y-98035373D01*
X173522791Y-97937945D01*
X173456766Y-97979419D01*
X173409954Y-98041058D01*
X173307934Y-98140326D01*
X173187687Y-98118179D01*
X173113367Y-98075221D01*
X172963773Y-98003792D01*
X172874429Y-98043319D01*
X172842808Y-98086333D01*
X172763821Y-98166434D01*
X172679129Y-98107693D01*
X172648222Y-98068811D01*
X172553773Y-97971297D01*
X172465587Y-98000088D01*
X172392769Y-98068811D01*
X172269298Y-98160197D01*
X172189266Y-98117272D01*
X172180757Y-98104236D01*
X172069797Y-98038330D01*
X171841687Y-98040489D01*
X171741689Y-98054563D01*
X171370072Y-98113987D01*
X171512686Y-97896330D01*
X171601333Y-97738479D01*
X171587655Y-97660885D01*
X171531483Y-97631161D01*
X171418449Y-97522318D01*
X171454319Y-97351309D01*
X171547789Y-97225167D01*
X171637770Y-97110604D01*
X171595401Y-97073427D01*
X171499750Y-97070333D01*
X171389377Y-97054175D01*
X171352372Y-96982393D01*
X171386637Y-96820026D01*
X171470550Y-96583830D01*
X171450597Y-96516723D01*
X171298540Y-96521232D01*
X171255205Y-96529325D01*
X171065957Y-96544486D01*
X170980122Y-96473909D01*
X170964321Y-96423162D01*
X170929091Y-96335762D01*
X170875026Y-96384508D01*
X170817000Y-96496178D01*
X170719710Y-96644923D01*
X170639162Y-96685232D01*
X170637539Y-96684310D01*
X170633274Y-96593249D01*
X170705109Y-96416594D01*
X170742875Y-96348424D01*
X170886424Y-96159625D01*
X171000015Y-96109863D01*
X171062790Y-96203381D01*
X171069000Y-96282075D01*
X171104250Y-96366900D01*
X171237008Y-96383165D01*
X171374192Y-96365630D01*
X171571948Y-96342903D01*
X171643633Y-96375474D01*
X171628310Y-96481171D01*
X171628192Y-96481552D01*
X171557475Y-96710404D01*
X171524792Y-96816333D01*
X171514689Y-96938442D01*
X171616307Y-96982243D01*
X171709965Y-96985666D01*
X171947347Y-96985666D01*
X171704000Y-97239666D01*
X171577088Y-97395986D01*
X171542991Y-97491663D01*
X171561159Y-97504250D01*
X171727284Y-97531534D01*
X171746333Y-97536000D01*
X171908370Y-97566817D01*
X171936833Y-97570795D01*
X171947283Y-97624939D01*
X171845973Y-97744091D01*
X171788667Y-97794358D01*
X171534667Y-98004294D01*
X171816248Y-97907795D01*
X172045103Y-97854429D01*
X172179557Y-97894053D01*
X172191858Y-97905325D01*
X172306165Y-97945751D01*
X172437679Y-97861986D01*
X172555987Y-97771085D01*
X172615977Y-97802198D01*
X172643456Y-97865303D01*
X172718226Y-97956463D01*
X172807920Y-97914300D01*
X172950663Y-97870526D01*
X173099062Y-97933306D01*
X173245168Y-97998282D01*
X173334838Y-97941973D01*
X173367364Y-97889650D01*
X173442716Y-97785864D01*
X173525949Y-97804601D01*
X173617011Y-97881917D01*
X173770334Y-97978619D01*
X173937374Y-97954726D01*
X173994328Y-97930433D01*
X174184231Y-97850746D01*
X174266649Y-97850264D01*
X174286087Y-97933547D01*
X174286333Y-97960334D01*
X174321417Y-98039377D01*
X174452776Y-98055697D01*
X174619681Y-98035030D01*
X174830660Y-98009539D01*
X174915806Y-98035102D01*
X174914805Y-98127037D01*
X174909808Y-98147001D01*
X174917338Y-98276116D01*
X175047774Y-98361905D01*
X175133172Y-98389805D01*
X175336529Y-98480167D01*
X175388768Y-98576664D01*
X175284218Y-98659104D01*
X175214580Y-98679729D01*
X175032166Y-98722791D01*
X175209583Y-98883351D01*
X175359232Y-99051607D01*
X175360492Y-99145791D01*
X175215250Y-99159465D01*
X175133000Y-99144666D01*
X174956214Y-99120298D01*
X174889125Y-99184989D01*
X174879000Y-99349606D01*
X174847570Y-99551726D01*
X174764850Y-99601888D01*
X174648197Y-99492270D01*
X174629207Y-99462166D01*
X174551653Y-99359075D01*
X174487048Y-99404992D01*
X174451459Y-99462166D01*
X174326998Y-99595755D01*
X174219607Y-99561128D01*
X174154862Y-99426913D01*
X174096647Y-99243492D01*
X173948205Y-99440286D01*
X173799762Y-99637081D01*
X173645654Y-99401881D01*
X173491545Y-99166682D01*
X173340971Y-99352633D01*
X173188030Y-99473921D01*
X173066196Y-99458704D01*
X173016333Y-99312139D01*
X173016333Y-99311660D01*
X173074896Y-99230512D01*
X173136840Y-99238557D01*
X173267201Y-99209751D01*
X173351485Y-99108900D01*
X173399962Y-98983308D01*
X173332582Y-98938091D01*
X173209812Y-98933060D01*
X173034346Y-98962300D01*
X172968449Y-99082018D01*
X172961260Y-99153233D01*
X172909560Y-99394500D01*
X172788567Y-99482000D01*
X172594048Y-99418297D01*
X172559718Y-99396811D01*
X172406894Y-99306063D01*
X172347811Y-99313356D01*
X172339000Y-99388929D01*
X172295542Y-99510815D01*
X172184669Y-99492549D01*
X172085000Y-99398666D01*
X171943929Y-99282025D01*
X171855856Y-99324545D01*
X171831000Y-99480676D01*
X171803989Y-99630270D01*
X171703961Y-99647319D01*
X171682833Y-99640990D01*
X171648846Y-99656409D01*
X171731681Y-99751043D01*
X171809833Y-99819117D01*
X171980383Y-99973540D01*
X172076899Y-100087764D01*
X172085000Y-100109806D01*
X172012043Y-100142807D01*
X171833975Y-100138326D01*
X171809833Y-100135196D01*
X171534667Y-100096719D01*
X171739611Y-100318859D01*
X171879030Y-100500736D01*
X171878463Y-100589405D01*
X171739381Y-100581955D01*
X171625974Y-100544191D01*
X171477636Y-100497047D01*
X171418649Y-100534572D01*
X171417245Y-100692968D01*
X171423732Y-100774656D01*
X171463991Y-100996143D01*
X171554882Y-101097180D01*
X171633887Y-101118189D01*
X171767627Y-101109640D01*
X171779440Y-101000126D01*
X171772179Y-100970022D01*
X171747453Y-100854430D01*
X171775667Y-100808532D01*
X171891235Y-100827916D01*
X172128568Y-100908167D01*
X172162128Y-100920007D01*
X172382039Y-100991976D01*
X172496888Y-100994799D01*
X172561040Y-100916396D01*
X172598697Y-100823015D01*
X172682847Y-100601683D01*
X172885851Y-100792396D01*
X173036114Y-100916090D01*
X173147524Y-100927350D01*
X173280995Y-100848528D01*
X173417004Y-100768191D01*
X173497079Y-100799166D01*
X173578567Y-100964704D01*
X173580839Y-100970104D01*
X173662705Y-101139646D01*
X173743947Y-101174306D01*
X173886428Y-101096584D01*
X173901486Y-101086735D01*
X174055019Y-100999345D01*
X174135233Y-101028221D01*
X174201557Y-101176379D01*
X174294443Y-101336442D01*
X174414024Y-101352991D01*
X174435677Y-101345001D01*
X174673209Y-101256089D01*
X174790997Y-101254410D01*
X174822967Y-101356067D01*
X174809570Y-101522467D01*
X174793010Y-101726883D01*
X174833250Y-101804857D01*
X174966568Y-101798030D01*
X175037584Y-101784183D01*
X175241657Y-101783974D01*
X175309875Y-101871175D01*
X175228214Y-102017133D01*
X175175333Y-102065666D01*
X175059449Y-102207228D01*
X175107180Y-102310402D01*
X175260000Y-102369565D01*
X175429593Y-102433185D01*
X175447320Y-102513690D01*
X175310689Y-102629790D01*
X175217667Y-102687198D01*
X175017965Y-102832421D01*
X174979458Y-102942646D01*
X175100041Y-103027679D01*
X175141523Y-103042038D01*
X175254245Y-103107877D01*
X175208581Y-103187021D01*
X175000673Y-103283422D01*
X174858876Y-103331660D01*
X174542419Y-103432777D01*
X174670551Y-103680555D01*
X174798682Y-103928333D01*
X174457841Y-103928333D01*
X174239083Y-103939331D01*
X174141480Y-103992948D01*
X174117258Y-104120125D01*
X174117000Y-104149058D01*
X174092030Y-104305096D01*
X174002347Y-104324997D01*
X173982134Y-104318030D01*
X173689465Y-104220469D01*
X173519496Y-104206663D01*
X173447117Y-104277745D01*
X173439667Y-104342488D01*
X173425800Y-104474259D01*
X173361922Y-104508144D01*
X173214609Y-104444661D01*
X173053491Y-104348468D01*
X172869334Y-104242667D01*
X172771915Y-104226832D01*
X172706610Y-104297704D01*
X172689918Y-104326768D01*
X172621480Y-104419903D01*
X172540980Y-104406340D01*
X172403928Y-104288226D01*
X172246969Y-104167444D01*
X172139455Y-104169105D01*
X172095641Y-104204093D01*
X171992633Y-104256931D01*
X171886337Y-104169728D01*
X171868980Y-104146826D01*
X171767592Y-104036557D01*
X171673234Y-104057757D01*
X171592846Y-104125659D01*
X171428846Y-104248009D01*
X171345269Y-104230639D01*
X171321703Y-104076500D01*
X171288999Y-103825343D01*
X171181767Y-103715626D01*
X170979681Y-103736086D01*
X170820567Y-103798823D01*
X170602994Y-103882942D01*
X170455275Y-103914222D01*
X170426894Y-103907116D01*
X170429545Y-103808056D01*
X170498943Y-103628551D01*
X170512423Y-103601739D01*
X170624317Y-103353341D01*
X170624957Y-103219105D01*
X170498865Y-103173548D01*
X170260938Y-103187675D01*
X170008508Y-103200675D01*
X169908143Y-103163846D01*
X169908160Y-103135187D01*
X170005951Y-103050075D01*
X170038889Y-103047800D01*
X170182532Y-103056253D01*
X170414533Y-103066573D01*
X170476333Y-103068966D01*
X170700054Y-103093289D01*
X170798163Y-103158577D01*
X170815000Y-103246003D01*
X170776122Y-103408085D01*
X170730333Y-103462666D01*
X170646745Y-103567697D01*
X170687029Y-103647698D01*
X170793833Y-103647410D01*
X171072038Y-103561869D01*
X171229326Y-103532600D01*
X171307074Y-103567555D01*
X171346660Y-103674689D01*
X171364936Y-103757193D01*
X171412992Y-103932727D01*
X171471959Y-103965990D01*
X171576452Y-103886496D01*
X171695911Y-103800024D01*
X171784055Y-103836251D01*
X171863819Y-103940443D01*
X171966926Y-104070228D01*
X172038539Y-104066819D01*
X172114813Y-103973470D01*
X172201094Y-103875674D01*
X172272757Y-103894049D01*
X172380758Y-104042576D01*
X172383850Y-104047292D01*
X172494329Y-104194837D01*
X172564249Y-104209227D01*
X172613768Y-104142216D01*
X172678232Y-104062808D01*
X172772794Y-104065842D01*
X172948867Y-104156435D01*
X172988195Y-104179490D01*
X173178239Y-104287001D01*
X173270429Y-104309079D01*
X173312746Y-104246346D01*
X173330055Y-104183911D01*
X173384907Y-104053350D01*
X173486046Y-104021631D01*
X173682476Y-104077544D01*
X173725140Y-104093538D01*
X173882590Y-104132860D01*
X173948157Y-104065234D01*
X173963486Y-103987704D01*
X174011062Y-103860113D01*
X174137875Y-103821749D01*
X174265167Y-103828881D01*
X174468965Y-103835037D01*
X174530218Y-103776201D01*
X174472269Y-103621367D01*
X174451342Y-103581587D01*
X174414228Y-103465354D01*
X174478507Y-103379981D01*
X174672318Y-103285794D01*
X174862639Y-103197447D01*
X174915515Y-103133593D01*
X174853071Y-103062058D01*
X174835297Y-103048801D01*
X174756058Y-102971809D01*
X174774754Y-102892147D01*
X174908737Y-102768234D01*
X174974154Y-102716099D01*
X175141807Y-102576824D01*
X175184089Y-102510512D01*
X175112727Y-102490734D01*
X175074497Y-102489939D01*
X174880020Y-102441028D01*
X174827179Y-102315640D01*
X174913039Y-102159498D01*
X175029969Y-102007583D01*
X175008481Y-101946486D01*
X174840985Y-101959519D01*
X174823581Y-101962779D01*
X174678021Y-101979488D01*
X174626061Y-101924198D01*
X174639786Y-101754435D01*
X174648924Y-101697038D01*
X174658995Y-101484493D01*
X174614419Y-101386793D01*
X174530706Y-101426965D01*
X174498000Y-101473000D01*
X174373854Y-101557485D01*
X174229405Y-101504183D01*
X174111277Y-101330849D01*
X174108951Y-101324833D01*
X174040291Y-101173520D01*
X173985797Y-101167282D01*
X173937506Y-101240166D01*
X173799916Y-101372870D01*
X173650096Y-101350502D01*
X173525725Y-101179805D01*
X173520085Y-101165492D01*
X173451321Y-101013088D01*
X173377471Y-101004262D01*
X173260104Y-101101257D01*
X173128164Y-101205481D01*
X173038113Y-101189880D01*
X172931186Y-101070098D01*
X172782767Y-100913211D01*
X172702675Y-100903674D01*
X172677706Y-101040420D01*
X172677667Y-101049666D01*
X172669398Y-101168176D01*
X172617989Y-101207873D01*
X172483536Y-101173045D01*
X172283607Y-101092000D01*
X172051450Y-100999118D01*
X171941040Y-100978147D01*
X171918543Y-101034157D01*
X171942492Y-101143102D01*
X171957877Y-101249712D01*
X171903171Y-101291651D01*
X171739708Y-101282782D01*
X171605980Y-101263756D01*
X171374465Y-101234651D01*
X171272078Y-101248933D01*
X171261265Y-101320169D01*
X171278653Y-101381988D01*
X171296672Y-101487548D01*
X171237968Y-101539479D01*
X171065367Y-101556453D01*
X170928866Y-101557666D01*
X170523322Y-101557666D01*
X170732343Y-101704071D01*
X170941365Y-101850475D01*
X170476016Y-101944044D01*
X170215310Y-101998794D01*
X170100411Y-102038109D01*
X170111102Y-102079884D01*
X170227170Y-102142016D01*
X170243500Y-102149896D01*
X170428870Y-102261236D01*
X170451799Y-102353723D01*
X170310869Y-102450068D01*
X170222333Y-102489000D01*
X170047753Y-102581795D01*
X169968734Y-102664248D01*
X169968333Y-102668605D01*
X170041948Y-102720853D01*
X170219302Y-102742995D01*
X170222333Y-102743000D01*
X170414159Y-102772544D01*
X170473331Y-102843143D01*
X170383816Y-102927740D01*
X170342408Y-102945608D01*
X170185576Y-102993180D01*
X170156559Y-102957750D01*
X170180000Y-102912333D01*
X170151665Y-102847478D01*
X170036830Y-102826370D01*
X169824195Y-102791694D01*
X169715719Y-102745648D01*
X169666085Y-102681340D01*
X169744446Y-102609328D01*
X169744446Y-102609328D01*
G37*
X169744446Y-102609328D02*
X169906219Y-102534142D01*
X170140128Y-102411906D01*
X170211052Y-102302052D01*
X170123575Y-102192590D01*
X170053000Y-102150333D01*
X169906511Y-102032202D01*
X169911442Y-101936977D01*
X170065254Y-101895295D01*
X170074167Y-101895177D01*
X170320217Y-101871098D01*
X170453039Y-101843525D01*
X170641411Y-101793030D01*
X170453039Y-101635832D01*
X170264667Y-101478633D01*
X170497500Y-101465233D01*
X170700789Y-101447996D01*
X170815000Y-101430666D01*
X170971263Y-101405354D01*
X171037033Y-101398916D01*
X171127047Y-101369109D01*
X171080527Y-101275532D01*
X171066022Y-101257745D01*
X170940549Y-101178442D01*
X170872334Y-101212465D01*
X170762491Y-101232492D01*
X170681660Y-101153678D01*
X170594422Y-101060848D01*
X170504552Y-101081479D01*
X170398794Y-101170216D01*
X170236531Y-101278915D01*
X170162616Y-101251759D01*
X170196391Y-101101835D01*
X170221882Y-101050509D01*
X170280220Y-100923097D01*
X170229554Y-100918546D01*
X170136824Y-100965451D01*
X169958123Y-101024905D01*
X169895873Y-100977115D01*
X169968884Y-100853185D01*
X170033510Y-100794616D01*
X170225686Y-100638808D01*
X170039112Y-100579592D01*
X169917718Y-100533320D01*
X169929400Y-100486205D01*
X170079769Y-100401317D01*
X170262844Y-100278265D01*
X170281585Y-100174038D01*
X170134620Y-100069824D01*
X170053000Y-100033666D01*
X169858250Y-99926034D01*
X169808839Y-99836628D01*
X169909156Y-99785195D01*
X169996555Y-99779666D01*
X170206033Y-99747000D01*
X170263501Y-99652893D01*
X170209035Y-99551977D01*
X170164526Y-99433864D01*
X170256948Y-99330114D01*
X170331516Y-99256207D01*
X170291850Y-99196332D01*
X170115115Y-99121083D01*
X170086581Y-99110697D01*
X169771807Y-98996873D01*
X170049603Y-98880068D01*
X170226689Y-98790439D01*
X170266699Y-98711109D01*
X170222166Y-98636465D01*
X170161590Y-98494466D01*
X170213447Y-98393374D01*
X170251754Y-98288235D01*
X170157846Y-98179784D01*
X170096814Y-98137422D01*
X169921849Y-97992533D01*
X169909078Y-97886192D01*
X170058690Y-97807677D01*
X170102805Y-97795690D01*
X170249425Y-97738987D01*
X170251049Y-97659605D01*
X170222516Y-97620887D01*
X170163932Y-97477952D01*
X170177616Y-97412857D01*
X170174556Y-97285608D01*
X170100238Y-97136310D01*
X169983531Y-96915742D01*
X170000892Y-96785289D01*
X170151078Y-96753069D01*
X170158833Y-96753831D01*
X170292132Y-96743802D01*
X170329107Y-96641934D01*
X170320864Y-96531677D01*
X170323713Y-96358581D01*
X170395971Y-96324212D01*
X170405530Y-96327066D01*
X170503680Y-96419760D01*
X170510200Y-96463555D01*
X170499094Y-96619688D01*
X170489033Y-96783875D01*
X170453909Y-96942000D01*
X170350255Y-96970505D01*
X170307113Y-96961164D01*
X170196619Y-96937982D01*
X170190701Y-96976154D01*
X170289444Y-97109569D01*
X170307546Y-97132592D01*
X170416693Y-97317931D01*
X170394730Y-97447178D01*
X170387989Y-97455765D01*
X170345286Y-97573067D01*
X170387555Y-97618126D01*
X170473581Y-97726277D01*
X170402017Y-97827540D01*
X170256265Y-97884341D01*
X170036197Y-97939574D01*
X170277432Y-98137952D01*
X170427342Y-98276896D01*
X170453224Y-98364490D01*
X170391667Y-98429444D01*
X170314910Y-98516360D01*
X170370500Y-98565501D01*
X170470187Y-98667928D01*
X170438368Y-98797845D01*
X170291435Y-98895607D01*
X170173396Y-98941388D01*
X170186012Y-98989244D01*
X170339425Y-99076313D01*
X170341010Y-99077144D01*
X170495775Y-99170829D01*
X170515944Y-99249990D01*
X170435726Y-99354426D01*
X170351650Y-99500087D01*
X170386151Y-99564591D01*
X170473403Y-99673001D01*
X170402364Y-99774250D01*
X170252250Y-99832682D01*
X170028167Y-99888923D01*
X170252250Y-100006332D01*
X170436298Y-100136342D01*
X170455574Y-100254978D01*
X170328167Y-100366577D01*
X170231622Y-100448656D01*
X170284556Y-100522475D01*
X170296680Y-100530651D01*
X170375453Y-100633414D01*
X170369067Y-100680367D01*
X170384451Y-100790610D01*
X170438411Y-100858324D01*
X170559445Y-100914046D01*
X170606985Y-100874424D01*
X170690872Y-100855179D01*
X170770066Y-100933428D01*
X170856739Y-101029618D01*
X170908524Y-100978884D01*
X170936976Y-100896161D01*
X171012982Y-100751177D01*
X171074705Y-100711000D01*
X171149485Y-100761958D01*
X171106426Y-100884258D01*
X171052067Y-100948066D01*
X171003217Y-101029590D01*
X171099397Y-101049666D01*
X171199546Y-101012484D01*
X171196000Y-100965000D01*
X171206487Y-100887150D01*
X171240064Y-100880333D01*
X171298424Y-100807205D01*
X171278109Y-100614688D01*
X171249265Y-100434746D01*
X171295963Y-100375285D01*
X171443734Y-100391858D01*
X171594917Y-100412180D01*
X171603432Y-100369500D01*
X171537686Y-100291003D01*
X171420102Y-100116053D01*
X171448223Y-100019996D01*
X171618909Y-100011264D01*
X171640500Y-100014929D01*
X171873333Y-100057377D01*
X171640500Y-99837898D01*
X171475875Y-99645153D01*
X171408424Y-99487029D01*
X171442703Y-99395042D01*
X171577000Y-99398666D01*
X171709795Y-99405894D01*
X171746297Y-99284551D01*
X171746333Y-99277372D01*
X171799795Y-99132502D01*
X171931115Y-99114996D01*
X172071592Y-99207459D01*
X172175469Y-99267811D01*
X172247208Y-99198528D01*
X172324204Y-99133391D01*
X172448803Y-99173398D01*
X172529792Y-99223441D01*
X172682773Y-99312085D01*
X172756356Y-99300885D01*
X172794442Y-99225447D01*
X172832118Y-99093166D01*
X172805664Y-99008016D01*
X172689196Y-98959762D01*
X172456830Y-98938172D01*
X172082682Y-98933011D01*
X172054765Y-98933000D01*
X171262530Y-98933000D01*
X171214746Y-99630153D01*
X171184654Y-99986164D01*
X171144656Y-100217719D01*
X171081094Y-100369651D01*
X170980309Y-100486796D01*
X170943926Y-100519153D01*
X170776918Y-100648315D01*
X170663902Y-100710101D01*
X170656638Y-100711000D01*
X170633335Y-100631535D01*
X170614645Y-100413896D01*
X170602198Y-100089217D01*
X170597626Y-99688629D01*
X170597859Y-99589166D01*
X170596721Y-99086173D01*
X170589507Y-98565041D01*
X170577428Y-98090021D01*
X170563108Y-97749730D01*
X170545758Y-97400507D01*
X170547394Y-97180757D01*
X170576712Y-97050931D01*
X170642411Y-96971482D01*
X170748807Y-96905318D01*
X170926836Y-96835504D01*
X171040461Y-96844259D01*
X171041201Y-96844979D01*
X171076341Y-96954940D01*
X171112386Y-97190419D01*
X171143208Y-97507749D01*
X171151835Y-97633443D01*
X171196000Y-98355439D01*
X172886703Y-98396386D01*
X173409940Y-98411951D01*
X173878720Y-98431370D01*
X174265396Y-98453053D01*
X174542318Y-98475413D01*
X174681839Y-98496860D01*
X174689356Y-98499983D01*
X174744669Y-98573487D01*
X174688618Y-98701095D01*
X174625597Y-98786011D01*
X174484272Y-98925357D01*
X174302169Y-98999673D01*
X174017380Y-99033311D01*
X173993401Y-99034694D01*
X173734172Y-99052941D01*
X173614214Y-99081858D01*
X173603609Y-99139065D01*
X173662859Y-99229333D01*
X173763320Y-99346079D01*
X173836618Y-99327482D01*
X173907954Y-99237892D01*
X173998969Y-99134371D01*
X174075780Y-99148931D01*
X174188021Y-99275840D01*
X174348937Y-99474562D01*
X174409422Y-99283990D01*
X174474777Y-99155406D01*
X174565887Y-99174231D01*
X174589787Y-99192909D01*
X174680707Y-99239022D01*
X174708987Y-99144171D01*
X174709667Y-99103522D01*
X174732651Y-98973418D01*
X174835253Y-98950624D01*
X174940201Y-98972503D01*
X175096805Y-99005263D01*
X175109838Y-98969432D01*
X175024867Y-98869182D01*
X174899732Y-98703140D01*
X174913072Y-98616942D01*
X175068461Y-98588089D01*
X175069500Y-98588054D01*
X175159200Y-98571473D01*
X175112038Y-98523124D01*
X174936563Y-98438769D01*
X174753729Y-98335990D01*
X174675753Y-98246289D01*
X174682563Y-98221398D01*
X174657229Y-98184604D01*
X174501827Y-98187015D01*
X174434500Y-98196026D01*
X174217109Y-98209215D01*
X174119117Y-98169976D01*
X174117000Y-98158950D01*
X174045365Y-98111313D01*
X173873735Y-98126309D01*
X173679505Y-98139198D01*
X173582768Y-98053664D01*
X173575072Y-98035373D01*
X173522791Y-97937945D01*
X173456766Y-97979419D01*
X173409954Y-98041058D01*
X173307934Y-98140326D01*
X173187687Y-98118179D01*
X173113367Y-98075221D01*
X172963773Y-98003792D01*
X172874429Y-98043319D01*
X172842808Y-98086333D01*
X172763821Y-98166434D01*
X172679129Y-98107693D01*
X172648222Y-98068811D01*
X172553773Y-97971297D01*
X172465587Y-98000088D01*
X172392769Y-98068811D01*
X172269298Y-98160197D01*
X172189266Y-98117272D01*
X172180757Y-98104236D01*
X172069797Y-98038330D01*
X171841687Y-98040489D01*
X171741689Y-98054563D01*
X171370072Y-98113987D01*
X171512686Y-97896330D01*
X171601333Y-97738479D01*
X171587655Y-97660885D01*
X171531483Y-97631161D01*
X171418449Y-97522318D01*
X171454319Y-97351309D01*
X171547789Y-97225167D01*
X171637770Y-97110604D01*
X171595401Y-97073427D01*
X171499750Y-97070333D01*
X171389377Y-97054175D01*
X171352372Y-96982393D01*
X171386637Y-96820026D01*
X171470550Y-96583830D01*
X171450597Y-96516723D01*
X171298540Y-96521232D01*
X171255205Y-96529325D01*
X171065957Y-96544486D01*
X170980122Y-96473909D01*
X170964321Y-96423162D01*
X170929091Y-96335762D01*
X170875026Y-96384508D01*
X170817000Y-96496178D01*
X170719710Y-96644923D01*
X170639162Y-96685232D01*
X170637539Y-96684310D01*
X170633274Y-96593249D01*
X170705109Y-96416594D01*
X170742875Y-96348424D01*
X170886424Y-96159625D01*
X171000015Y-96109863D01*
X171062790Y-96203381D01*
X171069000Y-96282075D01*
X171104250Y-96366900D01*
X171237008Y-96383165D01*
X171374192Y-96365630D01*
X171571948Y-96342903D01*
X171643633Y-96375474D01*
X171628310Y-96481171D01*
X171628192Y-96481552D01*
X171557475Y-96710404D01*
X171524792Y-96816333D01*
X171514689Y-96938442D01*
X171616307Y-96982243D01*
X171709965Y-96985666D01*
X171947347Y-96985666D01*
X171704000Y-97239666D01*
X171577088Y-97395986D01*
X171542991Y-97491663D01*
X171561159Y-97504250D01*
X171727284Y-97531534D01*
X171746333Y-97536000D01*
X171908370Y-97566817D01*
X171936833Y-97570795D01*
X171947283Y-97624939D01*
X171845973Y-97744091D01*
X171788667Y-97794358D01*
X171534667Y-98004294D01*
X171816248Y-97907795D01*
X172045103Y-97854429D01*
X172179557Y-97894053D01*
X172191858Y-97905325D01*
X172306165Y-97945751D01*
X172437679Y-97861986D01*
X172555987Y-97771085D01*
X172615977Y-97802198D01*
X172643456Y-97865303D01*
X172718226Y-97956463D01*
X172807920Y-97914300D01*
X172950663Y-97870526D01*
X173099062Y-97933306D01*
X173245168Y-97998282D01*
X173334838Y-97941973D01*
X173367364Y-97889650D01*
X173442716Y-97785864D01*
X173525949Y-97804601D01*
X173617011Y-97881917D01*
X173770334Y-97978619D01*
X173937374Y-97954726D01*
X173994328Y-97930433D01*
X174184231Y-97850746D01*
X174266649Y-97850264D01*
X174286087Y-97933547D01*
X174286333Y-97960334D01*
X174321417Y-98039377D01*
X174452776Y-98055697D01*
X174619681Y-98035030D01*
X174830660Y-98009539D01*
X174915806Y-98035102D01*
X174914805Y-98127037D01*
X174909808Y-98147001D01*
X174917338Y-98276116D01*
X175047774Y-98361905D01*
X175133172Y-98389805D01*
X175336529Y-98480167D01*
X175388768Y-98576664D01*
X175284218Y-98659104D01*
X175214580Y-98679729D01*
X175032166Y-98722791D01*
X175209583Y-98883351D01*
X175359232Y-99051607D01*
X175360492Y-99145791D01*
X175215250Y-99159465D01*
X175133000Y-99144666D01*
X174956214Y-99120298D01*
X174889125Y-99184989D01*
X174879000Y-99349606D01*
X174847570Y-99551726D01*
X174764850Y-99601888D01*
X174648197Y-99492270D01*
X174629207Y-99462166D01*
X174551653Y-99359075D01*
X174487048Y-99404992D01*
X174451459Y-99462166D01*
X174326998Y-99595755D01*
X174219607Y-99561128D01*
X174154862Y-99426913D01*
X174096647Y-99243492D01*
X173948205Y-99440286D01*
X173799762Y-99637081D01*
X173645654Y-99401881D01*
X173491545Y-99166682D01*
X173340971Y-99352633D01*
X173188030Y-99473921D01*
X173066196Y-99458704D01*
X173016333Y-99312139D01*
X173016333Y-99311660D01*
X173074896Y-99230512D01*
X173136840Y-99238557D01*
X173267201Y-99209751D01*
X173351485Y-99108900D01*
X173399962Y-98983308D01*
X173332582Y-98938091D01*
X173209812Y-98933060D01*
X173034346Y-98962300D01*
X172968449Y-99082018D01*
X172961260Y-99153233D01*
X172909560Y-99394500D01*
X172788567Y-99482000D01*
X172594048Y-99418297D01*
X172559718Y-99396811D01*
X172406894Y-99306063D01*
X172347811Y-99313356D01*
X172339000Y-99388929D01*
X172295542Y-99510815D01*
X172184669Y-99492549D01*
X172085000Y-99398666D01*
X171943929Y-99282025D01*
X171855856Y-99324545D01*
X171831000Y-99480676D01*
X171803989Y-99630270D01*
X171703961Y-99647319D01*
X171682833Y-99640990D01*
X171648846Y-99656409D01*
X171731681Y-99751043D01*
X171809833Y-99819117D01*
X171980383Y-99973540D01*
X172076899Y-100087764D01*
X172085000Y-100109806D01*
X172012043Y-100142807D01*
X171833975Y-100138326D01*
X171809833Y-100135196D01*
X171534667Y-100096719D01*
X171739611Y-100318859D01*
X171879030Y-100500736D01*
X171878463Y-100589405D01*
X171739381Y-100581955D01*
X171625974Y-100544191D01*
X171477636Y-100497047D01*
X171418649Y-100534572D01*
X171417245Y-100692968D01*
X171423732Y-100774656D01*
X171463991Y-100996143D01*
X171554882Y-101097180D01*
X171633887Y-101118189D01*
X171767627Y-101109640D01*
X171779440Y-101000126D01*
X171772179Y-100970022D01*
X171747453Y-100854430D01*
X171775667Y-100808532D01*
X171891235Y-100827916D01*
X172128568Y-100908167D01*
X172162128Y-100920007D01*
X172382039Y-100991976D01*
X172496888Y-100994799D01*
X172561040Y-100916396D01*
X172598697Y-100823015D01*
X172682847Y-100601683D01*
X172885851Y-100792396D01*
X173036114Y-100916090D01*
X173147524Y-100927350D01*
X173280995Y-100848528D01*
X173417004Y-100768191D01*
X173497079Y-100799166D01*
X173578567Y-100964704D01*
X173580839Y-100970104D01*
X173662705Y-101139646D01*
X173743947Y-101174306D01*
X173886428Y-101096584D01*
X173901486Y-101086735D01*
X174055019Y-100999345D01*
X174135233Y-101028221D01*
X174201557Y-101176379D01*
X174294443Y-101336442D01*
X174414024Y-101352991D01*
X174435677Y-101345001D01*
X174673209Y-101256089D01*
X174790997Y-101254410D01*
X174822967Y-101356067D01*
X174809570Y-101522467D01*
X174793010Y-101726883D01*
X174833250Y-101804857D01*
X174966568Y-101798030D01*
X175037584Y-101784183D01*
X175241657Y-101783974D01*
X175309875Y-101871175D01*
X175228214Y-102017133D01*
X175175333Y-102065666D01*
X175059449Y-102207228D01*
X175107180Y-102310402D01*
X175260000Y-102369565D01*
X175429593Y-102433185D01*
X175447320Y-102513690D01*
X175310689Y-102629790D01*
X175217667Y-102687198D01*
X175017965Y-102832421D01*
X174979458Y-102942646D01*
X175100041Y-103027679D01*
X175141523Y-103042038D01*
X175254245Y-103107877D01*
X175208581Y-103187021D01*
X175000673Y-103283422D01*
X174858876Y-103331660D01*
X174542419Y-103432777D01*
X174670551Y-103680555D01*
X174798682Y-103928333D01*
X174457841Y-103928333D01*
X174239083Y-103939331D01*
X174141480Y-103992948D01*
X174117258Y-104120125D01*
X174117000Y-104149058D01*
X174092030Y-104305096D01*
X174002347Y-104324997D01*
X173982134Y-104318030D01*
X173689465Y-104220469D01*
X173519496Y-104206663D01*
X173447117Y-104277745D01*
X173439667Y-104342488D01*
X173425800Y-104474259D01*
X173361922Y-104508144D01*
X173214609Y-104444661D01*
X173053491Y-104348468D01*
X172869334Y-104242667D01*
X172771915Y-104226832D01*
X172706610Y-104297704D01*
X172689918Y-104326768D01*
X172621480Y-104419903D01*
X172540980Y-104406340D01*
X172403928Y-104288226D01*
X172246969Y-104167444D01*
X172139455Y-104169105D01*
X172095641Y-104204093D01*
X171992633Y-104256931D01*
X171886337Y-104169728D01*
X171868980Y-104146826D01*
X171767592Y-104036557D01*
X171673234Y-104057757D01*
X171592846Y-104125659D01*
X171428846Y-104248009D01*
X171345269Y-104230639D01*
X171321703Y-104076500D01*
X171288999Y-103825343D01*
X171181767Y-103715626D01*
X170979681Y-103736086D01*
X170820567Y-103798823D01*
X170602994Y-103882942D01*
X170455275Y-103914222D01*
X170426894Y-103907116D01*
X170429545Y-103808056D01*
X170498943Y-103628551D01*
X170512423Y-103601739D01*
X170624317Y-103353341D01*
X170624957Y-103219105D01*
X170498865Y-103173548D01*
X170260938Y-103187675D01*
X170008508Y-103200675D01*
X169908143Y-103163846D01*
X169908160Y-103135187D01*
X170005951Y-103050075D01*
X170038889Y-103047800D01*
X170182532Y-103056253D01*
X170414533Y-103066573D01*
X170476333Y-103068966D01*
X170700054Y-103093289D01*
X170798163Y-103158577D01*
X170815000Y-103246003D01*
X170776122Y-103408085D01*
X170730333Y-103462666D01*
X170646745Y-103567697D01*
X170687029Y-103647698D01*
X170793833Y-103647410D01*
X171072038Y-103561869D01*
X171229326Y-103532600D01*
X171307074Y-103567555D01*
X171346660Y-103674689D01*
X171364936Y-103757193D01*
X171412992Y-103932727D01*
X171471959Y-103965990D01*
X171576452Y-103886496D01*
X171695911Y-103800024D01*
X171784055Y-103836251D01*
X171863819Y-103940443D01*
X171966926Y-104070228D01*
X172038539Y-104066819D01*
X172114813Y-103973470D01*
X172201094Y-103875674D01*
X172272757Y-103894049D01*
X172380758Y-104042576D01*
X172383850Y-104047292D01*
X172494329Y-104194837D01*
X172564249Y-104209227D01*
X172613768Y-104142216D01*
X172678232Y-104062808D01*
X172772794Y-104065842D01*
X172948867Y-104156435D01*
X172988195Y-104179490D01*
X173178239Y-104287001D01*
X173270429Y-104309079D01*
X173312746Y-104246346D01*
X173330055Y-104183911D01*
X173384907Y-104053350D01*
X173486046Y-104021631D01*
X173682476Y-104077544D01*
X173725140Y-104093538D01*
X173882590Y-104132860D01*
X173948157Y-104065234D01*
X173963486Y-103987704D01*
X174011062Y-103860113D01*
X174137875Y-103821749D01*
X174265167Y-103828881D01*
X174468965Y-103835037D01*
X174530218Y-103776201D01*
X174472269Y-103621367D01*
X174451342Y-103581587D01*
X174414228Y-103465354D01*
X174478507Y-103379981D01*
X174672318Y-103285794D01*
X174862639Y-103197447D01*
X174915515Y-103133593D01*
X174853071Y-103062058D01*
X174835297Y-103048801D01*
X174756058Y-102971809D01*
X174774754Y-102892147D01*
X174908737Y-102768234D01*
X174974154Y-102716099D01*
X175141807Y-102576824D01*
X175184089Y-102510512D01*
X175112727Y-102490734D01*
X175074497Y-102489939D01*
X174880020Y-102441028D01*
X174827179Y-102315640D01*
X174913039Y-102159498D01*
X175029969Y-102007583D01*
X175008481Y-101946486D01*
X174840985Y-101959519D01*
X174823581Y-101962779D01*
X174678021Y-101979488D01*
X174626061Y-101924198D01*
X174639786Y-101754435D01*
X174648924Y-101697038D01*
X174658995Y-101484493D01*
X174614419Y-101386793D01*
X174530706Y-101426965D01*
X174498000Y-101473000D01*
X174373854Y-101557485D01*
X174229405Y-101504183D01*
X174111277Y-101330849D01*
X174108951Y-101324833D01*
X174040291Y-101173520D01*
X173985797Y-101167282D01*
X173937506Y-101240166D01*
X173799916Y-101372870D01*
X173650096Y-101350502D01*
X173525725Y-101179805D01*
X173520085Y-101165492D01*
X173451321Y-101013088D01*
X173377471Y-101004262D01*
X173260104Y-101101257D01*
X173128164Y-101205481D01*
X173038113Y-101189880D01*
X172931186Y-101070098D01*
X172782767Y-100913211D01*
X172702675Y-100903674D01*
X172677706Y-101040420D01*
X172677667Y-101049666D01*
X172669398Y-101168176D01*
X172617989Y-101207873D01*
X172483536Y-101173045D01*
X172283607Y-101092000D01*
X172051450Y-100999118D01*
X171941040Y-100978147D01*
X171918543Y-101034157D01*
X171942492Y-101143102D01*
X171957877Y-101249712D01*
X171903171Y-101291651D01*
X171739708Y-101282782D01*
X171605980Y-101263756D01*
X171374465Y-101234651D01*
X171272078Y-101248933D01*
X171261265Y-101320169D01*
X171278653Y-101381988D01*
X171296672Y-101487548D01*
X171237968Y-101539479D01*
X171065367Y-101556453D01*
X170928866Y-101557666D01*
X170523322Y-101557666D01*
X170732343Y-101704071D01*
X170941365Y-101850475D01*
X170476016Y-101944044D01*
X170215310Y-101998794D01*
X170100411Y-102038109D01*
X170111102Y-102079884D01*
X170227170Y-102142016D01*
X170243500Y-102149896D01*
X170428870Y-102261236D01*
X170451799Y-102353723D01*
X170310869Y-102450068D01*
X170222333Y-102489000D01*
X170047753Y-102581795D01*
X169968734Y-102664248D01*
X169968333Y-102668605D01*
X170041948Y-102720853D01*
X170219302Y-102742995D01*
X170222333Y-102743000D01*
X170414159Y-102772544D01*
X170473331Y-102843143D01*
X170383816Y-102927740D01*
X170342408Y-102945608D01*
X170185576Y-102993180D01*
X170156559Y-102957750D01*
X170180000Y-102912333D01*
X170151665Y-102847478D01*
X170036830Y-102826370D01*
X169824195Y-102791694D01*
X169715719Y-102745648D01*
X169666085Y-102681340D01*
X169744446Y-102609328D01*
G36*
X169658183Y-107330284D02*
G01*
X169743782Y-107298499D01*
X170026858Y-107256786D01*
X170190701Y-107304470D01*
X170328439Y-107381026D01*
X170340676Y-107468408D01*
X170257348Y-107610620D01*
X170171728Y-107762938D01*
X170192752Y-107813111D01*
X170334415Y-107765765D01*
X170491712Y-107688047D01*
X170752682Y-107553094D01*
X170693004Y-107793880D01*
X170633327Y-108034666D01*
X170935830Y-107742891D01*
X171114275Y-107577129D01*
X171204120Y-107521807D01*
X171235313Y-107566446D01*
X171238333Y-107637058D01*
X171258040Y-107778570D01*
X171339560Y-107807576D01*
X171516489Y-107729925D01*
X171577000Y-107696000D01*
X171792022Y-107591258D01*
X171893104Y-107596059D01*
X171897354Y-107712709D01*
X171891134Y-107738333D01*
X171884414Y-107882616D01*
X171966858Y-107887295D01*
X172074076Y-107801833D01*
X172174175Y-107751579D01*
X172287206Y-107828520D01*
X172338888Y-107888320D01*
X172469465Y-107989224D01*
X172566865Y-107983213D01*
X172580791Y-107885801D01*
X172550667Y-107823000D01*
X172543582Y-107747962D01*
X172627243Y-107753779D01*
X172732055Y-107826588D01*
X172844122Y-107856149D01*
X172928688Y-107784255D01*
X173069464Y-107667374D01*
X173163850Y-107687180D01*
X173185667Y-107780666D01*
X173226798Y-107895242D01*
X173342388Y-107865837D01*
X173485183Y-107734816D01*
X173641611Y-107561965D01*
X173742180Y-107749880D01*
X173842749Y-107937796D01*
X173954131Y-107759445D01*
X174065512Y-107581095D01*
X174302923Y-107750146D01*
X174540333Y-107919197D01*
X174540333Y-107741120D01*
X174563366Y-107617378D01*
X174662774Y-107629708D01*
X174704100Y-107650688D01*
X174875907Y-107728059D01*
X174919909Y-107698201D01*
X174844471Y-107551074D01*
X174819432Y-107512246D01*
X174671294Y-107286159D01*
X174965647Y-107342258D01*
X175260000Y-107398356D01*
X175048333Y-107231561D01*
X174934069Y-107119488D01*
X174932236Y-107064076D01*
X174942500Y-107062882D01*
X175052940Y-107032007D01*
X175038734Y-106969636D01*
X174930699Y-106911382D01*
X174794333Y-106891666D01*
X174615973Y-106868388D01*
X174540352Y-106812302D01*
X174540333Y-106811320D01*
X174472601Y-106788640D01*
X174304018Y-106831380D01*
X174244000Y-106854790D01*
X174036042Y-106921013D01*
X173949083Y-106899251D01*
X173947667Y-106888966D01*
X173872825Y-106837944D01*
X173663048Y-106852765D01*
X173651333Y-106854919D01*
X173444709Y-106872658D01*
X173355903Y-106833633D01*
X173355000Y-106826297D01*
X173283823Y-106741989D01*
X173165762Y-106692596D01*
X173033778Y-106648978D01*
X173049688Y-106592860D01*
X173144596Y-106519435D01*
X173257539Y-106423050D01*
X173234605Y-106369004D01*
X173164500Y-106338322D01*
X173037296Y-106249257D01*
X173035040Y-106162503D01*
X173140676Y-106129666D01*
X173226092Y-106073569D01*
X173216284Y-106002666D01*
X173211731Y-105892955D01*
X173318104Y-105898672D01*
X173505494Y-106007467D01*
X173641398Y-106091938D01*
X173688897Y-106072056D01*
X173693667Y-106007467D01*
X173728202Y-105891615D01*
X173759494Y-105875666D01*
X173871463Y-105919752D01*
X174013494Y-106007467D01*
X174149749Y-106090357D01*
X174201667Y-106099059D01*
X174228177Y-105994824D01*
X174253058Y-105924925D01*
X174257280Y-105859802D01*
X174189634Y-105819658D01*
X174021193Y-105798774D01*
X173723032Y-105791430D01*
X173575725Y-105791000D01*
X172847000Y-105791000D01*
X172847000Y-107061000D01*
X173778333Y-107061000D01*
X174152570Y-107067065D01*
X174455014Y-107083512D01*
X174651494Y-107107716D01*
X174709667Y-107132544D01*
X174653346Y-107239524D01*
X174561310Y-107338349D01*
X174432524Y-107407389D01*
X174206268Y-107456456D01*
X173855979Y-107489846D01*
X173524144Y-107506141D01*
X173133324Y-107526433D01*
X172789599Y-107554357D01*
X172538664Y-107585664D01*
X172444833Y-107606544D01*
X172298372Y-107631573D01*
X172254566Y-107549226D01*
X172254333Y-107536541D01*
X172229069Y-107467989D01*
X172132283Y-107426283D01*
X171932485Y-107405193D01*
X171598184Y-107398489D01*
X171555833Y-107398370D01*
X171098455Y-107383007D01*
X170805733Y-107338356D01*
X170675395Y-107263560D01*
X170705168Y-107157764D01*
X170767682Y-107101724D01*
X170951490Y-107026112D01*
X171268875Y-106985496D01*
X171616586Y-106976333D01*
X172301141Y-106976333D01*
X172268325Y-106632220D01*
X172231042Y-106410006D01*
X172166970Y-106328920D01*
X172120408Y-106334715D01*
X172120408Y-106181058D01*
X172215464Y-106180550D01*
X172251782Y-106057402D01*
X172254333Y-105969392D01*
X172240281Y-105796907D01*
X172164760Y-105722911D01*
X171977724Y-105705823D01*
X171936833Y-105705597D01*
X171608447Y-105693640D01*
X171280910Y-105663408D01*
X170996947Y-105621174D01*
X170799279Y-105573210D01*
X170730333Y-105528470D01*
X170804031Y-105466276D01*
X170989857Y-105390814D01*
X171090167Y-105360674D01*
X171306670Y-105320258D01*
X171589672Y-105304726D01*
X171970824Y-105314012D01*
X172481774Y-105348046D01*
X172597423Y-105357411D01*
X173066070Y-105393441D01*
X173516062Y-105423188D01*
X173899005Y-105443758D01*
X174166504Y-105452258D01*
X174184923Y-105452333D01*
X174455437Y-105464521D01*
X174591014Y-105507581D01*
X174625000Y-105581990D01*
X174556411Y-105722727D01*
X174495839Y-105761211D01*
X174413654Y-105831011D01*
X174463873Y-105927887D01*
X174598976Y-106034460D01*
X174691116Y-106008176D01*
X174709667Y-105925926D01*
X174772079Y-105842461D01*
X174873263Y-105849634D01*
X174991153Y-105853167D01*
X174997859Y-105745303D01*
X174990389Y-105714708D01*
X174994011Y-105564278D01*
X175059625Y-105530316D01*
X175074417Y-105502540D01*
X174955765Y-105443763D01*
X174936869Y-105436717D01*
X174766093Y-105334195D01*
X174744114Y-105230687D01*
X174737244Y-105149369D01*
X174603312Y-105150429D01*
X174580411Y-105154953D01*
X174320230Y-105208892D01*
X174159333Y-105242280D01*
X173996436Y-105246718D01*
X173947720Y-105153991D01*
X173947667Y-105148555D01*
X173904238Y-105053642D01*
X173799500Y-105071881D01*
X173542259Y-105164848D01*
X173404048Y-105175394D01*
X173356235Y-105103979D01*
X173355000Y-105079034D01*
X173339997Y-104992826D01*
X173265024Y-104993453D01*
X173101000Y-105071333D01*
X172913782Y-105148288D01*
X172837014Y-105115563D01*
X172840436Y-104997446D01*
X172788875Y-104963454D01*
X172702296Y-104985885D01*
X172445688Y-105079288D01*
X172307355Y-105091482D01*
X172256890Y-105022299D01*
X172254333Y-104983419D01*
X172243635Y-104885056D01*
X172183577Y-104901687D01*
X172082999Y-104988477D01*
X171927848Y-105087598D01*
X171818134Y-105050001D01*
X171690617Y-105000718D01*
X171573010Y-105051141D01*
X171407642Y-105099340D01*
X171288543Y-105035537D01*
X171174993Y-104970459D01*
X171111024Y-105042145D01*
X171105132Y-105056963D01*
X171028528Y-105142822D01*
X170873652Y-105119474D01*
X170844618Y-105108832D01*
X170656373Y-105043552D01*
X170577915Y-105055226D01*
X170561175Y-105159529D01*
X170561000Y-105201312D01*
X170542057Y-105318043D01*
X170453315Y-105313934D01*
X170370500Y-105273659D01*
X170240933Y-105209976D01*
X170239839Y-105237651D01*
X170336461Y-105350012D01*
X170432959Y-105507338D01*
X170437297Y-105616331D01*
X170458115Y-105688304D01*
X170556003Y-105706333D01*
X170696249Y-105742425D01*
X170730333Y-105794836D01*
X170805564Y-105844210D01*
X171017086Y-105829405D01*
X171038906Y-105825451D01*
X171239829Y-105801011D01*
X171299359Y-105834045D01*
X171286675Y-105865945D01*
X171293968Y-105922442D01*
X171431992Y-105927391D01*
X171584843Y-105906925D01*
X171806007Y-105879344D01*
X171897747Y-105898323D01*
X171895917Y-105973573D01*
X171890065Y-105989595D01*
X171879081Y-106106557D01*
X171911399Y-106129666D01*
X172050573Y-106157489D01*
X172120408Y-106181058D01*
X172120408Y-106334715D01*
X172110996Y-106335887D01*
X171979298Y-106378533D01*
X171949123Y-106383666D01*
X171962748Y-106444315D01*
X172047413Y-106590681D01*
X172050452Y-106595333D01*
X172125505Y-106745663D01*
X172080958Y-106800087D01*
X171905423Y-106763814D01*
X171780036Y-106719052D01*
X171590368Y-106673583D01*
X171488115Y-106729749D01*
X171481772Y-106739422D01*
X171402352Y-106795408D01*
X171260798Y-106752834D01*
X171157247Y-106695583D01*
X170985324Y-106603693D01*
X170913016Y-106603776D01*
X170899667Y-106675213D01*
X170880791Y-106783915D01*
X170800776Y-106787439D01*
X170624540Y-106686084D01*
X170611648Y-106677662D01*
X170472628Y-106596493D01*
X170435571Y-106631773D01*
X170455164Y-106762329D01*
X170446780Y-106926455D01*
X170369421Y-106979453D01*
X170265288Y-106892669D01*
X170264667Y-106891666D01*
X170141292Y-106812324D01*
X170111503Y-106809817D01*
X170094947Y-106856087D01*
X170192640Y-106964353D01*
X170201167Y-106971555D01*
X170358753Y-107124871D01*
X170370893Y-107207173D01*
X170250555Y-107230333D01*
X170158529Y-107203961D01*
X170167074Y-107172703D01*
X170151598Y-107082021D01*
X170042127Y-106927062D01*
X169996012Y-106876370D01*
X169849153Y-106711265D01*
X169835014Y-106647737D01*
X169960971Y-106673513D01*
X170089821Y-106720238D01*
X170246027Y-106762999D01*
X170301191Y-106701315D01*
X170307000Y-106593238D01*
X170319758Y-106434277D01*
X170382636Y-106397154D01*
X170532542Y-106472888D01*
X170606312Y-106520404D01*
X170753281Y-106607458D01*
X170807673Y-106594151D01*
X170815000Y-106510666D01*
X170826604Y-106417065D01*
X170891200Y-106420380D01*
X171037317Y-106509859D01*
X171206049Y-106599519D01*
X171300291Y-106580770D01*
X171327587Y-106545577D01*
X171412844Y-106479501D01*
X171563525Y-106513280D01*
X171617254Y-106536647D01*
X171834040Y-106623098D01*
X171908994Y-106620629D01*
X171850879Y-106539013D01*
X171805430Y-106434315D01*
X171897446Y-106330039D01*
X171987868Y-106247642D01*
X171932042Y-106220121D01*
X171843108Y-106217026D01*
X171700110Y-106185431D01*
X171694647Y-106081224D01*
X171695899Y-106077914D01*
X171718091Y-106006225D01*
X171692773Y-105975624D01*
X171587832Y-105987275D01*
X171371156Y-106042345D01*
X171173575Y-106096875D01*
X171037704Y-106115071D01*
X171024378Y-106042037D01*
X171035072Y-106011292D01*
X171050820Y-105921426D01*
X170968842Y-105921313D01*
X170861486Y-105958754D01*
X170647302Y-106023249D01*
X170502788Y-106045000D01*
X170417455Y-106022300D01*
X170467599Y-105928635D01*
X170476333Y-105918000D01*
X170520738Y-105837524D01*
X170456308Y-105800383D01*
X170253809Y-105791018D01*
X170237697Y-105791000D01*
X170008800Y-105771892D01*
X169860224Y-105724259D01*
X169841333Y-105706333D01*
X169870162Y-105642465D01*
X169991559Y-105621666D01*
X170194092Y-105595170D01*
X170247359Y-105507271D01*
X170154247Y-105345352D01*
X170075352Y-105255626D01*
X169950358Y-105104280D01*
X169947982Y-105040667D01*
X170077538Y-105061469D01*
X170341776Y-105160675D01*
X170457533Y-105186013D01*
X170467935Y-105095478D01*
X170455536Y-105043281D01*
X170440085Y-104906298D01*
X170511471Y-104867155D01*
X170698054Y-104916658D01*
X170767155Y-104942238D01*
X170924076Y-104984909D01*
X170979509Y-104930107D01*
X170984333Y-104857571D01*
X171020320Y-104713240D01*
X171126832Y-104721818D01*
X171281856Y-104860980D01*
X171436289Y-105031628D01*
X171622824Y-104856387D01*
X171757599Y-104744127D01*
X171826409Y-104748757D01*
X171863375Y-104821913D01*
X171915161Y-104912261D01*
X172000955Y-104901877D01*
X172128196Y-104824554D01*
X172276506Y-104738487D01*
X172332251Y-104752642D01*
X172339000Y-104815381D01*
X172387271Y-104929025D01*
X172535076Y-104912023D01*
X172722979Y-104807596D01*
X172869950Y-104720915D01*
X172924135Y-104740952D01*
X172931667Y-104852103D01*
X172942905Y-104969322D01*
X173007618Y-104985026D01*
X173172300Y-104908908D01*
X173181462Y-104904174D01*
X173429235Y-104795819D01*
X173551784Y-104794142D01*
X173555570Y-104899361D01*
X173549310Y-104916699D01*
X173537712Y-105016456D01*
X173643730Y-105001299D01*
X173644500Y-105001004D01*
X173844617Y-104935216D01*
X174011787Y-104888966D01*
X174163124Y-104866492D01*
X174190981Y-104925047D01*
X174172841Y-104981996D01*
X174156619Y-105065765D01*
X174216917Y-105099303D01*
X174388736Y-105090685D01*
X174552702Y-105069632D01*
X174805574Y-105040932D01*
X174926386Y-105050241D01*
X174949511Y-105104370D01*
X174936984Y-105145746D01*
X174953969Y-105268562D01*
X175112818Y-105400290D01*
X175199368Y-105449197D01*
X175387076Y-105555963D01*
X175438604Y-105616372D01*
X175370409Y-105657391D01*
X175333336Y-105668717D01*
X175199537Y-105756352D01*
X175198307Y-105895445D01*
X175210024Y-106015520D01*
X175125212Y-106036084D01*
X175019137Y-106013529D01*
X174850242Y-105995382D01*
X174795038Y-106067980D01*
X174794333Y-106085720D01*
X174750598Y-106202222D01*
X174632621Y-106176071D01*
X174551567Y-106108500D01*
X174448495Y-106054853D01*
X174342771Y-106140854D01*
X174324313Y-106165174D01*
X174225027Y-106275130D01*
X174133792Y-106258018D01*
X174042460Y-106181165D01*
X173913074Y-106090978D01*
X173849109Y-106130658D01*
X173843890Y-106144662D01*
X173783230Y-106210700D01*
X173645050Y-106179597D01*
X173588227Y-106154896D01*
X173420936Y-106098163D01*
X173340224Y-106139154D01*
X173323300Y-106174819D01*
X173348135Y-106308501D01*
X173422016Y-106375929D01*
X173507347Y-106442071D01*
X173455460Y-106498385D01*
X173355000Y-106542135D01*
X173143333Y-106626933D01*
X173376167Y-106632300D01*
X173545221Y-106664363D01*
X173609000Y-106727330D01*
X173662527Y-106774017D01*
X173707263Y-106756263D01*
X173849988Y-106713562D01*
X174082695Y-106682844D01*
X174151763Y-106678354D01*
X174415956Y-106650601D01*
X174629813Y-106603790D01*
X174660865Y-106592388D01*
X174777003Y-106563473D01*
X174777318Y-106643549D01*
X174769356Y-106665301D01*
X174769923Y-106780530D01*
X174874732Y-106807000D01*
X175102130Y-106838196D01*
X175262128Y-106915307D01*
X175302333Y-106985392D01*
X175232331Y-107049745D01*
X175154167Y-107061420D01*
X175086336Y-107085717D01*
X175141824Y-107171246D01*
X175260000Y-107278911D01*
X175514000Y-107495980D01*
X175195290Y-107452950D01*
X174992275Y-107430677D01*
X174927561Y-107454322D01*
X174971885Y-107545394D01*
X175004790Y-107592965D01*
X175114998Y-107787466D01*
X175111620Y-107884508D01*
X175006000Y-107874392D01*
X174806895Y-107793822D01*
X174752000Y-107771608D01*
X174649796Y-107780859D01*
X174625000Y-107898608D01*
X174603055Y-108042247D01*
X174522832Y-108056829D01*
X174362748Y-107941547D01*
X174301342Y-107886500D01*
X174154561Y-107781109D01*
X174066645Y-107772299D01*
X174061676Y-107780666D01*
X173989658Y-107921904D01*
X173946290Y-107992333D01*
X173866662Y-108076764D01*
X173790974Y-108009249D01*
X173779710Y-107992333D01*
X173689575Y-107836115D01*
X173664324Y-107780666D01*
X173589664Y-107773738D01*
X173447701Y-107866413D01*
X173419768Y-107891093D01*
X173272687Y-108013261D01*
X173196807Y-108022092D01*
X173152389Y-107943068D01*
X173100312Y-107849909D01*
X173021948Y-107873004D01*
X172929901Y-107951597D01*
X172808860Y-108039864D01*
X172762333Y-108034666D01*
X172710745Y-108030699D01*
X172604893Y-108108570D01*
X172480641Y-108200556D01*
X172395064Y-108163864D01*
X172326016Y-108068158D01*
X172234061Y-107951719D01*
X172137117Y-107934116D01*
X171968073Y-108007632D01*
X171937327Y-108023465D01*
X171714839Y-108130372D01*
X171616976Y-108147450D01*
X171623032Y-108071776D01*
X171665547Y-107985082D01*
X171725876Y-107813019D01*
X171664952Y-107758215D01*
X171505151Y-107816140D01*
X171310855Y-107891598D01*
X171162255Y-107902609D01*
X171105265Y-107850188D01*
X171120827Y-107807639D01*
X171099425Y-107793545D01*
X170976399Y-107868266D01*
X170871824Y-107944688D01*
X170561000Y-108181764D01*
X170561000Y-107957875D01*
X170552802Y-107811658D01*
X170497153Y-107779214D01*
X170347469Y-107844478D01*
X170301260Y-107868301D01*
X170066555Y-107964870D01*
X169951034Y-107956510D01*
X169963392Y-107848190D01*
X170046925Y-107722954D01*
X170166445Y-107557482D01*
X170221860Y-107454102D01*
X170222333Y-107449812D01*
X170146836Y-107417767D01*
X169956996Y-107396503D01*
X169862500Y-107392982D01*
X169645271Y-107386328D01*
X169582215Y-107369447D01*
X169658183Y-107330284D01*
X169658183Y-107330284D01*
G37*
X169658183Y-107330284D02*
X169743782Y-107298499D01*
X170026858Y-107256786D01*
X170190701Y-107304470D01*
X170328439Y-107381026D01*
X170340676Y-107468408D01*
X170257348Y-107610620D01*
X170171728Y-107762938D01*
X170192752Y-107813111D01*
X170334415Y-107765765D01*
X170491712Y-107688047D01*
X170752682Y-107553094D01*
X170693004Y-107793880D01*
X170633327Y-108034666D01*
X170935830Y-107742891D01*
X171114275Y-107577129D01*
X171204120Y-107521807D01*
X171235313Y-107566446D01*
X171238333Y-107637058D01*
X171258040Y-107778570D01*
X171339560Y-107807576D01*
X171516489Y-107729925D01*
X171577000Y-107696000D01*
X171792022Y-107591258D01*
X171893104Y-107596059D01*
X171897354Y-107712709D01*
X171891134Y-107738333D01*
X171884414Y-107882616D01*
X171966858Y-107887295D01*
X172074076Y-107801833D01*
X172174175Y-107751579D01*
X172287206Y-107828520D01*
X172338888Y-107888320D01*
X172469465Y-107989224D01*
X172566865Y-107983213D01*
X172580791Y-107885801D01*
X172550667Y-107823000D01*
X172543582Y-107747962D01*
X172627243Y-107753779D01*
X172732055Y-107826588D01*
X172844122Y-107856149D01*
X172928688Y-107784255D01*
X173069464Y-107667374D01*
X173163850Y-107687180D01*
X173185667Y-107780666D01*
X173226798Y-107895242D01*
X173342388Y-107865837D01*
X173485183Y-107734816D01*
X173641611Y-107561965D01*
X173742180Y-107749880D01*
X173842749Y-107937796D01*
X173954131Y-107759445D01*
X174065512Y-107581095D01*
X174302923Y-107750146D01*
X174540333Y-107919197D01*
X174540333Y-107741120D01*
X174563366Y-107617378D01*
X174662774Y-107629708D01*
X174704100Y-107650688D01*
X174875907Y-107728059D01*
X174919909Y-107698201D01*
X174844471Y-107551074D01*
X174819432Y-107512246D01*
X174671294Y-107286159D01*
X174965647Y-107342258D01*
X175260000Y-107398356D01*
X175048333Y-107231561D01*
X174934069Y-107119488D01*
X174932236Y-107064076D01*
X174942500Y-107062882D01*
X175052940Y-107032007D01*
X175038734Y-106969636D01*
X174930699Y-106911382D01*
X174794333Y-106891666D01*
X174615973Y-106868388D01*
X174540352Y-106812302D01*
X174540333Y-106811320D01*
X174472601Y-106788640D01*
X174304018Y-106831380D01*
X174244000Y-106854790D01*
X174036042Y-106921013D01*
X173949083Y-106899251D01*
X173947667Y-106888966D01*
X173872825Y-106837944D01*
X173663048Y-106852765D01*
X173651333Y-106854919D01*
X173444709Y-106872658D01*
X173355903Y-106833633D01*
X173355000Y-106826297D01*
X173283823Y-106741989D01*
X173165762Y-106692596D01*
X173033778Y-106648978D01*
X173049688Y-106592860D01*
X173144596Y-106519435D01*
X173257539Y-106423050D01*
X173234605Y-106369004D01*
X173164500Y-106338322D01*
X173037296Y-106249257D01*
X173035040Y-106162503D01*
X173140676Y-106129666D01*
X173226092Y-106073569D01*
X173216284Y-106002666D01*
X173211731Y-105892955D01*
X173318104Y-105898672D01*
X173505494Y-106007467D01*
X173641398Y-106091938D01*
X173688897Y-106072056D01*
X173693667Y-106007467D01*
X173728202Y-105891615D01*
X173759494Y-105875666D01*
X173871463Y-105919752D01*
X174013494Y-106007467D01*
X174149749Y-106090357D01*
X174201667Y-106099059D01*
X174228177Y-105994824D01*
X174253058Y-105924925D01*
X174257280Y-105859802D01*
X174189634Y-105819658D01*
X174021193Y-105798774D01*
X173723032Y-105791430D01*
X173575725Y-105791000D01*
X172847000Y-105791000D01*
X172847000Y-107061000D01*
X173778333Y-107061000D01*
X174152570Y-107067065D01*
X174455014Y-107083512D01*
X174651494Y-107107716D01*
X174709667Y-107132544D01*
X174653346Y-107239524D01*
X174561310Y-107338349D01*
X174432524Y-107407389D01*
X174206268Y-107456456D01*
X173855979Y-107489846D01*
X173524144Y-107506141D01*
X173133324Y-107526433D01*
X172789599Y-107554357D01*
X172538664Y-107585664D01*
X172444833Y-107606544D01*
X172298372Y-107631573D01*
X172254566Y-107549226D01*
X172254333Y-107536541D01*
X172229069Y-107467989D01*
X172132283Y-107426283D01*
X171932485Y-107405193D01*
X171598184Y-107398489D01*
X171555833Y-107398370D01*
X171098455Y-107383007D01*
X170805733Y-107338356D01*
X170675395Y-107263560D01*
X170705168Y-107157764D01*
X170767682Y-107101724D01*
X170951490Y-107026112D01*
X171268875Y-106985496D01*
X171616586Y-106976333D01*
X172301141Y-106976333D01*
X172268325Y-106632220D01*
X172231042Y-106410006D01*
X172166970Y-106328920D01*
X172120408Y-106334715D01*
X172120408Y-106181058D01*
X172215464Y-106180550D01*
X172251782Y-106057402D01*
X172254333Y-105969392D01*
X172240281Y-105796907D01*
X172164760Y-105722911D01*
X171977724Y-105705823D01*
X171936833Y-105705597D01*
X171608447Y-105693640D01*
X171280910Y-105663408D01*
X170996947Y-105621174D01*
X170799279Y-105573210D01*
X170730333Y-105528470D01*
X170804031Y-105466276D01*
X170989857Y-105390814D01*
X171090167Y-105360674D01*
X171306670Y-105320258D01*
X171589672Y-105304726D01*
X171970824Y-105314012D01*
X172481774Y-105348046D01*
X172597423Y-105357411D01*
X173066070Y-105393441D01*
X173516062Y-105423188D01*
X173899005Y-105443758D01*
X174166504Y-105452258D01*
X174184923Y-105452333D01*
X174455437Y-105464521D01*
X174591014Y-105507581D01*
X174625000Y-105581990D01*
X174556411Y-105722727D01*
X174495839Y-105761211D01*
X174413654Y-105831011D01*
X174463873Y-105927887D01*
X174598976Y-106034460D01*
X174691116Y-106008176D01*
X174709667Y-105925926D01*
X174772079Y-105842461D01*
X174873263Y-105849634D01*
X174991153Y-105853167D01*
X174997859Y-105745303D01*
X174990389Y-105714708D01*
X174994011Y-105564278D01*
X175059625Y-105530316D01*
X175074417Y-105502540D01*
X174955765Y-105443763D01*
X174936869Y-105436717D01*
X174766093Y-105334195D01*
X174744114Y-105230687D01*
X174737244Y-105149369D01*
X174603312Y-105150429D01*
X174580411Y-105154953D01*
X174320230Y-105208892D01*
X174159333Y-105242280D01*
X173996436Y-105246718D01*
X173947720Y-105153991D01*
X173947667Y-105148555D01*
X173904238Y-105053642D01*
X173799500Y-105071881D01*
X173542259Y-105164848D01*
X173404048Y-105175394D01*
X173356235Y-105103979D01*
X173355000Y-105079034D01*
X173339997Y-104992826D01*
X173265024Y-104993453D01*
X173101000Y-105071333D01*
X172913782Y-105148288D01*
X172837014Y-105115563D01*
X172840436Y-104997446D01*
X172788875Y-104963454D01*
X172702296Y-104985885D01*
X172445688Y-105079288D01*
X172307355Y-105091482D01*
X172256890Y-105022299D01*
X172254333Y-104983419D01*
X172243635Y-104885056D01*
X172183577Y-104901687D01*
X172082999Y-104988477D01*
X171927848Y-105087598D01*
X171818134Y-105050001D01*
X171690617Y-105000718D01*
X171573010Y-105051141D01*
X171407642Y-105099340D01*
X171288543Y-105035537D01*
X171174993Y-104970459D01*
X171111024Y-105042145D01*
X171105132Y-105056963D01*
X171028528Y-105142822D01*
X170873652Y-105119474D01*
X170844618Y-105108832D01*
X170656373Y-105043552D01*
X170577915Y-105055226D01*
X170561175Y-105159529D01*
X170561000Y-105201312D01*
X170542057Y-105318043D01*
X170453315Y-105313934D01*
X170370500Y-105273659D01*
X170240933Y-105209976D01*
X170239839Y-105237651D01*
X170336461Y-105350012D01*
X170432959Y-105507338D01*
X170437297Y-105616331D01*
X170458115Y-105688304D01*
X170556003Y-105706333D01*
X170696249Y-105742425D01*
X170730333Y-105794836D01*
X170805564Y-105844210D01*
X171017086Y-105829405D01*
X171038906Y-105825451D01*
X171239829Y-105801011D01*
X171299359Y-105834045D01*
X171286675Y-105865945D01*
X171293968Y-105922442D01*
X171431992Y-105927391D01*
X171584843Y-105906925D01*
X171806007Y-105879344D01*
X171897747Y-105898323D01*
X171895917Y-105973573D01*
X171890065Y-105989595D01*
X171879081Y-106106557D01*
X171911399Y-106129666D01*
X172050573Y-106157489D01*
X172120408Y-106181058D01*
X172120408Y-106334715D01*
X172110996Y-106335887D01*
X171979298Y-106378533D01*
X171949123Y-106383666D01*
X171962748Y-106444315D01*
X172047413Y-106590681D01*
X172050452Y-106595333D01*
X172125505Y-106745663D01*
X172080958Y-106800087D01*
X171905423Y-106763814D01*
X171780036Y-106719052D01*
X171590368Y-106673583D01*
X171488115Y-106729749D01*
X171481772Y-106739422D01*
X171402352Y-106795408D01*
X171260798Y-106752834D01*
X171157247Y-106695583D01*
X170985324Y-106603693D01*
X170913016Y-106603776D01*
X170899667Y-106675213D01*
X170880791Y-106783915D01*
X170800776Y-106787439D01*
X170624540Y-106686084D01*
X170611648Y-106677662D01*
X170472628Y-106596493D01*
X170435571Y-106631773D01*
X170455164Y-106762329D01*
X170446780Y-106926455D01*
X170369421Y-106979453D01*
X170265288Y-106892669D01*
X170264667Y-106891666D01*
X170141292Y-106812324D01*
X170111503Y-106809817D01*
X170094947Y-106856087D01*
X170192640Y-106964353D01*
X170201167Y-106971555D01*
X170358753Y-107124871D01*
X170370893Y-107207173D01*
X170250555Y-107230333D01*
X170158529Y-107203961D01*
X170167074Y-107172703D01*
X170151598Y-107082021D01*
X170042127Y-106927062D01*
X169996012Y-106876370D01*
X169849153Y-106711265D01*
X169835014Y-106647737D01*
X169960971Y-106673513D01*
X170089821Y-106720238D01*
X170246027Y-106762999D01*
X170301191Y-106701315D01*
X170307000Y-106593238D01*
X170319758Y-106434277D01*
X170382636Y-106397154D01*
X170532542Y-106472888D01*
X170606312Y-106520404D01*
X170753281Y-106607458D01*
X170807673Y-106594151D01*
X170815000Y-106510666D01*
X170826604Y-106417065D01*
X170891200Y-106420380D01*
X171037317Y-106509859D01*
X171206049Y-106599519D01*
X171300291Y-106580770D01*
X171327587Y-106545577D01*
X171412844Y-106479501D01*
X171563525Y-106513280D01*
X171617254Y-106536647D01*
X171834040Y-106623098D01*
X171908994Y-106620629D01*
X171850879Y-106539013D01*
X171805430Y-106434315D01*
X171897446Y-106330039D01*
X171987868Y-106247642D01*
X171932042Y-106220121D01*
X171843108Y-106217026D01*
X171700110Y-106185431D01*
X171694647Y-106081224D01*
X171695899Y-106077914D01*
X171718091Y-106006225D01*
X171692773Y-105975624D01*
X171587832Y-105987275D01*
X171371156Y-106042345D01*
X171173575Y-106096875D01*
X171037704Y-106115071D01*
X171024378Y-106042037D01*
X171035072Y-106011292D01*
X171050820Y-105921426D01*
X170968842Y-105921313D01*
X170861486Y-105958754D01*
X170647302Y-106023249D01*
X170502788Y-106045000D01*
X170417455Y-106022300D01*
X170467599Y-105928635D01*
X170476333Y-105918000D01*
X170520738Y-105837524D01*
X170456308Y-105800383D01*
X170253809Y-105791018D01*
X170237697Y-105791000D01*
X170008800Y-105771892D01*
X169860224Y-105724259D01*
X169841333Y-105706333D01*
X169870162Y-105642465D01*
X169991559Y-105621666D01*
X170194092Y-105595170D01*
X170247359Y-105507271D01*
X170154247Y-105345352D01*
X170075352Y-105255626D01*
X169950358Y-105104280D01*
X169947982Y-105040667D01*
X170077538Y-105061469D01*
X170341776Y-105160675D01*
X170457533Y-105186013D01*
X170467935Y-105095478D01*
X170455536Y-105043281D01*
X170440085Y-104906298D01*
X170511471Y-104867155D01*
X170698054Y-104916658D01*
X170767155Y-104942238D01*
X170924076Y-104984909D01*
X170979509Y-104930107D01*
X170984333Y-104857571D01*
X171020320Y-104713240D01*
X171126832Y-104721818D01*
X171281856Y-104860980D01*
X171436289Y-105031628D01*
X171622824Y-104856387D01*
X171757599Y-104744127D01*
X171826409Y-104748757D01*
X171863375Y-104821913D01*
X171915161Y-104912261D01*
X172000955Y-104901877D01*
X172128196Y-104824554D01*
X172276506Y-104738487D01*
X172332251Y-104752642D01*
X172339000Y-104815381D01*
X172387271Y-104929025D01*
X172535076Y-104912023D01*
X172722979Y-104807596D01*
X172869950Y-104720915D01*
X172924135Y-104740952D01*
X172931667Y-104852103D01*
X172942905Y-104969322D01*
X173007618Y-104985026D01*
X173172300Y-104908908D01*
X173181462Y-104904174D01*
X173429235Y-104795819D01*
X173551784Y-104794142D01*
X173555570Y-104899361D01*
X173549310Y-104916699D01*
X173537712Y-105016456D01*
X173643730Y-105001299D01*
X173644500Y-105001004D01*
X173844617Y-104935216D01*
X174011787Y-104888966D01*
X174163124Y-104866492D01*
X174190981Y-104925047D01*
X174172841Y-104981996D01*
X174156619Y-105065765D01*
X174216917Y-105099303D01*
X174388736Y-105090685D01*
X174552702Y-105069632D01*
X174805574Y-105040932D01*
X174926386Y-105050241D01*
X174949511Y-105104370D01*
X174936984Y-105145746D01*
X174953969Y-105268562D01*
X175112818Y-105400290D01*
X175199368Y-105449197D01*
X175387076Y-105555963D01*
X175438604Y-105616372D01*
X175370409Y-105657391D01*
X175333336Y-105668717D01*
X175199537Y-105756352D01*
X175198307Y-105895445D01*
X175210024Y-106015520D01*
X175125212Y-106036084D01*
X175019137Y-106013529D01*
X174850242Y-105995382D01*
X174795038Y-106067980D01*
X174794333Y-106085720D01*
X174750598Y-106202222D01*
X174632621Y-106176071D01*
X174551567Y-106108500D01*
X174448495Y-106054853D01*
X174342771Y-106140854D01*
X174324313Y-106165174D01*
X174225027Y-106275130D01*
X174133792Y-106258018D01*
X174042460Y-106181165D01*
X173913074Y-106090978D01*
X173849109Y-106130658D01*
X173843890Y-106144662D01*
X173783230Y-106210700D01*
X173645050Y-106179597D01*
X173588227Y-106154896D01*
X173420936Y-106098163D01*
X173340224Y-106139154D01*
X173323300Y-106174819D01*
X173348135Y-106308501D01*
X173422016Y-106375929D01*
X173507347Y-106442071D01*
X173455460Y-106498385D01*
X173355000Y-106542135D01*
X173143333Y-106626933D01*
X173376167Y-106632300D01*
X173545221Y-106664363D01*
X173609000Y-106727330D01*
X173662527Y-106774017D01*
X173707263Y-106756263D01*
X173849988Y-106713562D01*
X174082695Y-106682844D01*
X174151763Y-106678354D01*
X174415956Y-106650601D01*
X174629813Y-106603790D01*
X174660865Y-106592388D01*
X174777003Y-106563473D01*
X174777318Y-106643549D01*
X174769356Y-106665301D01*
X174769923Y-106780530D01*
X174874732Y-106807000D01*
X175102130Y-106838196D01*
X175262128Y-106915307D01*
X175302333Y-106985392D01*
X175232331Y-107049745D01*
X175154167Y-107061420D01*
X175086336Y-107085717D01*
X175141824Y-107171246D01*
X175260000Y-107278911D01*
X175514000Y-107495980D01*
X175195290Y-107452950D01*
X174992275Y-107430677D01*
X174927561Y-107454322D01*
X174971885Y-107545394D01*
X175004790Y-107592965D01*
X175114998Y-107787466D01*
X175111620Y-107884508D01*
X175006000Y-107874392D01*
X174806895Y-107793822D01*
X174752000Y-107771608D01*
X174649796Y-107780859D01*
X174625000Y-107898608D01*
X174603055Y-108042247D01*
X174522832Y-108056829D01*
X174362748Y-107941547D01*
X174301342Y-107886500D01*
X174154561Y-107781109D01*
X174066645Y-107772299D01*
X174061676Y-107780666D01*
X173989658Y-107921904D01*
X173946290Y-107992333D01*
X173866662Y-108076764D01*
X173790974Y-108009249D01*
X173779710Y-107992333D01*
X173689575Y-107836115D01*
X173664324Y-107780666D01*
X173589664Y-107773738D01*
X173447701Y-107866413D01*
X173419768Y-107891093D01*
X173272687Y-108013261D01*
X173196807Y-108022092D01*
X173152389Y-107943068D01*
X173100312Y-107849909D01*
X173021948Y-107873004D01*
X172929901Y-107951597D01*
X172808860Y-108039864D01*
X172762333Y-108034666D01*
X172710745Y-108030699D01*
X172604893Y-108108570D01*
X172480641Y-108200556D01*
X172395064Y-108163864D01*
X172326016Y-108068158D01*
X172234061Y-107951719D01*
X172137117Y-107934116D01*
X171968073Y-108007632D01*
X171937327Y-108023465D01*
X171714839Y-108130372D01*
X171616976Y-108147450D01*
X171623032Y-108071776D01*
X171665547Y-107985082D01*
X171725876Y-107813019D01*
X171664952Y-107758215D01*
X171505151Y-107816140D01*
X171310855Y-107891598D01*
X171162255Y-107902609D01*
X171105265Y-107850188D01*
X171120827Y-107807639D01*
X171099425Y-107793545D01*
X170976399Y-107868266D01*
X170871824Y-107944688D01*
X170561000Y-108181764D01*
X170561000Y-107957875D01*
X170552802Y-107811658D01*
X170497153Y-107779214D01*
X170347469Y-107844478D01*
X170301260Y-107868301D01*
X170066555Y-107964870D01*
X169951034Y-107956510D01*
X169963392Y-107848190D01*
X170046925Y-107722954D01*
X170166445Y-107557482D01*
X170221860Y-107454102D01*
X170222333Y-107449812D01*
X170146836Y-107417767D01*
X169956996Y-107396503D01*
X169862500Y-107392982D01*
X169645271Y-107386328D01*
X169582215Y-107369447D01*
X169658183Y-107330284D01*
D11*
G36*
X197682564Y-119185099D02*
G01*
X197924126Y-119233149D01*
X198606765Y-119515907D01*
X199221123Y-119926408D01*
X199743592Y-120448877D01*
X200154093Y-121063235D01*
X200436851Y-121745874D01*
X200466386Y-121894355D01*
X200581000Y-122470557D01*
X200581000Y-123209443D01*
X200515314Y-123539668D01*
X200436851Y-123934126D01*
X200154093Y-124616765D01*
X199743592Y-125231123D01*
X199221123Y-125753592D01*
X198606765Y-126164093D01*
X197924126Y-126446851D01*
X197682564Y-126494901D01*
X197199443Y-126591000D01*
X196460557Y-126591000D01*
X195977436Y-126494901D01*
X195735874Y-126446851D01*
X195053235Y-126164093D01*
X194438877Y-125753592D01*
X193916408Y-125231123D01*
X193505907Y-124616765D01*
X193223149Y-123934126D01*
X193144686Y-123539668D01*
X193079000Y-123209443D01*
X193079000Y-122470557D01*
X193193614Y-121894355D01*
X193223149Y-121745874D01*
X193505907Y-121063235D01*
X193916408Y-120448877D01*
X194438877Y-119926408D01*
X195053235Y-119515907D01*
X195735874Y-119233149D01*
X195977436Y-119185099D01*
X196460557Y-119089000D01*
X197199443Y-119089000D01*
X197682564Y-119185099D01*
X197682564Y-119185099D01*
G37*
G36*
X107182564Y-119185099D02*
G01*
X107424126Y-119233149D01*
X108106765Y-119515907D01*
X108721123Y-119926408D01*
X109243592Y-120448877D01*
X109654093Y-121063235D01*
X109936851Y-121745874D01*
X109966386Y-121894355D01*
X110081000Y-122470557D01*
X110081000Y-123209443D01*
X110015314Y-123539668D01*
X109936851Y-123934126D01*
X109654093Y-124616765D01*
X109243592Y-125231123D01*
X108721123Y-125753592D01*
X108106765Y-126164093D01*
X107424126Y-126446851D01*
X107182564Y-126494901D01*
X106699443Y-126591000D01*
X105960557Y-126591000D01*
X105477436Y-126494901D01*
X105235874Y-126446851D01*
X104553235Y-126164093D01*
X103938877Y-125753592D01*
X103416408Y-125231123D01*
X103005907Y-124616765D01*
X102723149Y-123934126D01*
X102644686Y-123539668D01*
X102579000Y-123209443D01*
X102579000Y-122470557D01*
X102693614Y-121894355D01*
X102723149Y-121745874D01*
X103005907Y-121063235D01*
X103416408Y-120448877D01*
X103938877Y-119926408D01*
X104553235Y-119515907D01*
X105235874Y-119233149D01*
X105477436Y-119185099D01*
X105960557Y-119089000D01*
X106699443Y-119089000D01*
X107182564Y-119185099D01*
X107182564Y-119185099D01*
G37*
G36*
X148667618Y-123148420D02*
G01*
X148748894Y-123173075D01*
X148790336Y-123185646D01*
X148903425Y-123246094D01*
X149002554Y-123327446D01*
X149083906Y-123426575D01*
X149144354Y-123539664D01*
X149144355Y-123539668D01*
X149181580Y-123662382D01*
X149191000Y-123758027D01*
X149191000Y-124621973D01*
X149181580Y-124717618D01*
X149154040Y-124808404D01*
X149144354Y-124840336D01*
X149083906Y-124953425D01*
X149002554Y-125052553D01*
X148903424Y-125133906D01*
X148790335Y-125194354D01*
X148758403Y-125204040D01*
X148667617Y-125231580D01*
X148540000Y-125244149D01*
X148412382Y-125231580D01*
X148321596Y-125204040D01*
X148289664Y-125194354D01*
X148176575Y-125133906D01*
X148077447Y-125052554D01*
X147996094Y-124953424D01*
X147935646Y-124840335D01*
X147925960Y-124808403D01*
X147898420Y-124717617D01*
X147889000Y-124621972D01*
X147889000Y-123758027D01*
X147898420Y-123662382D01*
X147935646Y-123539668D01*
X147935647Y-123539664D01*
X147996095Y-123426575D01*
X148077447Y-123327446D01*
X148176576Y-123246094D01*
X148289665Y-123185646D01*
X148331107Y-123173075D01*
X148412383Y-123148420D01*
X148540000Y-123135851D01*
X148667618Y-123148420D01*
X148667618Y-123148420D01*
G37*
G36*
X150667618Y-123148420D02*
G01*
X150748894Y-123173075D01*
X150790336Y-123185646D01*
X150903425Y-123246094D01*
X151002554Y-123327446D01*
X151083906Y-123426575D01*
X151144354Y-123539664D01*
X151144355Y-123539668D01*
X151181580Y-123662382D01*
X151191000Y-123758027D01*
X151191000Y-124621973D01*
X151181580Y-124717618D01*
X151154040Y-124808404D01*
X151144354Y-124840336D01*
X151083906Y-124953425D01*
X151002554Y-125052553D01*
X150903424Y-125133906D01*
X150790335Y-125194354D01*
X150758403Y-125204040D01*
X150667617Y-125231580D01*
X150540000Y-125244149D01*
X150412382Y-125231580D01*
X150321596Y-125204040D01*
X150289664Y-125194354D01*
X150176575Y-125133906D01*
X150077447Y-125052554D01*
X149996094Y-124953424D01*
X149935646Y-124840335D01*
X149925960Y-124808403D01*
X149898420Y-124717617D01*
X149889000Y-124621972D01*
X149889000Y-123758027D01*
X149898420Y-123662382D01*
X149935646Y-123539668D01*
X149935647Y-123539664D01*
X149996095Y-123426575D01*
X150077447Y-123327446D01*
X150176576Y-123246094D01*
X150289665Y-123185646D01*
X150331107Y-123173075D01*
X150412383Y-123148420D01*
X150540000Y-123135851D01*
X150667618Y-123148420D01*
X150667618Y-123148420D01*
G37*
G36*
X154667618Y-123148420D02*
G01*
X154748894Y-123173075D01*
X154790336Y-123185646D01*
X154903425Y-123246094D01*
X155002554Y-123327446D01*
X155083906Y-123426575D01*
X155144354Y-123539664D01*
X155144355Y-123539668D01*
X155181580Y-123662382D01*
X155191000Y-123758027D01*
X155191000Y-124621973D01*
X155181580Y-124717618D01*
X155154040Y-124808404D01*
X155144354Y-124840336D01*
X155083906Y-124953425D01*
X155002554Y-125052553D01*
X154903424Y-125133906D01*
X154790335Y-125194354D01*
X154758403Y-125204040D01*
X154667617Y-125231580D01*
X154540000Y-125244149D01*
X154412382Y-125231580D01*
X154321596Y-125204040D01*
X154289664Y-125194354D01*
X154176575Y-125133906D01*
X154077447Y-125052554D01*
X153996094Y-124953424D01*
X153935646Y-124840335D01*
X153925960Y-124808403D01*
X153898420Y-124717617D01*
X153889000Y-124621972D01*
X153889000Y-123758027D01*
X153898420Y-123662382D01*
X153935646Y-123539668D01*
X153935647Y-123539664D01*
X153996095Y-123426575D01*
X154077447Y-123327446D01*
X154176576Y-123246094D01*
X154289665Y-123185646D01*
X154331107Y-123173075D01*
X154412383Y-123148420D01*
X154540000Y-123135851D01*
X154667618Y-123148420D01*
X154667618Y-123148420D01*
G37*
G36*
X156667618Y-123148420D02*
G01*
X156748894Y-123173075D01*
X156790336Y-123185646D01*
X156903425Y-123246094D01*
X157002554Y-123327446D01*
X157083906Y-123426575D01*
X157144354Y-123539664D01*
X157144355Y-123539668D01*
X157181580Y-123662382D01*
X157191000Y-123758027D01*
X157191000Y-124621973D01*
X157181580Y-124717618D01*
X157154040Y-124808404D01*
X157144354Y-124840336D01*
X157083906Y-124953425D01*
X157002554Y-125052553D01*
X156903424Y-125133906D01*
X156790335Y-125194354D01*
X156758403Y-125204040D01*
X156667617Y-125231580D01*
X156540000Y-125244149D01*
X156412382Y-125231580D01*
X156321596Y-125204040D01*
X156289664Y-125194354D01*
X156176575Y-125133906D01*
X156077447Y-125052554D01*
X155996094Y-124953424D01*
X155935646Y-124840335D01*
X155925960Y-124808403D01*
X155898420Y-124717617D01*
X155889000Y-124621972D01*
X155889000Y-123758027D01*
X155898420Y-123662382D01*
X155935646Y-123539668D01*
X155935647Y-123539664D01*
X155996095Y-123426575D01*
X156077447Y-123327446D01*
X156176576Y-123246094D01*
X156289665Y-123185646D01*
X156331107Y-123173075D01*
X156412383Y-123148420D01*
X156540000Y-123135851D01*
X156667618Y-123148420D01*
X156667618Y-123148420D01*
G37*
G36*
X146511674Y-122958465D02*
G01*
X146549367Y-122969899D01*
X146584103Y-122988466D01*
X146614548Y-123013452D01*
X146639534Y-123043897D01*
X146658101Y-123078633D01*
X146669535Y-123116326D01*
X146674000Y-123161661D01*
X146674000Y-123998339D01*
X146669535Y-124043674D01*
X146658101Y-124081367D01*
X146639534Y-124116103D01*
X146614548Y-124146548D01*
X146584103Y-124171534D01*
X146549367Y-124190101D01*
X146511674Y-124201535D01*
X146466339Y-124206000D01*
X145379661Y-124206000D01*
X145334326Y-124201535D01*
X145296633Y-124190101D01*
X145261897Y-124171534D01*
X145231452Y-124146548D01*
X145206466Y-124116103D01*
X145187899Y-124081367D01*
X145176465Y-124043674D01*
X145172000Y-123998339D01*
X145172000Y-123161661D01*
X145176465Y-123116326D01*
X145187899Y-123078633D01*
X145206466Y-123043897D01*
X145231452Y-123013452D01*
X145261897Y-122988466D01*
X145296633Y-122969899D01*
X145334326Y-122958465D01*
X145379661Y-122954000D01*
X146466339Y-122954000D01*
X146511674Y-122958465D01*
X146511674Y-122958465D01*
G37*
G36*
X146511674Y-120908465D02*
G01*
X146549367Y-120919899D01*
X146584103Y-120938466D01*
X146614548Y-120963452D01*
X146639534Y-120993897D01*
X146658101Y-121028633D01*
X146669535Y-121066326D01*
X146674000Y-121111661D01*
X146674000Y-121948339D01*
X146669535Y-121993674D01*
X146658101Y-122031367D01*
X146639534Y-122066103D01*
X146614548Y-122096548D01*
X146584103Y-122121534D01*
X146549367Y-122140101D01*
X146511674Y-122151535D01*
X146466339Y-122156000D01*
X145379661Y-122156000D01*
X145334326Y-122151535D01*
X145296633Y-122140101D01*
X145261897Y-122121534D01*
X145231452Y-122096548D01*
X145206466Y-122066103D01*
X145187899Y-122031367D01*
X145176465Y-121993674D01*
X145172000Y-121948339D01*
X145172000Y-121111661D01*
X145176465Y-121066326D01*
X145187899Y-121028633D01*
X145206466Y-120993897D01*
X145231452Y-120963452D01*
X145261897Y-120938466D01*
X145296633Y-120919899D01*
X145334326Y-120908465D01*
X145379661Y-120904000D01*
X146466339Y-120904000D01*
X146511674Y-120908465D01*
X146511674Y-120908465D01*
G37*
G36*
X156667618Y-119848420D02*
G01*
X156758404Y-119875960D01*
X156790336Y-119885646D01*
X156903425Y-119946094D01*
X157002554Y-120027446D01*
X157083906Y-120126575D01*
X157144354Y-120239664D01*
X157144355Y-120239668D01*
X157181580Y-120362382D01*
X157191000Y-120458027D01*
X157191000Y-121321973D01*
X157181580Y-121417618D01*
X157154040Y-121508404D01*
X157144354Y-121540336D01*
X157083906Y-121653425D01*
X157002554Y-121752553D01*
X156903424Y-121833906D01*
X156790335Y-121894354D01*
X156758403Y-121904040D01*
X156667617Y-121931580D01*
X156540000Y-121944149D01*
X156412382Y-121931580D01*
X156321596Y-121904040D01*
X156289664Y-121894354D01*
X156176575Y-121833906D01*
X156077447Y-121752554D01*
X155996094Y-121653424D01*
X155935646Y-121540335D01*
X155925960Y-121508403D01*
X155898420Y-121417617D01*
X155889000Y-121321972D01*
X155889000Y-120458027D01*
X155898420Y-120362382D01*
X155935646Y-120239668D01*
X155935647Y-120239664D01*
X155996095Y-120126575D01*
X156077447Y-120027446D01*
X156176576Y-119946094D01*
X156289665Y-119885646D01*
X156321597Y-119875960D01*
X156412383Y-119848420D01*
X156540000Y-119835851D01*
X156667618Y-119848420D01*
X156667618Y-119848420D01*
G37*
G36*
X148667618Y-119848420D02*
G01*
X148758404Y-119875960D01*
X148790336Y-119885646D01*
X148903425Y-119946094D01*
X149002554Y-120027446D01*
X149083906Y-120126575D01*
X149144354Y-120239664D01*
X149144355Y-120239668D01*
X149181580Y-120362382D01*
X149191000Y-120458027D01*
X149191000Y-121321973D01*
X149181580Y-121417618D01*
X149154040Y-121508404D01*
X149144354Y-121540336D01*
X149083906Y-121653425D01*
X149002554Y-121752553D01*
X148903424Y-121833906D01*
X148790335Y-121894354D01*
X148758403Y-121904040D01*
X148667617Y-121931580D01*
X148540000Y-121944149D01*
X148412382Y-121931580D01*
X148321596Y-121904040D01*
X148289664Y-121894354D01*
X148176575Y-121833906D01*
X148077447Y-121752554D01*
X147996094Y-121653424D01*
X147935646Y-121540335D01*
X147925960Y-121508403D01*
X147898420Y-121417617D01*
X147889000Y-121321972D01*
X147889000Y-120458027D01*
X147898420Y-120362382D01*
X147935646Y-120239668D01*
X147935647Y-120239664D01*
X147996095Y-120126575D01*
X148077447Y-120027446D01*
X148176576Y-119946094D01*
X148289665Y-119885646D01*
X148321597Y-119875960D01*
X148412383Y-119848420D01*
X148540000Y-119835851D01*
X148667618Y-119848420D01*
X148667618Y-119848420D01*
G37*
G36*
X150667618Y-119848420D02*
G01*
X150758404Y-119875960D01*
X150790336Y-119885646D01*
X150903425Y-119946094D01*
X151002554Y-120027446D01*
X151083906Y-120126575D01*
X151144354Y-120239664D01*
X151144355Y-120239668D01*
X151181580Y-120362382D01*
X151191000Y-120458027D01*
X151191000Y-121321973D01*
X151181580Y-121417618D01*
X151154040Y-121508404D01*
X151144354Y-121540336D01*
X151083906Y-121653425D01*
X151002554Y-121752553D01*
X150903424Y-121833906D01*
X150790335Y-121894354D01*
X150758403Y-121904040D01*
X150667617Y-121931580D01*
X150540000Y-121944149D01*
X150412382Y-121931580D01*
X150321596Y-121904040D01*
X150289664Y-121894354D01*
X150176575Y-121833906D01*
X150077447Y-121752554D01*
X149996094Y-121653424D01*
X149935646Y-121540335D01*
X149925960Y-121508403D01*
X149898420Y-121417617D01*
X149889000Y-121321972D01*
X149889000Y-120458027D01*
X149898420Y-120362382D01*
X149935646Y-120239668D01*
X149935647Y-120239664D01*
X149996095Y-120126575D01*
X150077447Y-120027446D01*
X150176576Y-119946094D01*
X150289665Y-119885646D01*
X150321597Y-119875960D01*
X150412383Y-119848420D01*
X150540000Y-119835851D01*
X150667618Y-119848420D01*
X150667618Y-119848420D01*
G37*
G36*
X154667618Y-119848420D02*
G01*
X154758404Y-119875960D01*
X154790336Y-119885646D01*
X154903425Y-119946094D01*
X155002554Y-120027446D01*
X155083906Y-120126575D01*
X155144354Y-120239664D01*
X155144355Y-120239668D01*
X155181580Y-120362382D01*
X155191000Y-120458027D01*
X155191000Y-121321973D01*
X155181580Y-121417618D01*
X155154040Y-121508404D01*
X155144354Y-121540336D01*
X155083906Y-121653425D01*
X155002554Y-121752553D01*
X154903424Y-121833906D01*
X154790335Y-121894354D01*
X154758403Y-121904040D01*
X154667617Y-121931580D01*
X154540000Y-121944149D01*
X154412382Y-121931580D01*
X154321596Y-121904040D01*
X154289664Y-121894354D01*
X154176575Y-121833906D01*
X154077447Y-121752554D01*
X153996094Y-121653424D01*
X153935646Y-121540335D01*
X153925960Y-121508403D01*
X153898420Y-121417617D01*
X153889000Y-121321972D01*
X153889000Y-120458027D01*
X153898420Y-120362382D01*
X153935646Y-120239668D01*
X153935647Y-120239664D01*
X153996095Y-120126575D01*
X154077447Y-120027446D01*
X154176576Y-119946094D01*
X154289665Y-119885646D01*
X154321597Y-119875960D01*
X154412383Y-119848420D01*
X154540000Y-119835851D01*
X154667618Y-119848420D01*
X154667618Y-119848420D01*
G37*
G36*
X183865401Y-111251054D02*
G01*
X184353322Y-111348107D01*
X185272546Y-111728862D01*
X186099825Y-112281632D01*
X186803368Y-112985175D01*
X187356138Y-113812454D01*
X187736893Y-114731678D01*
X187931000Y-115707520D01*
X187931000Y-116702480D01*
X187736893Y-117678322D01*
X187356138Y-118597546D01*
X186803368Y-119424825D01*
X186099825Y-120128368D01*
X185272546Y-120681138D01*
X184353322Y-121061893D01*
X184103121Y-121111661D01*
X183377481Y-121256000D01*
X182382519Y-121256000D01*
X181656879Y-121111661D01*
X181406678Y-121061893D01*
X180487454Y-120681138D01*
X179660175Y-120128368D01*
X178956632Y-119424825D01*
X178403862Y-118597546D01*
X178023107Y-117678322D01*
X177829000Y-116702480D01*
X177829000Y-115707520D01*
X178023107Y-114731678D01*
X178403862Y-113812454D01*
X178956632Y-112985175D01*
X179660175Y-112281632D01*
X180487454Y-111728862D01*
X181406678Y-111348107D01*
X181894599Y-111251054D01*
X182382519Y-111154000D01*
X183377481Y-111154000D01*
X183865401Y-111251054D01*
X183865401Y-111251054D01*
G37*
G36*
X135838254Y-104876818D02*
G01*
X136211511Y-105031426D01*
X136211513Y-105031427D01*
X136547436Y-105255884D01*
X136833116Y-105541564D01*
X137048196Y-105863453D01*
X137057574Y-105877489D01*
X137212182Y-106250746D01*
X137291000Y-106646993D01*
X137291000Y-107051007D01*
X137212182Y-107447254D01*
X137057574Y-107820511D01*
X137057573Y-107820513D01*
X136833116Y-108156436D01*
X136547436Y-108442116D01*
X136211513Y-108666573D01*
X136211512Y-108666574D01*
X136211511Y-108666574D01*
X135838254Y-108821182D01*
X135442007Y-108900000D01*
X135037993Y-108900000D01*
X134641746Y-108821182D01*
X134268489Y-108666574D01*
X134268488Y-108666574D01*
X134268487Y-108666573D01*
X133932564Y-108442116D01*
X133646884Y-108156436D01*
X133422427Y-107820513D01*
X133422426Y-107820511D01*
X133267818Y-107447254D01*
X133189000Y-107051007D01*
X133189000Y-106646993D01*
X133267818Y-106250746D01*
X133422426Y-105877489D01*
X133431805Y-105863453D01*
X133646884Y-105541564D01*
X133932564Y-105255884D01*
X134268487Y-105031427D01*
X134268489Y-105031426D01*
X134641746Y-104876818D01*
X135037993Y-104798000D01*
X135442007Y-104798000D01*
X135838254Y-104876818D01*
X135838254Y-104876818D01*
G37*
G36*
X142517395Y-104034546D02*
G01*
X142690466Y-104106234D01*
X142690467Y-104106235D01*
X142846227Y-104210310D01*
X142978690Y-104342773D01*
X142978691Y-104342775D01*
X143082766Y-104498534D01*
X143154454Y-104671605D01*
X143191000Y-104855333D01*
X143191000Y-105042667D01*
X143154454Y-105226395D01*
X143082766Y-105399466D01*
X143082765Y-105399467D01*
X142978690Y-105555227D01*
X142846227Y-105687690D01*
X142767818Y-105740081D01*
X142690466Y-105791766D01*
X142517395Y-105863454D01*
X142333667Y-105900000D01*
X142146333Y-105900000D01*
X141962605Y-105863454D01*
X141789534Y-105791766D01*
X141712182Y-105740081D01*
X141633773Y-105687690D01*
X141501310Y-105555227D01*
X141397235Y-105399467D01*
X141397234Y-105399466D01*
X141325546Y-105226395D01*
X141289000Y-105042667D01*
X141289000Y-104855333D01*
X141325546Y-104671605D01*
X141397234Y-104498534D01*
X141501309Y-104342775D01*
X141501310Y-104342773D01*
X141633773Y-104210310D01*
X141789533Y-104106235D01*
X141789534Y-104106234D01*
X141962605Y-104034546D01*
X142146333Y-103998000D01*
X142333667Y-103998000D01*
X142517395Y-104034546D01*
X142517395Y-104034546D01*
G37*
G36*
X196960443Y-102864519D02*
G01*
X197026627Y-102871037D01*
X197196466Y-102922557D01*
X197352991Y-103006222D01*
X197388729Y-103035552D01*
X197490186Y-103118814D01*
X197573448Y-103220271D01*
X197602778Y-103256009D01*
X197686443Y-103412534D01*
X197737963Y-103582373D01*
X197755359Y-103759000D01*
X197737963Y-103935627D01*
X197719042Y-103998000D01*
X197686442Y-104105468D01*
X197686032Y-104106235D01*
X197602778Y-104261991D01*
X197573448Y-104297729D01*
X197490186Y-104399186D01*
X197388729Y-104482448D01*
X197352991Y-104511778D01*
X197196466Y-104595443D01*
X197026627Y-104646963D01*
X196960443Y-104653481D01*
X196894260Y-104660000D01*
X196805740Y-104660000D01*
X196739558Y-104653482D01*
X196673373Y-104646963D01*
X196503534Y-104595443D01*
X196347009Y-104511778D01*
X196311271Y-104482448D01*
X196209814Y-104399186D01*
X196126552Y-104297729D01*
X196097222Y-104261991D01*
X196013968Y-104106235D01*
X196013558Y-104105468D01*
X195980958Y-103998000D01*
X195962037Y-103935627D01*
X195944641Y-103759000D01*
X195962037Y-103582373D01*
X196013557Y-103412534D01*
X196097222Y-103256009D01*
X196126552Y-103220271D01*
X196209814Y-103118814D01*
X196311271Y-103035552D01*
X196347009Y-103006222D01*
X196503534Y-102922557D01*
X196673373Y-102871037D01*
X196739558Y-102864518D01*
X196805740Y-102858000D01*
X196894260Y-102858000D01*
X196960443Y-102864519D01*
X196960443Y-102864519D01*
G37*
G36*
X142517395Y-101534546D02*
G01*
X142690466Y-101606234D01*
X142690467Y-101606235D01*
X142846227Y-101710310D01*
X142978690Y-101842773D01*
X142978691Y-101842775D01*
X143082766Y-101998534D01*
X143154454Y-102171605D01*
X143191000Y-102355333D01*
X143191000Y-102542667D01*
X143154454Y-102726395D01*
X143082766Y-102899466D01*
X143082765Y-102899467D01*
X142978690Y-103055227D01*
X142846227Y-103187690D01*
X142767818Y-103240081D01*
X142690466Y-103291766D01*
X142517395Y-103363454D01*
X142333667Y-103400000D01*
X142146333Y-103400000D01*
X141962605Y-103363454D01*
X141789534Y-103291766D01*
X141712182Y-103240081D01*
X141633773Y-103187690D01*
X141501310Y-103055227D01*
X141397235Y-102899467D01*
X141397234Y-102899466D01*
X141325546Y-102726395D01*
X141289000Y-102542667D01*
X141289000Y-102355333D01*
X141325546Y-102171605D01*
X141397234Y-101998534D01*
X141501309Y-101842775D01*
X141501310Y-101842773D01*
X141633773Y-101710310D01*
X141789533Y-101606235D01*
X141789534Y-101606234D01*
X141962605Y-101534546D01*
X142146333Y-101498000D01*
X142333667Y-101498000D01*
X142517395Y-101534546D01*
X142517395Y-101534546D01*
G37*
G36*
X197751000Y-102120000D02*
G01*
X195949000Y-102120000D01*
X195949000Y-100318000D01*
X197751000Y-100318000D01*
X197751000Y-102120000D01*
X197751000Y-102120000D01*
G37*
G36*
X142517395Y-99034546D02*
G01*
X142690466Y-99106234D01*
X142690467Y-99106235D01*
X142846227Y-99210310D01*
X142978690Y-99342773D01*
X142978691Y-99342775D01*
X143082766Y-99498534D01*
X143154454Y-99671605D01*
X143191000Y-99855333D01*
X143191000Y-100042667D01*
X143154454Y-100226395D01*
X143082766Y-100399466D01*
X143082765Y-100399467D01*
X142978690Y-100555227D01*
X142846227Y-100687690D01*
X142767818Y-100740081D01*
X142690466Y-100791766D01*
X142517395Y-100863454D01*
X142333667Y-100900000D01*
X142146333Y-100900000D01*
X141962605Y-100863454D01*
X141789534Y-100791766D01*
X141712182Y-100740081D01*
X141633773Y-100687690D01*
X141501310Y-100555227D01*
X141397235Y-100399467D01*
X141397234Y-100399466D01*
X141325546Y-100226395D01*
X141289000Y-100042667D01*
X141289000Y-99855333D01*
X141325546Y-99671605D01*
X141397234Y-99498534D01*
X141501309Y-99342775D01*
X141501310Y-99342773D01*
X141633773Y-99210310D01*
X141789533Y-99106235D01*
X141789534Y-99106234D01*
X141962605Y-99034546D01*
X142146333Y-98998000D01*
X142333667Y-98998000D01*
X142517395Y-99034546D01*
X142517395Y-99034546D01*
G37*
G36*
X135838254Y-96076818D02*
G01*
X136211511Y-96231426D01*
X136211513Y-96231427D01*
X136547436Y-96455884D01*
X136833116Y-96741564D01*
X137057574Y-97077489D01*
X137212182Y-97450746D01*
X137291000Y-97846993D01*
X137291000Y-98251007D01*
X137212182Y-98647254D01*
X137066898Y-98998000D01*
X137057573Y-99020513D01*
X136833116Y-99356436D01*
X136547436Y-99642116D01*
X136211513Y-99866573D01*
X136211512Y-99866574D01*
X136211511Y-99866574D01*
X135838254Y-100021182D01*
X135442007Y-100100000D01*
X135037993Y-100100000D01*
X134641746Y-100021182D01*
X134268489Y-99866574D01*
X134268488Y-99866574D01*
X134268487Y-99866573D01*
X133932564Y-99642116D01*
X133646884Y-99356436D01*
X133422427Y-99020513D01*
X133413102Y-98998000D01*
X133267818Y-98647254D01*
X133189000Y-98251007D01*
X133189000Y-97846993D01*
X133267818Y-97450746D01*
X133422426Y-97077489D01*
X133646884Y-96741564D01*
X133932564Y-96455884D01*
X134268487Y-96231427D01*
X134268489Y-96231426D01*
X134641746Y-96076818D01*
X135037993Y-95998000D01*
X135442007Y-95998000D01*
X135838254Y-96076818D01*
X135838254Y-96076818D01*
G37*
G36*
X183825401Y-83946053D02*
G01*
X184313322Y-84043107D01*
X185232546Y-84423862D01*
X186059825Y-84976632D01*
X186763368Y-85680175D01*
X187316138Y-86507454D01*
X187696893Y-87426678D01*
X187891000Y-88402520D01*
X187891000Y-89397480D01*
X187696893Y-90373322D01*
X187316138Y-91292546D01*
X186763368Y-92119825D01*
X186059825Y-92823368D01*
X185232546Y-93376138D01*
X184313322Y-93756893D01*
X183825401Y-93853946D01*
X183337481Y-93951000D01*
X182342519Y-93951000D01*
X181854599Y-93853947D01*
X181366678Y-93756893D01*
X180447454Y-93376138D01*
X179620175Y-92823368D01*
X178916632Y-92119825D01*
X178363862Y-91292546D01*
X177983107Y-90373322D01*
X177789000Y-89397480D01*
X177789000Y-88402520D01*
X177983107Y-87426678D01*
X178363862Y-86507454D01*
X178916632Y-85680175D01*
X179620175Y-84976632D01*
X180447454Y-84423862D01*
X181366678Y-84043107D01*
X181854599Y-83946053D01*
X182342519Y-83849000D01*
X183337481Y-83849000D01*
X183825401Y-83946053D01*
X183825401Y-83946053D01*
G37*
G36*
X107182564Y-78685099D02*
G01*
X107424126Y-78733149D01*
X108106765Y-79015907D01*
X108721123Y-79426408D01*
X109243592Y-79948877D01*
X109654093Y-80563235D01*
X109936851Y-81245874D01*
X109947865Y-81301244D01*
X110069743Y-81913963D01*
X110081000Y-81970559D01*
X110081000Y-82709441D01*
X109936851Y-83434126D01*
X109654093Y-84116765D01*
X109243592Y-84731123D01*
X108721123Y-85253592D01*
X108106765Y-85664093D01*
X107424126Y-85946851D01*
X107182564Y-85994901D01*
X106699443Y-86091000D01*
X105960557Y-86091000D01*
X105477436Y-85994901D01*
X105235874Y-85946851D01*
X104553235Y-85664093D01*
X103938877Y-85253592D01*
X103416408Y-84731123D01*
X103005907Y-84116765D01*
X102723149Y-83434126D01*
X102579000Y-82709441D01*
X102579000Y-81970559D01*
X102590258Y-81913963D01*
X102712135Y-81301244D01*
X102723149Y-81245874D01*
X103005907Y-80563235D01*
X103416408Y-79948877D01*
X103938877Y-79426408D01*
X104553235Y-79015907D01*
X105235874Y-78733149D01*
X105477436Y-78685099D01*
X105960557Y-78589000D01*
X106699443Y-78589000D01*
X107182564Y-78685099D01*
X107182564Y-78685099D01*
G37*
G36*
X197682564Y-78685099D02*
G01*
X197924126Y-78733149D01*
X198606765Y-79015907D01*
X199221123Y-79426408D01*
X199743592Y-79948877D01*
X200154093Y-80563235D01*
X200436851Y-81245874D01*
X200447865Y-81301244D01*
X200569743Y-81913963D01*
X200581000Y-81970559D01*
X200581000Y-82709441D01*
X200436851Y-83434126D01*
X200154093Y-84116765D01*
X199743592Y-84731123D01*
X199221123Y-85253592D01*
X198606765Y-85664093D01*
X197924126Y-85946851D01*
X197682564Y-85994901D01*
X197199443Y-86091000D01*
X196460557Y-86091000D01*
X195977436Y-85994901D01*
X195735874Y-85946851D01*
X195053235Y-85664093D01*
X194438877Y-85253592D01*
X193916408Y-84731123D01*
X193505907Y-84116765D01*
X193223149Y-83434126D01*
X193079000Y-82709441D01*
X193079000Y-81970559D01*
X193090258Y-81913963D01*
X193212135Y-81301244D01*
X193223149Y-81245874D01*
X193505907Y-80563235D01*
X193916408Y-79948877D01*
X194438877Y-79426408D01*
X195053235Y-79015907D01*
X195735874Y-78733149D01*
X195977436Y-78685099D01*
X196460557Y-78589000D01*
X197199443Y-78589000D01*
X197682564Y-78685099D01*
X197682564Y-78685099D01*
G37*
G36*
X157025547Y-79888326D02*
G01*
X157199156Y-79940990D01*
X157199158Y-79940991D01*
X157359155Y-80026511D01*
X157499397Y-80141603D01*
X157578729Y-80238271D01*
X157614489Y-80281844D01*
X157700010Y-80441843D01*
X157752674Y-80615452D01*
X157766000Y-80750756D01*
X157766000Y-81301243D01*
X157752674Y-81436548D01*
X157700010Y-81610157D01*
X157614489Y-81770156D01*
X157607412Y-81778779D01*
X157499397Y-81910397D01*
X157426088Y-81970559D01*
X157359156Y-82025489D01*
X157199157Y-82111010D01*
X157025548Y-82163674D01*
X156845000Y-82181456D01*
X156664453Y-82163674D01*
X156490844Y-82111010D01*
X156330845Y-82025489D01*
X156263913Y-81970559D01*
X156190604Y-81910397D01*
X156075513Y-81770157D01*
X156075512Y-81770155D01*
X155989990Y-81610157D01*
X155937326Y-81436548D01*
X155924000Y-81301244D01*
X155924000Y-80750757D01*
X155937326Y-80615453D01*
X155989990Y-80441844D01*
X156075511Y-80281845D01*
X156082588Y-80273222D01*
X156190603Y-80141603D01*
X156316388Y-80038375D01*
X156330844Y-80026511D01*
X156490843Y-79940990D01*
X156664452Y-79888326D01*
X156845000Y-79870544D01*
X157025547Y-79888326D01*
X157025547Y-79888326D01*
G37*
G36*
X155084561Y-79878966D02*
G01*
X155117383Y-79888923D01*
X155147632Y-79905092D01*
X155174148Y-79926852D01*
X155195908Y-79953368D01*
X155212077Y-79983617D01*
X155222034Y-80016439D01*
X155226000Y-80056713D01*
X155226000Y-81995287D01*
X155222034Y-82035561D01*
X155212077Y-82068383D01*
X155195908Y-82098632D01*
X155174148Y-82125148D01*
X155147632Y-82146908D01*
X155117383Y-82163077D01*
X155084561Y-82173034D01*
X155044287Y-82177000D01*
X153565713Y-82177000D01*
X153525439Y-82173034D01*
X153492617Y-82163077D01*
X153462368Y-82146908D01*
X153435852Y-82125148D01*
X153414092Y-82098632D01*
X153397923Y-82068383D01*
X153387966Y-82035561D01*
X153384000Y-81995287D01*
X153384000Y-80056713D01*
X153387966Y-80016439D01*
X153397923Y-79983617D01*
X153414092Y-79953368D01*
X153435852Y-79926852D01*
X153462368Y-79905092D01*
X153492617Y-79888923D01*
X153525439Y-79878966D01*
X153565713Y-79875000D01*
X155044287Y-79875000D01*
X155084561Y-79878966D01*
X155084561Y-79878966D01*
G37*
G36*
X166001000Y-81927000D02*
G01*
X164199000Y-81927000D01*
X164199000Y-80125000D01*
X166001000Y-80125000D01*
X166001000Y-81927000D01*
X166001000Y-81927000D01*
G37*
G36*
X162670443Y-80131519D02*
G01*
X162736627Y-80138037D01*
X162906466Y-80189557D01*
X163062991Y-80273222D01*
X163073498Y-80281845D01*
X163200186Y-80385814D01*
X163283448Y-80487271D01*
X163312778Y-80523009D01*
X163396443Y-80679534D01*
X163447963Y-80849373D01*
X163465359Y-81026000D01*
X163447963Y-81202627D01*
X163396443Y-81372466D01*
X163312778Y-81528991D01*
X163283448Y-81564729D01*
X163200186Y-81666186D01*
X163098729Y-81749448D01*
X163062991Y-81778778D01*
X162906466Y-81862443D01*
X162736627Y-81913963D01*
X162670442Y-81920482D01*
X162604260Y-81927000D01*
X162515740Y-81927000D01*
X162449558Y-81920482D01*
X162383373Y-81913963D01*
X162213534Y-81862443D01*
X162057009Y-81778778D01*
X162021271Y-81749448D01*
X161919814Y-81666186D01*
X161836552Y-81564729D01*
X161807222Y-81528991D01*
X161723557Y-81372466D01*
X161672037Y-81202627D01*
X161654641Y-81026000D01*
X161672037Y-80849373D01*
X161723557Y-80679534D01*
X161807222Y-80523009D01*
X161836552Y-80487271D01*
X161919814Y-80385814D01*
X162046502Y-80281845D01*
X162057009Y-80273222D01*
X162213534Y-80189557D01*
X162383373Y-80138037D01*
X162449557Y-80131519D01*
X162515740Y-80125000D01*
X162604260Y-80125000D01*
X162670443Y-80131519D01*
X162670443Y-80131519D01*
G37*
M02*
