G04 #@! TF.GenerationSoftware,KiCad,Pcbnew,(5.1.2-1)-1*
G04 #@! TF.CreationDate,2019-11-25T00:11:11+01:00*
G04 #@! TF.ProjectId,CCLoad,43434c6f-6164-42e6-9b69-6361645f7063,rev?*
G04 #@! TF.SameCoordinates,Original*
G04 #@! TF.FileFunction,Paste,Bot*
G04 #@! TF.FilePolarity,Positive*
%FSLAX46Y46*%
G04 Gerber Fmt 4.6, Leading zero omitted, Abs format (unit mm)*
G04 Created by KiCad (PCBNEW (5.1.2-1)-1) date 2019-11-25 00:11:11*
%MOMM*%
%LPD*%
G04 APERTURE LIST*
%ADD10R,4.000000X2.540000*%
%ADD11C,0.100000*%
%ADD12C,1.350000*%
%ADD13R,3.600000X2.600000*%
%ADD14C,0.600000*%
%ADD15R,0.900000X0.800000*%
%ADD16C,0.750000*%
%ADD17R,2.000000X4.000000*%
%ADD18R,1.000000X2.500000*%
%ADD19R,2.000000X1.300000*%
%ADD20R,2.000000X2.000000*%
%ADD21C,1.150000*%
%ADD22C,1.525000*%
G04 APERTURE END LIST*
D10*
X182640000Y-97830000D03*
X182640000Y-105450000D03*
X182640000Y-101640000D03*
D11*
G36*
X144594505Y-117791204D02*
G01*
X144618773Y-117794804D01*
X144642572Y-117800765D01*
X144665671Y-117809030D01*
X144687850Y-117819520D01*
X144708893Y-117832132D01*
X144728599Y-117846747D01*
X144746777Y-117863223D01*
X144763253Y-117881401D01*
X144777868Y-117901107D01*
X144790480Y-117922150D01*
X144800970Y-117944329D01*
X144809235Y-117967428D01*
X144815196Y-117991227D01*
X144818796Y-118015495D01*
X144820000Y-118039999D01*
X144820000Y-119115001D01*
X144818796Y-119139505D01*
X144815196Y-119163773D01*
X144809235Y-119187572D01*
X144800970Y-119210671D01*
X144790480Y-119232850D01*
X144777868Y-119253893D01*
X144763253Y-119273599D01*
X144746777Y-119291777D01*
X144728599Y-119308253D01*
X144708893Y-119322868D01*
X144687850Y-119335480D01*
X144665671Y-119345970D01*
X144642572Y-119354235D01*
X144618773Y-119360196D01*
X144594505Y-119363796D01*
X144570001Y-119365000D01*
X143719999Y-119365000D01*
X143695495Y-119363796D01*
X143671227Y-119360196D01*
X143647428Y-119354235D01*
X143624329Y-119345970D01*
X143602150Y-119335480D01*
X143581107Y-119322868D01*
X143561401Y-119308253D01*
X143543223Y-119291777D01*
X143526747Y-119273599D01*
X143512132Y-119253893D01*
X143499520Y-119232850D01*
X143489030Y-119210671D01*
X143480765Y-119187572D01*
X143474804Y-119163773D01*
X143471204Y-119139505D01*
X143470000Y-119115001D01*
X143470000Y-118039999D01*
X143471204Y-118015495D01*
X143474804Y-117991227D01*
X143480765Y-117967428D01*
X143489030Y-117944329D01*
X143499520Y-117922150D01*
X143512132Y-117901107D01*
X143526747Y-117881401D01*
X143543223Y-117863223D01*
X143561401Y-117846747D01*
X143581107Y-117832132D01*
X143602150Y-117819520D01*
X143624329Y-117809030D01*
X143647428Y-117800765D01*
X143671227Y-117794804D01*
X143695495Y-117791204D01*
X143719999Y-117790000D01*
X144570001Y-117790000D01*
X144594505Y-117791204D01*
X144594505Y-117791204D01*
G37*
D12*
X144145000Y-118577500D03*
D11*
G36*
X144594505Y-120666204D02*
G01*
X144618773Y-120669804D01*
X144642572Y-120675765D01*
X144665671Y-120684030D01*
X144687850Y-120694520D01*
X144708893Y-120707132D01*
X144728599Y-120721747D01*
X144746777Y-120738223D01*
X144763253Y-120756401D01*
X144777868Y-120776107D01*
X144790480Y-120797150D01*
X144800970Y-120819329D01*
X144809235Y-120842428D01*
X144815196Y-120866227D01*
X144818796Y-120890495D01*
X144820000Y-120914999D01*
X144820000Y-121990001D01*
X144818796Y-122014505D01*
X144815196Y-122038773D01*
X144809235Y-122062572D01*
X144800970Y-122085671D01*
X144790480Y-122107850D01*
X144777868Y-122128893D01*
X144763253Y-122148599D01*
X144746777Y-122166777D01*
X144728599Y-122183253D01*
X144708893Y-122197868D01*
X144687850Y-122210480D01*
X144665671Y-122220970D01*
X144642572Y-122229235D01*
X144618773Y-122235196D01*
X144594505Y-122238796D01*
X144570001Y-122240000D01*
X143719999Y-122240000D01*
X143695495Y-122238796D01*
X143671227Y-122235196D01*
X143647428Y-122229235D01*
X143624329Y-122220970D01*
X143602150Y-122210480D01*
X143581107Y-122197868D01*
X143561401Y-122183253D01*
X143543223Y-122166777D01*
X143526747Y-122148599D01*
X143512132Y-122128893D01*
X143499520Y-122107850D01*
X143489030Y-122085671D01*
X143480765Y-122062572D01*
X143474804Y-122038773D01*
X143471204Y-122014505D01*
X143470000Y-121990001D01*
X143470000Y-120914999D01*
X143471204Y-120890495D01*
X143474804Y-120866227D01*
X143480765Y-120842428D01*
X143489030Y-120819329D01*
X143499520Y-120797150D01*
X143512132Y-120776107D01*
X143526747Y-120756401D01*
X143543223Y-120738223D01*
X143561401Y-120721747D01*
X143581107Y-120707132D01*
X143602150Y-120694520D01*
X143624329Y-120684030D01*
X143647428Y-120675765D01*
X143671227Y-120669804D01*
X143695495Y-120666204D01*
X143719999Y-120665000D01*
X144570001Y-120665000D01*
X144594505Y-120666204D01*
X144594505Y-120666204D01*
G37*
D12*
X144145000Y-121452500D03*
D11*
G36*
X162374505Y-117791204D02*
G01*
X162398773Y-117794804D01*
X162422572Y-117800765D01*
X162445671Y-117809030D01*
X162467850Y-117819520D01*
X162488893Y-117832132D01*
X162508599Y-117846747D01*
X162526777Y-117863223D01*
X162543253Y-117881401D01*
X162557868Y-117901107D01*
X162570480Y-117922150D01*
X162580970Y-117944329D01*
X162589235Y-117967428D01*
X162595196Y-117991227D01*
X162598796Y-118015495D01*
X162600000Y-118039999D01*
X162600000Y-119115001D01*
X162598796Y-119139505D01*
X162595196Y-119163773D01*
X162589235Y-119187572D01*
X162580970Y-119210671D01*
X162570480Y-119232850D01*
X162557868Y-119253893D01*
X162543253Y-119273599D01*
X162526777Y-119291777D01*
X162508599Y-119308253D01*
X162488893Y-119322868D01*
X162467850Y-119335480D01*
X162445671Y-119345970D01*
X162422572Y-119354235D01*
X162398773Y-119360196D01*
X162374505Y-119363796D01*
X162350001Y-119365000D01*
X161499999Y-119365000D01*
X161475495Y-119363796D01*
X161451227Y-119360196D01*
X161427428Y-119354235D01*
X161404329Y-119345970D01*
X161382150Y-119335480D01*
X161361107Y-119322868D01*
X161341401Y-119308253D01*
X161323223Y-119291777D01*
X161306747Y-119273599D01*
X161292132Y-119253893D01*
X161279520Y-119232850D01*
X161269030Y-119210671D01*
X161260765Y-119187572D01*
X161254804Y-119163773D01*
X161251204Y-119139505D01*
X161250000Y-119115001D01*
X161250000Y-118039999D01*
X161251204Y-118015495D01*
X161254804Y-117991227D01*
X161260765Y-117967428D01*
X161269030Y-117944329D01*
X161279520Y-117922150D01*
X161292132Y-117901107D01*
X161306747Y-117881401D01*
X161323223Y-117863223D01*
X161341401Y-117846747D01*
X161361107Y-117832132D01*
X161382150Y-117819520D01*
X161404329Y-117809030D01*
X161427428Y-117800765D01*
X161451227Y-117794804D01*
X161475495Y-117791204D01*
X161499999Y-117790000D01*
X162350001Y-117790000D01*
X162374505Y-117791204D01*
X162374505Y-117791204D01*
G37*
D12*
X161925000Y-118577500D03*
D11*
G36*
X162374505Y-120666204D02*
G01*
X162398773Y-120669804D01*
X162422572Y-120675765D01*
X162445671Y-120684030D01*
X162467850Y-120694520D01*
X162488893Y-120707132D01*
X162508599Y-120721747D01*
X162526777Y-120738223D01*
X162543253Y-120756401D01*
X162557868Y-120776107D01*
X162570480Y-120797150D01*
X162580970Y-120819329D01*
X162589235Y-120842428D01*
X162595196Y-120866227D01*
X162598796Y-120890495D01*
X162600000Y-120914999D01*
X162600000Y-121990001D01*
X162598796Y-122014505D01*
X162595196Y-122038773D01*
X162589235Y-122062572D01*
X162580970Y-122085671D01*
X162570480Y-122107850D01*
X162557868Y-122128893D01*
X162543253Y-122148599D01*
X162526777Y-122166777D01*
X162508599Y-122183253D01*
X162488893Y-122197868D01*
X162467850Y-122210480D01*
X162445671Y-122220970D01*
X162422572Y-122229235D01*
X162398773Y-122235196D01*
X162374505Y-122238796D01*
X162350001Y-122240000D01*
X161499999Y-122240000D01*
X161475495Y-122238796D01*
X161451227Y-122235196D01*
X161427428Y-122229235D01*
X161404329Y-122220970D01*
X161382150Y-122210480D01*
X161361107Y-122197868D01*
X161341401Y-122183253D01*
X161323223Y-122166777D01*
X161306747Y-122148599D01*
X161292132Y-122128893D01*
X161279520Y-122107850D01*
X161269030Y-122085671D01*
X161260765Y-122062572D01*
X161254804Y-122038773D01*
X161251204Y-122014505D01*
X161250000Y-121990001D01*
X161250000Y-120914999D01*
X161251204Y-120890495D01*
X161254804Y-120866227D01*
X161260765Y-120842428D01*
X161269030Y-120819329D01*
X161279520Y-120797150D01*
X161292132Y-120776107D01*
X161306747Y-120756401D01*
X161323223Y-120738223D01*
X161341401Y-120721747D01*
X161361107Y-120707132D01*
X161382150Y-120694520D01*
X161404329Y-120684030D01*
X161427428Y-120675765D01*
X161451227Y-120669804D01*
X161475495Y-120666204D01*
X161499999Y-120665000D01*
X162350001Y-120665000D01*
X162374505Y-120666204D01*
X162374505Y-120666204D01*
G37*
D12*
X161925000Y-121452500D03*
D13*
X116940000Y-117190000D03*
X116940000Y-87890000D03*
D11*
G36*
X170344703Y-98150722D02*
G01*
X170359264Y-98152882D01*
X170373543Y-98156459D01*
X170387403Y-98161418D01*
X170400710Y-98167712D01*
X170413336Y-98175280D01*
X170425159Y-98184048D01*
X170436066Y-98193934D01*
X170445952Y-98204841D01*
X170454720Y-98216664D01*
X170462288Y-98229290D01*
X170468582Y-98242597D01*
X170473541Y-98256457D01*
X170477118Y-98270736D01*
X170479278Y-98285297D01*
X170480000Y-98300000D01*
X170480000Y-99950000D01*
X170479278Y-99964703D01*
X170477118Y-99979264D01*
X170473541Y-99993543D01*
X170468582Y-100007403D01*
X170462288Y-100020710D01*
X170454720Y-100033336D01*
X170445952Y-100045159D01*
X170436066Y-100056066D01*
X170425159Y-100065952D01*
X170413336Y-100074720D01*
X170400710Y-100082288D01*
X170387403Y-100088582D01*
X170373543Y-100093541D01*
X170359264Y-100097118D01*
X170344703Y-100099278D01*
X170330000Y-100100000D01*
X170030000Y-100100000D01*
X170015297Y-100099278D01*
X170000736Y-100097118D01*
X169986457Y-100093541D01*
X169972597Y-100088582D01*
X169959290Y-100082288D01*
X169946664Y-100074720D01*
X169934841Y-100065952D01*
X169923934Y-100056066D01*
X169914048Y-100045159D01*
X169905280Y-100033336D01*
X169897712Y-100020710D01*
X169891418Y-100007403D01*
X169886459Y-99993543D01*
X169882882Y-99979264D01*
X169880722Y-99964703D01*
X169880000Y-99950000D01*
X169880000Y-98300000D01*
X169880722Y-98285297D01*
X169882882Y-98270736D01*
X169886459Y-98256457D01*
X169891418Y-98242597D01*
X169897712Y-98229290D01*
X169905280Y-98216664D01*
X169914048Y-98204841D01*
X169923934Y-98193934D01*
X169934841Y-98184048D01*
X169946664Y-98175280D01*
X169959290Y-98167712D01*
X169972597Y-98161418D01*
X169986457Y-98156459D01*
X170000736Y-98152882D01*
X170015297Y-98150722D01*
X170030000Y-98150000D01*
X170330000Y-98150000D01*
X170344703Y-98150722D01*
X170344703Y-98150722D01*
G37*
D14*
X170180000Y-99125000D03*
D11*
G36*
X169074703Y-98150722D02*
G01*
X169089264Y-98152882D01*
X169103543Y-98156459D01*
X169117403Y-98161418D01*
X169130710Y-98167712D01*
X169143336Y-98175280D01*
X169155159Y-98184048D01*
X169166066Y-98193934D01*
X169175952Y-98204841D01*
X169184720Y-98216664D01*
X169192288Y-98229290D01*
X169198582Y-98242597D01*
X169203541Y-98256457D01*
X169207118Y-98270736D01*
X169209278Y-98285297D01*
X169210000Y-98300000D01*
X169210000Y-99950000D01*
X169209278Y-99964703D01*
X169207118Y-99979264D01*
X169203541Y-99993543D01*
X169198582Y-100007403D01*
X169192288Y-100020710D01*
X169184720Y-100033336D01*
X169175952Y-100045159D01*
X169166066Y-100056066D01*
X169155159Y-100065952D01*
X169143336Y-100074720D01*
X169130710Y-100082288D01*
X169117403Y-100088582D01*
X169103543Y-100093541D01*
X169089264Y-100097118D01*
X169074703Y-100099278D01*
X169060000Y-100100000D01*
X168760000Y-100100000D01*
X168745297Y-100099278D01*
X168730736Y-100097118D01*
X168716457Y-100093541D01*
X168702597Y-100088582D01*
X168689290Y-100082288D01*
X168676664Y-100074720D01*
X168664841Y-100065952D01*
X168653934Y-100056066D01*
X168644048Y-100045159D01*
X168635280Y-100033336D01*
X168627712Y-100020710D01*
X168621418Y-100007403D01*
X168616459Y-99993543D01*
X168612882Y-99979264D01*
X168610722Y-99964703D01*
X168610000Y-99950000D01*
X168610000Y-98300000D01*
X168610722Y-98285297D01*
X168612882Y-98270736D01*
X168616459Y-98256457D01*
X168621418Y-98242597D01*
X168627712Y-98229290D01*
X168635280Y-98216664D01*
X168644048Y-98204841D01*
X168653934Y-98193934D01*
X168664841Y-98184048D01*
X168676664Y-98175280D01*
X168689290Y-98167712D01*
X168702597Y-98161418D01*
X168716457Y-98156459D01*
X168730736Y-98152882D01*
X168745297Y-98150722D01*
X168760000Y-98150000D01*
X169060000Y-98150000D01*
X169074703Y-98150722D01*
X169074703Y-98150722D01*
G37*
D14*
X168910000Y-99125000D03*
D11*
G36*
X167804703Y-98150722D02*
G01*
X167819264Y-98152882D01*
X167833543Y-98156459D01*
X167847403Y-98161418D01*
X167860710Y-98167712D01*
X167873336Y-98175280D01*
X167885159Y-98184048D01*
X167896066Y-98193934D01*
X167905952Y-98204841D01*
X167914720Y-98216664D01*
X167922288Y-98229290D01*
X167928582Y-98242597D01*
X167933541Y-98256457D01*
X167937118Y-98270736D01*
X167939278Y-98285297D01*
X167940000Y-98300000D01*
X167940000Y-99950000D01*
X167939278Y-99964703D01*
X167937118Y-99979264D01*
X167933541Y-99993543D01*
X167928582Y-100007403D01*
X167922288Y-100020710D01*
X167914720Y-100033336D01*
X167905952Y-100045159D01*
X167896066Y-100056066D01*
X167885159Y-100065952D01*
X167873336Y-100074720D01*
X167860710Y-100082288D01*
X167847403Y-100088582D01*
X167833543Y-100093541D01*
X167819264Y-100097118D01*
X167804703Y-100099278D01*
X167790000Y-100100000D01*
X167490000Y-100100000D01*
X167475297Y-100099278D01*
X167460736Y-100097118D01*
X167446457Y-100093541D01*
X167432597Y-100088582D01*
X167419290Y-100082288D01*
X167406664Y-100074720D01*
X167394841Y-100065952D01*
X167383934Y-100056066D01*
X167374048Y-100045159D01*
X167365280Y-100033336D01*
X167357712Y-100020710D01*
X167351418Y-100007403D01*
X167346459Y-99993543D01*
X167342882Y-99979264D01*
X167340722Y-99964703D01*
X167340000Y-99950000D01*
X167340000Y-98300000D01*
X167340722Y-98285297D01*
X167342882Y-98270736D01*
X167346459Y-98256457D01*
X167351418Y-98242597D01*
X167357712Y-98229290D01*
X167365280Y-98216664D01*
X167374048Y-98204841D01*
X167383934Y-98193934D01*
X167394841Y-98184048D01*
X167406664Y-98175280D01*
X167419290Y-98167712D01*
X167432597Y-98161418D01*
X167446457Y-98156459D01*
X167460736Y-98152882D01*
X167475297Y-98150722D01*
X167490000Y-98150000D01*
X167790000Y-98150000D01*
X167804703Y-98150722D01*
X167804703Y-98150722D01*
G37*
D14*
X167640000Y-99125000D03*
D11*
G36*
X166534703Y-98150722D02*
G01*
X166549264Y-98152882D01*
X166563543Y-98156459D01*
X166577403Y-98161418D01*
X166590710Y-98167712D01*
X166603336Y-98175280D01*
X166615159Y-98184048D01*
X166626066Y-98193934D01*
X166635952Y-98204841D01*
X166644720Y-98216664D01*
X166652288Y-98229290D01*
X166658582Y-98242597D01*
X166663541Y-98256457D01*
X166667118Y-98270736D01*
X166669278Y-98285297D01*
X166670000Y-98300000D01*
X166670000Y-99950000D01*
X166669278Y-99964703D01*
X166667118Y-99979264D01*
X166663541Y-99993543D01*
X166658582Y-100007403D01*
X166652288Y-100020710D01*
X166644720Y-100033336D01*
X166635952Y-100045159D01*
X166626066Y-100056066D01*
X166615159Y-100065952D01*
X166603336Y-100074720D01*
X166590710Y-100082288D01*
X166577403Y-100088582D01*
X166563543Y-100093541D01*
X166549264Y-100097118D01*
X166534703Y-100099278D01*
X166520000Y-100100000D01*
X166220000Y-100100000D01*
X166205297Y-100099278D01*
X166190736Y-100097118D01*
X166176457Y-100093541D01*
X166162597Y-100088582D01*
X166149290Y-100082288D01*
X166136664Y-100074720D01*
X166124841Y-100065952D01*
X166113934Y-100056066D01*
X166104048Y-100045159D01*
X166095280Y-100033336D01*
X166087712Y-100020710D01*
X166081418Y-100007403D01*
X166076459Y-99993543D01*
X166072882Y-99979264D01*
X166070722Y-99964703D01*
X166070000Y-99950000D01*
X166070000Y-98300000D01*
X166070722Y-98285297D01*
X166072882Y-98270736D01*
X166076459Y-98256457D01*
X166081418Y-98242597D01*
X166087712Y-98229290D01*
X166095280Y-98216664D01*
X166104048Y-98204841D01*
X166113934Y-98193934D01*
X166124841Y-98184048D01*
X166136664Y-98175280D01*
X166149290Y-98167712D01*
X166162597Y-98161418D01*
X166176457Y-98156459D01*
X166190736Y-98152882D01*
X166205297Y-98150722D01*
X166220000Y-98150000D01*
X166520000Y-98150000D01*
X166534703Y-98150722D01*
X166534703Y-98150722D01*
G37*
D14*
X166370000Y-99125000D03*
D11*
G36*
X166534703Y-103100722D02*
G01*
X166549264Y-103102882D01*
X166563543Y-103106459D01*
X166577403Y-103111418D01*
X166590710Y-103117712D01*
X166603336Y-103125280D01*
X166615159Y-103134048D01*
X166626066Y-103143934D01*
X166635952Y-103154841D01*
X166644720Y-103166664D01*
X166652288Y-103179290D01*
X166658582Y-103192597D01*
X166663541Y-103206457D01*
X166667118Y-103220736D01*
X166669278Y-103235297D01*
X166670000Y-103250000D01*
X166670000Y-104900000D01*
X166669278Y-104914703D01*
X166667118Y-104929264D01*
X166663541Y-104943543D01*
X166658582Y-104957403D01*
X166652288Y-104970710D01*
X166644720Y-104983336D01*
X166635952Y-104995159D01*
X166626066Y-105006066D01*
X166615159Y-105015952D01*
X166603336Y-105024720D01*
X166590710Y-105032288D01*
X166577403Y-105038582D01*
X166563543Y-105043541D01*
X166549264Y-105047118D01*
X166534703Y-105049278D01*
X166520000Y-105050000D01*
X166220000Y-105050000D01*
X166205297Y-105049278D01*
X166190736Y-105047118D01*
X166176457Y-105043541D01*
X166162597Y-105038582D01*
X166149290Y-105032288D01*
X166136664Y-105024720D01*
X166124841Y-105015952D01*
X166113934Y-105006066D01*
X166104048Y-104995159D01*
X166095280Y-104983336D01*
X166087712Y-104970710D01*
X166081418Y-104957403D01*
X166076459Y-104943543D01*
X166072882Y-104929264D01*
X166070722Y-104914703D01*
X166070000Y-104900000D01*
X166070000Y-103250000D01*
X166070722Y-103235297D01*
X166072882Y-103220736D01*
X166076459Y-103206457D01*
X166081418Y-103192597D01*
X166087712Y-103179290D01*
X166095280Y-103166664D01*
X166104048Y-103154841D01*
X166113934Y-103143934D01*
X166124841Y-103134048D01*
X166136664Y-103125280D01*
X166149290Y-103117712D01*
X166162597Y-103111418D01*
X166176457Y-103106459D01*
X166190736Y-103102882D01*
X166205297Y-103100722D01*
X166220000Y-103100000D01*
X166520000Y-103100000D01*
X166534703Y-103100722D01*
X166534703Y-103100722D01*
G37*
D14*
X166370000Y-104075000D03*
D11*
G36*
X167804703Y-103100722D02*
G01*
X167819264Y-103102882D01*
X167833543Y-103106459D01*
X167847403Y-103111418D01*
X167860710Y-103117712D01*
X167873336Y-103125280D01*
X167885159Y-103134048D01*
X167896066Y-103143934D01*
X167905952Y-103154841D01*
X167914720Y-103166664D01*
X167922288Y-103179290D01*
X167928582Y-103192597D01*
X167933541Y-103206457D01*
X167937118Y-103220736D01*
X167939278Y-103235297D01*
X167940000Y-103250000D01*
X167940000Y-104900000D01*
X167939278Y-104914703D01*
X167937118Y-104929264D01*
X167933541Y-104943543D01*
X167928582Y-104957403D01*
X167922288Y-104970710D01*
X167914720Y-104983336D01*
X167905952Y-104995159D01*
X167896066Y-105006066D01*
X167885159Y-105015952D01*
X167873336Y-105024720D01*
X167860710Y-105032288D01*
X167847403Y-105038582D01*
X167833543Y-105043541D01*
X167819264Y-105047118D01*
X167804703Y-105049278D01*
X167790000Y-105050000D01*
X167490000Y-105050000D01*
X167475297Y-105049278D01*
X167460736Y-105047118D01*
X167446457Y-105043541D01*
X167432597Y-105038582D01*
X167419290Y-105032288D01*
X167406664Y-105024720D01*
X167394841Y-105015952D01*
X167383934Y-105006066D01*
X167374048Y-104995159D01*
X167365280Y-104983336D01*
X167357712Y-104970710D01*
X167351418Y-104957403D01*
X167346459Y-104943543D01*
X167342882Y-104929264D01*
X167340722Y-104914703D01*
X167340000Y-104900000D01*
X167340000Y-103250000D01*
X167340722Y-103235297D01*
X167342882Y-103220736D01*
X167346459Y-103206457D01*
X167351418Y-103192597D01*
X167357712Y-103179290D01*
X167365280Y-103166664D01*
X167374048Y-103154841D01*
X167383934Y-103143934D01*
X167394841Y-103134048D01*
X167406664Y-103125280D01*
X167419290Y-103117712D01*
X167432597Y-103111418D01*
X167446457Y-103106459D01*
X167460736Y-103102882D01*
X167475297Y-103100722D01*
X167490000Y-103100000D01*
X167790000Y-103100000D01*
X167804703Y-103100722D01*
X167804703Y-103100722D01*
G37*
D14*
X167640000Y-104075000D03*
D11*
G36*
X169074703Y-103100722D02*
G01*
X169089264Y-103102882D01*
X169103543Y-103106459D01*
X169117403Y-103111418D01*
X169130710Y-103117712D01*
X169143336Y-103125280D01*
X169155159Y-103134048D01*
X169166066Y-103143934D01*
X169175952Y-103154841D01*
X169184720Y-103166664D01*
X169192288Y-103179290D01*
X169198582Y-103192597D01*
X169203541Y-103206457D01*
X169207118Y-103220736D01*
X169209278Y-103235297D01*
X169210000Y-103250000D01*
X169210000Y-104900000D01*
X169209278Y-104914703D01*
X169207118Y-104929264D01*
X169203541Y-104943543D01*
X169198582Y-104957403D01*
X169192288Y-104970710D01*
X169184720Y-104983336D01*
X169175952Y-104995159D01*
X169166066Y-105006066D01*
X169155159Y-105015952D01*
X169143336Y-105024720D01*
X169130710Y-105032288D01*
X169117403Y-105038582D01*
X169103543Y-105043541D01*
X169089264Y-105047118D01*
X169074703Y-105049278D01*
X169060000Y-105050000D01*
X168760000Y-105050000D01*
X168745297Y-105049278D01*
X168730736Y-105047118D01*
X168716457Y-105043541D01*
X168702597Y-105038582D01*
X168689290Y-105032288D01*
X168676664Y-105024720D01*
X168664841Y-105015952D01*
X168653934Y-105006066D01*
X168644048Y-104995159D01*
X168635280Y-104983336D01*
X168627712Y-104970710D01*
X168621418Y-104957403D01*
X168616459Y-104943543D01*
X168612882Y-104929264D01*
X168610722Y-104914703D01*
X168610000Y-104900000D01*
X168610000Y-103250000D01*
X168610722Y-103235297D01*
X168612882Y-103220736D01*
X168616459Y-103206457D01*
X168621418Y-103192597D01*
X168627712Y-103179290D01*
X168635280Y-103166664D01*
X168644048Y-103154841D01*
X168653934Y-103143934D01*
X168664841Y-103134048D01*
X168676664Y-103125280D01*
X168689290Y-103117712D01*
X168702597Y-103111418D01*
X168716457Y-103106459D01*
X168730736Y-103102882D01*
X168745297Y-103100722D01*
X168760000Y-103100000D01*
X169060000Y-103100000D01*
X169074703Y-103100722D01*
X169074703Y-103100722D01*
G37*
D14*
X168910000Y-104075000D03*
D11*
G36*
X170344703Y-103100722D02*
G01*
X170359264Y-103102882D01*
X170373543Y-103106459D01*
X170387403Y-103111418D01*
X170400710Y-103117712D01*
X170413336Y-103125280D01*
X170425159Y-103134048D01*
X170436066Y-103143934D01*
X170445952Y-103154841D01*
X170454720Y-103166664D01*
X170462288Y-103179290D01*
X170468582Y-103192597D01*
X170473541Y-103206457D01*
X170477118Y-103220736D01*
X170479278Y-103235297D01*
X170480000Y-103250000D01*
X170480000Y-104900000D01*
X170479278Y-104914703D01*
X170477118Y-104929264D01*
X170473541Y-104943543D01*
X170468582Y-104957403D01*
X170462288Y-104970710D01*
X170454720Y-104983336D01*
X170445952Y-104995159D01*
X170436066Y-105006066D01*
X170425159Y-105015952D01*
X170413336Y-105024720D01*
X170400710Y-105032288D01*
X170387403Y-105038582D01*
X170373543Y-105043541D01*
X170359264Y-105047118D01*
X170344703Y-105049278D01*
X170330000Y-105050000D01*
X170030000Y-105050000D01*
X170015297Y-105049278D01*
X170000736Y-105047118D01*
X169986457Y-105043541D01*
X169972597Y-105038582D01*
X169959290Y-105032288D01*
X169946664Y-105024720D01*
X169934841Y-105015952D01*
X169923934Y-105006066D01*
X169914048Y-104995159D01*
X169905280Y-104983336D01*
X169897712Y-104970710D01*
X169891418Y-104957403D01*
X169886459Y-104943543D01*
X169882882Y-104929264D01*
X169880722Y-104914703D01*
X169880000Y-104900000D01*
X169880000Y-103250000D01*
X169880722Y-103235297D01*
X169882882Y-103220736D01*
X169886459Y-103206457D01*
X169891418Y-103192597D01*
X169897712Y-103179290D01*
X169905280Y-103166664D01*
X169914048Y-103154841D01*
X169923934Y-103143934D01*
X169934841Y-103134048D01*
X169946664Y-103125280D01*
X169959290Y-103117712D01*
X169972597Y-103111418D01*
X169986457Y-103106459D01*
X170000736Y-103102882D01*
X170015297Y-103100722D01*
X170030000Y-103100000D01*
X170330000Y-103100000D01*
X170344703Y-103100722D01*
X170344703Y-103100722D01*
G37*
D14*
X170180000Y-104075000D03*
D15*
X141335000Y-116840000D03*
X139335000Y-115890000D03*
X139335000Y-117790000D03*
D16*
X167005000Y-120310000D03*
D11*
G36*
X166505000Y-120685000D02*
G01*
X166005000Y-119935000D01*
X168005000Y-119935000D01*
X167505000Y-120685000D01*
X166505000Y-120685000D01*
X166505000Y-120685000D01*
G37*
D17*
X167005000Y-117960000D03*
D18*
X165505000Y-121920000D03*
X167005000Y-121920000D03*
X168505000Y-121920000D03*
D19*
X166148000Y-88893000D03*
D20*
X170148000Y-90043000D03*
D19*
X166148000Y-91193000D03*
D11*
G36*
X168749505Y-93524204D02*
G01*
X168773773Y-93527804D01*
X168797572Y-93533765D01*
X168820671Y-93542030D01*
X168842850Y-93552520D01*
X168863893Y-93565132D01*
X168883599Y-93579747D01*
X168901777Y-93596223D01*
X168918253Y-93614401D01*
X168932868Y-93634107D01*
X168945480Y-93655150D01*
X168955970Y-93677329D01*
X168964235Y-93700428D01*
X168970196Y-93724227D01*
X168973796Y-93748495D01*
X168975000Y-93772999D01*
X168975000Y-94423001D01*
X168973796Y-94447505D01*
X168970196Y-94471773D01*
X168964235Y-94495572D01*
X168955970Y-94518671D01*
X168945480Y-94540850D01*
X168932868Y-94561893D01*
X168918253Y-94581599D01*
X168901777Y-94599777D01*
X168883599Y-94616253D01*
X168863893Y-94630868D01*
X168842850Y-94643480D01*
X168820671Y-94653970D01*
X168797572Y-94662235D01*
X168773773Y-94668196D01*
X168749505Y-94671796D01*
X168725001Y-94673000D01*
X167824999Y-94673000D01*
X167800495Y-94671796D01*
X167776227Y-94668196D01*
X167752428Y-94662235D01*
X167729329Y-94653970D01*
X167707150Y-94643480D01*
X167686107Y-94630868D01*
X167666401Y-94616253D01*
X167648223Y-94599777D01*
X167631747Y-94581599D01*
X167617132Y-94561893D01*
X167604520Y-94540850D01*
X167594030Y-94518671D01*
X167585765Y-94495572D01*
X167579804Y-94471773D01*
X167576204Y-94447505D01*
X167575000Y-94423001D01*
X167575000Y-93772999D01*
X167576204Y-93748495D01*
X167579804Y-93724227D01*
X167585765Y-93700428D01*
X167594030Y-93677329D01*
X167604520Y-93655150D01*
X167617132Y-93634107D01*
X167631747Y-93614401D01*
X167648223Y-93596223D01*
X167666401Y-93579747D01*
X167686107Y-93565132D01*
X167707150Y-93552520D01*
X167729329Y-93542030D01*
X167752428Y-93533765D01*
X167776227Y-93527804D01*
X167800495Y-93524204D01*
X167824999Y-93523000D01*
X168725001Y-93523000D01*
X168749505Y-93524204D01*
X168749505Y-93524204D01*
G37*
D21*
X168275000Y-94098000D03*
D11*
G36*
X168749505Y-95574204D02*
G01*
X168773773Y-95577804D01*
X168797572Y-95583765D01*
X168820671Y-95592030D01*
X168842850Y-95602520D01*
X168863893Y-95615132D01*
X168883599Y-95629747D01*
X168901777Y-95646223D01*
X168918253Y-95664401D01*
X168932868Y-95684107D01*
X168945480Y-95705150D01*
X168955970Y-95727329D01*
X168964235Y-95750428D01*
X168970196Y-95774227D01*
X168973796Y-95798495D01*
X168975000Y-95822999D01*
X168975000Y-96473001D01*
X168973796Y-96497505D01*
X168970196Y-96521773D01*
X168964235Y-96545572D01*
X168955970Y-96568671D01*
X168945480Y-96590850D01*
X168932868Y-96611893D01*
X168918253Y-96631599D01*
X168901777Y-96649777D01*
X168883599Y-96666253D01*
X168863893Y-96680868D01*
X168842850Y-96693480D01*
X168820671Y-96703970D01*
X168797572Y-96712235D01*
X168773773Y-96718196D01*
X168749505Y-96721796D01*
X168725001Y-96723000D01*
X167824999Y-96723000D01*
X167800495Y-96721796D01*
X167776227Y-96718196D01*
X167752428Y-96712235D01*
X167729329Y-96703970D01*
X167707150Y-96693480D01*
X167686107Y-96680868D01*
X167666401Y-96666253D01*
X167648223Y-96649777D01*
X167631747Y-96631599D01*
X167617132Y-96611893D01*
X167604520Y-96590850D01*
X167594030Y-96568671D01*
X167585765Y-96545572D01*
X167579804Y-96521773D01*
X167576204Y-96497505D01*
X167575000Y-96473001D01*
X167575000Y-95822999D01*
X167576204Y-95798495D01*
X167579804Y-95774227D01*
X167585765Y-95750428D01*
X167594030Y-95727329D01*
X167604520Y-95705150D01*
X167617132Y-95684107D01*
X167631747Y-95664401D01*
X167648223Y-95646223D01*
X167666401Y-95629747D01*
X167686107Y-95615132D01*
X167707150Y-95602520D01*
X167729329Y-95592030D01*
X167752428Y-95583765D01*
X167776227Y-95577804D01*
X167800495Y-95574204D01*
X167824999Y-95573000D01*
X168725001Y-95573000D01*
X168749505Y-95574204D01*
X168749505Y-95574204D01*
G37*
D21*
X168275000Y-96148000D03*
D11*
G36*
X166336505Y-95574204D02*
G01*
X166360773Y-95577804D01*
X166384572Y-95583765D01*
X166407671Y-95592030D01*
X166429850Y-95602520D01*
X166450893Y-95615132D01*
X166470599Y-95629747D01*
X166488777Y-95646223D01*
X166505253Y-95664401D01*
X166519868Y-95684107D01*
X166532480Y-95705150D01*
X166542970Y-95727329D01*
X166551235Y-95750428D01*
X166557196Y-95774227D01*
X166560796Y-95798495D01*
X166562000Y-95822999D01*
X166562000Y-96473001D01*
X166560796Y-96497505D01*
X166557196Y-96521773D01*
X166551235Y-96545572D01*
X166542970Y-96568671D01*
X166532480Y-96590850D01*
X166519868Y-96611893D01*
X166505253Y-96631599D01*
X166488777Y-96649777D01*
X166470599Y-96666253D01*
X166450893Y-96680868D01*
X166429850Y-96693480D01*
X166407671Y-96703970D01*
X166384572Y-96712235D01*
X166360773Y-96718196D01*
X166336505Y-96721796D01*
X166312001Y-96723000D01*
X165411999Y-96723000D01*
X165387495Y-96721796D01*
X165363227Y-96718196D01*
X165339428Y-96712235D01*
X165316329Y-96703970D01*
X165294150Y-96693480D01*
X165273107Y-96680868D01*
X165253401Y-96666253D01*
X165235223Y-96649777D01*
X165218747Y-96631599D01*
X165204132Y-96611893D01*
X165191520Y-96590850D01*
X165181030Y-96568671D01*
X165172765Y-96545572D01*
X165166804Y-96521773D01*
X165163204Y-96497505D01*
X165162000Y-96473001D01*
X165162000Y-95822999D01*
X165163204Y-95798495D01*
X165166804Y-95774227D01*
X165172765Y-95750428D01*
X165181030Y-95727329D01*
X165191520Y-95705150D01*
X165204132Y-95684107D01*
X165218747Y-95664401D01*
X165235223Y-95646223D01*
X165253401Y-95629747D01*
X165273107Y-95615132D01*
X165294150Y-95602520D01*
X165316329Y-95592030D01*
X165339428Y-95583765D01*
X165363227Y-95577804D01*
X165387495Y-95574204D01*
X165411999Y-95573000D01*
X166312001Y-95573000D01*
X166336505Y-95574204D01*
X166336505Y-95574204D01*
G37*
D21*
X165862000Y-96148000D03*
D11*
G36*
X166336505Y-93524204D02*
G01*
X166360773Y-93527804D01*
X166384572Y-93533765D01*
X166407671Y-93542030D01*
X166429850Y-93552520D01*
X166450893Y-93565132D01*
X166470599Y-93579747D01*
X166488777Y-93596223D01*
X166505253Y-93614401D01*
X166519868Y-93634107D01*
X166532480Y-93655150D01*
X166542970Y-93677329D01*
X166551235Y-93700428D01*
X166557196Y-93724227D01*
X166560796Y-93748495D01*
X166562000Y-93772999D01*
X166562000Y-94423001D01*
X166560796Y-94447505D01*
X166557196Y-94471773D01*
X166551235Y-94495572D01*
X166542970Y-94518671D01*
X166532480Y-94540850D01*
X166519868Y-94561893D01*
X166505253Y-94581599D01*
X166488777Y-94599777D01*
X166470599Y-94616253D01*
X166450893Y-94630868D01*
X166429850Y-94643480D01*
X166407671Y-94653970D01*
X166384572Y-94662235D01*
X166360773Y-94668196D01*
X166336505Y-94671796D01*
X166312001Y-94673000D01*
X165411999Y-94673000D01*
X165387495Y-94671796D01*
X165363227Y-94668196D01*
X165339428Y-94662235D01*
X165316329Y-94653970D01*
X165294150Y-94643480D01*
X165273107Y-94630868D01*
X165253401Y-94616253D01*
X165235223Y-94599777D01*
X165218747Y-94581599D01*
X165204132Y-94561893D01*
X165191520Y-94540850D01*
X165181030Y-94518671D01*
X165172765Y-94495572D01*
X165166804Y-94471773D01*
X165163204Y-94447505D01*
X165162000Y-94423001D01*
X165162000Y-93772999D01*
X165163204Y-93748495D01*
X165166804Y-93724227D01*
X165172765Y-93700428D01*
X165181030Y-93677329D01*
X165191520Y-93655150D01*
X165204132Y-93634107D01*
X165218747Y-93614401D01*
X165235223Y-93596223D01*
X165253401Y-93579747D01*
X165273107Y-93565132D01*
X165294150Y-93552520D01*
X165316329Y-93542030D01*
X165339428Y-93533765D01*
X165363227Y-93527804D01*
X165387495Y-93524204D01*
X165411999Y-93523000D01*
X166312001Y-93523000D01*
X166336505Y-93524204D01*
X166336505Y-93524204D01*
G37*
D21*
X165862000Y-94098000D03*
D11*
G36*
X151869505Y-116014204D02*
G01*
X151893773Y-116017804D01*
X151917572Y-116023765D01*
X151940671Y-116032030D01*
X151962850Y-116042520D01*
X151983893Y-116055132D01*
X152003599Y-116069747D01*
X152021777Y-116086223D01*
X152038253Y-116104401D01*
X152052868Y-116124107D01*
X152065480Y-116145150D01*
X152075970Y-116167329D01*
X152084235Y-116190428D01*
X152090196Y-116214227D01*
X152093796Y-116238495D01*
X152095000Y-116262999D01*
X152095000Y-117163001D01*
X152093796Y-117187505D01*
X152090196Y-117211773D01*
X152084235Y-117235572D01*
X152075970Y-117258671D01*
X152065480Y-117280850D01*
X152052868Y-117301893D01*
X152038253Y-117321599D01*
X152021777Y-117339777D01*
X152003599Y-117356253D01*
X151983893Y-117370868D01*
X151962850Y-117383480D01*
X151940671Y-117393970D01*
X151917572Y-117402235D01*
X151893773Y-117408196D01*
X151869505Y-117411796D01*
X151845001Y-117413000D01*
X151194999Y-117413000D01*
X151170495Y-117411796D01*
X151146227Y-117408196D01*
X151122428Y-117402235D01*
X151099329Y-117393970D01*
X151077150Y-117383480D01*
X151056107Y-117370868D01*
X151036401Y-117356253D01*
X151018223Y-117339777D01*
X151001747Y-117321599D01*
X150987132Y-117301893D01*
X150974520Y-117280850D01*
X150964030Y-117258671D01*
X150955765Y-117235572D01*
X150949804Y-117211773D01*
X150946204Y-117187505D01*
X150945000Y-117163001D01*
X150945000Y-116262999D01*
X150946204Y-116238495D01*
X150949804Y-116214227D01*
X150955765Y-116190428D01*
X150964030Y-116167329D01*
X150974520Y-116145150D01*
X150987132Y-116124107D01*
X151001747Y-116104401D01*
X151018223Y-116086223D01*
X151036401Y-116069747D01*
X151056107Y-116055132D01*
X151077150Y-116042520D01*
X151099329Y-116032030D01*
X151122428Y-116023765D01*
X151146227Y-116017804D01*
X151170495Y-116014204D01*
X151194999Y-116013000D01*
X151845001Y-116013000D01*
X151869505Y-116014204D01*
X151869505Y-116014204D01*
G37*
D21*
X151520000Y-116713000D03*
D11*
G36*
X149819505Y-116014204D02*
G01*
X149843773Y-116017804D01*
X149867572Y-116023765D01*
X149890671Y-116032030D01*
X149912850Y-116042520D01*
X149933893Y-116055132D01*
X149953599Y-116069747D01*
X149971777Y-116086223D01*
X149988253Y-116104401D01*
X150002868Y-116124107D01*
X150015480Y-116145150D01*
X150025970Y-116167329D01*
X150034235Y-116190428D01*
X150040196Y-116214227D01*
X150043796Y-116238495D01*
X150045000Y-116262999D01*
X150045000Y-117163001D01*
X150043796Y-117187505D01*
X150040196Y-117211773D01*
X150034235Y-117235572D01*
X150025970Y-117258671D01*
X150015480Y-117280850D01*
X150002868Y-117301893D01*
X149988253Y-117321599D01*
X149971777Y-117339777D01*
X149953599Y-117356253D01*
X149933893Y-117370868D01*
X149912850Y-117383480D01*
X149890671Y-117393970D01*
X149867572Y-117402235D01*
X149843773Y-117408196D01*
X149819505Y-117411796D01*
X149795001Y-117413000D01*
X149144999Y-117413000D01*
X149120495Y-117411796D01*
X149096227Y-117408196D01*
X149072428Y-117402235D01*
X149049329Y-117393970D01*
X149027150Y-117383480D01*
X149006107Y-117370868D01*
X148986401Y-117356253D01*
X148968223Y-117339777D01*
X148951747Y-117321599D01*
X148937132Y-117301893D01*
X148924520Y-117280850D01*
X148914030Y-117258671D01*
X148905765Y-117235572D01*
X148899804Y-117211773D01*
X148896204Y-117187505D01*
X148895000Y-117163001D01*
X148895000Y-116262999D01*
X148896204Y-116238495D01*
X148899804Y-116214227D01*
X148905765Y-116190428D01*
X148914030Y-116167329D01*
X148924520Y-116145150D01*
X148937132Y-116124107D01*
X148951747Y-116104401D01*
X148968223Y-116086223D01*
X148986401Y-116069747D01*
X149006107Y-116055132D01*
X149027150Y-116042520D01*
X149049329Y-116032030D01*
X149072428Y-116023765D01*
X149096227Y-116017804D01*
X149120495Y-116014204D01*
X149144999Y-116013000D01*
X149795001Y-116013000D01*
X149819505Y-116014204D01*
X149819505Y-116014204D01*
G37*
D21*
X149470000Y-116713000D03*
D11*
G36*
X192584505Y-104201204D02*
G01*
X192608773Y-104204804D01*
X192632572Y-104210765D01*
X192655671Y-104219030D01*
X192677850Y-104229520D01*
X192698893Y-104242132D01*
X192718599Y-104256747D01*
X192736777Y-104273223D01*
X192753253Y-104291401D01*
X192767868Y-104311107D01*
X192780480Y-104332150D01*
X192790970Y-104354329D01*
X192799235Y-104377428D01*
X192805196Y-104401227D01*
X192808796Y-104425495D01*
X192810000Y-104449999D01*
X192810000Y-105475001D01*
X192808796Y-105499505D01*
X192805196Y-105523773D01*
X192799235Y-105547572D01*
X192790970Y-105570671D01*
X192780480Y-105592850D01*
X192767868Y-105613893D01*
X192753253Y-105633599D01*
X192736777Y-105651777D01*
X192718599Y-105668253D01*
X192698893Y-105682868D01*
X192677850Y-105695480D01*
X192655671Y-105705970D01*
X192632572Y-105714235D01*
X192608773Y-105720196D01*
X192584505Y-105723796D01*
X192560001Y-105725000D01*
X189709999Y-105725000D01*
X189685495Y-105723796D01*
X189661227Y-105720196D01*
X189637428Y-105714235D01*
X189614329Y-105705970D01*
X189592150Y-105695480D01*
X189571107Y-105682868D01*
X189551401Y-105668253D01*
X189533223Y-105651777D01*
X189516747Y-105633599D01*
X189502132Y-105613893D01*
X189489520Y-105592850D01*
X189479030Y-105570671D01*
X189470765Y-105547572D01*
X189464804Y-105523773D01*
X189461204Y-105499505D01*
X189460000Y-105475001D01*
X189460000Y-104449999D01*
X189461204Y-104425495D01*
X189464804Y-104401227D01*
X189470765Y-104377428D01*
X189479030Y-104354329D01*
X189489520Y-104332150D01*
X189502132Y-104311107D01*
X189516747Y-104291401D01*
X189533223Y-104273223D01*
X189551401Y-104256747D01*
X189571107Y-104242132D01*
X189592150Y-104229520D01*
X189614329Y-104219030D01*
X189637428Y-104210765D01*
X189661227Y-104204804D01*
X189685495Y-104201204D01*
X189709999Y-104200000D01*
X192560001Y-104200000D01*
X192584505Y-104201204D01*
X192584505Y-104201204D01*
G37*
D22*
X191135000Y-104962500D03*
D11*
G36*
X192584505Y-110176204D02*
G01*
X192608773Y-110179804D01*
X192632572Y-110185765D01*
X192655671Y-110194030D01*
X192677850Y-110204520D01*
X192698893Y-110217132D01*
X192718599Y-110231747D01*
X192736777Y-110248223D01*
X192753253Y-110266401D01*
X192767868Y-110286107D01*
X192780480Y-110307150D01*
X192790970Y-110329329D01*
X192799235Y-110352428D01*
X192805196Y-110376227D01*
X192808796Y-110400495D01*
X192810000Y-110424999D01*
X192810000Y-111450001D01*
X192808796Y-111474505D01*
X192805196Y-111498773D01*
X192799235Y-111522572D01*
X192790970Y-111545671D01*
X192780480Y-111567850D01*
X192767868Y-111588893D01*
X192753253Y-111608599D01*
X192736777Y-111626777D01*
X192718599Y-111643253D01*
X192698893Y-111657868D01*
X192677850Y-111670480D01*
X192655671Y-111680970D01*
X192632572Y-111689235D01*
X192608773Y-111695196D01*
X192584505Y-111698796D01*
X192560001Y-111700000D01*
X189709999Y-111700000D01*
X189685495Y-111698796D01*
X189661227Y-111695196D01*
X189637428Y-111689235D01*
X189614329Y-111680970D01*
X189592150Y-111670480D01*
X189571107Y-111657868D01*
X189551401Y-111643253D01*
X189533223Y-111626777D01*
X189516747Y-111608599D01*
X189502132Y-111588893D01*
X189489520Y-111567850D01*
X189479030Y-111545671D01*
X189470765Y-111522572D01*
X189464804Y-111498773D01*
X189461204Y-111474505D01*
X189460000Y-111450001D01*
X189460000Y-110424999D01*
X189461204Y-110400495D01*
X189464804Y-110376227D01*
X189470765Y-110352428D01*
X189479030Y-110329329D01*
X189489520Y-110307150D01*
X189502132Y-110286107D01*
X189516747Y-110266401D01*
X189533223Y-110248223D01*
X189551401Y-110231747D01*
X189571107Y-110217132D01*
X189592150Y-110204520D01*
X189614329Y-110194030D01*
X189637428Y-110185765D01*
X189661227Y-110179804D01*
X189685495Y-110176204D01*
X189709999Y-110175000D01*
X192560001Y-110175000D01*
X192584505Y-110176204D01*
X192584505Y-110176204D01*
G37*
D22*
X191135000Y-110937500D03*
D11*
G36*
X166336505Y-106605204D02*
G01*
X166360773Y-106608804D01*
X166384572Y-106614765D01*
X166407671Y-106623030D01*
X166429850Y-106633520D01*
X166450893Y-106646132D01*
X166470599Y-106660747D01*
X166488777Y-106677223D01*
X166505253Y-106695401D01*
X166519868Y-106715107D01*
X166532480Y-106736150D01*
X166542970Y-106758329D01*
X166551235Y-106781428D01*
X166557196Y-106805227D01*
X166560796Y-106829495D01*
X166562000Y-106853999D01*
X166562000Y-107504001D01*
X166560796Y-107528505D01*
X166557196Y-107552773D01*
X166551235Y-107576572D01*
X166542970Y-107599671D01*
X166532480Y-107621850D01*
X166519868Y-107642893D01*
X166505253Y-107662599D01*
X166488777Y-107680777D01*
X166470599Y-107697253D01*
X166450893Y-107711868D01*
X166429850Y-107724480D01*
X166407671Y-107734970D01*
X166384572Y-107743235D01*
X166360773Y-107749196D01*
X166336505Y-107752796D01*
X166312001Y-107754000D01*
X165411999Y-107754000D01*
X165387495Y-107752796D01*
X165363227Y-107749196D01*
X165339428Y-107743235D01*
X165316329Y-107734970D01*
X165294150Y-107724480D01*
X165273107Y-107711868D01*
X165253401Y-107697253D01*
X165235223Y-107680777D01*
X165218747Y-107662599D01*
X165204132Y-107642893D01*
X165191520Y-107621850D01*
X165181030Y-107599671D01*
X165172765Y-107576572D01*
X165166804Y-107552773D01*
X165163204Y-107528505D01*
X165162000Y-107504001D01*
X165162000Y-106853999D01*
X165163204Y-106829495D01*
X165166804Y-106805227D01*
X165172765Y-106781428D01*
X165181030Y-106758329D01*
X165191520Y-106736150D01*
X165204132Y-106715107D01*
X165218747Y-106695401D01*
X165235223Y-106677223D01*
X165253401Y-106660747D01*
X165273107Y-106646132D01*
X165294150Y-106633520D01*
X165316329Y-106623030D01*
X165339428Y-106614765D01*
X165363227Y-106608804D01*
X165387495Y-106605204D01*
X165411999Y-106604000D01*
X166312001Y-106604000D01*
X166336505Y-106605204D01*
X166336505Y-106605204D01*
G37*
D21*
X165862000Y-107179000D03*
D11*
G36*
X166336505Y-108655204D02*
G01*
X166360773Y-108658804D01*
X166384572Y-108664765D01*
X166407671Y-108673030D01*
X166429850Y-108683520D01*
X166450893Y-108696132D01*
X166470599Y-108710747D01*
X166488777Y-108727223D01*
X166505253Y-108745401D01*
X166519868Y-108765107D01*
X166532480Y-108786150D01*
X166542970Y-108808329D01*
X166551235Y-108831428D01*
X166557196Y-108855227D01*
X166560796Y-108879495D01*
X166562000Y-108903999D01*
X166562000Y-109554001D01*
X166560796Y-109578505D01*
X166557196Y-109602773D01*
X166551235Y-109626572D01*
X166542970Y-109649671D01*
X166532480Y-109671850D01*
X166519868Y-109692893D01*
X166505253Y-109712599D01*
X166488777Y-109730777D01*
X166470599Y-109747253D01*
X166450893Y-109761868D01*
X166429850Y-109774480D01*
X166407671Y-109784970D01*
X166384572Y-109793235D01*
X166360773Y-109799196D01*
X166336505Y-109802796D01*
X166312001Y-109804000D01*
X165411999Y-109804000D01*
X165387495Y-109802796D01*
X165363227Y-109799196D01*
X165339428Y-109793235D01*
X165316329Y-109784970D01*
X165294150Y-109774480D01*
X165273107Y-109761868D01*
X165253401Y-109747253D01*
X165235223Y-109730777D01*
X165218747Y-109712599D01*
X165204132Y-109692893D01*
X165191520Y-109671850D01*
X165181030Y-109649671D01*
X165172765Y-109626572D01*
X165166804Y-109602773D01*
X165163204Y-109578505D01*
X165162000Y-109554001D01*
X165162000Y-108903999D01*
X165163204Y-108879495D01*
X165166804Y-108855227D01*
X165172765Y-108831428D01*
X165181030Y-108808329D01*
X165191520Y-108786150D01*
X165204132Y-108765107D01*
X165218747Y-108745401D01*
X165235223Y-108727223D01*
X165253401Y-108710747D01*
X165273107Y-108696132D01*
X165294150Y-108683520D01*
X165316329Y-108673030D01*
X165339428Y-108664765D01*
X165363227Y-108658804D01*
X165387495Y-108655204D01*
X165411999Y-108654000D01*
X166312001Y-108654000D01*
X166336505Y-108655204D01*
X166336505Y-108655204D01*
G37*
D21*
X165862000Y-109229000D03*
D11*
G36*
X171035505Y-106605204D02*
G01*
X171059773Y-106608804D01*
X171083572Y-106614765D01*
X171106671Y-106623030D01*
X171128850Y-106633520D01*
X171149893Y-106646132D01*
X171169599Y-106660747D01*
X171187777Y-106677223D01*
X171204253Y-106695401D01*
X171218868Y-106715107D01*
X171231480Y-106736150D01*
X171241970Y-106758329D01*
X171250235Y-106781428D01*
X171256196Y-106805227D01*
X171259796Y-106829495D01*
X171261000Y-106853999D01*
X171261000Y-107504001D01*
X171259796Y-107528505D01*
X171256196Y-107552773D01*
X171250235Y-107576572D01*
X171241970Y-107599671D01*
X171231480Y-107621850D01*
X171218868Y-107642893D01*
X171204253Y-107662599D01*
X171187777Y-107680777D01*
X171169599Y-107697253D01*
X171149893Y-107711868D01*
X171128850Y-107724480D01*
X171106671Y-107734970D01*
X171083572Y-107743235D01*
X171059773Y-107749196D01*
X171035505Y-107752796D01*
X171011001Y-107754000D01*
X170110999Y-107754000D01*
X170086495Y-107752796D01*
X170062227Y-107749196D01*
X170038428Y-107743235D01*
X170015329Y-107734970D01*
X169993150Y-107724480D01*
X169972107Y-107711868D01*
X169952401Y-107697253D01*
X169934223Y-107680777D01*
X169917747Y-107662599D01*
X169903132Y-107642893D01*
X169890520Y-107621850D01*
X169880030Y-107599671D01*
X169871765Y-107576572D01*
X169865804Y-107552773D01*
X169862204Y-107528505D01*
X169861000Y-107504001D01*
X169861000Y-106853999D01*
X169862204Y-106829495D01*
X169865804Y-106805227D01*
X169871765Y-106781428D01*
X169880030Y-106758329D01*
X169890520Y-106736150D01*
X169903132Y-106715107D01*
X169917747Y-106695401D01*
X169934223Y-106677223D01*
X169952401Y-106660747D01*
X169972107Y-106646132D01*
X169993150Y-106633520D01*
X170015329Y-106623030D01*
X170038428Y-106614765D01*
X170062227Y-106608804D01*
X170086495Y-106605204D01*
X170110999Y-106604000D01*
X171011001Y-106604000D01*
X171035505Y-106605204D01*
X171035505Y-106605204D01*
G37*
D21*
X170561000Y-107179000D03*
D11*
G36*
X171035505Y-108655204D02*
G01*
X171059773Y-108658804D01*
X171083572Y-108664765D01*
X171106671Y-108673030D01*
X171128850Y-108683520D01*
X171149893Y-108696132D01*
X171169599Y-108710747D01*
X171187777Y-108727223D01*
X171204253Y-108745401D01*
X171218868Y-108765107D01*
X171231480Y-108786150D01*
X171241970Y-108808329D01*
X171250235Y-108831428D01*
X171256196Y-108855227D01*
X171259796Y-108879495D01*
X171261000Y-108903999D01*
X171261000Y-109554001D01*
X171259796Y-109578505D01*
X171256196Y-109602773D01*
X171250235Y-109626572D01*
X171241970Y-109649671D01*
X171231480Y-109671850D01*
X171218868Y-109692893D01*
X171204253Y-109712599D01*
X171187777Y-109730777D01*
X171169599Y-109747253D01*
X171149893Y-109761868D01*
X171128850Y-109774480D01*
X171106671Y-109784970D01*
X171083572Y-109793235D01*
X171059773Y-109799196D01*
X171035505Y-109802796D01*
X171011001Y-109804000D01*
X170110999Y-109804000D01*
X170086495Y-109802796D01*
X170062227Y-109799196D01*
X170038428Y-109793235D01*
X170015329Y-109784970D01*
X169993150Y-109774480D01*
X169972107Y-109761868D01*
X169952401Y-109747253D01*
X169934223Y-109730777D01*
X169917747Y-109712599D01*
X169903132Y-109692893D01*
X169890520Y-109671850D01*
X169880030Y-109649671D01*
X169871765Y-109626572D01*
X169865804Y-109602773D01*
X169862204Y-109578505D01*
X169861000Y-109554001D01*
X169861000Y-108903999D01*
X169862204Y-108879495D01*
X169865804Y-108855227D01*
X169871765Y-108831428D01*
X169880030Y-108808329D01*
X169890520Y-108786150D01*
X169903132Y-108765107D01*
X169917747Y-108745401D01*
X169934223Y-108727223D01*
X169952401Y-108710747D01*
X169972107Y-108696132D01*
X169993150Y-108683520D01*
X170015329Y-108673030D01*
X170038428Y-108664765D01*
X170062227Y-108658804D01*
X170086495Y-108655204D01*
X170110999Y-108654000D01*
X171011001Y-108654000D01*
X171035505Y-108655204D01*
X171035505Y-108655204D01*
G37*
D21*
X170561000Y-109229000D03*
D11*
G36*
X136364505Y-120711204D02*
G01*
X136388773Y-120714804D01*
X136412572Y-120720765D01*
X136435671Y-120729030D01*
X136457850Y-120739520D01*
X136478893Y-120752132D01*
X136498599Y-120766747D01*
X136516777Y-120783223D01*
X136533253Y-120801401D01*
X136547868Y-120821107D01*
X136560480Y-120842150D01*
X136570970Y-120864329D01*
X136579235Y-120887428D01*
X136585196Y-120911227D01*
X136588796Y-120935495D01*
X136590000Y-120959999D01*
X136590000Y-121610001D01*
X136588796Y-121634505D01*
X136585196Y-121658773D01*
X136579235Y-121682572D01*
X136570970Y-121705671D01*
X136560480Y-121727850D01*
X136547868Y-121748893D01*
X136533253Y-121768599D01*
X136516777Y-121786777D01*
X136498599Y-121803253D01*
X136478893Y-121817868D01*
X136457850Y-121830480D01*
X136435671Y-121840970D01*
X136412572Y-121849235D01*
X136388773Y-121855196D01*
X136364505Y-121858796D01*
X136340001Y-121860000D01*
X135439999Y-121860000D01*
X135415495Y-121858796D01*
X135391227Y-121855196D01*
X135367428Y-121849235D01*
X135344329Y-121840970D01*
X135322150Y-121830480D01*
X135301107Y-121817868D01*
X135281401Y-121803253D01*
X135263223Y-121786777D01*
X135246747Y-121768599D01*
X135232132Y-121748893D01*
X135219520Y-121727850D01*
X135209030Y-121705671D01*
X135200765Y-121682572D01*
X135194804Y-121658773D01*
X135191204Y-121634505D01*
X135190000Y-121610001D01*
X135190000Y-120959999D01*
X135191204Y-120935495D01*
X135194804Y-120911227D01*
X135200765Y-120887428D01*
X135209030Y-120864329D01*
X135219520Y-120842150D01*
X135232132Y-120821107D01*
X135246747Y-120801401D01*
X135263223Y-120783223D01*
X135281401Y-120766747D01*
X135301107Y-120752132D01*
X135322150Y-120739520D01*
X135344329Y-120729030D01*
X135367428Y-120720765D01*
X135391227Y-120714804D01*
X135415495Y-120711204D01*
X135439999Y-120710000D01*
X136340001Y-120710000D01*
X136364505Y-120711204D01*
X136364505Y-120711204D01*
G37*
D21*
X135890000Y-121285000D03*
D11*
G36*
X136364505Y-122761204D02*
G01*
X136388773Y-122764804D01*
X136412572Y-122770765D01*
X136435671Y-122779030D01*
X136457850Y-122789520D01*
X136478893Y-122802132D01*
X136498599Y-122816747D01*
X136516777Y-122833223D01*
X136533253Y-122851401D01*
X136547868Y-122871107D01*
X136560480Y-122892150D01*
X136570970Y-122914329D01*
X136579235Y-122937428D01*
X136585196Y-122961227D01*
X136588796Y-122985495D01*
X136590000Y-123009999D01*
X136590000Y-123660001D01*
X136588796Y-123684505D01*
X136585196Y-123708773D01*
X136579235Y-123732572D01*
X136570970Y-123755671D01*
X136560480Y-123777850D01*
X136547868Y-123798893D01*
X136533253Y-123818599D01*
X136516777Y-123836777D01*
X136498599Y-123853253D01*
X136478893Y-123867868D01*
X136457850Y-123880480D01*
X136435671Y-123890970D01*
X136412572Y-123899235D01*
X136388773Y-123905196D01*
X136364505Y-123908796D01*
X136340001Y-123910000D01*
X135439999Y-123910000D01*
X135415495Y-123908796D01*
X135391227Y-123905196D01*
X135367428Y-123899235D01*
X135344329Y-123890970D01*
X135322150Y-123880480D01*
X135301107Y-123867868D01*
X135281401Y-123853253D01*
X135263223Y-123836777D01*
X135246747Y-123818599D01*
X135232132Y-123798893D01*
X135219520Y-123777850D01*
X135209030Y-123755671D01*
X135200765Y-123732572D01*
X135194804Y-123708773D01*
X135191204Y-123684505D01*
X135190000Y-123660001D01*
X135190000Y-123009999D01*
X135191204Y-122985495D01*
X135194804Y-122961227D01*
X135200765Y-122937428D01*
X135209030Y-122914329D01*
X135219520Y-122892150D01*
X135232132Y-122871107D01*
X135246747Y-122851401D01*
X135263223Y-122833223D01*
X135281401Y-122816747D01*
X135301107Y-122802132D01*
X135322150Y-122789520D01*
X135344329Y-122779030D01*
X135367428Y-122770765D01*
X135391227Y-122764804D01*
X135415495Y-122761204D01*
X135439999Y-122760000D01*
X136340001Y-122760000D01*
X136364505Y-122761204D01*
X136364505Y-122761204D01*
G37*
D21*
X135890000Y-123335000D03*
D11*
G36*
X140174505Y-120702204D02*
G01*
X140198773Y-120705804D01*
X140222572Y-120711765D01*
X140245671Y-120720030D01*
X140267850Y-120730520D01*
X140288893Y-120743132D01*
X140308599Y-120757747D01*
X140326777Y-120774223D01*
X140343253Y-120792401D01*
X140357868Y-120812107D01*
X140370480Y-120833150D01*
X140380970Y-120855329D01*
X140389235Y-120878428D01*
X140395196Y-120902227D01*
X140398796Y-120926495D01*
X140400000Y-120950999D01*
X140400000Y-121601001D01*
X140398796Y-121625505D01*
X140395196Y-121649773D01*
X140389235Y-121673572D01*
X140380970Y-121696671D01*
X140370480Y-121718850D01*
X140357868Y-121739893D01*
X140343253Y-121759599D01*
X140326777Y-121777777D01*
X140308599Y-121794253D01*
X140288893Y-121808868D01*
X140267850Y-121821480D01*
X140245671Y-121831970D01*
X140222572Y-121840235D01*
X140198773Y-121846196D01*
X140174505Y-121849796D01*
X140150001Y-121851000D01*
X139249999Y-121851000D01*
X139225495Y-121849796D01*
X139201227Y-121846196D01*
X139177428Y-121840235D01*
X139154329Y-121831970D01*
X139132150Y-121821480D01*
X139111107Y-121808868D01*
X139091401Y-121794253D01*
X139073223Y-121777777D01*
X139056747Y-121759599D01*
X139042132Y-121739893D01*
X139029520Y-121718850D01*
X139019030Y-121696671D01*
X139010765Y-121673572D01*
X139004804Y-121649773D01*
X139001204Y-121625505D01*
X139000000Y-121601001D01*
X139000000Y-120950999D01*
X139001204Y-120926495D01*
X139004804Y-120902227D01*
X139010765Y-120878428D01*
X139019030Y-120855329D01*
X139029520Y-120833150D01*
X139042132Y-120812107D01*
X139056747Y-120792401D01*
X139073223Y-120774223D01*
X139091401Y-120757747D01*
X139111107Y-120743132D01*
X139132150Y-120730520D01*
X139154329Y-120720030D01*
X139177428Y-120711765D01*
X139201227Y-120705804D01*
X139225495Y-120702204D01*
X139249999Y-120701000D01*
X140150001Y-120701000D01*
X140174505Y-120702204D01*
X140174505Y-120702204D01*
G37*
D21*
X139700000Y-121276000D03*
D11*
G36*
X140174505Y-122752204D02*
G01*
X140198773Y-122755804D01*
X140222572Y-122761765D01*
X140245671Y-122770030D01*
X140267850Y-122780520D01*
X140288893Y-122793132D01*
X140308599Y-122807747D01*
X140326777Y-122824223D01*
X140343253Y-122842401D01*
X140357868Y-122862107D01*
X140370480Y-122883150D01*
X140380970Y-122905329D01*
X140389235Y-122928428D01*
X140395196Y-122952227D01*
X140398796Y-122976495D01*
X140400000Y-123000999D01*
X140400000Y-123651001D01*
X140398796Y-123675505D01*
X140395196Y-123699773D01*
X140389235Y-123723572D01*
X140380970Y-123746671D01*
X140370480Y-123768850D01*
X140357868Y-123789893D01*
X140343253Y-123809599D01*
X140326777Y-123827777D01*
X140308599Y-123844253D01*
X140288893Y-123858868D01*
X140267850Y-123871480D01*
X140245671Y-123881970D01*
X140222572Y-123890235D01*
X140198773Y-123896196D01*
X140174505Y-123899796D01*
X140150001Y-123901000D01*
X139249999Y-123901000D01*
X139225495Y-123899796D01*
X139201227Y-123896196D01*
X139177428Y-123890235D01*
X139154329Y-123881970D01*
X139132150Y-123871480D01*
X139111107Y-123858868D01*
X139091401Y-123844253D01*
X139073223Y-123827777D01*
X139056747Y-123809599D01*
X139042132Y-123789893D01*
X139029520Y-123768850D01*
X139019030Y-123746671D01*
X139010765Y-123723572D01*
X139004804Y-123699773D01*
X139001204Y-123675505D01*
X139000000Y-123651001D01*
X139000000Y-123000999D01*
X139001204Y-122976495D01*
X139004804Y-122952227D01*
X139010765Y-122928428D01*
X139019030Y-122905329D01*
X139029520Y-122883150D01*
X139042132Y-122862107D01*
X139056747Y-122842401D01*
X139073223Y-122824223D01*
X139091401Y-122807747D01*
X139111107Y-122793132D01*
X139132150Y-122780520D01*
X139154329Y-122770030D01*
X139177428Y-122761765D01*
X139201227Y-122755804D01*
X139225495Y-122752204D01*
X139249999Y-122751000D01*
X140150001Y-122751000D01*
X140174505Y-122752204D01*
X140174505Y-122752204D01*
G37*
D21*
X139700000Y-123326000D03*
D11*
G36*
X132554505Y-120711204D02*
G01*
X132578773Y-120714804D01*
X132602572Y-120720765D01*
X132625671Y-120729030D01*
X132647850Y-120739520D01*
X132668893Y-120752132D01*
X132688599Y-120766747D01*
X132706777Y-120783223D01*
X132723253Y-120801401D01*
X132737868Y-120821107D01*
X132750480Y-120842150D01*
X132760970Y-120864329D01*
X132769235Y-120887428D01*
X132775196Y-120911227D01*
X132778796Y-120935495D01*
X132780000Y-120959999D01*
X132780000Y-121610001D01*
X132778796Y-121634505D01*
X132775196Y-121658773D01*
X132769235Y-121682572D01*
X132760970Y-121705671D01*
X132750480Y-121727850D01*
X132737868Y-121748893D01*
X132723253Y-121768599D01*
X132706777Y-121786777D01*
X132688599Y-121803253D01*
X132668893Y-121817868D01*
X132647850Y-121830480D01*
X132625671Y-121840970D01*
X132602572Y-121849235D01*
X132578773Y-121855196D01*
X132554505Y-121858796D01*
X132530001Y-121860000D01*
X131629999Y-121860000D01*
X131605495Y-121858796D01*
X131581227Y-121855196D01*
X131557428Y-121849235D01*
X131534329Y-121840970D01*
X131512150Y-121830480D01*
X131491107Y-121817868D01*
X131471401Y-121803253D01*
X131453223Y-121786777D01*
X131436747Y-121768599D01*
X131422132Y-121748893D01*
X131409520Y-121727850D01*
X131399030Y-121705671D01*
X131390765Y-121682572D01*
X131384804Y-121658773D01*
X131381204Y-121634505D01*
X131380000Y-121610001D01*
X131380000Y-120959999D01*
X131381204Y-120935495D01*
X131384804Y-120911227D01*
X131390765Y-120887428D01*
X131399030Y-120864329D01*
X131409520Y-120842150D01*
X131422132Y-120821107D01*
X131436747Y-120801401D01*
X131453223Y-120783223D01*
X131471401Y-120766747D01*
X131491107Y-120752132D01*
X131512150Y-120739520D01*
X131534329Y-120729030D01*
X131557428Y-120720765D01*
X131581227Y-120714804D01*
X131605495Y-120711204D01*
X131629999Y-120710000D01*
X132530001Y-120710000D01*
X132554505Y-120711204D01*
X132554505Y-120711204D01*
G37*
D21*
X132080000Y-121285000D03*
D11*
G36*
X132554505Y-122761204D02*
G01*
X132578773Y-122764804D01*
X132602572Y-122770765D01*
X132625671Y-122779030D01*
X132647850Y-122789520D01*
X132668893Y-122802132D01*
X132688599Y-122816747D01*
X132706777Y-122833223D01*
X132723253Y-122851401D01*
X132737868Y-122871107D01*
X132750480Y-122892150D01*
X132760970Y-122914329D01*
X132769235Y-122937428D01*
X132775196Y-122961227D01*
X132778796Y-122985495D01*
X132780000Y-123009999D01*
X132780000Y-123660001D01*
X132778796Y-123684505D01*
X132775196Y-123708773D01*
X132769235Y-123732572D01*
X132760970Y-123755671D01*
X132750480Y-123777850D01*
X132737868Y-123798893D01*
X132723253Y-123818599D01*
X132706777Y-123836777D01*
X132688599Y-123853253D01*
X132668893Y-123867868D01*
X132647850Y-123880480D01*
X132625671Y-123890970D01*
X132602572Y-123899235D01*
X132578773Y-123905196D01*
X132554505Y-123908796D01*
X132530001Y-123910000D01*
X131629999Y-123910000D01*
X131605495Y-123908796D01*
X131581227Y-123905196D01*
X131557428Y-123899235D01*
X131534329Y-123890970D01*
X131512150Y-123880480D01*
X131491107Y-123867868D01*
X131471401Y-123853253D01*
X131453223Y-123836777D01*
X131436747Y-123818599D01*
X131422132Y-123798893D01*
X131409520Y-123777850D01*
X131399030Y-123755671D01*
X131390765Y-123732572D01*
X131384804Y-123708773D01*
X131381204Y-123684505D01*
X131380000Y-123660001D01*
X131380000Y-123009999D01*
X131381204Y-122985495D01*
X131384804Y-122961227D01*
X131390765Y-122937428D01*
X131399030Y-122914329D01*
X131409520Y-122892150D01*
X131422132Y-122871107D01*
X131436747Y-122851401D01*
X131453223Y-122833223D01*
X131471401Y-122816747D01*
X131491107Y-122802132D01*
X131512150Y-122789520D01*
X131534329Y-122779030D01*
X131557428Y-122770765D01*
X131581227Y-122764804D01*
X131605495Y-122761204D01*
X131629999Y-122760000D01*
X132530001Y-122760000D01*
X132554505Y-122761204D01*
X132554505Y-122761204D01*
G37*
D21*
X132080000Y-123335000D03*
D11*
G36*
X168749505Y-106605204D02*
G01*
X168773773Y-106608804D01*
X168797572Y-106614765D01*
X168820671Y-106623030D01*
X168842850Y-106633520D01*
X168863893Y-106646132D01*
X168883599Y-106660747D01*
X168901777Y-106677223D01*
X168918253Y-106695401D01*
X168932868Y-106715107D01*
X168945480Y-106736150D01*
X168955970Y-106758329D01*
X168964235Y-106781428D01*
X168970196Y-106805227D01*
X168973796Y-106829495D01*
X168975000Y-106853999D01*
X168975000Y-107504001D01*
X168973796Y-107528505D01*
X168970196Y-107552773D01*
X168964235Y-107576572D01*
X168955970Y-107599671D01*
X168945480Y-107621850D01*
X168932868Y-107642893D01*
X168918253Y-107662599D01*
X168901777Y-107680777D01*
X168883599Y-107697253D01*
X168863893Y-107711868D01*
X168842850Y-107724480D01*
X168820671Y-107734970D01*
X168797572Y-107743235D01*
X168773773Y-107749196D01*
X168749505Y-107752796D01*
X168725001Y-107754000D01*
X167824999Y-107754000D01*
X167800495Y-107752796D01*
X167776227Y-107749196D01*
X167752428Y-107743235D01*
X167729329Y-107734970D01*
X167707150Y-107724480D01*
X167686107Y-107711868D01*
X167666401Y-107697253D01*
X167648223Y-107680777D01*
X167631747Y-107662599D01*
X167617132Y-107642893D01*
X167604520Y-107621850D01*
X167594030Y-107599671D01*
X167585765Y-107576572D01*
X167579804Y-107552773D01*
X167576204Y-107528505D01*
X167575000Y-107504001D01*
X167575000Y-106853999D01*
X167576204Y-106829495D01*
X167579804Y-106805227D01*
X167585765Y-106781428D01*
X167594030Y-106758329D01*
X167604520Y-106736150D01*
X167617132Y-106715107D01*
X167631747Y-106695401D01*
X167648223Y-106677223D01*
X167666401Y-106660747D01*
X167686107Y-106646132D01*
X167707150Y-106633520D01*
X167729329Y-106623030D01*
X167752428Y-106614765D01*
X167776227Y-106608804D01*
X167800495Y-106605204D01*
X167824999Y-106604000D01*
X168725001Y-106604000D01*
X168749505Y-106605204D01*
X168749505Y-106605204D01*
G37*
D21*
X168275000Y-107179000D03*
D11*
G36*
X168749505Y-108655204D02*
G01*
X168773773Y-108658804D01*
X168797572Y-108664765D01*
X168820671Y-108673030D01*
X168842850Y-108683520D01*
X168863893Y-108696132D01*
X168883599Y-108710747D01*
X168901777Y-108727223D01*
X168918253Y-108745401D01*
X168932868Y-108765107D01*
X168945480Y-108786150D01*
X168955970Y-108808329D01*
X168964235Y-108831428D01*
X168970196Y-108855227D01*
X168973796Y-108879495D01*
X168975000Y-108903999D01*
X168975000Y-109554001D01*
X168973796Y-109578505D01*
X168970196Y-109602773D01*
X168964235Y-109626572D01*
X168955970Y-109649671D01*
X168945480Y-109671850D01*
X168932868Y-109692893D01*
X168918253Y-109712599D01*
X168901777Y-109730777D01*
X168883599Y-109747253D01*
X168863893Y-109761868D01*
X168842850Y-109774480D01*
X168820671Y-109784970D01*
X168797572Y-109793235D01*
X168773773Y-109799196D01*
X168749505Y-109802796D01*
X168725001Y-109804000D01*
X167824999Y-109804000D01*
X167800495Y-109802796D01*
X167776227Y-109799196D01*
X167752428Y-109793235D01*
X167729329Y-109784970D01*
X167707150Y-109774480D01*
X167686107Y-109761868D01*
X167666401Y-109747253D01*
X167648223Y-109730777D01*
X167631747Y-109712599D01*
X167617132Y-109692893D01*
X167604520Y-109671850D01*
X167594030Y-109649671D01*
X167585765Y-109626572D01*
X167579804Y-109602773D01*
X167576204Y-109578505D01*
X167575000Y-109554001D01*
X167575000Y-108903999D01*
X167576204Y-108879495D01*
X167579804Y-108855227D01*
X167585765Y-108831428D01*
X167594030Y-108808329D01*
X167604520Y-108786150D01*
X167617132Y-108765107D01*
X167631747Y-108745401D01*
X167648223Y-108727223D01*
X167666401Y-108710747D01*
X167686107Y-108696132D01*
X167707150Y-108683520D01*
X167729329Y-108673030D01*
X167752428Y-108664765D01*
X167776227Y-108658804D01*
X167800495Y-108655204D01*
X167824999Y-108654000D01*
X168725001Y-108654000D01*
X168749505Y-108655204D01*
X168749505Y-108655204D01*
G37*
D21*
X168275000Y-109229000D03*
D11*
G36*
X171035505Y-93533204D02*
G01*
X171059773Y-93536804D01*
X171083572Y-93542765D01*
X171106671Y-93551030D01*
X171128850Y-93561520D01*
X171149893Y-93574132D01*
X171169599Y-93588747D01*
X171187777Y-93605223D01*
X171204253Y-93623401D01*
X171218868Y-93643107D01*
X171231480Y-93664150D01*
X171241970Y-93686329D01*
X171250235Y-93709428D01*
X171256196Y-93733227D01*
X171259796Y-93757495D01*
X171261000Y-93781999D01*
X171261000Y-94432001D01*
X171259796Y-94456505D01*
X171256196Y-94480773D01*
X171250235Y-94504572D01*
X171241970Y-94527671D01*
X171231480Y-94549850D01*
X171218868Y-94570893D01*
X171204253Y-94590599D01*
X171187777Y-94608777D01*
X171169599Y-94625253D01*
X171149893Y-94639868D01*
X171128850Y-94652480D01*
X171106671Y-94662970D01*
X171083572Y-94671235D01*
X171059773Y-94677196D01*
X171035505Y-94680796D01*
X171011001Y-94682000D01*
X170110999Y-94682000D01*
X170086495Y-94680796D01*
X170062227Y-94677196D01*
X170038428Y-94671235D01*
X170015329Y-94662970D01*
X169993150Y-94652480D01*
X169972107Y-94639868D01*
X169952401Y-94625253D01*
X169934223Y-94608777D01*
X169917747Y-94590599D01*
X169903132Y-94570893D01*
X169890520Y-94549850D01*
X169880030Y-94527671D01*
X169871765Y-94504572D01*
X169865804Y-94480773D01*
X169862204Y-94456505D01*
X169861000Y-94432001D01*
X169861000Y-93781999D01*
X169862204Y-93757495D01*
X169865804Y-93733227D01*
X169871765Y-93709428D01*
X169880030Y-93686329D01*
X169890520Y-93664150D01*
X169903132Y-93643107D01*
X169917747Y-93623401D01*
X169934223Y-93605223D01*
X169952401Y-93588747D01*
X169972107Y-93574132D01*
X169993150Y-93561520D01*
X170015329Y-93551030D01*
X170038428Y-93542765D01*
X170062227Y-93536804D01*
X170086495Y-93533204D01*
X170110999Y-93532000D01*
X171011001Y-93532000D01*
X171035505Y-93533204D01*
X171035505Y-93533204D01*
G37*
D21*
X170561000Y-94107000D03*
D11*
G36*
X171035505Y-95583204D02*
G01*
X171059773Y-95586804D01*
X171083572Y-95592765D01*
X171106671Y-95601030D01*
X171128850Y-95611520D01*
X171149893Y-95624132D01*
X171169599Y-95638747D01*
X171187777Y-95655223D01*
X171204253Y-95673401D01*
X171218868Y-95693107D01*
X171231480Y-95714150D01*
X171241970Y-95736329D01*
X171250235Y-95759428D01*
X171256196Y-95783227D01*
X171259796Y-95807495D01*
X171261000Y-95831999D01*
X171261000Y-96482001D01*
X171259796Y-96506505D01*
X171256196Y-96530773D01*
X171250235Y-96554572D01*
X171241970Y-96577671D01*
X171231480Y-96599850D01*
X171218868Y-96620893D01*
X171204253Y-96640599D01*
X171187777Y-96658777D01*
X171169599Y-96675253D01*
X171149893Y-96689868D01*
X171128850Y-96702480D01*
X171106671Y-96712970D01*
X171083572Y-96721235D01*
X171059773Y-96727196D01*
X171035505Y-96730796D01*
X171011001Y-96732000D01*
X170110999Y-96732000D01*
X170086495Y-96730796D01*
X170062227Y-96727196D01*
X170038428Y-96721235D01*
X170015329Y-96712970D01*
X169993150Y-96702480D01*
X169972107Y-96689868D01*
X169952401Y-96675253D01*
X169934223Y-96658777D01*
X169917747Y-96640599D01*
X169903132Y-96620893D01*
X169890520Y-96599850D01*
X169880030Y-96577671D01*
X169871765Y-96554572D01*
X169865804Y-96530773D01*
X169862204Y-96506505D01*
X169861000Y-96482001D01*
X169861000Y-95831999D01*
X169862204Y-95807495D01*
X169865804Y-95783227D01*
X169871765Y-95759428D01*
X169880030Y-95736329D01*
X169890520Y-95714150D01*
X169903132Y-95693107D01*
X169917747Y-95673401D01*
X169934223Y-95655223D01*
X169952401Y-95638747D01*
X169972107Y-95624132D01*
X169993150Y-95611520D01*
X170015329Y-95601030D01*
X170038428Y-95592765D01*
X170062227Y-95586804D01*
X170086495Y-95583204D01*
X170110999Y-95582000D01*
X171011001Y-95582000D01*
X171035505Y-95583204D01*
X171035505Y-95583204D01*
G37*
D21*
X170561000Y-96157000D03*
D11*
G36*
X172559505Y-118416204D02*
G01*
X172583773Y-118419804D01*
X172607572Y-118425765D01*
X172630671Y-118434030D01*
X172652850Y-118444520D01*
X172673893Y-118457132D01*
X172693599Y-118471747D01*
X172711777Y-118488223D01*
X172728253Y-118506401D01*
X172742868Y-118526107D01*
X172755480Y-118547150D01*
X172765970Y-118569329D01*
X172774235Y-118592428D01*
X172780196Y-118616227D01*
X172783796Y-118640495D01*
X172785000Y-118664999D01*
X172785000Y-119315001D01*
X172783796Y-119339505D01*
X172780196Y-119363773D01*
X172774235Y-119387572D01*
X172765970Y-119410671D01*
X172755480Y-119432850D01*
X172742868Y-119453893D01*
X172728253Y-119473599D01*
X172711777Y-119491777D01*
X172693599Y-119508253D01*
X172673893Y-119522868D01*
X172652850Y-119535480D01*
X172630671Y-119545970D01*
X172607572Y-119554235D01*
X172583773Y-119560196D01*
X172559505Y-119563796D01*
X172535001Y-119565000D01*
X171634999Y-119565000D01*
X171610495Y-119563796D01*
X171586227Y-119560196D01*
X171562428Y-119554235D01*
X171539329Y-119545970D01*
X171517150Y-119535480D01*
X171496107Y-119522868D01*
X171476401Y-119508253D01*
X171458223Y-119491777D01*
X171441747Y-119473599D01*
X171427132Y-119453893D01*
X171414520Y-119432850D01*
X171404030Y-119410671D01*
X171395765Y-119387572D01*
X171389804Y-119363773D01*
X171386204Y-119339505D01*
X171385000Y-119315001D01*
X171385000Y-118664999D01*
X171386204Y-118640495D01*
X171389804Y-118616227D01*
X171395765Y-118592428D01*
X171404030Y-118569329D01*
X171414520Y-118547150D01*
X171427132Y-118526107D01*
X171441747Y-118506401D01*
X171458223Y-118488223D01*
X171476401Y-118471747D01*
X171496107Y-118457132D01*
X171517150Y-118444520D01*
X171539329Y-118434030D01*
X171562428Y-118425765D01*
X171586227Y-118419804D01*
X171610495Y-118416204D01*
X171634999Y-118415000D01*
X172535001Y-118415000D01*
X172559505Y-118416204D01*
X172559505Y-118416204D01*
G37*
D21*
X172085000Y-118990000D03*
D11*
G36*
X172559505Y-120466204D02*
G01*
X172583773Y-120469804D01*
X172607572Y-120475765D01*
X172630671Y-120484030D01*
X172652850Y-120494520D01*
X172673893Y-120507132D01*
X172693599Y-120521747D01*
X172711777Y-120538223D01*
X172728253Y-120556401D01*
X172742868Y-120576107D01*
X172755480Y-120597150D01*
X172765970Y-120619329D01*
X172774235Y-120642428D01*
X172780196Y-120666227D01*
X172783796Y-120690495D01*
X172785000Y-120714999D01*
X172785000Y-121365001D01*
X172783796Y-121389505D01*
X172780196Y-121413773D01*
X172774235Y-121437572D01*
X172765970Y-121460671D01*
X172755480Y-121482850D01*
X172742868Y-121503893D01*
X172728253Y-121523599D01*
X172711777Y-121541777D01*
X172693599Y-121558253D01*
X172673893Y-121572868D01*
X172652850Y-121585480D01*
X172630671Y-121595970D01*
X172607572Y-121604235D01*
X172583773Y-121610196D01*
X172559505Y-121613796D01*
X172535001Y-121615000D01*
X171634999Y-121615000D01*
X171610495Y-121613796D01*
X171586227Y-121610196D01*
X171562428Y-121604235D01*
X171539329Y-121595970D01*
X171517150Y-121585480D01*
X171496107Y-121572868D01*
X171476401Y-121558253D01*
X171458223Y-121541777D01*
X171441747Y-121523599D01*
X171427132Y-121503893D01*
X171414520Y-121482850D01*
X171404030Y-121460671D01*
X171395765Y-121437572D01*
X171389804Y-121413773D01*
X171386204Y-121389505D01*
X171385000Y-121365001D01*
X171385000Y-120714999D01*
X171386204Y-120690495D01*
X171389804Y-120666227D01*
X171395765Y-120642428D01*
X171404030Y-120619329D01*
X171414520Y-120597150D01*
X171427132Y-120576107D01*
X171441747Y-120556401D01*
X171458223Y-120538223D01*
X171476401Y-120521747D01*
X171496107Y-120507132D01*
X171517150Y-120494520D01*
X171539329Y-120484030D01*
X171562428Y-120475765D01*
X171586227Y-120469804D01*
X171610495Y-120466204D01*
X171634999Y-120465000D01*
X172535001Y-120465000D01*
X172559505Y-120466204D01*
X172559505Y-120466204D01*
G37*
D21*
X172085000Y-121040000D03*
M02*
