M48
; DRILL file {KiCad (5.1.2-1)-1} date 2020 January 22, Wednesday 21:35:16
; FORMAT={-:-/ absolute / inch / decimal}
; #@! TF.CreationDate,2020-01-22T21:35:16+01:00
; #@! TF.GenerationSoftware,Kicad,Pcbnew,(5.1.2-1)-1
; #@! TF.FileFunction,Plated,1,2,PTH
FMAT,2
INCH
T1C0.0157
T2C0.0315
T3C0.0394
T4C0.0472
T5C0.1457
T6C0.1575
%
G90
G05
T1
X5.745Y-4.72
X5.915Y-3.945
X5.915Y-4.125
X6.725Y-4.375
X6.725Y-4.425
X6.8Y-4.375
X6.8785Y-4.425
T2
X5.848Y-4.7594
X5.848Y-4.8894
X5.9268Y-4.7594
X5.9268Y-4.8894
X6.0843Y-4.7594
X6.0843Y-4.8894
X6.163Y-4.7594
X6.163Y-4.8894
T3
X5.6Y-3.935
X5.6Y-4.0334
X5.6Y-4.1319
X7.75Y-3.985
X7.75Y-4.085
X6.4Y-3.19
X6.5Y-3.19
T4
X6.075Y-3.19
X6.175Y-3.19
T5
X4.1862Y-4.8362
X7.7492Y-3.2417
X7.7492Y-4.8362
X4.1862Y-3.2417
T6
X7.2Y-4.575
X7.1984Y-3.5
T0
M30
