G04 #@! TF.GenerationSoftware,KiCad,Pcbnew,(5.1.2-1)-1*
G04 #@! TF.CreationDate,2020-01-22T21:35:13+01:00*
G04 #@! TF.ProjectId,CCLoad,43434c6f-6164-42e6-9b69-6361645f7063,rev?*
G04 #@! TF.SameCoordinates,Original*
G04 #@! TF.FileFunction,Legend,Top*
G04 #@! TF.FilePolarity,Positive*
%FSLAX46Y46*%
G04 Gerber Fmt 4.6, Leading zero omitted, Abs format (unit mm)*
G04 Created by KiCad (PCBNEW (5.1.2-1)-1) date 2020-01-22 21:35:13*
%MOMM*%
%LPD*%
G04 APERTURE LIST*
%ADD10C,0.150000*%
%ADD11C,0.120000*%
G04 APERTURE END LIST*
D10*
X180858571Y-106877857D02*
X180858571Y-105949285D01*
X181430000Y-106449285D01*
X181430000Y-106235000D01*
X181501428Y-106092142D01*
X181572857Y-106020714D01*
X181715714Y-105949285D01*
X182072857Y-105949285D01*
X182215714Y-106020714D01*
X182287142Y-106092142D01*
X182358571Y-106235000D01*
X182358571Y-106663571D01*
X182287142Y-106806428D01*
X182215714Y-106877857D01*
X180858571Y-105020714D02*
X180858571Y-104877857D01*
X180930000Y-104735000D01*
X181001428Y-104663571D01*
X181144285Y-104592142D01*
X181430000Y-104520714D01*
X181787142Y-104520714D01*
X182072857Y-104592142D01*
X182215714Y-104663571D01*
X182287142Y-104735000D01*
X182358571Y-104877857D01*
X182358571Y-105020714D01*
X182287142Y-105163571D01*
X182215714Y-105235000D01*
X182072857Y-105306428D01*
X181787142Y-105377857D01*
X181430000Y-105377857D01*
X181144285Y-105306428D01*
X181001428Y-105235000D01*
X180930000Y-105163571D01*
X180858571Y-105020714D01*
X180858571Y-104092142D02*
X182358571Y-103592142D01*
X180858571Y-103092142D01*
X182358571Y-101449285D02*
X180858571Y-101449285D01*
X181930000Y-100949285D01*
X180858571Y-100449285D01*
X182358571Y-100449285D01*
X181930000Y-99806428D02*
X181930000Y-99092142D01*
X182358571Y-99949285D02*
X180858571Y-99449285D01*
X182358571Y-98949285D01*
X180858571Y-98592142D02*
X182358571Y-97592142D01*
X180858571Y-97592142D02*
X182358571Y-98592142D01*
X184758571Y-105949285D02*
X183258571Y-105949285D01*
X183258571Y-105377857D01*
X183330000Y-105235000D01*
X183401428Y-105163571D01*
X183544285Y-105092142D01*
X183758571Y-105092142D01*
X183901428Y-105163571D01*
X183972857Y-105235000D01*
X184044285Y-105377857D01*
X184044285Y-105949285D01*
X184758571Y-103735000D02*
X184758571Y-104449285D01*
X183258571Y-104449285D01*
X183972857Y-103235000D02*
X183972857Y-102735000D01*
X184758571Y-102520714D02*
X184758571Y-103235000D01*
X183258571Y-103235000D01*
X183258571Y-102520714D01*
X184330000Y-101949285D02*
X184330000Y-101235000D01*
X184758571Y-102092142D02*
X183258571Y-101592142D01*
X184758571Y-101092142D01*
X184687142Y-100663571D02*
X184758571Y-100449285D01*
X184758571Y-100092142D01*
X184687142Y-99949285D01*
X184615714Y-99877857D01*
X184472857Y-99806428D01*
X184330000Y-99806428D01*
X184187142Y-99877857D01*
X184115714Y-99949285D01*
X184044285Y-100092142D01*
X183972857Y-100377857D01*
X183901428Y-100520714D01*
X183830000Y-100592142D01*
X183687142Y-100663571D01*
X183544285Y-100663571D01*
X183401428Y-100592142D01*
X183330000Y-100520714D01*
X183258571Y-100377857D01*
X183258571Y-100020714D01*
X183330000Y-99806428D01*
X183972857Y-99163571D02*
X183972857Y-98663571D01*
X184758571Y-98449285D02*
X184758571Y-99163571D01*
X183258571Y-99163571D01*
X183258571Y-98449285D01*
X167032714Y-109381857D02*
X167104142Y-109453285D01*
X167175571Y-109667571D01*
X167175571Y-109810428D01*
X167104142Y-110024714D01*
X166961285Y-110167571D01*
X166818428Y-110239000D01*
X166532714Y-110310428D01*
X166318428Y-110310428D01*
X166032714Y-110239000D01*
X165889857Y-110167571D01*
X165747000Y-110024714D01*
X165675571Y-109810428D01*
X165675571Y-109667571D01*
X165747000Y-109453285D01*
X165818428Y-109381857D01*
X166747000Y-108810428D02*
X166747000Y-108096142D01*
X167175571Y-108953285D02*
X165675571Y-108453285D01*
X167175571Y-107953285D01*
X167104142Y-107524714D02*
X167175571Y-107310428D01*
X167175571Y-106953285D01*
X167104142Y-106810428D01*
X167032714Y-106739000D01*
X166889857Y-106667571D01*
X166747000Y-106667571D01*
X166604142Y-106739000D01*
X166532714Y-106810428D01*
X166461285Y-106953285D01*
X166389857Y-107239000D01*
X166318428Y-107381857D01*
X166247000Y-107453285D01*
X166104142Y-107524714D01*
X165961285Y-107524714D01*
X165818428Y-107453285D01*
X165747000Y-107381857D01*
X165675571Y-107239000D01*
X165675571Y-106881857D01*
X165747000Y-106667571D01*
X166389857Y-106024714D02*
X166389857Y-105524714D01*
X167175571Y-105310428D02*
X167175571Y-106024714D01*
X165675571Y-106024714D01*
X165675571Y-105310428D01*
X167032714Y-102667571D02*
X167104142Y-102739000D01*
X167175571Y-102953285D01*
X167175571Y-103096142D01*
X167104142Y-103310428D01*
X166961285Y-103453285D01*
X166818428Y-103524714D01*
X166532714Y-103596142D01*
X166318428Y-103596142D01*
X166032714Y-103524714D01*
X165889857Y-103453285D01*
X165747000Y-103310428D01*
X165675571Y-103096142D01*
X165675571Y-102953285D01*
X165747000Y-102739000D01*
X165818428Y-102667571D01*
X166747000Y-102096142D02*
X166747000Y-101381857D01*
X167175571Y-102239000D02*
X165675571Y-101739000D01*
X167175571Y-101239000D01*
X167175571Y-100739000D02*
X165675571Y-100739000D01*
X167175571Y-99881857D01*
X165675571Y-99881857D01*
X165747000Y-97239000D02*
X165675571Y-97381857D01*
X165675571Y-97596142D01*
X165747000Y-97810428D01*
X165889857Y-97953285D01*
X166032714Y-98024714D01*
X166318428Y-98096142D01*
X166532714Y-98096142D01*
X166818428Y-98024714D01*
X166961285Y-97953285D01*
X167104142Y-97810428D01*
X167175571Y-97596142D01*
X167175571Y-97453285D01*
X167104142Y-97239000D01*
X167032714Y-97167571D01*
X166532714Y-97167571D01*
X166532714Y-97453285D01*
X166389857Y-96524714D02*
X166389857Y-96024714D01*
X167175571Y-95810428D02*
X167175571Y-96524714D01*
X165675571Y-96524714D01*
X165675571Y-95810428D01*
X165675571Y-95381857D02*
X165675571Y-94524714D01*
X167175571Y-94953285D02*
X165675571Y-94953285D01*
X196469047Y-98496428D02*
X197230952Y-98496428D01*
X196850000Y-98877380D02*
X196850000Y-98115476D01*
X190079761Y-111782619D02*
X190127380Y-111639761D01*
X190127380Y-111401666D01*
X190079761Y-111306428D01*
X190032142Y-111258809D01*
X189936904Y-111211190D01*
X189841666Y-111211190D01*
X189746428Y-111258809D01*
X189698809Y-111306428D01*
X189651190Y-111401666D01*
X189603571Y-111592142D01*
X189555952Y-111687380D01*
X189508333Y-111735000D01*
X189413095Y-111782619D01*
X189317857Y-111782619D01*
X189222619Y-111735000D01*
X189175000Y-111687380D01*
X189127380Y-111592142D01*
X189127380Y-111354047D01*
X189175000Y-111211190D01*
X190079761Y-110401666D02*
X190127380Y-110496904D01*
X190127380Y-110687380D01*
X190079761Y-110782619D01*
X189984523Y-110830238D01*
X189603571Y-110830238D01*
X189508333Y-110782619D01*
X189460714Y-110687380D01*
X189460714Y-110496904D01*
X189508333Y-110401666D01*
X189603571Y-110354047D01*
X189698809Y-110354047D01*
X189794047Y-110830238D01*
X190127380Y-109782619D02*
X190079761Y-109877857D01*
X189984523Y-109925476D01*
X189127380Y-109925476D01*
X190079761Y-109020714D02*
X190127380Y-109115952D01*
X190127380Y-109306428D01*
X190079761Y-109401666D01*
X189984523Y-109449285D01*
X189603571Y-109449285D01*
X189508333Y-109401666D01*
X189460714Y-109306428D01*
X189460714Y-109115952D01*
X189508333Y-109020714D01*
X189603571Y-108973095D01*
X189698809Y-108973095D01*
X189794047Y-109449285D01*
X190079761Y-108115952D02*
X190127380Y-108211190D01*
X190127380Y-108401666D01*
X190079761Y-108496904D01*
X190032142Y-108544523D01*
X189936904Y-108592142D01*
X189651190Y-108592142D01*
X189555952Y-108544523D01*
X189508333Y-108496904D01*
X189460714Y-108401666D01*
X189460714Y-108211190D01*
X189508333Y-108115952D01*
X189460714Y-107830238D02*
X189460714Y-107449285D01*
X189127380Y-107687380D02*
X189984523Y-107687380D01*
X190079761Y-107639761D01*
X190127380Y-107544523D01*
X190127380Y-107449285D01*
X189603571Y-106020714D02*
X189651190Y-105877857D01*
X189698809Y-105830238D01*
X189794047Y-105782619D01*
X189936904Y-105782619D01*
X190032142Y-105830238D01*
X190079761Y-105877857D01*
X190127380Y-105973095D01*
X190127380Y-106354047D01*
X189127380Y-106354047D01*
X189127380Y-106020714D01*
X189175000Y-105925476D01*
X189222619Y-105877857D01*
X189317857Y-105830238D01*
X189413095Y-105830238D01*
X189508333Y-105877857D01*
X189555952Y-105925476D01*
X189603571Y-106020714D01*
X189603571Y-106354047D01*
X189841666Y-105401666D02*
X189841666Y-104925476D01*
X190127380Y-105496904D02*
X189127380Y-105163571D01*
X190127380Y-104830238D01*
X189127380Y-104639761D02*
X189127380Y-104068333D01*
X190127380Y-104354047D02*
X189127380Y-104354047D01*
X189127380Y-103877857D02*
X189127380Y-103306428D01*
X190127380Y-103592142D02*
X189127380Y-103592142D01*
X189603571Y-102973095D02*
X189603571Y-102639761D01*
X190127380Y-102496904D02*
X190127380Y-102973095D01*
X189127380Y-102973095D01*
X189127380Y-102496904D01*
X190127380Y-101496904D02*
X189651190Y-101830238D01*
X190127380Y-102068333D02*
X189127380Y-102068333D01*
X189127380Y-101687380D01*
X189175000Y-101592142D01*
X189222619Y-101544523D01*
X189317857Y-101496904D01*
X189460714Y-101496904D01*
X189555952Y-101544523D01*
X189603571Y-101592142D01*
X189651190Y-101687380D01*
X189651190Y-102068333D01*
X189651190Y-100877857D02*
X190127380Y-100877857D01*
X189127380Y-101211190D02*
X189651190Y-100877857D01*
X189127380Y-100544523D01*
X189460714Y-99449285D02*
X190460714Y-99449285D01*
X189508333Y-99449285D02*
X189460714Y-99354047D01*
X189460714Y-99163571D01*
X189508333Y-99068333D01*
X189555952Y-99020714D01*
X189651190Y-98973095D01*
X189936904Y-98973095D01*
X190032142Y-99020714D01*
X190079761Y-99068333D01*
X190127380Y-99163571D01*
X190127380Y-99354047D01*
X190079761Y-99449285D01*
X190127380Y-98401666D02*
X190079761Y-98496904D01*
X190032142Y-98544523D01*
X189936904Y-98592142D01*
X189651190Y-98592142D01*
X189555952Y-98544523D01*
X189508333Y-98496904D01*
X189460714Y-98401666D01*
X189460714Y-98258809D01*
X189508333Y-98163571D01*
X189555952Y-98115952D01*
X189651190Y-98068333D01*
X189936904Y-98068333D01*
X190032142Y-98115952D01*
X190079761Y-98163571D01*
X190127380Y-98258809D01*
X190127380Y-98401666D01*
X189460714Y-97735000D02*
X190127380Y-97544523D01*
X189651190Y-97354047D01*
X190127380Y-97163571D01*
X189460714Y-96973095D01*
X190079761Y-96211190D02*
X190127380Y-96306428D01*
X190127380Y-96496904D01*
X190079761Y-96592142D01*
X189984523Y-96639761D01*
X189603571Y-96639761D01*
X189508333Y-96592142D01*
X189460714Y-96496904D01*
X189460714Y-96306428D01*
X189508333Y-96211190D01*
X189603571Y-96163571D01*
X189698809Y-96163571D01*
X189794047Y-96639761D01*
X190127380Y-95735000D02*
X189460714Y-95735000D01*
X189651190Y-95735000D02*
X189555952Y-95687380D01*
X189508333Y-95639761D01*
X189460714Y-95544523D01*
X189460714Y-95449285D01*
X189460714Y-94496904D02*
X189460714Y-94115952D01*
X190127380Y-94354047D02*
X189270238Y-94354047D01*
X189175000Y-94306428D01*
X189127380Y-94211190D01*
X189127380Y-94115952D01*
X190127380Y-93639761D02*
X190079761Y-93735000D01*
X190032142Y-93782619D01*
X189936904Y-93830238D01*
X189651190Y-93830238D01*
X189555952Y-93782619D01*
X189508333Y-93735000D01*
X189460714Y-93639761D01*
X189460714Y-93496904D01*
X189508333Y-93401666D01*
X189555952Y-93354047D01*
X189651190Y-93306428D01*
X189936904Y-93306428D01*
X190032142Y-93354047D01*
X190079761Y-93401666D01*
X190127380Y-93496904D01*
X190127380Y-93639761D01*
X190127380Y-92877857D02*
X189460714Y-92877857D01*
X189651190Y-92877857D02*
X189555952Y-92830238D01*
X189508333Y-92782619D01*
X189460714Y-92687380D01*
X189460714Y-92592142D01*
X191777380Y-113044523D02*
X191729761Y-113139761D01*
X191634523Y-113187380D01*
X190777380Y-113187380D01*
X191777380Y-112520714D02*
X191729761Y-112615952D01*
X191682142Y-112663571D01*
X191586904Y-112711190D01*
X191301190Y-112711190D01*
X191205952Y-112663571D01*
X191158333Y-112615952D01*
X191110714Y-112520714D01*
X191110714Y-112377857D01*
X191158333Y-112282619D01*
X191205952Y-112235000D01*
X191301190Y-112187380D01*
X191586904Y-112187380D01*
X191682142Y-112235000D01*
X191729761Y-112282619D01*
X191777380Y-112377857D01*
X191777380Y-112520714D01*
X191777380Y-111330238D02*
X191253571Y-111330238D01*
X191158333Y-111377857D01*
X191110714Y-111473095D01*
X191110714Y-111663571D01*
X191158333Y-111758809D01*
X191729761Y-111330238D02*
X191777380Y-111425476D01*
X191777380Y-111663571D01*
X191729761Y-111758809D01*
X191634523Y-111806428D01*
X191539285Y-111806428D01*
X191444047Y-111758809D01*
X191396428Y-111663571D01*
X191396428Y-111425476D01*
X191348809Y-111330238D01*
X191777380Y-110425476D02*
X190777380Y-110425476D01*
X191729761Y-110425476D02*
X191777380Y-110520714D01*
X191777380Y-110711190D01*
X191729761Y-110806428D01*
X191682142Y-110854047D01*
X191586904Y-110901666D01*
X191301190Y-110901666D01*
X191205952Y-110854047D01*
X191158333Y-110806428D01*
X191110714Y-110711190D01*
X191110714Y-110520714D01*
X191158333Y-110425476D01*
X191110714Y-109282619D02*
X191777380Y-109044523D01*
X191110714Y-108806428D01*
X191777380Y-108282619D02*
X191729761Y-108377857D01*
X191682142Y-108425476D01*
X191586904Y-108473095D01*
X191301190Y-108473095D01*
X191205952Y-108425476D01*
X191158333Y-108377857D01*
X191110714Y-108282619D01*
X191110714Y-108139761D01*
X191158333Y-108044523D01*
X191205952Y-107996904D01*
X191301190Y-107949285D01*
X191586904Y-107949285D01*
X191682142Y-107996904D01*
X191729761Y-108044523D01*
X191777380Y-108139761D01*
X191777380Y-108282619D01*
X191777380Y-107377857D02*
X191729761Y-107473095D01*
X191634523Y-107520714D01*
X190777380Y-107520714D01*
X191110714Y-107139761D02*
X191110714Y-106758809D01*
X190777380Y-106996904D02*
X191634523Y-106996904D01*
X191729761Y-106949285D01*
X191777380Y-106854047D01*
X191777380Y-106758809D01*
X191777380Y-105996904D02*
X191253571Y-105996904D01*
X191158333Y-106044523D01*
X191110714Y-106139761D01*
X191110714Y-106330238D01*
X191158333Y-106425476D01*
X191729761Y-105996904D02*
X191777380Y-106092142D01*
X191777380Y-106330238D01*
X191729761Y-106425476D01*
X191634523Y-106473095D01*
X191539285Y-106473095D01*
X191444047Y-106425476D01*
X191396428Y-106330238D01*
X191396428Y-106092142D01*
X191348809Y-105996904D01*
X191110714Y-105092142D02*
X191920238Y-105092142D01*
X192015476Y-105139761D01*
X192063095Y-105187380D01*
X192110714Y-105282619D01*
X192110714Y-105425476D01*
X192063095Y-105520714D01*
X191729761Y-105092142D02*
X191777380Y-105187380D01*
X191777380Y-105377857D01*
X191729761Y-105473095D01*
X191682142Y-105520714D01*
X191586904Y-105568333D01*
X191301190Y-105568333D01*
X191205952Y-105520714D01*
X191158333Y-105473095D01*
X191110714Y-105377857D01*
X191110714Y-105187380D01*
X191158333Y-105092142D01*
X191729761Y-104235000D02*
X191777380Y-104330238D01*
X191777380Y-104520714D01*
X191729761Y-104615952D01*
X191634523Y-104663571D01*
X191253571Y-104663571D01*
X191158333Y-104615952D01*
X191110714Y-104520714D01*
X191110714Y-104330238D01*
X191158333Y-104235000D01*
X191253571Y-104187380D01*
X191348809Y-104187380D01*
X191444047Y-104663571D01*
X191729761Y-103044523D02*
X191777380Y-102949285D01*
X191777380Y-102758809D01*
X191729761Y-102663571D01*
X191634523Y-102615952D01*
X191586904Y-102615952D01*
X191491666Y-102663571D01*
X191444047Y-102758809D01*
X191444047Y-102901666D01*
X191396428Y-102996904D01*
X191301190Y-103044523D01*
X191253571Y-103044523D01*
X191158333Y-102996904D01*
X191110714Y-102901666D01*
X191110714Y-102758809D01*
X191158333Y-102663571D01*
X191777380Y-102187380D02*
X191110714Y-102187380D01*
X191205952Y-102187380D02*
X191158333Y-102139761D01*
X191110714Y-102044523D01*
X191110714Y-101901666D01*
X191158333Y-101806428D01*
X191253571Y-101758809D01*
X191777380Y-101758809D01*
X191253571Y-101758809D02*
X191158333Y-101711190D01*
X191110714Y-101615952D01*
X191110714Y-101473095D01*
X191158333Y-101377857D01*
X191253571Y-101330238D01*
X191777380Y-101330238D01*
X191777380Y-100425476D02*
X191253571Y-100425476D01*
X191158333Y-100473095D01*
X191110714Y-100568333D01*
X191110714Y-100758809D01*
X191158333Y-100854047D01*
X191729761Y-100425476D02*
X191777380Y-100520714D01*
X191777380Y-100758809D01*
X191729761Y-100854047D01*
X191634523Y-100901666D01*
X191539285Y-100901666D01*
X191444047Y-100854047D01*
X191396428Y-100758809D01*
X191396428Y-100520714D01*
X191348809Y-100425476D01*
X191777380Y-99806428D02*
X191729761Y-99901666D01*
X191634523Y-99949285D01*
X190777380Y-99949285D01*
X191777380Y-99282619D02*
X191729761Y-99377857D01*
X191634523Y-99425476D01*
X190777380Y-99425476D01*
X191729761Y-98520714D02*
X191777380Y-98615952D01*
X191777380Y-98806428D01*
X191729761Y-98901666D01*
X191634523Y-98949285D01*
X191253571Y-98949285D01*
X191158333Y-98901666D01*
X191110714Y-98806428D01*
X191110714Y-98615952D01*
X191158333Y-98520714D01*
X191253571Y-98473095D01*
X191348809Y-98473095D01*
X191444047Y-98949285D01*
X191777380Y-98044523D02*
X191110714Y-98044523D01*
X191301190Y-98044523D02*
X191205952Y-97996904D01*
X191158333Y-97949285D01*
X191110714Y-97854047D01*
X191110714Y-97758809D01*
X191110714Y-96806428D02*
X191110714Y-96425476D01*
X190777380Y-96663571D02*
X191634523Y-96663571D01*
X191729761Y-96615952D01*
X191777380Y-96520714D01*
X191777380Y-96425476D01*
X191777380Y-96092142D02*
X190777380Y-96092142D01*
X191777380Y-95663571D02*
X191253571Y-95663571D01*
X191158333Y-95711190D01*
X191110714Y-95806428D01*
X191110714Y-95949285D01*
X191158333Y-96044523D01*
X191205952Y-96092142D01*
X191777380Y-94758809D02*
X191253571Y-94758809D01*
X191158333Y-94806428D01*
X191110714Y-94901666D01*
X191110714Y-95092142D01*
X191158333Y-95187380D01*
X191729761Y-94758809D02*
X191777380Y-94854047D01*
X191777380Y-95092142D01*
X191729761Y-95187380D01*
X191634523Y-95235000D01*
X191539285Y-95235000D01*
X191444047Y-95187380D01*
X191396428Y-95092142D01*
X191396428Y-94854047D01*
X191348809Y-94758809D01*
X191110714Y-94282619D02*
X191777380Y-94282619D01*
X191205952Y-94282619D02*
X191158333Y-94235000D01*
X191110714Y-94139761D01*
X191110714Y-93996904D01*
X191158333Y-93901666D01*
X191253571Y-93854047D01*
X191777380Y-93854047D01*
X190777380Y-92711190D02*
X190777380Y-92092142D01*
X191158333Y-92425476D01*
X191158333Y-92282619D01*
X191205952Y-92187380D01*
X191253571Y-92139761D01*
X191348809Y-92092142D01*
X191586904Y-92092142D01*
X191682142Y-92139761D01*
X191729761Y-92187380D01*
X191777380Y-92282619D01*
X191777380Y-92568333D01*
X191729761Y-92663571D01*
X191682142Y-92711190D01*
X190777380Y-91806428D02*
X191777380Y-91473095D01*
X190777380Y-91139761D01*
D11*
X152146000Y-101854000D02*
G75*
G02X152146000Y-103124000I0J-635000D01*
G01*
X146177000Y-117856000D02*
X145923000Y-118364000D01*
X145669000Y-117856000D02*
X146177000Y-117856000D01*
X145923000Y-118364000D02*
X145669000Y-117856000D01*
X145923000Y-117983000D02*
X145923000Y-118364000D01*
X145923000Y-115189000D02*
X145923000Y-117983000D01*
X147574000Y-115189000D02*
X145923000Y-115189000D01*
D10*
X156408380Y-117044214D02*
X156408380Y-117520404D01*
X155408380Y-117520404D01*
X155408380Y-116520404D02*
X155408380Y-116329928D01*
X155456000Y-116234690D01*
X155551238Y-116139452D01*
X155741714Y-116091833D01*
X156075047Y-116091833D01*
X156265523Y-116139452D01*
X156360761Y-116234690D01*
X156408380Y-116329928D01*
X156408380Y-116520404D01*
X156360761Y-116615642D01*
X156265523Y-116710880D01*
X156075047Y-116758500D01*
X155741714Y-116758500D01*
X155551238Y-116710880D01*
X155456000Y-116615642D01*
X155408380Y-116520404D01*
X156122666Y-115710880D02*
X156122666Y-115234690D01*
X156408380Y-115806119D02*
X155408380Y-115472785D01*
X156408380Y-115139452D01*
X156408380Y-114806119D02*
X155408380Y-114806119D01*
X155408380Y-114568023D01*
X155456000Y-114425166D01*
X155551238Y-114329928D01*
X155646476Y-114282309D01*
X155836952Y-114234690D01*
X155979809Y-114234690D01*
X156170285Y-114282309D01*
X156265523Y-114329928D01*
X156360761Y-114425166D01*
X156408380Y-114568023D01*
X156408380Y-114806119D01*
X151852380Y-117583928D02*
X151852380Y-117393452D01*
X151900000Y-117298214D01*
X151995238Y-117202976D01*
X152185714Y-117155357D01*
X152519047Y-117155357D01*
X152709523Y-117202976D01*
X152804761Y-117298214D01*
X152852380Y-117393452D01*
X152852380Y-117583928D01*
X152804761Y-117679166D01*
X152709523Y-117774404D01*
X152519047Y-117822023D01*
X152185714Y-117822023D01*
X151995238Y-117774404D01*
X151900000Y-117679166D01*
X151852380Y-117583928D01*
X152328571Y-116393452D02*
X152328571Y-116726785D01*
X152852380Y-116726785D02*
X151852380Y-116726785D01*
X151852380Y-116250595D01*
X152328571Y-115536309D02*
X152328571Y-115869642D01*
X152852380Y-115869642D02*
X151852380Y-115869642D01*
X151852380Y-115393452D01*
X148772571Y-117441071D02*
X148820190Y-117298214D01*
X148867809Y-117250595D01*
X148963047Y-117202976D01*
X149105904Y-117202976D01*
X149201142Y-117250595D01*
X149248761Y-117298214D01*
X149296380Y-117393452D01*
X149296380Y-117774404D01*
X148296380Y-117774404D01*
X148296380Y-117441071D01*
X148344000Y-117345833D01*
X148391619Y-117298214D01*
X148486857Y-117250595D01*
X148582095Y-117250595D01*
X148677333Y-117298214D01*
X148724952Y-117345833D01*
X148772571Y-117441071D01*
X148772571Y-117774404D01*
X149010666Y-116822023D02*
X149010666Y-116345833D01*
X149296380Y-116917261D02*
X148296380Y-116583928D01*
X149296380Y-116250595D01*
X148296380Y-116060119D02*
X148296380Y-115488690D01*
X149296380Y-115774404D02*
X148296380Y-115774404D01*
X148296380Y-115298214D02*
X148296380Y-114726785D01*
X149296380Y-115012500D02*
X148296380Y-115012500D01*
X148772571Y-114393452D02*
X148772571Y-114060119D01*
X149296380Y-113917261D02*
X149296380Y-114393452D01*
X148296380Y-114393452D01*
X148296380Y-113917261D01*
X149296380Y-112917261D02*
X148820190Y-113250595D01*
X149296380Y-113488690D02*
X148296380Y-113488690D01*
X148296380Y-113107738D01*
X148344000Y-113012500D01*
X148391619Y-112964880D01*
X148486857Y-112917261D01*
X148629714Y-112917261D01*
X148724952Y-112964880D01*
X148772571Y-113012500D01*
X148820190Y-113107738D01*
X148820190Y-113488690D01*
X148820190Y-112298214D02*
X149296380Y-112298214D01*
X148296380Y-112631547D02*
X148820190Y-112298214D01*
X148296380Y-111964880D01*
X164600000Y-87121904D02*
X164552380Y-87217142D01*
X164552380Y-87360000D01*
X164600000Y-87502857D01*
X164695238Y-87598095D01*
X164790476Y-87645714D01*
X164980952Y-87693333D01*
X165123809Y-87693333D01*
X165314285Y-87645714D01*
X165409523Y-87598095D01*
X165504761Y-87502857D01*
X165552380Y-87360000D01*
X165552380Y-87264761D01*
X165504761Y-87121904D01*
X165457142Y-87074285D01*
X165123809Y-87074285D01*
X165123809Y-87264761D01*
X165552380Y-86645714D02*
X164552380Y-86645714D01*
X165552380Y-86074285D01*
X164552380Y-86074285D01*
X165552380Y-85598095D02*
X164552380Y-85598095D01*
X164552380Y-85360000D01*
X164600000Y-85217142D01*
X164695238Y-85121904D01*
X164790476Y-85074285D01*
X164980952Y-85026666D01*
X165123809Y-85026666D01*
X165314285Y-85074285D01*
X165409523Y-85121904D01*
X165504761Y-85217142D01*
X165552380Y-85360000D01*
X165552380Y-85598095D01*
X163012380Y-91431666D02*
X162012380Y-91431666D01*
X162726666Y-91098333D01*
X162012380Y-90765000D01*
X163012380Y-90765000D01*
X162488571Y-90288809D02*
X162488571Y-89955476D01*
X163012380Y-89812619D02*
X163012380Y-90288809D01*
X162012380Y-90288809D01*
X162012380Y-89812619D01*
X162726666Y-89431666D02*
X162726666Y-88955476D01*
X163012380Y-89526904D02*
X162012380Y-89193571D01*
X163012380Y-88860238D01*
X162964761Y-88574523D02*
X163012380Y-88431666D01*
X163012380Y-88193571D01*
X162964761Y-88098333D01*
X162917142Y-88050714D01*
X162821904Y-88003095D01*
X162726666Y-88003095D01*
X162631428Y-88050714D01*
X162583809Y-88098333D01*
X162536190Y-88193571D01*
X162488571Y-88384047D01*
X162440952Y-88479285D01*
X162393333Y-88526904D01*
X162298095Y-88574523D01*
X162202857Y-88574523D01*
X162107619Y-88526904D01*
X162060000Y-88479285D01*
X162012380Y-88384047D01*
X162012380Y-88145952D01*
X162060000Y-88003095D01*
X162012380Y-87574523D02*
X162821904Y-87574523D01*
X162917142Y-87526904D01*
X162964761Y-87479285D01*
X163012380Y-87384047D01*
X163012380Y-87193571D01*
X162964761Y-87098333D01*
X162917142Y-87050714D01*
X162821904Y-87003095D01*
X162012380Y-87003095D01*
X163012380Y-85955476D02*
X162536190Y-86288809D01*
X163012380Y-86526904D02*
X162012380Y-86526904D01*
X162012380Y-86145952D01*
X162060000Y-86050714D01*
X162107619Y-86003095D01*
X162202857Y-85955476D01*
X162345714Y-85955476D01*
X162440952Y-86003095D01*
X162488571Y-86050714D01*
X162536190Y-86145952D01*
X162536190Y-86526904D01*
X162488571Y-85526904D02*
X162488571Y-85193571D01*
X163012380Y-85050714D02*
X163012380Y-85526904D01*
X162012380Y-85526904D01*
X162012380Y-85050714D01*
X156345000Y-87121904D02*
X156297380Y-87217142D01*
X156297380Y-87360000D01*
X156345000Y-87502857D01*
X156440238Y-87598095D01*
X156535476Y-87645714D01*
X156725952Y-87693333D01*
X156868809Y-87693333D01*
X157059285Y-87645714D01*
X157154523Y-87598095D01*
X157249761Y-87502857D01*
X157297380Y-87360000D01*
X157297380Y-87264761D01*
X157249761Y-87121904D01*
X157202142Y-87074285D01*
X156868809Y-87074285D01*
X156868809Y-87264761D01*
X157297380Y-86645714D02*
X156297380Y-86645714D01*
X157297380Y-86074285D01*
X156297380Y-86074285D01*
X157297380Y-85598095D02*
X156297380Y-85598095D01*
X156297380Y-85360000D01*
X156345000Y-85217142D01*
X156440238Y-85121904D01*
X156535476Y-85074285D01*
X156725952Y-85026666D01*
X156868809Y-85026666D01*
X157059285Y-85074285D01*
X157154523Y-85121904D01*
X157249761Y-85217142D01*
X157297380Y-85360000D01*
X157297380Y-85598095D01*
X154757380Y-91431666D02*
X153757380Y-91431666D01*
X154471666Y-91098333D01*
X153757380Y-90765000D01*
X154757380Y-90765000D01*
X154233571Y-90288809D02*
X154233571Y-89955476D01*
X154757380Y-89812619D02*
X154757380Y-90288809D01*
X153757380Y-90288809D01*
X153757380Y-89812619D01*
X154471666Y-89431666D02*
X154471666Y-88955476D01*
X154757380Y-89526904D02*
X153757380Y-89193571D01*
X154757380Y-88860238D01*
X154709761Y-88574523D02*
X154757380Y-88431666D01*
X154757380Y-88193571D01*
X154709761Y-88098333D01*
X154662142Y-88050714D01*
X154566904Y-88003095D01*
X154471666Y-88003095D01*
X154376428Y-88050714D01*
X154328809Y-88098333D01*
X154281190Y-88193571D01*
X154233571Y-88384047D01*
X154185952Y-88479285D01*
X154138333Y-88526904D01*
X154043095Y-88574523D01*
X153947857Y-88574523D01*
X153852619Y-88526904D01*
X153805000Y-88479285D01*
X153757380Y-88384047D01*
X153757380Y-88145952D01*
X153805000Y-88003095D01*
X153757380Y-87574523D02*
X154566904Y-87574523D01*
X154662142Y-87526904D01*
X154709761Y-87479285D01*
X154757380Y-87384047D01*
X154757380Y-87193571D01*
X154709761Y-87098333D01*
X154662142Y-87050714D01*
X154566904Y-87003095D01*
X153757380Y-87003095D01*
X154757380Y-85955476D02*
X154281190Y-86288809D01*
X154757380Y-86526904D02*
X153757380Y-86526904D01*
X153757380Y-86145952D01*
X153805000Y-86050714D01*
X153852619Y-86003095D01*
X153947857Y-85955476D01*
X154090714Y-85955476D01*
X154185952Y-86003095D01*
X154233571Y-86050714D01*
X154281190Y-86145952D01*
X154281190Y-86526904D01*
X154233571Y-85526904D02*
X154233571Y-85193571D01*
X154757380Y-85050714D02*
X154757380Y-85526904D01*
X153757380Y-85526904D01*
X153757380Y-85050714D01*
X146122380Y-89662976D02*
X145122380Y-89662976D01*
X145836666Y-89329642D01*
X145122380Y-88996309D01*
X146122380Y-88996309D01*
X145598571Y-88520119D02*
X145598571Y-88186785D01*
X146122380Y-88043928D02*
X146122380Y-88520119D01*
X145122380Y-88520119D01*
X145122380Y-88043928D01*
X145836666Y-87662976D02*
X145836666Y-87186785D01*
X146122380Y-87758214D02*
X145122380Y-87424880D01*
X146122380Y-87091547D01*
X146074761Y-86805833D02*
X146122380Y-86662976D01*
X146122380Y-86424880D01*
X146074761Y-86329642D01*
X146027142Y-86282023D01*
X145931904Y-86234404D01*
X145836666Y-86234404D01*
X145741428Y-86282023D01*
X145693809Y-86329642D01*
X145646190Y-86424880D01*
X145598571Y-86615357D01*
X145550952Y-86710595D01*
X145503333Y-86758214D01*
X145408095Y-86805833D01*
X145312857Y-86805833D01*
X145217619Y-86758214D01*
X145170000Y-86710595D01*
X145122380Y-86615357D01*
X145122380Y-86377261D01*
X145170000Y-86234404D01*
X145122380Y-85805833D02*
X145931904Y-85805833D01*
X146027142Y-85758214D01*
X146074761Y-85710595D01*
X146122380Y-85615357D01*
X146122380Y-85424880D01*
X146074761Y-85329642D01*
X146027142Y-85282023D01*
X145931904Y-85234404D01*
X145122380Y-85234404D01*
X146122380Y-84186785D02*
X145646190Y-84520119D01*
X146122380Y-84758214D02*
X145122380Y-84758214D01*
X145122380Y-84377261D01*
X145170000Y-84282023D01*
X145217619Y-84234404D01*
X145312857Y-84186785D01*
X145455714Y-84186785D01*
X145550952Y-84234404D01*
X145598571Y-84282023D01*
X145646190Y-84377261D01*
X145646190Y-84758214D01*
X145598571Y-83758214D02*
X145598571Y-83424880D01*
X146122380Y-83282023D02*
X146122380Y-83758214D01*
X145122380Y-83758214D01*
X145122380Y-83282023D01*
X145122380Y-81901071D02*
X145122380Y-81710595D01*
X145170000Y-81615357D01*
X145265238Y-81520119D01*
X145455714Y-81472500D01*
X145789047Y-81472500D01*
X145979523Y-81520119D01*
X146074761Y-81615357D01*
X146122380Y-81710595D01*
X146122380Y-81901071D01*
X146074761Y-81996309D01*
X145979523Y-82091547D01*
X145789047Y-82139166D01*
X145455714Y-82139166D01*
X145265238Y-82091547D01*
X145170000Y-81996309D01*
X145122380Y-81901071D01*
X145122380Y-81043928D02*
X145931904Y-81043928D01*
X146027142Y-80996309D01*
X146074761Y-80948690D01*
X146122380Y-80853452D01*
X146122380Y-80662976D01*
X146074761Y-80567738D01*
X146027142Y-80520119D01*
X145931904Y-80472500D01*
X145122380Y-80472500D01*
X145122380Y-80139166D02*
X145122380Y-79567738D01*
X146122380Y-79853452D02*
X145122380Y-79853452D01*
X146772380Y-90234404D02*
X146772380Y-90139166D01*
X146820000Y-90043928D01*
X146867619Y-89996309D01*
X146962857Y-89948690D01*
X147153333Y-89901071D01*
X147391428Y-89901071D01*
X147581904Y-89948690D01*
X147677142Y-89996309D01*
X147724761Y-90043928D01*
X147772380Y-90139166D01*
X147772380Y-90234404D01*
X147724761Y-90329642D01*
X147677142Y-90377261D01*
X147581904Y-90424880D01*
X147391428Y-90472500D01*
X147153333Y-90472500D01*
X146962857Y-90424880D01*
X146867619Y-90377261D01*
X146820000Y-90329642D01*
X146772380Y-90234404D01*
X147677142Y-89472500D02*
X147724761Y-89424880D01*
X147772380Y-89472500D01*
X147724761Y-89520119D01*
X147677142Y-89472500D01*
X147772380Y-89472500D01*
X147772380Y-88472500D02*
X147772380Y-89043928D01*
X147772380Y-88758214D02*
X146772380Y-88758214D01*
X146915238Y-88853452D01*
X147010476Y-88948690D01*
X147058095Y-89043928D01*
X146772380Y-88186785D02*
X147772380Y-87853452D01*
X146772380Y-87520119D01*
X147105714Y-86424880D02*
X148105714Y-86424880D01*
X147153333Y-86424880D02*
X147105714Y-86329642D01*
X147105714Y-86139166D01*
X147153333Y-86043928D01*
X147200952Y-85996309D01*
X147296190Y-85948690D01*
X147581904Y-85948690D01*
X147677142Y-85996309D01*
X147724761Y-86043928D01*
X147772380Y-86139166D01*
X147772380Y-86329642D01*
X147724761Y-86424880D01*
X147724761Y-85139166D02*
X147772380Y-85234404D01*
X147772380Y-85424880D01*
X147724761Y-85520119D01*
X147629523Y-85567738D01*
X147248571Y-85567738D01*
X147153333Y-85520119D01*
X147105714Y-85424880D01*
X147105714Y-85234404D01*
X147153333Y-85139166D01*
X147248571Y-85091547D01*
X147343809Y-85091547D01*
X147439047Y-85567738D01*
X147772380Y-84662976D02*
X147105714Y-84662976D01*
X147296190Y-84662976D02*
X147200952Y-84615357D01*
X147153333Y-84567738D01*
X147105714Y-84472500D01*
X147105714Y-84377261D01*
X147772380Y-82758214D02*
X147772380Y-83329642D01*
X147772380Y-83043928D02*
X146772380Y-83043928D01*
X146915238Y-83139166D01*
X147010476Y-83234404D01*
X147058095Y-83329642D01*
X147486666Y-82377261D02*
X147486666Y-81901071D01*
X147772380Y-82472500D02*
X146772380Y-82139166D01*
X147772380Y-81805833D01*
X147772380Y-80567738D02*
X147724761Y-80662976D01*
X147677142Y-80710595D01*
X147581904Y-80758214D01*
X147296190Y-80758214D01*
X147200952Y-80710595D01*
X147153333Y-80662976D01*
X147105714Y-80567738D01*
X147105714Y-80424880D01*
X147153333Y-80329642D01*
X147200952Y-80282023D01*
X147296190Y-80234404D01*
X147581904Y-80234404D01*
X147677142Y-80282023D01*
X147724761Y-80329642D01*
X147772380Y-80424880D01*
X147772380Y-80567738D01*
X147105714Y-79948690D02*
X147105714Y-79567738D01*
X147772380Y-79805833D02*
X146915238Y-79805833D01*
X146820000Y-79758214D01*
X146772380Y-79662976D01*
X146772380Y-79567738D01*
X149422380Y-89091547D02*
X148755714Y-89091547D01*
X148422380Y-89091547D02*
X148470000Y-89139166D01*
X148517619Y-89091547D01*
X148470000Y-89043928D01*
X148422380Y-89091547D01*
X148517619Y-89091547D01*
X148755714Y-88615357D02*
X149422380Y-88615357D01*
X148850952Y-88615357D02*
X148803333Y-88567738D01*
X148755714Y-88472500D01*
X148755714Y-88329642D01*
X148803333Y-88234404D01*
X148898571Y-88186785D01*
X149422380Y-88186785D01*
X148755714Y-87710595D02*
X149755714Y-87710595D01*
X148803333Y-87710595D02*
X148755714Y-87615357D01*
X148755714Y-87424880D01*
X148803333Y-87329642D01*
X148850952Y-87282023D01*
X148946190Y-87234404D01*
X149231904Y-87234404D01*
X149327142Y-87282023D01*
X149374761Y-87329642D01*
X149422380Y-87424880D01*
X149422380Y-87615357D01*
X149374761Y-87710595D01*
X148755714Y-86377261D02*
X149422380Y-86377261D01*
X148755714Y-86805833D02*
X149279523Y-86805833D01*
X149374761Y-86758214D01*
X149422380Y-86662976D01*
X149422380Y-86520119D01*
X149374761Y-86424880D01*
X149327142Y-86377261D01*
X148755714Y-86043928D02*
X148755714Y-85662976D01*
X148422380Y-85901071D02*
X149279523Y-85901071D01*
X149374761Y-85853452D01*
X149422380Y-85758214D01*
X149422380Y-85662976D01*
X149374761Y-84139166D02*
X149422380Y-84234404D01*
X149422380Y-84424880D01*
X149374761Y-84520119D01*
X149327142Y-84567738D01*
X149231904Y-84615357D01*
X148946190Y-84615357D01*
X148850952Y-84567738D01*
X148803333Y-84520119D01*
X148755714Y-84424880D01*
X148755714Y-84234404D01*
X148803333Y-84139166D01*
X148755714Y-83282023D02*
X149422380Y-83282023D01*
X148755714Y-83710595D02*
X149279523Y-83710595D01*
X149374761Y-83662976D01*
X149422380Y-83567738D01*
X149422380Y-83424880D01*
X149374761Y-83329642D01*
X149327142Y-83282023D01*
X149422380Y-82805833D02*
X148755714Y-82805833D01*
X148946190Y-82805833D02*
X148850952Y-82758214D01*
X148803333Y-82710595D01*
X148755714Y-82615357D01*
X148755714Y-82520119D01*
X149422380Y-82186785D02*
X148755714Y-82186785D01*
X148946190Y-82186785D02*
X148850952Y-82139166D01*
X148803333Y-82091547D01*
X148755714Y-81996309D01*
X148755714Y-81901071D01*
X149374761Y-81186785D02*
X149422380Y-81282023D01*
X149422380Y-81472500D01*
X149374761Y-81567738D01*
X149279523Y-81615357D01*
X148898571Y-81615357D01*
X148803333Y-81567738D01*
X148755714Y-81472500D01*
X148755714Y-81282023D01*
X148803333Y-81186785D01*
X148898571Y-81139166D01*
X148993809Y-81139166D01*
X149089047Y-81615357D01*
X148755714Y-80710595D02*
X149422380Y-80710595D01*
X148850952Y-80710595D02*
X148803333Y-80662976D01*
X148755714Y-80567738D01*
X148755714Y-80424880D01*
X148803333Y-80329642D01*
X148898571Y-80282023D01*
X149422380Y-80282023D01*
X148755714Y-79948690D02*
X148755714Y-79567738D01*
X148422380Y-79805833D02*
X149279523Y-79805833D01*
X149374761Y-79758214D01*
X149422380Y-79662976D01*
X149422380Y-79567738D01*
D11*
X157640000Y-121490001D02*
X157640000Y-119390001D01*
X157280000Y-121490001D02*
X157640000Y-121490001D01*
X157280000Y-123590000D02*
X157280000Y-121490001D01*
X157640000Y-123590000D02*
X157280000Y-123590000D01*
X157640000Y-125690000D02*
X157640000Y-123590000D01*
X147440000Y-125689999D02*
X157640000Y-125690000D01*
X147440000Y-119390000D02*
X147440000Y-125689999D01*
X157640000Y-119390001D02*
X147440000Y-119390000D01*
X129120000Y-107470000D02*
X129120000Y-97429000D01*
X141360000Y-99079000D02*
X141360000Y-97429000D01*
X141360000Y-101578000D02*
X141360000Y-100819000D01*
X141360000Y-104078000D02*
X141360000Y-103319000D01*
X141360000Y-107470000D02*
X141360000Y-105820000D01*
X133056000Y-97429000D02*
X129120000Y-97429000D01*
X141360000Y-97429000D02*
X137423000Y-97429000D01*
X133056000Y-107470000D02*
X129120000Y-107470000D01*
X141360000Y-107470000D02*
X137423000Y-107470000D01*
X166430000Y-79696000D02*
X166430000Y-81026000D01*
X165100000Y-79696000D02*
X166430000Y-79696000D01*
X163830000Y-79696000D02*
X163830000Y-82356000D01*
X163830000Y-82356000D02*
X161230000Y-82356000D01*
X163830000Y-79696000D02*
X161230000Y-79696000D01*
X161230000Y-79696000D02*
X161230000Y-82356000D01*
X157645000Y-78596000D02*
X157645000Y-77996000D01*
X156045000Y-78596000D02*
X157645000Y-78596000D01*
X156045000Y-77996000D02*
X156045000Y-78596000D01*
X155105000Y-78596000D02*
X155105000Y-77996000D01*
X153505000Y-78596000D02*
X155105000Y-78596000D01*
X153505000Y-77996000D02*
X153505000Y-78596000D01*
X156595000Y-84016000D02*
X156595000Y-83016000D01*
X154555000Y-84016000D02*
X154555000Y-83016000D01*
X156595000Y-82486000D02*
X156845000Y-83016000D01*
X154555000Y-82486000D02*
X156595000Y-82486000D01*
X154305000Y-83016000D02*
X154555000Y-82486000D01*
X156845000Y-83016000D02*
X156845000Y-84016000D01*
X154305000Y-83016000D02*
X156845000Y-83016000D01*
X154305000Y-84016000D02*
X154305000Y-83016000D01*
X152635000Y-79026000D02*
X152635000Y-83026000D01*
X158225000Y-77996000D02*
X152925000Y-77996000D01*
X158225000Y-84016000D02*
X158225000Y-77996000D01*
X152925000Y-84016000D02*
X158225000Y-84016000D01*
X152925000Y-77996000D02*
X152925000Y-84016000D01*
X195520000Y-99889000D02*
X196850000Y-99889000D01*
X195520000Y-101219000D02*
X195520000Y-99889000D01*
X195520000Y-102489000D02*
X198180000Y-102489000D01*
X198180000Y-102489000D02*
X198180000Y-105089000D01*
X195520000Y-102489000D02*
X195520000Y-105089000D01*
X195520000Y-105089000D02*
X198180000Y-105089000D01*
X144963000Y-120695000D02*
X144963000Y-123555000D01*
X146883000Y-120695000D02*
X144963000Y-120695000D01*
X146883000Y-123555000D02*
X146883000Y-120695000D01*
M02*
