G04 #@! TF.GenerationSoftware,KiCad,Pcbnew,(5.1.2-1)-1*
G04 #@! TF.CreationDate,2020-01-25T18:20:51+01:00*
G04 #@! TF.ProjectId,CCLoad,43434c6f-6164-42e6-9b69-6361645f7063,rev?*
G04 #@! TF.SameCoordinates,Original*
G04 #@! TF.FileFunction,Copper,L1,Top*
G04 #@! TF.FilePolarity,Positive*
%FSLAX46Y46*%
G04 Gerber Fmt 4.6, Leading zero omitted, Abs format (unit mm)*
G04 Created by KiCad (PCBNEW (5.1.2-1)-1) date 2020-01-25 18:20:51*
%MOMM*%
%LPD*%
G04 APERTURE LIST*
%ADD10C,10.000000*%
%ADD11O,1.200000X2.000000*%
%ADD12C,4.000000*%
%ADD13C,1.800000*%
%ADD14O,1.700000X1.700000*%
%ADD15R,1.700000X1.700000*%
%ADD16O,1.740000X2.200000*%
%ADD17C,0.100000*%
%ADD18C,1.740000*%
%ADD19C,7.400000*%
%ADD20C,1.150000*%
%ADD21C,0.800000*%
%ADD22C,0.250000*%
%ADD23C,0.254000*%
G04 APERTURE END LIST*
D10*
X182840000Y-88900000D03*
X182880000Y-116205000D03*
D11*
X148540000Y-120890000D03*
X148540000Y-124190000D03*
X150540000Y-120890000D03*
X150540000Y-124190000D03*
X154540000Y-120890000D03*
X154540000Y-124190000D03*
X156540000Y-120890000D03*
X156540000Y-124190000D03*
D12*
X135240000Y-98049000D03*
X135240000Y-106849000D03*
D13*
X142240000Y-99949000D03*
X142240000Y-102449000D03*
X142240000Y-104949000D03*
D14*
X162560000Y-81026000D03*
D15*
X165100000Y-81026000D03*
D16*
X156845000Y-81026000D03*
D17*
G36*
X154949505Y-79927204D02*
G01*
X154973773Y-79930804D01*
X154997572Y-79936765D01*
X155020671Y-79945030D01*
X155042850Y-79955520D01*
X155063893Y-79968132D01*
X155083599Y-79982747D01*
X155101777Y-79999223D01*
X155118253Y-80017401D01*
X155132868Y-80037107D01*
X155145480Y-80058150D01*
X155155970Y-80080329D01*
X155164235Y-80103428D01*
X155170196Y-80127227D01*
X155173796Y-80151495D01*
X155175000Y-80175999D01*
X155175000Y-81876001D01*
X155173796Y-81900505D01*
X155170196Y-81924773D01*
X155164235Y-81948572D01*
X155155970Y-81971671D01*
X155145480Y-81993850D01*
X155132868Y-82014893D01*
X155118253Y-82034599D01*
X155101777Y-82052777D01*
X155083599Y-82069253D01*
X155063893Y-82083868D01*
X155042850Y-82096480D01*
X155020671Y-82106970D01*
X154997572Y-82115235D01*
X154973773Y-82121196D01*
X154949505Y-82124796D01*
X154925001Y-82126000D01*
X153684999Y-82126000D01*
X153660495Y-82124796D01*
X153636227Y-82121196D01*
X153612428Y-82115235D01*
X153589329Y-82106970D01*
X153567150Y-82096480D01*
X153546107Y-82083868D01*
X153526401Y-82069253D01*
X153508223Y-82052777D01*
X153491747Y-82034599D01*
X153477132Y-82014893D01*
X153464520Y-81993850D01*
X153454030Y-81971671D01*
X153445765Y-81948572D01*
X153439804Y-81924773D01*
X153436204Y-81900505D01*
X153435000Y-81876001D01*
X153435000Y-80175999D01*
X153436204Y-80151495D01*
X153439804Y-80127227D01*
X153445765Y-80103428D01*
X153454030Y-80080329D01*
X153464520Y-80058150D01*
X153477132Y-80037107D01*
X153491747Y-80017401D01*
X153508223Y-79999223D01*
X153526401Y-79982747D01*
X153546107Y-79968132D01*
X153567150Y-79955520D01*
X153589329Y-79945030D01*
X153612428Y-79936765D01*
X153636227Y-79930804D01*
X153660495Y-79927204D01*
X153684999Y-79926000D01*
X154925001Y-79926000D01*
X154949505Y-79927204D01*
X154949505Y-79927204D01*
G37*
D18*
X154305000Y-81026000D03*
D14*
X196850000Y-103759000D03*
D15*
X196850000Y-101219000D03*
D19*
X196830000Y-122840000D03*
X196830000Y-82340000D03*
X106330000Y-122840000D03*
X106330000Y-82340000D03*
D17*
G36*
X146397505Y-123006204D02*
G01*
X146421773Y-123009804D01*
X146445572Y-123015765D01*
X146468671Y-123024030D01*
X146490850Y-123034520D01*
X146511893Y-123047132D01*
X146531599Y-123061747D01*
X146549777Y-123078223D01*
X146566253Y-123096401D01*
X146580868Y-123116107D01*
X146593480Y-123137150D01*
X146603970Y-123159329D01*
X146612235Y-123182428D01*
X146618196Y-123206227D01*
X146621796Y-123230495D01*
X146623000Y-123254999D01*
X146623000Y-123905001D01*
X146621796Y-123929505D01*
X146618196Y-123953773D01*
X146612235Y-123977572D01*
X146603970Y-124000671D01*
X146593480Y-124022850D01*
X146580868Y-124043893D01*
X146566253Y-124063599D01*
X146549777Y-124081777D01*
X146531599Y-124098253D01*
X146511893Y-124112868D01*
X146490850Y-124125480D01*
X146468671Y-124135970D01*
X146445572Y-124144235D01*
X146421773Y-124150196D01*
X146397505Y-124153796D01*
X146373001Y-124155000D01*
X145472999Y-124155000D01*
X145448495Y-124153796D01*
X145424227Y-124150196D01*
X145400428Y-124144235D01*
X145377329Y-124135970D01*
X145355150Y-124125480D01*
X145334107Y-124112868D01*
X145314401Y-124098253D01*
X145296223Y-124081777D01*
X145279747Y-124063599D01*
X145265132Y-124043893D01*
X145252520Y-124022850D01*
X145242030Y-124000671D01*
X145233765Y-123977572D01*
X145227804Y-123953773D01*
X145224204Y-123929505D01*
X145223000Y-123905001D01*
X145223000Y-123254999D01*
X145224204Y-123230495D01*
X145227804Y-123206227D01*
X145233765Y-123182428D01*
X145242030Y-123159329D01*
X145252520Y-123137150D01*
X145265132Y-123116107D01*
X145279747Y-123096401D01*
X145296223Y-123078223D01*
X145314401Y-123061747D01*
X145334107Y-123047132D01*
X145355150Y-123034520D01*
X145377329Y-123024030D01*
X145400428Y-123015765D01*
X145424227Y-123009804D01*
X145448495Y-123006204D01*
X145472999Y-123005000D01*
X146373001Y-123005000D01*
X146397505Y-123006204D01*
X146397505Y-123006204D01*
G37*
D20*
X145923000Y-123580000D03*
D17*
G36*
X146397505Y-120956204D02*
G01*
X146421773Y-120959804D01*
X146445572Y-120965765D01*
X146468671Y-120974030D01*
X146490850Y-120984520D01*
X146511893Y-120997132D01*
X146531599Y-121011747D01*
X146549777Y-121028223D01*
X146566253Y-121046401D01*
X146580868Y-121066107D01*
X146593480Y-121087150D01*
X146603970Y-121109329D01*
X146612235Y-121132428D01*
X146618196Y-121156227D01*
X146621796Y-121180495D01*
X146623000Y-121204999D01*
X146623000Y-121855001D01*
X146621796Y-121879505D01*
X146618196Y-121903773D01*
X146612235Y-121927572D01*
X146603970Y-121950671D01*
X146593480Y-121972850D01*
X146580868Y-121993893D01*
X146566253Y-122013599D01*
X146549777Y-122031777D01*
X146531599Y-122048253D01*
X146511893Y-122062868D01*
X146490850Y-122075480D01*
X146468671Y-122085970D01*
X146445572Y-122094235D01*
X146421773Y-122100196D01*
X146397505Y-122103796D01*
X146373001Y-122105000D01*
X145472999Y-122105000D01*
X145448495Y-122103796D01*
X145424227Y-122100196D01*
X145400428Y-122094235D01*
X145377329Y-122085970D01*
X145355150Y-122075480D01*
X145334107Y-122062868D01*
X145314401Y-122048253D01*
X145296223Y-122031777D01*
X145279747Y-122013599D01*
X145265132Y-121993893D01*
X145252520Y-121972850D01*
X145242030Y-121950671D01*
X145233765Y-121927572D01*
X145227804Y-121903773D01*
X145224204Y-121879505D01*
X145223000Y-121855001D01*
X145223000Y-121204999D01*
X145224204Y-121180495D01*
X145227804Y-121156227D01*
X145233765Y-121132428D01*
X145242030Y-121109329D01*
X145252520Y-121087150D01*
X145265132Y-121066107D01*
X145279747Y-121046401D01*
X145296223Y-121028223D01*
X145314401Y-121011747D01*
X145334107Y-120997132D01*
X145355150Y-120984520D01*
X145377329Y-120974030D01*
X145400428Y-120965765D01*
X145424227Y-120959804D01*
X145448495Y-120956204D01*
X145472999Y-120955000D01*
X146373001Y-120955000D01*
X146397505Y-120956204D01*
X146397505Y-120956204D01*
G37*
D20*
X145923000Y-121530000D03*
D21*
X150241000Y-100203000D03*
X150241000Y-104775000D03*
X145923000Y-119888000D03*
X170815000Y-111125000D03*
X172719994Y-111125000D03*
X170815000Y-112395000D03*
X174715010Y-112394801D03*
D22*
X146638010Y-122864990D02*
X146546372Y-122956628D01*
X146546372Y-122956628D02*
X145923000Y-123580000D01*
X150923151Y-122864990D02*
X146638010Y-122864990D01*
X152248161Y-124190000D02*
X150923151Y-122864990D01*
X154540000Y-124190000D02*
X152248161Y-124190000D01*
X145923000Y-121530000D02*
X145923000Y-119888000D01*
X170815000Y-111125000D02*
X172719994Y-111125000D01*
X170815000Y-112395000D02*
X174714811Y-112395000D01*
X174714811Y-112395000D02*
X174715010Y-112394801D01*
D23*
G36*
X194776608Y-78498373D02*
G01*
X194066599Y-78972786D01*
X193462786Y-79576599D01*
X192988373Y-80286608D01*
X192661592Y-81075527D01*
X192495000Y-81913040D01*
X192495000Y-82766960D01*
X192661592Y-83604473D01*
X192988373Y-84393392D01*
X193462786Y-85103401D01*
X194066599Y-85707214D01*
X194776608Y-86181627D01*
X195565527Y-86508408D01*
X196403040Y-86675000D01*
X197256960Y-86675000D01*
X198094473Y-86508408D01*
X198883392Y-86181627D01*
X199593401Y-85707214D01*
X200197214Y-85103401D01*
X200671627Y-84393392D01*
X200920001Y-83793764D01*
X200920000Y-121386233D01*
X200671627Y-120786608D01*
X200197214Y-120076599D01*
X199593401Y-119472786D01*
X198883392Y-118998373D01*
X198094473Y-118671592D01*
X197256960Y-118505000D01*
X196403040Y-118505000D01*
X195565527Y-118671592D01*
X194776608Y-118998373D01*
X194066599Y-119472786D01*
X193462786Y-120076599D01*
X192988373Y-120786608D01*
X192661592Y-121575527D01*
X192495000Y-122413040D01*
X192495000Y-123266960D01*
X192661592Y-124104473D01*
X192988373Y-124893392D01*
X193462786Y-125603401D01*
X194066599Y-126207214D01*
X194776608Y-126681627D01*
X195376233Y-126930000D01*
X107783767Y-126930000D01*
X108383392Y-126681627D01*
X109093401Y-126207214D01*
X109697214Y-125603401D01*
X110171627Y-124893392D01*
X110498408Y-124104473D01*
X110665000Y-123266960D01*
X110665000Y-122413040D01*
X110498408Y-121575527D01*
X110344931Y-121204999D01*
X144584928Y-121204999D01*
X144584928Y-121855001D01*
X144601992Y-122028255D01*
X144652528Y-122194851D01*
X144734595Y-122348387D01*
X144845038Y-122482962D01*
X144932816Y-122555000D01*
X144845038Y-122627038D01*
X144734595Y-122761613D01*
X144652528Y-122915149D01*
X144601992Y-123081745D01*
X144584928Y-123254999D01*
X144584928Y-123905001D01*
X144601992Y-124078255D01*
X144652528Y-124244851D01*
X144734595Y-124398387D01*
X144845038Y-124532962D01*
X144979613Y-124643405D01*
X145133149Y-124725472D01*
X145299745Y-124776008D01*
X145472999Y-124793072D01*
X146373001Y-124793072D01*
X146546255Y-124776008D01*
X146712851Y-124725472D01*
X146866387Y-124643405D01*
X147000962Y-124532962D01*
X147111405Y-124398387D01*
X147193472Y-124244851D01*
X147244008Y-124078255D01*
X147261072Y-123905001D01*
X147261072Y-123624990D01*
X147315277Y-123624990D01*
X147305000Y-123729335D01*
X147305000Y-124650664D01*
X147322870Y-124832101D01*
X147393489Y-125064900D01*
X147508167Y-125279448D01*
X147662498Y-125467502D01*
X147850551Y-125621833D01*
X148065099Y-125736511D01*
X148297898Y-125807130D01*
X148540000Y-125830975D01*
X148782101Y-125807130D01*
X149014900Y-125736511D01*
X149229448Y-125621833D01*
X149417502Y-125467502D01*
X149540000Y-125318237D01*
X149662498Y-125467502D01*
X149850551Y-125621833D01*
X150065099Y-125736511D01*
X150297898Y-125807130D01*
X150540000Y-125830975D01*
X150782101Y-125807130D01*
X151014900Y-125736511D01*
X151229448Y-125621833D01*
X151417502Y-125467502D01*
X151571833Y-125279449D01*
X151686511Y-125064901D01*
X151757130Y-124832102D01*
X151762772Y-124774820D01*
X151823884Y-124824974D01*
X151869870Y-124849554D01*
X151955914Y-124895546D01*
X152099175Y-124939003D01*
X152210828Y-124950000D01*
X152210837Y-124950000D01*
X152248160Y-124953676D01*
X152285483Y-124950000D01*
X153358634Y-124950000D01*
X153393489Y-125064900D01*
X153508167Y-125279448D01*
X153662498Y-125467502D01*
X153850551Y-125621833D01*
X154065099Y-125736511D01*
X154297898Y-125807130D01*
X154540000Y-125830975D01*
X154782101Y-125807130D01*
X155014900Y-125736511D01*
X155229448Y-125621833D01*
X155417502Y-125467502D01*
X155540000Y-125318237D01*
X155662498Y-125467502D01*
X155850551Y-125621833D01*
X156065099Y-125736511D01*
X156297898Y-125807130D01*
X156540000Y-125830975D01*
X156782101Y-125807130D01*
X157014900Y-125736511D01*
X157229448Y-125621833D01*
X157417502Y-125467502D01*
X157571833Y-125279449D01*
X157686511Y-125064901D01*
X157757130Y-124832102D01*
X157775000Y-124650665D01*
X157775000Y-123729336D01*
X157757130Y-123547899D01*
X157686511Y-123315099D01*
X157571833Y-123100551D01*
X157417502Y-122912498D01*
X157229449Y-122758167D01*
X157014901Y-122643489D01*
X156782102Y-122572870D01*
X156540000Y-122549025D01*
X156297899Y-122572870D01*
X156065100Y-122643489D01*
X155850552Y-122758167D01*
X155662499Y-122912498D01*
X155540001Y-123061763D01*
X155417502Y-122912498D01*
X155229449Y-122758167D01*
X155014901Y-122643489D01*
X154782102Y-122572870D01*
X154540000Y-122549025D01*
X154297899Y-122572870D01*
X154065100Y-122643489D01*
X153850552Y-122758167D01*
X153662499Y-122912498D01*
X153508168Y-123100551D01*
X153393489Y-123315099D01*
X153358634Y-123430000D01*
X152562963Y-123430000D01*
X151486955Y-122353993D01*
X151463152Y-122324989D01*
X151347427Y-122230016D01*
X151343734Y-122228042D01*
X151417502Y-122167502D01*
X151571833Y-121979449D01*
X151686511Y-121764901D01*
X151757130Y-121532102D01*
X151775000Y-121350665D01*
X151775000Y-121017000D01*
X153305000Y-121017000D01*
X153305000Y-121417000D01*
X153353507Y-121655496D01*
X153447610Y-121879946D01*
X153583693Y-122081725D01*
X153756526Y-122253078D01*
X153959467Y-122387421D01*
X154184718Y-122479591D01*
X154222391Y-122483462D01*
X154413000Y-122358731D01*
X154413000Y-121017000D01*
X153305000Y-121017000D01*
X151775000Y-121017000D01*
X151775000Y-120429336D01*
X151768467Y-120363000D01*
X153305000Y-120363000D01*
X153305000Y-120763000D01*
X154413000Y-120763000D01*
X154413000Y-119421269D01*
X154667000Y-119421269D01*
X154667000Y-120763000D01*
X154687000Y-120763000D01*
X154687000Y-121017000D01*
X154667000Y-121017000D01*
X154667000Y-122358731D01*
X154857609Y-122483462D01*
X154895282Y-122479591D01*
X155120533Y-122387421D01*
X155323474Y-122253078D01*
X155496307Y-122081725D01*
X155539519Y-122017651D01*
X155662498Y-122167502D01*
X155850551Y-122321833D01*
X156065099Y-122436511D01*
X156297898Y-122507130D01*
X156540000Y-122530975D01*
X156782101Y-122507130D01*
X157014900Y-122436511D01*
X157229448Y-122321833D01*
X157417502Y-122167502D01*
X157571833Y-121979449D01*
X157686511Y-121764901D01*
X157757130Y-121532102D01*
X157775000Y-121350665D01*
X157775000Y-120429336D01*
X157757130Y-120247899D01*
X157738153Y-120185339D01*
X179079266Y-120185339D01*
X179655387Y-120859365D01*
X180625368Y-121399024D01*
X181681994Y-121739079D01*
X182784659Y-121866462D01*
X183890987Y-121776279D01*
X184958464Y-121471994D01*
X185946067Y-120965302D01*
X186104613Y-120859365D01*
X186680734Y-120185339D01*
X182880000Y-116384605D01*
X179079266Y-120185339D01*
X157738153Y-120185339D01*
X157686511Y-120015099D01*
X157571833Y-119800551D01*
X157417502Y-119612498D01*
X157229449Y-119458167D01*
X157014901Y-119343489D01*
X156782102Y-119272870D01*
X156540000Y-119249025D01*
X156297899Y-119272870D01*
X156065100Y-119343489D01*
X155850552Y-119458167D01*
X155662499Y-119612498D01*
X155539520Y-119762349D01*
X155496307Y-119698275D01*
X155323474Y-119526922D01*
X155120533Y-119392579D01*
X154895282Y-119300409D01*
X154857609Y-119296538D01*
X154667000Y-119421269D01*
X154413000Y-119421269D01*
X154222391Y-119296538D01*
X154184718Y-119300409D01*
X153959467Y-119392579D01*
X153756526Y-119526922D01*
X153583693Y-119698275D01*
X153447610Y-119900054D01*
X153353507Y-120124504D01*
X153305000Y-120363000D01*
X151768467Y-120363000D01*
X151757130Y-120247899D01*
X151686511Y-120015099D01*
X151571833Y-119800551D01*
X151417502Y-119612498D01*
X151229449Y-119458167D01*
X151014901Y-119343489D01*
X150782102Y-119272870D01*
X150540000Y-119249025D01*
X150297899Y-119272870D01*
X150065100Y-119343489D01*
X149850552Y-119458167D01*
X149662499Y-119612498D01*
X149540001Y-119761763D01*
X149417502Y-119612498D01*
X149229449Y-119458167D01*
X149014901Y-119343489D01*
X148782102Y-119272870D01*
X148540000Y-119249025D01*
X148297899Y-119272870D01*
X148065100Y-119343489D01*
X147850552Y-119458167D01*
X147662499Y-119612498D01*
X147508168Y-119800551D01*
X147393489Y-120015099D01*
X147322870Y-120247898D01*
X147305000Y-120429335D01*
X147305000Y-121350664D01*
X147322870Y-121532101D01*
X147393489Y-121764900D01*
X147508167Y-121979448D01*
X147611196Y-122104990D01*
X147220731Y-122104990D01*
X147244008Y-122028255D01*
X147261072Y-121855001D01*
X147261072Y-121204999D01*
X147244008Y-121031745D01*
X147193472Y-120865149D01*
X147111405Y-120711613D01*
X147000962Y-120577038D01*
X146866387Y-120466595D01*
X146803602Y-120433036D01*
X146840205Y-120378256D01*
X146918226Y-120189898D01*
X146958000Y-119989939D01*
X146958000Y-119786061D01*
X146918226Y-119586102D01*
X146840205Y-119397744D01*
X146726937Y-119228226D01*
X146582774Y-119084063D01*
X146413256Y-118970795D01*
X146224898Y-118892774D01*
X146024939Y-118853000D01*
X145821061Y-118853000D01*
X145621102Y-118892774D01*
X145432744Y-118970795D01*
X145263226Y-119084063D01*
X145119063Y-119228226D01*
X145005795Y-119397744D01*
X144927774Y-119586102D01*
X144888000Y-119786061D01*
X144888000Y-119989939D01*
X144927774Y-120189898D01*
X145005795Y-120378256D01*
X145042398Y-120433036D01*
X144979613Y-120466595D01*
X144845038Y-120577038D01*
X144734595Y-120711613D01*
X144652528Y-120865149D01*
X144601992Y-121031745D01*
X144584928Y-121204999D01*
X110344931Y-121204999D01*
X110171627Y-120786608D01*
X109697214Y-120076599D01*
X109093401Y-119472786D01*
X108383392Y-118998373D01*
X107594473Y-118671592D01*
X106756960Y-118505000D01*
X105903040Y-118505000D01*
X105065527Y-118671592D01*
X104276608Y-118998373D01*
X103566599Y-119472786D01*
X102962786Y-120076599D01*
X102488373Y-120786608D01*
X102240000Y-121386233D01*
X102240000Y-116109659D01*
X177218538Y-116109659D01*
X177308721Y-117215987D01*
X177613006Y-118283464D01*
X178119698Y-119271067D01*
X178225635Y-119429613D01*
X178899661Y-120005734D01*
X182700395Y-116205000D01*
X183059605Y-116205000D01*
X186860339Y-120005734D01*
X187534365Y-119429613D01*
X188074024Y-118459632D01*
X188414079Y-117403006D01*
X188541462Y-116300341D01*
X188451279Y-115194013D01*
X188146994Y-114126536D01*
X187640302Y-113138933D01*
X187534365Y-112980387D01*
X186860339Y-112404266D01*
X183059605Y-116205000D01*
X182700395Y-116205000D01*
X178899661Y-112404266D01*
X178225635Y-112980387D01*
X177685976Y-113950368D01*
X177345921Y-115006994D01*
X177218538Y-116109659D01*
X102240000Y-116109659D01*
X102240000Y-111023061D01*
X169780000Y-111023061D01*
X169780000Y-111226939D01*
X169819774Y-111426898D01*
X169897795Y-111615256D01*
X169994510Y-111760000D01*
X169897795Y-111904744D01*
X169819774Y-112093102D01*
X169780000Y-112293061D01*
X169780000Y-112496939D01*
X169819774Y-112696898D01*
X169897795Y-112885256D01*
X170011063Y-113054774D01*
X170155226Y-113198937D01*
X170324744Y-113312205D01*
X170513102Y-113390226D01*
X170713061Y-113430000D01*
X170916939Y-113430000D01*
X171116898Y-113390226D01*
X171305256Y-113312205D01*
X171474774Y-113198937D01*
X171518711Y-113155000D01*
X174011498Y-113155000D01*
X174055236Y-113198738D01*
X174224754Y-113312006D01*
X174413112Y-113390027D01*
X174613071Y-113429801D01*
X174816949Y-113429801D01*
X175016908Y-113390027D01*
X175205266Y-113312006D01*
X175374784Y-113198738D01*
X175518947Y-113054575D01*
X175632215Y-112885057D01*
X175710236Y-112696699D01*
X175750010Y-112496740D01*
X175750010Y-112292862D01*
X175736445Y-112224661D01*
X179079266Y-112224661D01*
X182880000Y-116025395D01*
X186680734Y-112224661D01*
X186104613Y-111550635D01*
X185134632Y-111010976D01*
X184078006Y-110670921D01*
X182975341Y-110543538D01*
X181869013Y-110633721D01*
X180801536Y-110938006D01*
X179813933Y-111444698D01*
X179655387Y-111550635D01*
X179079266Y-112224661D01*
X175736445Y-112224661D01*
X175710236Y-112092903D01*
X175632215Y-111904545D01*
X175518947Y-111735027D01*
X175374784Y-111590864D01*
X175205266Y-111477596D01*
X175016908Y-111399575D01*
X174816949Y-111359801D01*
X174613071Y-111359801D01*
X174413112Y-111399575D01*
X174224754Y-111477596D01*
X174055236Y-111590864D01*
X174011100Y-111635000D01*
X173624007Y-111635000D01*
X173637199Y-111615256D01*
X173715220Y-111426898D01*
X173754994Y-111226939D01*
X173754994Y-111023061D01*
X173715220Y-110823102D01*
X173637199Y-110634744D01*
X173523931Y-110465226D01*
X173379768Y-110321063D01*
X173210250Y-110207795D01*
X173021892Y-110129774D01*
X172821933Y-110090000D01*
X172618055Y-110090000D01*
X172418096Y-110129774D01*
X172229738Y-110207795D01*
X172060220Y-110321063D01*
X172016283Y-110365000D01*
X171518711Y-110365000D01*
X171474774Y-110321063D01*
X171305256Y-110207795D01*
X171116898Y-110129774D01*
X170916939Y-110090000D01*
X170713061Y-110090000D01*
X170513102Y-110129774D01*
X170324744Y-110207795D01*
X170155226Y-110321063D01*
X170011063Y-110465226D01*
X169897795Y-110634744D01*
X169819774Y-110823102D01*
X169780000Y-111023061D01*
X102240000Y-111023061D01*
X102240000Y-106589475D01*
X132605000Y-106589475D01*
X132605000Y-107108525D01*
X132706261Y-107617601D01*
X132904893Y-108097141D01*
X133193262Y-108528715D01*
X133560285Y-108895738D01*
X133991859Y-109184107D01*
X134471399Y-109382739D01*
X134980475Y-109484000D01*
X135499525Y-109484000D01*
X136008601Y-109382739D01*
X136488141Y-109184107D01*
X136919715Y-108895738D01*
X137286738Y-108528715D01*
X137575107Y-108097141D01*
X137773739Y-107617601D01*
X137875000Y-107108525D01*
X137875000Y-106589475D01*
X137773739Y-106080399D01*
X137575107Y-105600859D01*
X137286738Y-105169285D01*
X136919715Y-104802262D01*
X136488141Y-104513893D01*
X136008601Y-104315261D01*
X135499525Y-104214000D01*
X134980475Y-104214000D01*
X134471399Y-104315261D01*
X133991859Y-104513893D01*
X133560285Y-104802262D01*
X133193262Y-105169285D01*
X132904893Y-105600859D01*
X132706261Y-106080399D01*
X132605000Y-106589475D01*
X102240000Y-106589475D01*
X102240000Y-97789475D01*
X132605000Y-97789475D01*
X132605000Y-98308525D01*
X132706261Y-98817601D01*
X132904893Y-99297141D01*
X133193262Y-99728715D01*
X133560285Y-100095738D01*
X133991859Y-100384107D01*
X134471399Y-100582739D01*
X134980475Y-100684000D01*
X135499525Y-100684000D01*
X136008601Y-100582739D01*
X136488141Y-100384107D01*
X136919715Y-100095738D01*
X137217637Y-99797816D01*
X140705000Y-99797816D01*
X140705000Y-100100184D01*
X140763989Y-100396743D01*
X140879701Y-100676095D01*
X141047688Y-100927505D01*
X141261495Y-101141312D01*
X141347831Y-101199000D01*
X141261495Y-101256688D01*
X141047688Y-101470495D01*
X140879701Y-101721905D01*
X140763989Y-102001257D01*
X140705000Y-102297816D01*
X140705000Y-102600184D01*
X140763989Y-102896743D01*
X140879701Y-103176095D01*
X141047688Y-103427505D01*
X141261495Y-103641312D01*
X141347831Y-103699000D01*
X141261495Y-103756688D01*
X141047688Y-103970495D01*
X140879701Y-104221905D01*
X140763989Y-104501257D01*
X140705000Y-104797816D01*
X140705000Y-105100184D01*
X140763989Y-105396743D01*
X140879701Y-105676095D01*
X141047688Y-105927505D01*
X141261495Y-106141312D01*
X141512905Y-106309299D01*
X141792257Y-106425011D01*
X142088816Y-106484000D01*
X142391184Y-106484000D01*
X142687743Y-106425011D01*
X142967095Y-106309299D01*
X143218505Y-106141312D01*
X143432312Y-105927505D01*
X143600299Y-105676095D01*
X143716011Y-105396743D01*
X143775000Y-105100184D01*
X143775000Y-104797816D01*
X143716011Y-104501257D01*
X143600299Y-104221905D01*
X143529462Y-104115890D01*
X195408524Y-104115890D01*
X195453175Y-104263099D01*
X195578359Y-104525920D01*
X195752412Y-104759269D01*
X195968645Y-104954178D01*
X196218748Y-105103157D01*
X196493109Y-105200481D01*
X196723000Y-105079814D01*
X196723000Y-103886000D01*
X196977000Y-103886000D01*
X196977000Y-105079814D01*
X197206891Y-105200481D01*
X197481252Y-105103157D01*
X197731355Y-104954178D01*
X197947588Y-104759269D01*
X198121641Y-104525920D01*
X198246825Y-104263099D01*
X198291476Y-104115890D01*
X198170155Y-103886000D01*
X196977000Y-103886000D01*
X196723000Y-103886000D01*
X195529845Y-103886000D01*
X195408524Y-104115890D01*
X143529462Y-104115890D01*
X143432312Y-103970495D01*
X143218505Y-103756688D01*
X143132169Y-103699000D01*
X143218505Y-103641312D01*
X143432312Y-103427505D01*
X143600299Y-103176095D01*
X143716011Y-102896743D01*
X143775000Y-102600184D01*
X143775000Y-102297816D01*
X143716011Y-102001257D01*
X143600299Y-101721905D01*
X143432312Y-101470495D01*
X143218505Y-101256688D01*
X143132169Y-101199000D01*
X143218505Y-101141312D01*
X143432312Y-100927505D01*
X143600299Y-100676095D01*
X143716011Y-100396743D01*
X143721529Y-100369000D01*
X195361928Y-100369000D01*
X195361928Y-102069000D01*
X195374188Y-102193482D01*
X195410498Y-102313180D01*
X195469463Y-102423494D01*
X195548815Y-102520185D01*
X195645506Y-102599537D01*
X195755820Y-102658502D01*
X195836466Y-102682966D01*
X195752412Y-102758731D01*
X195578359Y-102992080D01*
X195453175Y-103254901D01*
X195408524Y-103402110D01*
X195529845Y-103632000D01*
X196723000Y-103632000D01*
X196723000Y-103612000D01*
X196977000Y-103612000D01*
X196977000Y-103632000D01*
X198170155Y-103632000D01*
X198291476Y-103402110D01*
X198246825Y-103254901D01*
X198121641Y-102992080D01*
X197947588Y-102758731D01*
X197863534Y-102682966D01*
X197944180Y-102658502D01*
X198054494Y-102599537D01*
X198151185Y-102520185D01*
X198230537Y-102423494D01*
X198289502Y-102313180D01*
X198325812Y-102193482D01*
X198338072Y-102069000D01*
X198338072Y-100369000D01*
X198325812Y-100244518D01*
X198289502Y-100124820D01*
X198230537Y-100014506D01*
X198151185Y-99917815D01*
X198054494Y-99838463D01*
X197944180Y-99779498D01*
X197824482Y-99743188D01*
X197700000Y-99730928D01*
X196000000Y-99730928D01*
X195875518Y-99743188D01*
X195755820Y-99779498D01*
X195645506Y-99838463D01*
X195548815Y-99917815D01*
X195469463Y-100014506D01*
X195410498Y-100124820D01*
X195374188Y-100244518D01*
X195361928Y-100369000D01*
X143721529Y-100369000D01*
X143775000Y-100100184D01*
X143775000Y-99797816D01*
X143716011Y-99501257D01*
X143600299Y-99221905D01*
X143432312Y-98970495D01*
X143218505Y-98756688D01*
X142967095Y-98588701D01*
X142687743Y-98472989D01*
X142391184Y-98414000D01*
X142088816Y-98414000D01*
X141792257Y-98472989D01*
X141512905Y-98588701D01*
X141261495Y-98756688D01*
X141047688Y-98970495D01*
X140879701Y-99221905D01*
X140763989Y-99501257D01*
X140705000Y-99797816D01*
X137217637Y-99797816D01*
X137286738Y-99728715D01*
X137575107Y-99297141D01*
X137773739Y-98817601D01*
X137875000Y-98308525D01*
X137875000Y-97789475D01*
X137773739Y-97280399D01*
X137575107Y-96800859D01*
X137286738Y-96369285D01*
X136919715Y-96002262D01*
X136488141Y-95713893D01*
X136008601Y-95515261D01*
X135499525Y-95414000D01*
X134980475Y-95414000D01*
X134471399Y-95515261D01*
X133991859Y-95713893D01*
X133560285Y-96002262D01*
X133193262Y-96369285D01*
X132904893Y-96800859D01*
X132706261Y-97280399D01*
X132605000Y-97789475D01*
X102240000Y-97789475D01*
X102240000Y-88345001D01*
X177205000Y-88345001D01*
X177205000Y-89454999D01*
X177421550Y-90543669D01*
X177846328Y-91569173D01*
X178463010Y-92492103D01*
X179247897Y-93276990D01*
X180170827Y-93893672D01*
X181196331Y-94318450D01*
X182285001Y-94535000D01*
X183394999Y-94535000D01*
X184483669Y-94318450D01*
X185509173Y-93893672D01*
X186432103Y-93276990D01*
X187216990Y-92492103D01*
X187833672Y-91569173D01*
X188258450Y-90543669D01*
X188475000Y-89454999D01*
X188475000Y-88345001D01*
X188258450Y-87256331D01*
X187833672Y-86230827D01*
X187216990Y-85307897D01*
X186432103Y-84523010D01*
X185509173Y-83906328D01*
X184483669Y-83481550D01*
X183394999Y-83265000D01*
X182285001Y-83265000D01*
X181196331Y-83481550D01*
X180170827Y-83906328D01*
X179247897Y-84523010D01*
X178463010Y-85307897D01*
X177846328Y-86230827D01*
X177421550Y-87256331D01*
X177205000Y-88345001D01*
X102240000Y-88345001D01*
X102240000Y-83793767D01*
X102488373Y-84393392D01*
X102962786Y-85103401D01*
X103566599Y-85707214D01*
X104276608Y-86181627D01*
X105065527Y-86508408D01*
X105903040Y-86675000D01*
X106756960Y-86675000D01*
X107594473Y-86508408D01*
X108383392Y-86181627D01*
X109093401Y-85707214D01*
X109697214Y-85103401D01*
X110171627Y-84393392D01*
X110498408Y-83604473D01*
X110665000Y-82766960D01*
X110665000Y-81913040D01*
X110498408Y-81075527D01*
X110171627Y-80286608D01*
X110097721Y-80175999D01*
X152796928Y-80175999D01*
X152796928Y-81876001D01*
X152813992Y-82049255D01*
X152864528Y-82215851D01*
X152946595Y-82369387D01*
X153057038Y-82503962D01*
X153191613Y-82614405D01*
X153345149Y-82696472D01*
X153511745Y-82747008D01*
X153684999Y-82764072D01*
X154925001Y-82764072D01*
X155098255Y-82747008D01*
X155264851Y-82696472D01*
X155418387Y-82614405D01*
X155552962Y-82503962D01*
X155663405Y-82369387D01*
X155721507Y-82260686D01*
X155874506Y-82416536D01*
X156119563Y-82583571D01*
X156392498Y-82699588D01*
X156484969Y-82717302D01*
X156718000Y-82596246D01*
X156718000Y-81153000D01*
X156972000Y-81153000D01*
X156972000Y-82596246D01*
X157205031Y-82717302D01*
X157297502Y-82699588D01*
X157570437Y-82583571D01*
X157815494Y-82416536D01*
X158023256Y-82204903D01*
X158185738Y-81956804D01*
X158296696Y-81681773D01*
X158351866Y-81390380D01*
X158195586Y-81153000D01*
X156972000Y-81153000D01*
X156718000Y-81153000D01*
X156698000Y-81153000D01*
X156698000Y-81026000D01*
X161067815Y-81026000D01*
X161096487Y-81317111D01*
X161181401Y-81597034D01*
X161319294Y-81855014D01*
X161504866Y-82081134D01*
X161730986Y-82266706D01*
X161988966Y-82404599D01*
X162268889Y-82489513D01*
X162487050Y-82511000D01*
X162632950Y-82511000D01*
X162851111Y-82489513D01*
X163131034Y-82404599D01*
X163389014Y-82266706D01*
X163615134Y-82081134D01*
X163639607Y-82051313D01*
X163660498Y-82120180D01*
X163719463Y-82230494D01*
X163798815Y-82327185D01*
X163895506Y-82406537D01*
X164005820Y-82465502D01*
X164125518Y-82501812D01*
X164250000Y-82514072D01*
X164814250Y-82511000D01*
X164973000Y-82352250D01*
X164973000Y-81153000D01*
X165227000Y-81153000D01*
X165227000Y-82352250D01*
X165385750Y-82511000D01*
X165950000Y-82514072D01*
X166074482Y-82501812D01*
X166194180Y-82465502D01*
X166304494Y-82406537D01*
X166401185Y-82327185D01*
X166480537Y-82230494D01*
X166539502Y-82120180D01*
X166575812Y-82000482D01*
X166588072Y-81876000D01*
X166585000Y-81311750D01*
X166426250Y-81153000D01*
X165227000Y-81153000D01*
X164973000Y-81153000D01*
X164953000Y-81153000D01*
X164953000Y-80899000D01*
X164973000Y-80899000D01*
X164973000Y-79699750D01*
X165227000Y-79699750D01*
X165227000Y-80899000D01*
X166426250Y-80899000D01*
X166585000Y-80740250D01*
X166588072Y-80176000D01*
X166575812Y-80051518D01*
X166539502Y-79931820D01*
X166480537Y-79821506D01*
X166401185Y-79724815D01*
X166304494Y-79645463D01*
X166194180Y-79586498D01*
X166074482Y-79550188D01*
X165950000Y-79537928D01*
X165385750Y-79541000D01*
X165227000Y-79699750D01*
X164973000Y-79699750D01*
X164814250Y-79541000D01*
X164250000Y-79537928D01*
X164125518Y-79550188D01*
X164005820Y-79586498D01*
X163895506Y-79645463D01*
X163798815Y-79724815D01*
X163719463Y-79821506D01*
X163660498Y-79931820D01*
X163639607Y-80000687D01*
X163615134Y-79970866D01*
X163389014Y-79785294D01*
X163131034Y-79647401D01*
X162851111Y-79562487D01*
X162632950Y-79541000D01*
X162487050Y-79541000D01*
X162268889Y-79562487D01*
X161988966Y-79647401D01*
X161730986Y-79785294D01*
X161504866Y-79970866D01*
X161319294Y-80196986D01*
X161181401Y-80454966D01*
X161096487Y-80734889D01*
X161067815Y-81026000D01*
X156698000Y-81026000D01*
X156698000Y-80899000D01*
X156718000Y-80899000D01*
X156718000Y-79455754D01*
X156972000Y-79455754D01*
X156972000Y-80899000D01*
X158195586Y-80899000D01*
X158351866Y-80661620D01*
X158296696Y-80370227D01*
X158185738Y-80095196D01*
X158023256Y-79847097D01*
X157815494Y-79635464D01*
X157570437Y-79468429D01*
X157297502Y-79352412D01*
X157205031Y-79334698D01*
X156972000Y-79455754D01*
X156718000Y-79455754D01*
X156484969Y-79334698D01*
X156392498Y-79352412D01*
X156119563Y-79468429D01*
X155874506Y-79635464D01*
X155721507Y-79791314D01*
X155663405Y-79682613D01*
X155552962Y-79548038D01*
X155418387Y-79437595D01*
X155264851Y-79355528D01*
X155098255Y-79304992D01*
X154925001Y-79287928D01*
X153684999Y-79287928D01*
X153511745Y-79304992D01*
X153345149Y-79355528D01*
X153191613Y-79437595D01*
X153057038Y-79548038D01*
X152946595Y-79682613D01*
X152864528Y-79836149D01*
X152813992Y-80002745D01*
X152796928Y-80175999D01*
X110097721Y-80175999D01*
X109697214Y-79576599D01*
X109093401Y-78972786D01*
X108383392Y-78498373D01*
X107783767Y-78250000D01*
X195376233Y-78250000D01*
X194776608Y-78498373D01*
X194776608Y-78498373D01*
G37*
X194776608Y-78498373D02*
X194066599Y-78972786D01*
X193462786Y-79576599D01*
X192988373Y-80286608D01*
X192661592Y-81075527D01*
X192495000Y-81913040D01*
X192495000Y-82766960D01*
X192661592Y-83604473D01*
X192988373Y-84393392D01*
X193462786Y-85103401D01*
X194066599Y-85707214D01*
X194776608Y-86181627D01*
X195565527Y-86508408D01*
X196403040Y-86675000D01*
X197256960Y-86675000D01*
X198094473Y-86508408D01*
X198883392Y-86181627D01*
X199593401Y-85707214D01*
X200197214Y-85103401D01*
X200671627Y-84393392D01*
X200920001Y-83793764D01*
X200920000Y-121386233D01*
X200671627Y-120786608D01*
X200197214Y-120076599D01*
X199593401Y-119472786D01*
X198883392Y-118998373D01*
X198094473Y-118671592D01*
X197256960Y-118505000D01*
X196403040Y-118505000D01*
X195565527Y-118671592D01*
X194776608Y-118998373D01*
X194066599Y-119472786D01*
X193462786Y-120076599D01*
X192988373Y-120786608D01*
X192661592Y-121575527D01*
X192495000Y-122413040D01*
X192495000Y-123266960D01*
X192661592Y-124104473D01*
X192988373Y-124893392D01*
X193462786Y-125603401D01*
X194066599Y-126207214D01*
X194776608Y-126681627D01*
X195376233Y-126930000D01*
X107783767Y-126930000D01*
X108383392Y-126681627D01*
X109093401Y-126207214D01*
X109697214Y-125603401D01*
X110171627Y-124893392D01*
X110498408Y-124104473D01*
X110665000Y-123266960D01*
X110665000Y-122413040D01*
X110498408Y-121575527D01*
X110344931Y-121204999D01*
X144584928Y-121204999D01*
X144584928Y-121855001D01*
X144601992Y-122028255D01*
X144652528Y-122194851D01*
X144734595Y-122348387D01*
X144845038Y-122482962D01*
X144932816Y-122555000D01*
X144845038Y-122627038D01*
X144734595Y-122761613D01*
X144652528Y-122915149D01*
X144601992Y-123081745D01*
X144584928Y-123254999D01*
X144584928Y-123905001D01*
X144601992Y-124078255D01*
X144652528Y-124244851D01*
X144734595Y-124398387D01*
X144845038Y-124532962D01*
X144979613Y-124643405D01*
X145133149Y-124725472D01*
X145299745Y-124776008D01*
X145472999Y-124793072D01*
X146373001Y-124793072D01*
X146546255Y-124776008D01*
X146712851Y-124725472D01*
X146866387Y-124643405D01*
X147000962Y-124532962D01*
X147111405Y-124398387D01*
X147193472Y-124244851D01*
X147244008Y-124078255D01*
X147261072Y-123905001D01*
X147261072Y-123624990D01*
X147315277Y-123624990D01*
X147305000Y-123729335D01*
X147305000Y-124650664D01*
X147322870Y-124832101D01*
X147393489Y-125064900D01*
X147508167Y-125279448D01*
X147662498Y-125467502D01*
X147850551Y-125621833D01*
X148065099Y-125736511D01*
X148297898Y-125807130D01*
X148540000Y-125830975D01*
X148782101Y-125807130D01*
X149014900Y-125736511D01*
X149229448Y-125621833D01*
X149417502Y-125467502D01*
X149540000Y-125318237D01*
X149662498Y-125467502D01*
X149850551Y-125621833D01*
X150065099Y-125736511D01*
X150297898Y-125807130D01*
X150540000Y-125830975D01*
X150782101Y-125807130D01*
X151014900Y-125736511D01*
X151229448Y-125621833D01*
X151417502Y-125467502D01*
X151571833Y-125279449D01*
X151686511Y-125064901D01*
X151757130Y-124832102D01*
X151762772Y-124774820D01*
X151823884Y-124824974D01*
X151869870Y-124849554D01*
X151955914Y-124895546D01*
X152099175Y-124939003D01*
X152210828Y-124950000D01*
X152210837Y-124950000D01*
X152248160Y-124953676D01*
X152285483Y-124950000D01*
X153358634Y-124950000D01*
X153393489Y-125064900D01*
X153508167Y-125279448D01*
X153662498Y-125467502D01*
X153850551Y-125621833D01*
X154065099Y-125736511D01*
X154297898Y-125807130D01*
X154540000Y-125830975D01*
X154782101Y-125807130D01*
X155014900Y-125736511D01*
X155229448Y-125621833D01*
X155417502Y-125467502D01*
X155540000Y-125318237D01*
X155662498Y-125467502D01*
X155850551Y-125621833D01*
X156065099Y-125736511D01*
X156297898Y-125807130D01*
X156540000Y-125830975D01*
X156782101Y-125807130D01*
X157014900Y-125736511D01*
X157229448Y-125621833D01*
X157417502Y-125467502D01*
X157571833Y-125279449D01*
X157686511Y-125064901D01*
X157757130Y-124832102D01*
X157775000Y-124650665D01*
X157775000Y-123729336D01*
X157757130Y-123547899D01*
X157686511Y-123315099D01*
X157571833Y-123100551D01*
X157417502Y-122912498D01*
X157229449Y-122758167D01*
X157014901Y-122643489D01*
X156782102Y-122572870D01*
X156540000Y-122549025D01*
X156297899Y-122572870D01*
X156065100Y-122643489D01*
X155850552Y-122758167D01*
X155662499Y-122912498D01*
X155540001Y-123061763D01*
X155417502Y-122912498D01*
X155229449Y-122758167D01*
X155014901Y-122643489D01*
X154782102Y-122572870D01*
X154540000Y-122549025D01*
X154297899Y-122572870D01*
X154065100Y-122643489D01*
X153850552Y-122758167D01*
X153662499Y-122912498D01*
X153508168Y-123100551D01*
X153393489Y-123315099D01*
X153358634Y-123430000D01*
X152562963Y-123430000D01*
X151486955Y-122353993D01*
X151463152Y-122324989D01*
X151347427Y-122230016D01*
X151343734Y-122228042D01*
X151417502Y-122167502D01*
X151571833Y-121979449D01*
X151686511Y-121764901D01*
X151757130Y-121532102D01*
X151775000Y-121350665D01*
X151775000Y-121017000D01*
X153305000Y-121017000D01*
X153305000Y-121417000D01*
X153353507Y-121655496D01*
X153447610Y-121879946D01*
X153583693Y-122081725D01*
X153756526Y-122253078D01*
X153959467Y-122387421D01*
X154184718Y-122479591D01*
X154222391Y-122483462D01*
X154413000Y-122358731D01*
X154413000Y-121017000D01*
X153305000Y-121017000D01*
X151775000Y-121017000D01*
X151775000Y-120429336D01*
X151768467Y-120363000D01*
X153305000Y-120363000D01*
X153305000Y-120763000D01*
X154413000Y-120763000D01*
X154413000Y-119421269D01*
X154667000Y-119421269D01*
X154667000Y-120763000D01*
X154687000Y-120763000D01*
X154687000Y-121017000D01*
X154667000Y-121017000D01*
X154667000Y-122358731D01*
X154857609Y-122483462D01*
X154895282Y-122479591D01*
X155120533Y-122387421D01*
X155323474Y-122253078D01*
X155496307Y-122081725D01*
X155539519Y-122017651D01*
X155662498Y-122167502D01*
X155850551Y-122321833D01*
X156065099Y-122436511D01*
X156297898Y-122507130D01*
X156540000Y-122530975D01*
X156782101Y-122507130D01*
X157014900Y-122436511D01*
X157229448Y-122321833D01*
X157417502Y-122167502D01*
X157571833Y-121979449D01*
X157686511Y-121764901D01*
X157757130Y-121532102D01*
X157775000Y-121350665D01*
X157775000Y-120429336D01*
X157757130Y-120247899D01*
X157738153Y-120185339D01*
X179079266Y-120185339D01*
X179655387Y-120859365D01*
X180625368Y-121399024D01*
X181681994Y-121739079D01*
X182784659Y-121866462D01*
X183890987Y-121776279D01*
X184958464Y-121471994D01*
X185946067Y-120965302D01*
X186104613Y-120859365D01*
X186680734Y-120185339D01*
X182880000Y-116384605D01*
X179079266Y-120185339D01*
X157738153Y-120185339D01*
X157686511Y-120015099D01*
X157571833Y-119800551D01*
X157417502Y-119612498D01*
X157229449Y-119458167D01*
X157014901Y-119343489D01*
X156782102Y-119272870D01*
X156540000Y-119249025D01*
X156297899Y-119272870D01*
X156065100Y-119343489D01*
X155850552Y-119458167D01*
X155662499Y-119612498D01*
X155539520Y-119762349D01*
X155496307Y-119698275D01*
X155323474Y-119526922D01*
X155120533Y-119392579D01*
X154895282Y-119300409D01*
X154857609Y-119296538D01*
X154667000Y-119421269D01*
X154413000Y-119421269D01*
X154222391Y-119296538D01*
X154184718Y-119300409D01*
X153959467Y-119392579D01*
X153756526Y-119526922D01*
X153583693Y-119698275D01*
X153447610Y-119900054D01*
X153353507Y-120124504D01*
X153305000Y-120363000D01*
X151768467Y-120363000D01*
X151757130Y-120247899D01*
X151686511Y-120015099D01*
X151571833Y-119800551D01*
X151417502Y-119612498D01*
X151229449Y-119458167D01*
X151014901Y-119343489D01*
X150782102Y-119272870D01*
X150540000Y-119249025D01*
X150297899Y-119272870D01*
X150065100Y-119343489D01*
X149850552Y-119458167D01*
X149662499Y-119612498D01*
X149540001Y-119761763D01*
X149417502Y-119612498D01*
X149229449Y-119458167D01*
X149014901Y-119343489D01*
X148782102Y-119272870D01*
X148540000Y-119249025D01*
X148297899Y-119272870D01*
X148065100Y-119343489D01*
X147850552Y-119458167D01*
X147662499Y-119612498D01*
X147508168Y-119800551D01*
X147393489Y-120015099D01*
X147322870Y-120247898D01*
X147305000Y-120429335D01*
X147305000Y-121350664D01*
X147322870Y-121532101D01*
X147393489Y-121764900D01*
X147508167Y-121979448D01*
X147611196Y-122104990D01*
X147220731Y-122104990D01*
X147244008Y-122028255D01*
X147261072Y-121855001D01*
X147261072Y-121204999D01*
X147244008Y-121031745D01*
X147193472Y-120865149D01*
X147111405Y-120711613D01*
X147000962Y-120577038D01*
X146866387Y-120466595D01*
X146803602Y-120433036D01*
X146840205Y-120378256D01*
X146918226Y-120189898D01*
X146958000Y-119989939D01*
X146958000Y-119786061D01*
X146918226Y-119586102D01*
X146840205Y-119397744D01*
X146726937Y-119228226D01*
X146582774Y-119084063D01*
X146413256Y-118970795D01*
X146224898Y-118892774D01*
X146024939Y-118853000D01*
X145821061Y-118853000D01*
X145621102Y-118892774D01*
X145432744Y-118970795D01*
X145263226Y-119084063D01*
X145119063Y-119228226D01*
X145005795Y-119397744D01*
X144927774Y-119586102D01*
X144888000Y-119786061D01*
X144888000Y-119989939D01*
X144927774Y-120189898D01*
X145005795Y-120378256D01*
X145042398Y-120433036D01*
X144979613Y-120466595D01*
X144845038Y-120577038D01*
X144734595Y-120711613D01*
X144652528Y-120865149D01*
X144601992Y-121031745D01*
X144584928Y-121204999D01*
X110344931Y-121204999D01*
X110171627Y-120786608D01*
X109697214Y-120076599D01*
X109093401Y-119472786D01*
X108383392Y-118998373D01*
X107594473Y-118671592D01*
X106756960Y-118505000D01*
X105903040Y-118505000D01*
X105065527Y-118671592D01*
X104276608Y-118998373D01*
X103566599Y-119472786D01*
X102962786Y-120076599D01*
X102488373Y-120786608D01*
X102240000Y-121386233D01*
X102240000Y-116109659D01*
X177218538Y-116109659D01*
X177308721Y-117215987D01*
X177613006Y-118283464D01*
X178119698Y-119271067D01*
X178225635Y-119429613D01*
X178899661Y-120005734D01*
X182700395Y-116205000D01*
X183059605Y-116205000D01*
X186860339Y-120005734D01*
X187534365Y-119429613D01*
X188074024Y-118459632D01*
X188414079Y-117403006D01*
X188541462Y-116300341D01*
X188451279Y-115194013D01*
X188146994Y-114126536D01*
X187640302Y-113138933D01*
X187534365Y-112980387D01*
X186860339Y-112404266D01*
X183059605Y-116205000D01*
X182700395Y-116205000D01*
X178899661Y-112404266D01*
X178225635Y-112980387D01*
X177685976Y-113950368D01*
X177345921Y-115006994D01*
X177218538Y-116109659D01*
X102240000Y-116109659D01*
X102240000Y-111023061D01*
X169780000Y-111023061D01*
X169780000Y-111226939D01*
X169819774Y-111426898D01*
X169897795Y-111615256D01*
X169994510Y-111760000D01*
X169897795Y-111904744D01*
X169819774Y-112093102D01*
X169780000Y-112293061D01*
X169780000Y-112496939D01*
X169819774Y-112696898D01*
X169897795Y-112885256D01*
X170011063Y-113054774D01*
X170155226Y-113198937D01*
X170324744Y-113312205D01*
X170513102Y-113390226D01*
X170713061Y-113430000D01*
X170916939Y-113430000D01*
X171116898Y-113390226D01*
X171305256Y-113312205D01*
X171474774Y-113198937D01*
X171518711Y-113155000D01*
X174011498Y-113155000D01*
X174055236Y-113198738D01*
X174224754Y-113312006D01*
X174413112Y-113390027D01*
X174613071Y-113429801D01*
X174816949Y-113429801D01*
X175016908Y-113390027D01*
X175205266Y-113312006D01*
X175374784Y-113198738D01*
X175518947Y-113054575D01*
X175632215Y-112885057D01*
X175710236Y-112696699D01*
X175750010Y-112496740D01*
X175750010Y-112292862D01*
X175736445Y-112224661D01*
X179079266Y-112224661D01*
X182880000Y-116025395D01*
X186680734Y-112224661D01*
X186104613Y-111550635D01*
X185134632Y-111010976D01*
X184078006Y-110670921D01*
X182975341Y-110543538D01*
X181869013Y-110633721D01*
X180801536Y-110938006D01*
X179813933Y-111444698D01*
X179655387Y-111550635D01*
X179079266Y-112224661D01*
X175736445Y-112224661D01*
X175710236Y-112092903D01*
X175632215Y-111904545D01*
X175518947Y-111735027D01*
X175374784Y-111590864D01*
X175205266Y-111477596D01*
X175016908Y-111399575D01*
X174816949Y-111359801D01*
X174613071Y-111359801D01*
X174413112Y-111399575D01*
X174224754Y-111477596D01*
X174055236Y-111590864D01*
X174011100Y-111635000D01*
X173624007Y-111635000D01*
X173637199Y-111615256D01*
X173715220Y-111426898D01*
X173754994Y-111226939D01*
X173754994Y-111023061D01*
X173715220Y-110823102D01*
X173637199Y-110634744D01*
X173523931Y-110465226D01*
X173379768Y-110321063D01*
X173210250Y-110207795D01*
X173021892Y-110129774D01*
X172821933Y-110090000D01*
X172618055Y-110090000D01*
X172418096Y-110129774D01*
X172229738Y-110207795D01*
X172060220Y-110321063D01*
X172016283Y-110365000D01*
X171518711Y-110365000D01*
X171474774Y-110321063D01*
X171305256Y-110207795D01*
X171116898Y-110129774D01*
X170916939Y-110090000D01*
X170713061Y-110090000D01*
X170513102Y-110129774D01*
X170324744Y-110207795D01*
X170155226Y-110321063D01*
X170011063Y-110465226D01*
X169897795Y-110634744D01*
X169819774Y-110823102D01*
X169780000Y-111023061D01*
X102240000Y-111023061D01*
X102240000Y-106589475D01*
X132605000Y-106589475D01*
X132605000Y-107108525D01*
X132706261Y-107617601D01*
X132904893Y-108097141D01*
X133193262Y-108528715D01*
X133560285Y-108895738D01*
X133991859Y-109184107D01*
X134471399Y-109382739D01*
X134980475Y-109484000D01*
X135499525Y-109484000D01*
X136008601Y-109382739D01*
X136488141Y-109184107D01*
X136919715Y-108895738D01*
X137286738Y-108528715D01*
X137575107Y-108097141D01*
X137773739Y-107617601D01*
X137875000Y-107108525D01*
X137875000Y-106589475D01*
X137773739Y-106080399D01*
X137575107Y-105600859D01*
X137286738Y-105169285D01*
X136919715Y-104802262D01*
X136488141Y-104513893D01*
X136008601Y-104315261D01*
X135499525Y-104214000D01*
X134980475Y-104214000D01*
X134471399Y-104315261D01*
X133991859Y-104513893D01*
X133560285Y-104802262D01*
X133193262Y-105169285D01*
X132904893Y-105600859D01*
X132706261Y-106080399D01*
X132605000Y-106589475D01*
X102240000Y-106589475D01*
X102240000Y-97789475D01*
X132605000Y-97789475D01*
X132605000Y-98308525D01*
X132706261Y-98817601D01*
X132904893Y-99297141D01*
X133193262Y-99728715D01*
X133560285Y-100095738D01*
X133991859Y-100384107D01*
X134471399Y-100582739D01*
X134980475Y-100684000D01*
X135499525Y-100684000D01*
X136008601Y-100582739D01*
X136488141Y-100384107D01*
X136919715Y-100095738D01*
X137217637Y-99797816D01*
X140705000Y-99797816D01*
X140705000Y-100100184D01*
X140763989Y-100396743D01*
X140879701Y-100676095D01*
X141047688Y-100927505D01*
X141261495Y-101141312D01*
X141347831Y-101199000D01*
X141261495Y-101256688D01*
X141047688Y-101470495D01*
X140879701Y-101721905D01*
X140763989Y-102001257D01*
X140705000Y-102297816D01*
X140705000Y-102600184D01*
X140763989Y-102896743D01*
X140879701Y-103176095D01*
X141047688Y-103427505D01*
X141261495Y-103641312D01*
X141347831Y-103699000D01*
X141261495Y-103756688D01*
X141047688Y-103970495D01*
X140879701Y-104221905D01*
X140763989Y-104501257D01*
X140705000Y-104797816D01*
X140705000Y-105100184D01*
X140763989Y-105396743D01*
X140879701Y-105676095D01*
X141047688Y-105927505D01*
X141261495Y-106141312D01*
X141512905Y-106309299D01*
X141792257Y-106425011D01*
X142088816Y-106484000D01*
X142391184Y-106484000D01*
X142687743Y-106425011D01*
X142967095Y-106309299D01*
X143218505Y-106141312D01*
X143432312Y-105927505D01*
X143600299Y-105676095D01*
X143716011Y-105396743D01*
X143775000Y-105100184D01*
X143775000Y-104797816D01*
X143716011Y-104501257D01*
X143600299Y-104221905D01*
X143529462Y-104115890D01*
X195408524Y-104115890D01*
X195453175Y-104263099D01*
X195578359Y-104525920D01*
X195752412Y-104759269D01*
X195968645Y-104954178D01*
X196218748Y-105103157D01*
X196493109Y-105200481D01*
X196723000Y-105079814D01*
X196723000Y-103886000D01*
X196977000Y-103886000D01*
X196977000Y-105079814D01*
X197206891Y-105200481D01*
X197481252Y-105103157D01*
X197731355Y-104954178D01*
X197947588Y-104759269D01*
X198121641Y-104525920D01*
X198246825Y-104263099D01*
X198291476Y-104115890D01*
X198170155Y-103886000D01*
X196977000Y-103886000D01*
X196723000Y-103886000D01*
X195529845Y-103886000D01*
X195408524Y-104115890D01*
X143529462Y-104115890D01*
X143432312Y-103970495D01*
X143218505Y-103756688D01*
X143132169Y-103699000D01*
X143218505Y-103641312D01*
X143432312Y-103427505D01*
X143600299Y-103176095D01*
X143716011Y-102896743D01*
X143775000Y-102600184D01*
X143775000Y-102297816D01*
X143716011Y-102001257D01*
X143600299Y-101721905D01*
X143432312Y-101470495D01*
X143218505Y-101256688D01*
X143132169Y-101199000D01*
X143218505Y-101141312D01*
X143432312Y-100927505D01*
X143600299Y-100676095D01*
X143716011Y-100396743D01*
X143721529Y-100369000D01*
X195361928Y-100369000D01*
X195361928Y-102069000D01*
X195374188Y-102193482D01*
X195410498Y-102313180D01*
X195469463Y-102423494D01*
X195548815Y-102520185D01*
X195645506Y-102599537D01*
X195755820Y-102658502D01*
X195836466Y-102682966D01*
X195752412Y-102758731D01*
X195578359Y-102992080D01*
X195453175Y-103254901D01*
X195408524Y-103402110D01*
X195529845Y-103632000D01*
X196723000Y-103632000D01*
X196723000Y-103612000D01*
X196977000Y-103612000D01*
X196977000Y-103632000D01*
X198170155Y-103632000D01*
X198291476Y-103402110D01*
X198246825Y-103254901D01*
X198121641Y-102992080D01*
X197947588Y-102758731D01*
X197863534Y-102682966D01*
X197944180Y-102658502D01*
X198054494Y-102599537D01*
X198151185Y-102520185D01*
X198230537Y-102423494D01*
X198289502Y-102313180D01*
X198325812Y-102193482D01*
X198338072Y-102069000D01*
X198338072Y-100369000D01*
X198325812Y-100244518D01*
X198289502Y-100124820D01*
X198230537Y-100014506D01*
X198151185Y-99917815D01*
X198054494Y-99838463D01*
X197944180Y-99779498D01*
X197824482Y-99743188D01*
X197700000Y-99730928D01*
X196000000Y-99730928D01*
X195875518Y-99743188D01*
X195755820Y-99779498D01*
X195645506Y-99838463D01*
X195548815Y-99917815D01*
X195469463Y-100014506D01*
X195410498Y-100124820D01*
X195374188Y-100244518D01*
X195361928Y-100369000D01*
X143721529Y-100369000D01*
X143775000Y-100100184D01*
X143775000Y-99797816D01*
X143716011Y-99501257D01*
X143600299Y-99221905D01*
X143432312Y-98970495D01*
X143218505Y-98756688D01*
X142967095Y-98588701D01*
X142687743Y-98472989D01*
X142391184Y-98414000D01*
X142088816Y-98414000D01*
X141792257Y-98472989D01*
X141512905Y-98588701D01*
X141261495Y-98756688D01*
X141047688Y-98970495D01*
X140879701Y-99221905D01*
X140763989Y-99501257D01*
X140705000Y-99797816D01*
X137217637Y-99797816D01*
X137286738Y-99728715D01*
X137575107Y-99297141D01*
X137773739Y-98817601D01*
X137875000Y-98308525D01*
X137875000Y-97789475D01*
X137773739Y-97280399D01*
X137575107Y-96800859D01*
X137286738Y-96369285D01*
X136919715Y-96002262D01*
X136488141Y-95713893D01*
X136008601Y-95515261D01*
X135499525Y-95414000D01*
X134980475Y-95414000D01*
X134471399Y-95515261D01*
X133991859Y-95713893D01*
X133560285Y-96002262D01*
X133193262Y-96369285D01*
X132904893Y-96800859D01*
X132706261Y-97280399D01*
X132605000Y-97789475D01*
X102240000Y-97789475D01*
X102240000Y-88345001D01*
X177205000Y-88345001D01*
X177205000Y-89454999D01*
X177421550Y-90543669D01*
X177846328Y-91569173D01*
X178463010Y-92492103D01*
X179247897Y-93276990D01*
X180170827Y-93893672D01*
X181196331Y-94318450D01*
X182285001Y-94535000D01*
X183394999Y-94535000D01*
X184483669Y-94318450D01*
X185509173Y-93893672D01*
X186432103Y-93276990D01*
X187216990Y-92492103D01*
X187833672Y-91569173D01*
X188258450Y-90543669D01*
X188475000Y-89454999D01*
X188475000Y-88345001D01*
X188258450Y-87256331D01*
X187833672Y-86230827D01*
X187216990Y-85307897D01*
X186432103Y-84523010D01*
X185509173Y-83906328D01*
X184483669Y-83481550D01*
X183394999Y-83265000D01*
X182285001Y-83265000D01*
X181196331Y-83481550D01*
X180170827Y-83906328D01*
X179247897Y-84523010D01*
X178463010Y-85307897D01*
X177846328Y-86230827D01*
X177421550Y-87256331D01*
X177205000Y-88345001D01*
X102240000Y-88345001D01*
X102240000Y-83793767D01*
X102488373Y-84393392D01*
X102962786Y-85103401D01*
X103566599Y-85707214D01*
X104276608Y-86181627D01*
X105065527Y-86508408D01*
X105903040Y-86675000D01*
X106756960Y-86675000D01*
X107594473Y-86508408D01*
X108383392Y-86181627D01*
X109093401Y-85707214D01*
X109697214Y-85103401D01*
X110171627Y-84393392D01*
X110498408Y-83604473D01*
X110665000Y-82766960D01*
X110665000Y-81913040D01*
X110498408Y-81075527D01*
X110171627Y-80286608D01*
X110097721Y-80175999D01*
X152796928Y-80175999D01*
X152796928Y-81876001D01*
X152813992Y-82049255D01*
X152864528Y-82215851D01*
X152946595Y-82369387D01*
X153057038Y-82503962D01*
X153191613Y-82614405D01*
X153345149Y-82696472D01*
X153511745Y-82747008D01*
X153684999Y-82764072D01*
X154925001Y-82764072D01*
X155098255Y-82747008D01*
X155264851Y-82696472D01*
X155418387Y-82614405D01*
X155552962Y-82503962D01*
X155663405Y-82369387D01*
X155721507Y-82260686D01*
X155874506Y-82416536D01*
X156119563Y-82583571D01*
X156392498Y-82699588D01*
X156484969Y-82717302D01*
X156718000Y-82596246D01*
X156718000Y-81153000D01*
X156972000Y-81153000D01*
X156972000Y-82596246D01*
X157205031Y-82717302D01*
X157297502Y-82699588D01*
X157570437Y-82583571D01*
X157815494Y-82416536D01*
X158023256Y-82204903D01*
X158185738Y-81956804D01*
X158296696Y-81681773D01*
X158351866Y-81390380D01*
X158195586Y-81153000D01*
X156972000Y-81153000D01*
X156718000Y-81153000D01*
X156698000Y-81153000D01*
X156698000Y-81026000D01*
X161067815Y-81026000D01*
X161096487Y-81317111D01*
X161181401Y-81597034D01*
X161319294Y-81855014D01*
X161504866Y-82081134D01*
X161730986Y-82266706D01*
X161988966Y-82404599D01*
X162268889Y-82489513D01*
X162487050Y-82511000D01*
X162632950Y-82511000D01*
X162851111Y-82489513D01*
X163131034Y-82404599D01*
X163389014Y-82266706D01*
X163615134Y-82081134D01*
X163639607Y-82051313D01*
X163660498Y-82120180D01*
X163719463Y-82230494D01*
X163798815Y-82327185D01*
X163895506Y-82406537D01*
X164005820Y-82465502D01*
X164125518Y-82501812D01*
X164250000Y-82514072D01*
X164814250Y-82511000D01*
X164973000Y-82352250D01*
X164973000Y-81153000D01*
X165227000Y-81153000D01*
X165227000Y-82352250D01*
X165385750Y-82511000D01*
X165950000Y-82514072D01*
X166074482Y-82501812D01*
X166194180Y-82465502D01*
X166304494Y-82406537D01*
X166401185Y-82327185D01*
X166480537Y-82230494D01*
X166539502Y-82120180D01*
X166575812Y-82000482D01*
X166588072Y-81876000D01*
X166585000Y-81311750D01*
X166426250Y-81153000D01*
X165227000Y-81153000D01*
X164973000Y-81153000D01*
X164953000Y-81153000D01*
X164953000Y-80899000D01*
X164973000Y-80899000D01*
X164973000Y-79699750D01*
X165227000Y-79699750D01*
X165227000Y-80899000D01*
X166426250Y-80899000D01*
X166585000Y-80740250D01*
X166588072Y-80176000D01*
X166575812Y-80051518D01*
X166539502Y-79931820D01*
X166480537Y-79821506D01*
X166401185Y-79724815D01*
X166304494Y-79645463D01*
X166194180Y-79586498D01*
X166074482Y-79550188D01*
X165950000Y-79537928D01*
X165385750Y-79541000D01*
X165227000Y-79699750D01*
X164973000Y-79699750D01*
X164814250Y-79541000D01*
X164250000Y-79537928D01*
X164125518Y-79550188D01*
X164005820Y-79586498D01*
X163895506Y-79645463D01*
X163798815Y-79724815D01*
X163719463Y-79821506D01*
X163660498Y-79931820D01*
X163639607Y-80000687D01*
X163615134Y-79970866D01*
X163389014Y-79785294D01*
X163131034Y-79647401D01*
X162851111Y-79562487D01*
X162632950Y-79541000D01*
X162487050Y-79541000D01*
X162268889Y-79562487D01*
X161988966Y-79647401D01*
X161730986Y-79785294D01*
X161504866Y-79970866D01*
X161319294Y-80196986D01*
X161181401Y-80454966D01*
X161096487Y-80734889D01*
X161067815Y-81026000D01*
X156698000Y-81026000D01*
X156698000Y-80899000D01*
X156718000Y-80899000D01*
X156718000Y-79455754D01*
X156972000Y-79455754D01*
X156972000Y-80899000D01*
X158195586Y-80899000D01*
X158351866Y-80661620D01*
X158296696Y-80370227D01*
X158185738Y-80095196D01*
X158023256Y-79847097D01*
X157815494Y-79635464D01*
X157570437Y-79468429D01*
X157297502Y-79352412D01*
X157205031Y-79334698D01*
X156972000Y-79455754D01*
X156718000Y-79455754D01*
X156484969Y-79334698D01*
X156392498Y-79352412D01*
X156119563Y-79468429D01*
X155874506Y-79635464D01*
X155721507Y-79791314D01*
X155663405Y-79682613D01*
X155552962Y-79548038D01*
X155418387Y-79437595D01*
X155264851Y-79355528D01*
X155098255Y-79304992D01*
X154925001Y-79287928D01*
X153684999Y-79287928D01*
X153511745Y-79304992D01*
X153345149Y-79355528D01*
X153191613Y-79437595D01*
X153057038Y-79548038D01*
X152946595Y-79682613D01*
X152864528Y-79836149D01*
X152813992Y-80002745D01*
X152796928Y-80175999D01*
X110097721Y-80175999D01*
X109697214Y-79576599D01*
X109093401Y-78972786D01*
X108383392Y-78498373D01*
X107783767Y-78250000D01*
X195376233Y-78250000D01*
X194776608Y-78498373D01*
M02*
