G04 #@! TF.GenerationSoftware,KiCad,Pcbnew,(5.1.2-1)-1*
G04 #@! TF.CreationDate,2019-11-25T00:11:11+01:00*
G04 #@! TF.ProjectId,CCLoad,43434c6f-6164-42e6-9b69-6361645f7063,rev?*
G04 #@! TF.SameCoordinates,Original*
G04 #@! TF.FileFunction,Soldermask,Top*
G04 #@! TF.FilePolarity,Negative*
%FSLAX46Y46*%
G04 Gerber Fmt 4.6, Leading zero omitted, Abs format (unit mm)*
G04 Created by KiCad (PCBNEW (5.1.2-1)-1) date 2019-11-25 00:11:11*
%MOMM*%
%LPD*%
G04 APERTURE LIST*
%ADD10C,0.100000*%
G04 APERTURE END LIST*
D10*
G36*
X197682564Y-119185099D02*
G01*
X197924126Y-119233149D01*
X198606765Y-119515907D01*
X199221123Y-119926408D01*
X199743592Y-120448877D01*
X200154093Y-121063235D01*
X200436851Y-121745874D01*
X200466386Y-121894355D01*
X200581000Y-122470557D01*
X200581000Y-123209443D01*
X200515314Y-123539668D01*
X200436851Y-123934126D01*
X200154093Y-124616765D01*
X199743592Y-125231123D01*
X199221123Y-125753592D01*
X198606765Y-126164093D01*
X197924126Y-126446851D01*
X197682564Y-126494901D01*
X197199443Y-126591000D01*
X196460557Y-126591000D01*
X195977436Y-126494901D01*
X195735874Y-126446851D01*
X195053235Y-126164093D01*
X194438877Y-125753592D01*
X193916408Y-125231123D01*
X193505907Y-124616765D01*
X193223149Y-123934126D01*
X193144686Y-123539668D01*
X193079000Y-123209443D01*
X193079000Y-122470557D01*
X193193614Y-121894355D01*
X193223149Y-121745874D01*
X193505907Y-121063235D01*
X193916408Y-120448877D01*
X194438877Y-119926408D01*
X195053235Y-119515907D01*
X195735874Y-119233149D01*
X195977436Y-119185099D01*
X196460557Y-119089000D01*
X197199443Y-119089000D01*
X197682564Y-119185099D01*
X197682564Y-119185099D01*
G37*
G36*
X107182564Y-119185099D02*
G01*
X107424126Y-119233149D01*
X108106765Y-119515907D01*
X108721123Y-119926408D01*
X109243592Y-120448877D01*
X109654093Y-121063235D01*
X109936851Y-121745874D01*
X109966386Y-121894355D01*
X110081000Y-122470557D01*
X110081000Y-123209443D01*
X110015314Y-123539668D01*
X109936851Y-123934126D01*
X109654093Y-124616765D01*
X109243592Y-125231123D01*
X108721123Y-125753592D01*
X108106765Y-126164093D01*
X107424126Y-126446851D01*
X107182564Y-126494901D01*
X106699443Y-126591000D01*
X105960557Y-126591000D01*
X105477436Y-126494901D01*
X105235874Y-126446851D01*
X104553235Y-126164093D01*
X103938877Y-125753592D01*
X103416408Y-125231123D01*
X103005907Y-124616765D01*
X102723149Y-123934126D01*
X102644686Y-123539668D01*
X102579000Y-123209443D01*
X102579000Y-122470557D01*
X102693614Y-121894355D01*
X102723149Y-121745874D01*
X103005907Y-121063235D01*
X103416408Y-120448877D01*
X103938877Y-119926408D01*
X104553235Y-119515907D01*
X105235874Y-119233149D01*
X105477436Y-119185099D01*
X105960557Y-119089000D01*
X106699443Y-119089000D01*
X107182564Y-119185099D01*
X107182564Y-119185099D01*
G37*
G36*
X148667618Y-123148420D02*
G01*
X148748894Y-123173075D01*
X148790336Y-123185646D01*
X148903425Y-123246094D01*
X149002554Y-123327446D01*
X149083906Y-123426575D01*
X149144354Y-123539664D01*
X149144355Y-123539668D01*
X149181580Y-123662382D01*
X149191000Y-123758027D01*
X149191000Y-124621973D01*
X149181580Y-124717618D01*
X149154040Y-124808404D01*
X149144354Y-124840336D01*
X149083906Y-124953425D01*
X149002554Y-125052553D01*
X148903424Y-125133906D01*
X148790335Y-125194354D01*
X148758403Y-125204040D01*
X148667617Y-125231580D01*
X148540000Y-125244149D01*
X148412382Y-125231580D01*
X148321596Y-125204040D01*
X148289664Y-125194354D01*
X148176575Y-125133906D01*
X148077447Y-125052554D01*
X147996094Y-124953424D01*
X147935646Y-124840335D01*
X147925960Y-124808403D01*
X147898420Y-124717617D01*
X147889000Y-124621972D01*
X147889000Y-123758027D01*
X147898420Y-123662382D01*
X147935646Y-123539668D01*
X147935647Y-123539664D01*
X147996095Y-123426575D01*
X148077447Y-123327446D01*
X148176576Y-123246094D01*
X148289665Y-123185646D01*
X148331107Y-123173075D01*
X148412383Y-123148420D01*
X148540000Y-123135851D01*
X148667618Y-123148420D01*
X148667618Y-123148420D01*
G37*
G36*
X150667618Y-123148420D02*
G01*
X150748894Y-123173075D01*
X150790336Y-123185646D01*
X150903425Y-123246094D01*
X151002554Y-123327446D01*
X151083906Y-123426575D01*
X151144354Y-123539664D01*
X151144355Y-123539668D01*
X151181580Y-123662382D01*
X151191000Y-123758027D01*
X151191000Y-124621973D01*
X151181580Y-124717618D01*
X151154040Y-124808404D01*
X151144354Y-124840336D01*
X151083906Y-124953425D01*
X151002554Y-125052553D01*
X150903424Y-125133906D01*
X150790335Y-125194354D01*
X150758403Y-125204040D01*
X150667617Y-125231580D01*
X150540000Y-125244149D01*
X150412382Y-125231580D01*
X150321596Y-125204040D01*
X150289664Y-125194354D01*
X150176575Y-125133906D01*
X150077447Y-125052554D01*
X149996094Y-124953424D01*
X149935646Y-124840335D01*
X149925960Y-124808403D01*
X149898420Y-124717617D01*
X149889000Y-124621972D01*
X149889000Y-123758027D01*
X149898420Y-123662382D01*
X149935646Y-123539668D01*
X149935647Y-123539664D01*
X149996095Y-123426575D01*
X150077447Y-123327446D01*
X150176576Y-123246094D01*
X150289665Y-123185646D01*
X150331107Y-123173075D01*
X150412383Y-123148420D01*
X150540000Y-123135851D01*
X150667618Y-123148420D01*
X150667618Y-123148420D01*
G37*
G36*
X154667618Y-123148420D02*
G01*
X154748894Y-123173075D01*
X154790336Y-123185646D01*
X154903425Y-123246094D01*
X155002554Y-123327446D01*
X155083906Y-123426575D01*
X155144354Y-123539664D01*
X155144355Y-123539668D01*
X155181580Y-123662382D01*
X155191000Y-123758027D01*
X155191000Y-124621973D01*
X155181580Y-124717618D01*
X155154040Y-124808404D01*
X155144354Y-124840336D01*
X155083906Y-124953425D01*
X155002554Y-125052553D01*
X154903424Y-125133906D01*
X154790335Y-125194354D01*
X154758403Y-125204040D01*
X154667617Y-125231580D01*
X154540000Y-125244149D01*
X154412382Y-125231580D01*
X154321596Y-125204040D01*
X154289664Y-125194354D01*
X154176575Y-125133906D01*
X154077447Y-125052554D01*
X153996094Y-124953424D01*
X153935646Y-124840335D01*
X153925960Y-124808403D01*
X153898420Y-124717617D01*
X153889000Y-124621972D01*
X153889000Y-123758027D01*
X153898420Y-123662382D01*
X153935646Y-123539668D01*
X153935647Y-123539664D01*
X153996095Y-123426575D01*
X154077447Y-123327446D01*
X154176576Y-123246094D01*
X154289665Y-123185646D01*
X154331107Y-123173075D01*
X154412383Y-123148420D01*
X154540000Y-123135851D01*
X154667618Y-123148420D01*
X154667618Y-123148420D01*
G37*
G36*
X156667618Y-123148420D02*
G01*
X156748894Y-123173075D01*
X156790336Y-123185646D01*
X156903425Y-123246094D01*
X157002554Y-123327446D01*
X157083906Y-123426575D01*
X157144354Y-123539664D01*
X157144355Y-123539668D01*
X157181580Y-123662382D01*
X157191000Y-123758027D01*
X157191000Y-124621973D01*
X157181580Y-124717618D01*
X157154040Y-124808404D01*
X157144354Y-124840336D01*
X157083906Y-124953425D01*
X157002554Y-125052553D01*
X156903424Y-125133906D01*
X156790335Y-125194354D01*
X156758403Y-125204040D01*
X156667617Y-125231580D01*
X156540000Y-125244149D01*
X156412382Y-125231580D01*
X156321596Y-125204040D01*
X156289664Y-125194354D01*
X156176575Y-125133906D01*
X156077447Y-125052554D01*
X155996094Y-124953424D01*
X155935646Y-124840335D01*
X155925960Y-124808403D01*
X155898420Y-124717617D01*
X155889000Y-124621972D01*
X155889000Y-123758027D01*
X155898420Y-123662382D01*
X155935646Y-123539668D01*
X155935647Y-123539664D01*
X155996095Y-123426575D01*
X156077447Y-123327446D01*
X156176576Y-123246094D01*
X156289665Y-123185646D01*
X156331107Y-123173075D01*
X156412383Y-123148420D01*
X156540000Y-123135851D01*
X156667618Y-123148420D01*
X156667618Y-123148420D01*
G37*
G36*
X146511674Y-122958465D02*
G01*
X146549367Y-122969899D01*
X146584103Y-122988466D01*
X146614548Y-123013452D01*
X146639534Y-123043897D01*
X146658101Y-123078633D01*
X146669535Y-123116326D01*
X146674000Y-123161661D01*
X146674000Y-123998339D01*
X146669535Y-124043674D01*
X146658101Y-124081367D01*
X146639534Y-124116103D01*
X146614548Y-124146548D01*
X146584103Y-124171534D01*
X146549367Y-124190101D01*
X146511674Y-124201535D01*
X146466339Y-124206000D01*
X145379661Y-124206000D01*
X145334326Y-124201535D01*
X145296633Y-124190101D01*
X145261897Y-124171534D01*
X145231452Y-124146548D01*
X145206466Y-124116103D01*
X145187899Y-124081367D01*
X145176465Y-124043674D01*
X145172000Y-123998339D01*
X145172000Y-123161661D01*
X145176465Y-123116326D01*
X145187899Y-123078633D01*
X145206466Y-123043897D01*
X145231452Y-123013452D01*
X145261897Y-122988466D01*
X145296633Y-122969899D01*
X145334326Y-122958465D01*
X145379661Y-122954000D01*
X146466339Y-122954000D01*
X146511674Y-122958465D01*
X146511674Y-122958465D01*
G37*
G36*
X146511674Y-120908465D02*
G01*
X146549367Y-120919899D01*
X146584103Y-120938466D01*
X146614548Y-120963452D01*
X146639534Y-120993897D01*
X146658101Y-121028633D01*
X146669535Y-121066326D01*
X146674000Y-121111661D01*
X146674000Y-121948339D01*
X146669535Y-121993674D01*
X146658101Y-122031367D01*
X146639534Y-122066103D01*
X146614548Y-122096548D01*
X146584103Y-122121534D01*
X146549367Y-122140101D01*
X146511674Y-122151535D01*
X146466339Y-122156000D01*
X145379661Y-122156000D01*
X145334326Y-122151535D01*
X145296633Y-122140101D01*
X145261897Y-122121534D01*
X145231452Y-122096548D01*
X145206466Y-122066103D01*
X145187899Y-122031367D01*
X145176465Y-121993674D01*
X145172000Y-121948339D01*
X145172000Y-121111661D01*
X145176465Y-121066326D01*
X145187899Y-121028633D01*
X145206466Y-120993897D01*
X145231452Y-120963452D01*
X145261897Y-120938466D01*
X145296633Y-120919899D01*
X145334326Y-120908465D01*
X145379661Y-120904000D01*
X146466339Y-120904000D01*
X146511674Y-120908465D01*
X146511674Y-120908465D01*
G37*
G36*
X156667618Y-119848420D02*
G01*
X156758404Y-119875960D01*
X156790336Y-119885646D01*
X156903425Y-119946094D01*
X157002554Y-120027446D01*
X157083906Y-120126575D01*
X157144354Y-120239664D01*
X157144355Y-120239668D01*
X157181580Y-120362382D01*
X157191000Y-120458027D01*
X157191000Y-121321973D01*
X157181580Y-121417618D01*
X157154040Y-121508404D01*
X157144354Y-121540336D01*
X157083906Y-121653425D01*
X157002554Y-121752553D01*
X156903424Y-121833906D01*
X156790335Y-121894354D01*
X156758403Y-121904040D01*
X156667617Y-121931580D01*
X156540000Y-121944149D01*
X156412382Y-121931580D01*
X156321596Y-121904040D01*
X156289664Y-121894354D01*
X156176575Y-121833906D01*
X156077447Y-121752554D01*
X155996094Y-121653424D01*
X155935646Y-121540335D01*
X155925960Y-121508403D01*
X155898420Y-121417617D01*
X155889000Y-121321972D01*
X155889000Y-120458027D01*
X155898420Y-120362382D01*
X155935646Y-120239668D01*
X155935647Y-120239664D01*
X155996095Y-120126575D01*
X156077447Y-120027446D01*
X156176576Y-119946094D01*
X156289665Y-119885646D01*
X156321597Y-119875960D01*
X156412383Y-119848420D01*
X156540000Y-119835851D01*
X156667618Y-119848420D01*
X156667618Y-119848420D01*
G37*
G36*
X148667618Y-119848420D02*
G01*
X148758404Y-119875960D01*
X148790336Y-119885646D01*
X148903425Y-119946094D01*
X149002554Y-120027446D01*
X149083906Y-120126575D01*
X149144354Y-120239664D01*
X149144355Y-120239668D01*
X149181580Y-120362382D01*
X149191000Y-120458027D01*
X149191000Y-121321973D01*
X149181580Y-121417618D01*
X149154040Y-121508404D01*
X149144354Y-121540336D01*
X149083906Y-121653425D01*
X149002554Y-121752553D01*
X148903424Y-121833906D01*
X148790335Y-121894354D01*
X148758403Y-121904040D01*
X148667617Y-121931580D01*
X148540000Y-121944149D01*
X148412382Y-121931580D01*
X148321596Y-121904040D01*
X148289664Y-121894354D01*
X148176575Y-121833906D01*
X148077447Y-121752554D01*
X147996094Y-121653424D01*
X147935646Y-121540335D01*
X147925960Y-121508403D01*
X147898420Y-121417617D01*
X147889000Y-121321972D01*
X147889000Y-120458027D01*
X147898420Y-120362382D01*
X147935646Y-120239668D01*
X147935647Y-120239664D01*
X147996095Y-120126575D01*
X148077447Y-120027446D01*
X148176576Y-119946094D01*
X148289665Y-119885646D01*
X148321597Y-119875960D01*
X148412383Y-119848420D01*
X148540000Y-119835851D01*
X148667618Y-119848420D01*
X148667618Y-119848420D01*
G37*
G36*
X150667618Y-119848420D02*
G01*
X150758404Y-119875960D01*
X150790336Y-119885646D01*
X150903425Y-119946094D01*
X151002554Y-120027446D01*
X151083906Y-120126575D01*
X151144354Y-120239664D01*
X151144355Y-120239668D01*
X151181580Y-120362382D01*
X151191000Y-120458027D01*
X151191000Y-121321973D01*
X151181580Y-121417618D01*
X151154040Y-121508404D01*
X151144354Y-121540336D01*
X151083906Y-121653425D01*
X151002554Y-121752553D01*
X150903424Y-121833906D01*
X150790335Y-121894354D01*
X150758403Y-121904040D01*
X150667617Y-121931580D01*
X150540000Y-121944149D01*
X150412382Y-121931580D01*
X150321596Y-121904040D01*
X150289664Y-121894354D01*
X150176575Y-121833906D01*
X150077447Y-121752554D01*
X149996094Y-121653424D01*
X149935646Y-121540335D01*
X149925960Y-121508403D01*
X149898420Y-121417617D01*
X149889000Y-121321972D01*
X149889000Y-120458027D01*
X149898420Y-120362382D01*
X149935646Y-120239668D01*
X149935647Y-120239664D01*
X149996095Y-120126575D01*
X150077447Y-120027446D01*
X150176576Y-119946094D01*
X150289665Y-119885646D01*
X150321597Y-119875960D01*
X150412383Y-119848420D01*
X150540000Y-119835851D01*
X150667618Y-119848420D01*
X150667618Y-119848420D01*
G37*
G36*
X154667618Y-119848420D02*
G01*
X154758404Y-119875960D01*
X154790336Y-119885646D01*
X154903425Y-119946094D01*
X155002554Y-120027446D01*
X155083906Y-120126575D01*
X155144354Y-120239664D01*
X155144355Y-120239668D01*
X155181580Y-120362382D01*
X155191000Y-120458027D01*
X155191000Y-121321973D01*
X155181580Y-121417618D01*
X155154040Y-121508404D01*
X155144354Y-121540336D01*
X155083906Y-121653425D01*
X155002554Y-121752553D01*
X154903424Y-121833906D01*
X154790335Y-121894354D01*
X154758403Y-121904040D01*
X154667617Y-121931580D01*
X154540000Y-121944149D01*
X154412382Y-121931580D01*
X154321596Y-121904040D01*
X154289664Y-121894354D01*
X154176575Y-121833906D01*
X154077447Y-121752554D01*
X153996094Y-121653424D01*
X153935646Y-121540335D01*
X153925960Y-121508403D01*
X153898420Y-121417617D01*
X153889000Y-121321972D01*
X153889000Y-120458027D01*
X153898420Y-120362382D01*
X153935646Y-120239668D01*
X153935647Y-120239664D01*
X153996095Y-120126575D01*
X154077447Y-120027446D01*
X154176576Y-119946094D01*
X154289665Y-119885646D01*
X154321597Y-119875960D01*
X154412383Y-119848420D01*
X154540000Y-119835851D01*
X154667618Y-119848420D01*
X154667618Y-119848420D01*
G37*
G36*
X184061632Y-112309677D02*
G01*
X184367005Y-112436167D01*
X184798868Y-112615050D01*
X185462362Y-113058383D01*
X186026617Y-113622638D01*
X186469950Y-114286132D01*
X186648833Y-114717995D01*
X186775323Y-115023368D01*
X186931000Y-115806010D01*
X186931000Y-116603990D01*
X186775323Y-117386632D01*
X186648833Y-117692005D01*
X186469950Y-118123868D01*
X186026617Y-118787362D01*
X185462362Y-119351617D01*
X184798868Y-119794950D01*
X184433973Y-119946094D01*
X184061632Y-120100323D01*
X183278990Y-120256000D01*
X182481010Y-120256000D01*
X181698368Y-120100323D01*
X181326027Y-119946094D01*
X180961132Y-119794950D01*
X180297638Y-119351617D01*
X179733383Y-118787362D01*
X179290050Y-118123868D01*
X179111167Y-117692005D01*
X178984677Y-117386632D01*
X178829000Y-116603990D01*
X178829000Y-115806010D01*
X178984677Y-115023368D01*
X179111167Y-114717995D01*
X179290050Y-114286132D01*
X179733383Y-113622638D01*
X180297638Y-113058383D01*
X180961132Y-112615050D01*
X181392995Y-112436167D01*
X181698368Y-112309677D01*
X182481010Y-112154000D01*
X183278990Y-112154000D01*
X184061632Y-112309677D01*
X184061632Y-112309677D01*
G37*
G36*
X135838254Y-103987818D02*
G01*
X136122286Y-104105468D01*
X136211513Y-104142427D01*
X136547436Y-104366884D01*
X136833116Y-104652564D01*
X137048196Y-104974453D01*
X137057574Y-104988489D01*
X137212182Y-105361746D01*
X137291000Y-105757993D01*
X137291000Y-106162007D01*
X137212182Y-106558254D01*
X137057574Y-106931511D01*
X137057573Y-106931513D01*
X136833116Y-107267436D01*
X136547436Y-107553116D01*
X136211513Y-107777573D01*
X136211512Y-107777574D01*
X136211511Y-107777574D01*
X135838254Y-107932182D01*
X135442007Y-108011000D01*
X135037993Y-108011000D01*
X134641746Y-107932182D01*
X134268489Y-107777574D01*
X134268488Y-107777574D01*
X134268487Y-107777573D01*
X133932564Y-107553116D01*
X133646884Y-107267436D01*
X133422427Y-106931513D01*
X133422426Y-106931511D01*
X133267818Y-106558254D01*
X133189000Y-106162007D01*
X133189000Y-105757993D01*
X133267818Y-105361746D01*
X133422426Y-104988489D01*
X133431805Y-104974453D01*
X133646884Y-104652564D01*
X133932564Y-104366884D01*
X134268487Y-104142427D01*
X134357714Y-104105468D01*
X134641746Y-103987818D01*
X135037993Y-103909000D01*
X135442007Y-103909000D01*
X135838254Y-103987818D01*
X135838254Y-103987818D01*
G37*
G36*
X142517395Y-103145546D02*
G01*
X142690466Y-103217234D01*
X142690467Y-103217235D01*
X142846227Y-103321310D01*
X142978690Y-103453773D01*
X142978691Y-103453775D01*
X143082766Y-103609534D01*
X143154454Y-103782605D01*
X143191000Y-103966333D01*
X143191000Y-104153667D01*
X143154454Y-104337395D01*
X143082766Y-104510466D01*
X143031081Y-104587818D01*
X142978690Y-104666227D01*
X142846227Y-104798690D01*
X142767818Y-104851081D01*
X142690466Y-104902766D01*
X142517395Y-104974454D01*
X142333667Y-105011000D01*
X142146333Y-105011000D01*
X141962605Y-104974454D01*
X141789534Y-104902766D01*
X141712182Y-104851081D01*
X141633773Y-104798690D01*
X141501310Y-104666227D01*
X141448919Y-104587818D01*
X141397234Y-104510466D01*
X141325546Y-104337395D01*
X141289000Y-104153667D01*
X141289000Y-103966333D01*
X141325546Y-103782605D01*
X141397234Y-103609534D01*
X141501309Y-103453775D01*
X141501310Y-103453773D01*
X141633773Y-103321310D01*
X141789533Y-103217235D01*
X141789534Y-103217234D01*
X141962605Y-103145546D01*
X142146333Y-103109000D01*
X142333667Y-103109000D01*
X142517395Y-103145546D01*
X142517395Y-103145546D01*
G37*
G36*
X196960443Y-102864519D02*
G01*
X197026627Y-102871037D01*
X197196466Y-102922557D01*
X197352991Y-103006222D01*
X197388729Y-103035552D01*
X197490186Y-103118814D01*
X197570956Y-103217234D01*
X197602778Y-103256009D01*
X197686443Y-103412534D01*
X197737963Y-103582373D01*
X197755359Y-103759000D01*
X197737963Y-103935627D01*
X197686443Y-104105466D01*
X197602778Y-104261991D01*
X197573448Y-104297729D01*
X197490186Y-104399186D01*
X197388729Y-104482448D01*
X197352991Y-104511778D01*
X197196466Y-104595443D01*
X197026627Y-104646963D01*
X196969758Y-104652564D01*
X196894260Y-104660000D01*
X196805740Y-104660000D01*
X196730242Y-104652564D01*
X196673373Y-104646963D01*
X196503534Y-104595443D01*
X196347009Y-104511778D01*
X196311271Y-104482448D01*
X196209814Y-104399186D01*
X196126552Y-104297729D01*
X196097222Y-104261991D01*
X196013557Y-104105466D01*
X195962037Y-103935627D01*
X195944641Y-103759000D01*
X195962037Y-103582373D01*
X196013557Y-103412534D01*
X196097222Y-103256009D01*
X196129044Y-103217234D01*
X196209814Y-103118814D01*
X196311271Y-103035552D01*
X196347009Y-103006222D01*
X196503534Y-102922557D01*
X196673373Y-102871037D01*
X196739558Y-102864518D01*
X196805740Y-102858000D01*
X196894260Y-102858000D01*
X196960443Y-102864519D01*
X196960443Y-102864519D01*
G37*
G36*
X142517395Y-100645546D02*
G01*
X142690466Y-100717234D01*
X142690467Y-100717235D01*
X142846227Y-100821310D01*
X142978690Y-100953773D01*
X142978691Y-100953775D01*
X143082766Y-101109534D01*
X143154454Y-101282605D01*
X143191000Y-101466333D01*
X143191000Y-101653667D01*
X143154454Y-101837395D01*
X143082766Y-102010466D01*
X143082765Y-102010467D01*
X142978690Y-102166227D01*
X142846227Y-102298690D01*
X142767818Y-102351081D01*
X142690466Y-102402766D01*
X142517395Y-102474454D01*
X142333667Y-102511000D01*
X142146333Y-102511000D01*
X141962605Y-102474454D01*
X141789534Y-102402766D01*
X141712182Y-102351081D01*
X141633773Y-102298690D01*
X141501310Y-102166227D01*
X141397235Y-102010467D01*
X141397234Y-102010466D01*
X141325546Y-101837395D01*
X141289000Y-101653667D01*
X141289000Y-101466333D01*
X141325546Y-101282605D01*
X141397234Y-101109534D01*
X141501309Y-100953775D01*
X141501310Y-100953773D01*
X141633773Y-100821310D01*
X141789533Y-100717235D01*
X141789534Y-100717234D01*
X141962605Y-100645546D01*
X142146333Y-100609000D01*
X142333667Y-100609000D01*
X142517395Y-100645546D01*
X142517395Y-100645546D01*
G37*
G36*
X197751000Y-102120000D02*
G01*
X195949000Y-102120000D01*
X195949000Y-100318000D01*
X197751000Y-100318000D01*
X197751000Y-102120000D01*
X197751000Y-102120000D01*
G37*
G36*
X142517395Y-98145546D02*
G01*
X142690466Y-98217234D01*
X142690467Y-98217235D01*
X142846227Y-98321310D01*
X142978690Y-98453773D01*
X142978691Y-98453775D01*
X143082766Y-98609534D01*
X143154454Y-98782605D01*
X143191000Y-98966333D01*
X143191000Y-99153667D01*
X143154454Y-99337395D01*
X143082766Y-99510466D01*
X143082765Y-99510467D01*
X142978690Y-99666227D01*
X142846227Y-99798690D01*
X142767818Y-99851081D01*
X142690466Y-99902766D01*
X142517395Y-99974454D01*
X142333667Y-100011000D01*
X142146333Y-100011000D01*
X141962605Y-99974454D01*
X141789534Y-99902766D01*
X141712182Y-99851081D01*
X141633773Y-99798690D01*
X141501310Y-99666227D01*
X141397235Y-99510467D01*
X141397234Y-99510466D01*
X141325546Y-99337395D01*
X141289000Y-99153667D01*
X141289000Y-98966333D01*
X141325546Y-98782605D01*
X141397234Y-98609534D01*
X141501309Y-98453775D01*
X141501310Y-98453773D01*
X141633773Y-98321310D01*
X141789533Y-98217235D01*
X141789534Y-98217234D01*
X141962605Y-98145546D01*
X142146333Y-98109000D01*
X142333667Y-98109000D01*
X142517395Y-98145546D01*
X142517395Y-98145546D01*
G37*
G36*
X135838254Y-95187818D02*
G01*
X136211511Y-95342426D01*
X136211513Y-95342427D01*
X136547436Y-95566884D01*
X136833116Y-95852564D01*
X137057574Y-96188489D01*
X137212182Y-96561746D01*
X137291000Y-96957993D01*
X137291000Y-97362007D01*
X137212182Y-97758254D01*
X137066898Y-98109000D01*
X137057573Y-98131513D01*
X136833116Y-98467436D01*
X136547436Y-98753116D01*
X136211513Y-98977573D01*
X136211512Y-98977574D01*
X136211511Y-98977574D01*
X135838254Y-99132182D01*
X135442007Y-99211000D01*
X135037993Y-99211000D01*
X134641746Y-99132182D01*
X134268489Y-98977574D01*
X134268488Y-98977574D01*
X134268487Y-98977573D01*
X133932564Y-98753116D01*
X133646884Y-98467436D01*
X133422427Y-98131513D01*
X133413102Y-98109000D01*
X133267818Y-97758254D01*
X133189000Y-97362007D01*
X133189000Y-96957993D01*
X133267818Y-96561746D01*
X133422426Y-96188489D01*
X133646884Y-95852564D01*
X133932564Y-95566884D01*
X134268487Y-95342427D01*
X134268489Y-95342426D01*
X134641746Y-95187818D01*
X135037993Y-95109000D01*
X135442007Y-95109000D01*
X135838254Y-95187818D01*
X135838254Y-95187818D01*
G37*
G36*
X184021632Y-85004677D02*
G01*
X184327005Y-85131167D01*
X184758868Y-85310050D01*
X185422362Y-85753383D01*
X185986617Y-86317638D01*
X186429950Y-86981132D01*
X186608833Y-87412995D01*
X186735323Y-87718368D01*
X186891000Y-88501010D01*
X186891000Y-89298990D01*
X186735323Y-90081632D01*
X186608833Y-90387005D01*
X186429950Y-90818868D01*
X185986617Y-91482362D01*
X185422362Y-92046617D01*
X184758868Y-92489950D01*
X184327005Y-92668833D01*
X184021632Y-92795323D01*
X183238990Y-92951000D01*
X182441010Y-92951000D01*
X181658368Y-92795323D01*
X181352995Y-92668833D01*
X180921132Y-92489950D01*
X180257638Y-92046617D01*
X179693383Y-91482362D01*
X179250050Y-90818868D01*
X179071167Y-90387005D01*
X178944677Y-90081632D01*
X178789000Y-89298990D01*
X178789000Y-88501010D01*
X178944677Y-87718368D01*
X179071167Y-87412995D01*
X179250050Y-86981132D01*
X179693383Y-86317638D01*
X180257638Y-85753383D01*
X180921132Y-85310050D01*
X181352995Y-85131167D01*
X181658368Y-85004677D01*
X182441010Y-84849000D01*
X183238990Y-84849000D01*
X184021632Y-85004677D01*
X184021632Y-85004677D01*
G37*
G36*
X107182564Y-78685099D02*
G01*
X107424126Y-78733149D01*
X108106765Y-79015907D01*
X108721123Y-79426408D01*
X109243592Y-79948877D01*
X109654093Y-80563235D01*
X109936851Y-81245874D01*
X109947865Y-81301244D01*
X110069743Y-81913963D01*
X110081000Y-81970559D01*
X110081000Y-82709441D01*
X109936851Y-83434126D01*
X109654093Y-84116765D01*
X109243592Y-84731123D01*
X108721123Y-85253592D01*
X108106765Y-85664093D01*
X107424126Y-85946851D01*
X107182564Y-85994901D01*
X106699443Y-86091000D01*
X105960557Y-86091000D01*
X105477436Y-85994901D01*
X105235874Y-85946851D01*
X104553235Y-85664093D01*
X103938877Y-85253592D01*
X103416408Y-84731123D01*
X103005907Y-84116765D01*
X102723149Y-83434126D01*
X102579000Y-82709441D01*
X102579000Y-81970559D01*
X102590258Y-81913963D01*
X102712135Y-81301244D01*
X102723149Y-81245874D01*
X103005907Y-80563235D01*
X103416408Y-79948877D01*
X103938877Y-79426408D01*
X104553235Y-79015907D01*
X105235874Y-78733149D01*
X105477436Y-78685099D01*
X105960557Y-78589000D01*
X106699443Y-78589000D01*
X107182564Y-78685099D01*
X107182564Y-78685099D01*
G37*
G36*
X197682564Y-78685099D02*
G01*
X197924126Y-78733149D01*
X198606765Y-79015907D01*
X199221123Y-79426408D01*
X199743592Y-79948877D01*
X200154093Y-80563235D01*
X200436851Y-81245874D01*
X200447865Y-81301244D01*
X200569743Y-81913963D01*
X200581000Y-81970559D01*
X200581000Y-82709441D01*
X200436851Y-83434126D01*
X200154093Y-84116765D01*
X199743592Y-84731123D01*
X199221123Y-85253592D01*
X198606765Y-85664093D01*
X197924126Y-85946851D01*
X197682564Y-85994901D01*
X197199443Y-86091000D01*
X196460557Y-86091000D01*
X195977436Y-85994901D01*
X195735874Y-85946851D01*
X195053235Y-85664093D01*
X194438877Y-85253592D01*
X193916408Y-84731123D01*
X193505907Y-84116765D01*
X193223149Y-83434126D01*
X193079000Y-82709441D01*
X193079000Y-81970559D01*
X193090258Y-81913963D01*
X193212135Y-81301244D01*
X193223149Y-81245874D01*
X193505907Y-80563235D01*
X193916408Y-79948877D01*
X194438877Y-79426408D01*
X195053235Y-79015907D01*
X195735874Y-78733149D01*
X195977436Y-78685099D01*
X196460557Y-78589000D01*
X197199443Y-78589000D01*
X197682564Y-78685099D01*
X197682564Y-78685099D01*
G37*
G36*
X157025547Y-79888326D02*
G01*
X157199156Y-79940990D01*
X157199158Y-79940991D01*
X157359155Y-80026511D01*
X157499397Y-80141603D01*
X157578729Y-80238271D01*
X157614489Y-80281844D01*
X157700010Y-80441843D01*
X157752674Y-80615452D01*
X157766000Y-80750756D01*
X157766000Y-81301243D01*
X157752674Y-81436548D01*
X157700010Y-81610157D01*
X157614489Y-81770156D01*
X157607412Y-81778779D01*
X157499397Y-81910397D01*
X157426088Y-81970559D01*
X157359156Y-82025489D01*
X157199157Y-82111010D01*
X157025548Y-82163674D01*
X156845000Y-82181456D01*
X156664453Y-82163674D01*
X156490844Y-82111010D01*
X156330845Y-82025489D01*
X156263913Y-81970559D01*
X156190604Y-81910397D01*
X156075513Y-81770157D01*
X156075512Y-81770155D01*
X155989990Y-81610157D01*
X155937326Y-81436548D01*
X155924000Y-81301244D01*
X155924000Y-80750757D01*
X155937326Y-80615453D01*
X155989990Y-80441844D01*
X156075511Y-80281845D01*
X156082588Y-80273222D01*
X156190603Y-80141603D01*
X156316388Y-80038375D01*
X156330844Y-80026511D01*
X156490843Y-79940990D01*
X156664452Y-79888326D01*
X156845000Y-79870544D01*
X157025547Y-79888326D01*
X157025547Y-79888326D01*
G37*
G36*
X155084561Y-79878966D02*
G01*
X155117383Y-79888923D01*
X155147632Y-79905092D01*
X155174148Y-79926852D01*
X155195908Y-79953368D01*
X155212077Y-79983617D01*
X155222034Y-80016439D01*
X155226000Y-80056713D01*
X155226000Y-81995287D01*
X155222034Y-82035561D01*
X155212077Y-82068383D01*
X155195908Y-82098632D01*
X155174148Y-82125148D01*
X155147632Y-82146908D01*
X155117383Y-82163077D01*
X155084561Y-82173034D01*
X155044287Y-82177000D01*
X153565713Y-82177000D01*
X153525439Y-82173034D01*
X153492617Y-82163077D01*
X153462368Y-82146908D01*
X153435852Y-82125148D01*
X153414092Y-82098632D01*
X153397923Y-82068383D01*
X153387966Y-82035561D01*
X153384000Y-81995287D01*
X153384000Y-80056713D01*
X153387966Y-80016439D01*
X153397923Y-79983617D01*
X153414092Y-79953368D01*
X153435852Y-79926852D01*
X153462368Y-79905092D01*
X153492617Y-79888923D01*
X153525439Y-79878966D01*
X153565713Y-79875000D01*
X155044287Y-79875000D01*
X155084561Y-79878966D01*
X155084561Y-79878966D01*
G37*
G36*
X166001000Y-81927000D02*
G01*
X164199000Y-81927000D01*
X164199000Y-80125000D01*
X166001000Y-80125000D01*
X166001000Y-81927000D01*
X166001000Y-81927000D01*
G37*
G36*
X162670443Y-80131519D02*
G01*
X162736627Y-80138037D01*
X162906466Y-80189557D01*
X163062991Y-80273222D01*
X163073498Y-80281845D01*
X163200186Y-80385814D01*
X163283448Y-80487271D01*
X163312778Y-80523009D01*
X163396443Y-80679534D01*
X163447963Y-80849373D01*
X163465359Y-81026000D01*
X163447963Y-81202627D01*
X163396443Y-81372466D01*
X163312778Y-81528991D01*
X163283448Y-81564729D01*
X163200186Y-81666186D01*
X163098729Y-81749448D01*
X163062991Y-81778778D01*
X162906466Y-81862443D01*
X162736627Y-81913963D01*
X162670442Y-81920482D01*
X162604260Y-81927000D01*
X162515740Y-81927000D01*
X162449558Y-81920482D01*
X162383373Y-81913963D01*
X162213534Y-81862443D01*
X162057009Y-81778778D01*
X162021271Y-81749448D01*
X161919814Y-81666186D01*
X161836552Y-81564729D01*
X161807222Y-81528991D01*
X161723557Y-81372466D01*
X161672037Y-81202627D01*
X161654641Y-81026000D01*
X161672037Y-80849373D01*
X161723557Y-80679534D01*
X161807222Y-80523009D01*
X161836552Y-80487271D01*
X161919814Y-80385814D01*
X162046502Y-80281845D01*
X162057009Y-80273222D01*
X162213534Y-80189557D01*
X162383373Y-80138037D01*
X162449557Y-80131519D01*
X162515740Y-80125000D01*
X162604260Y-80125000D01*
X162670443Y-80131519D01*
X162670443Y-80131519D01*
G37*
M02*
